<svg xmlns="http://www.w3.org/2000/svg" width="60" height="40" viewBox="0 0 60 40">
    <g fill="none" fill-rule="evenodd">
        <g fill="#FFF" fill-rule="nonzero">
            <g>
                <path d="M29.942 0C13.404 0 0 8.954 0 20s13.404 20 29.942 20c16.535 0 29.941-8.954 29.941-20S46.477 0 29.942 0zM44.97 7.831c.882.652.88 1.952-.005 2.603-1.206.885-3.331 1.937-6.271 2.703-.057-.204-.116-.408-.179-.608-1.324-4.3-3.777-7.472-6.706-8.431 6.607.314 11.159 2.251 13.161 3.733zM24.794 18.276c1.653.188 3.38.288 5.148.288 1.767 0 3.493-.1 5.146-.288.036.517.055 1.05.055 1.595 0 7.013-3.131 11.666-5.201 11.666-2.072 0-5.203-4.653-5.203-11.666 0-.546.02-1.078.055-1.595zm9.526-4.329c-1.355.16-2.817.25-4.378.25-.514 0-1.016-.01-1.507-.03h-.012c-1-.038-1.954-.114-2.861-.22 1.07-3.588 2.97-5.743 4.38-5.743 1.408 0 3.308 2.155 4.378 5.743zm-19.404-6.13c1.546-1.135 4.604-2.545 8.95-3.274l.225-.037c1.229-.197 2.558-.34 3.983-.408-3.067 1.003-5.61 4.431-6.885 9.038-2.945-.768-5.073-1.825-6.277-2.717-.882-.653-.88-1.953.004-2.602zM31.755 36.16c-.101.006-.203.01-.304.014h-.003c-.5.02-1.002.03-1.506.03-13.827 0-25.507-7.42-25.507-16.205 0-3.392 1.74-6.578 4.673-9.213 1.042 2.91 5.402 5.42 11.297 6.753-.068.761-.101 1.54-.101 2.331 0 8.878 4.314 16.076 9.638 16.076 5.322 0 9.636-7.198 9.636-16.076 0-.791-.033-1.57-.1-2.331 5.893-1.334 10.254-3.842 11.296-6.753 2.932 2.635 4.673 5.821 4.673 9.213 0 8.398-10.674 15.548-23.692 16.161zm6.76-23.632c.055.205.114.408.179.608-.057-.204-.116-.408-.178-.608z" transform="translate(-858 -3565) translate(858 3565)"/>
            </g>
        </g>
    </g>
</svg>
