<svg xmlns="http://www.w3.org/2000/svg" width="40" height="40" viewBox="0 0 40 40">
    <g fill="none" fill-rule="evenodd">
        <g fill-rule="nonzero">
            <g>
                <path fill="#FFF" d="M20 39.094C9.472 39.094.908 30.528.908 19.999.908 9.469 9.472.903 20 .903 30.527.903 39.092 9.47 39.092 20S30.527 39.094 20 39.094z" transform="translate(-1115 -3567) translate(1115 3567)"/>
                <g fill="#7EB441">
                    <path d="M11.633.846c-.048-.106.01-.232.122-.263C13.125.203 14.568 0 16.06 0c1.489 0 2.93.203 4.299.582.112.031.17.156.122.263l-4.247 9.413c-.067.15-.28.15-.348 0L11.633.846z" transform="translate(-1115 -3567) translate(1115 3567) translate(3.941 3.941)"/>
                    <path d="M24.864 2.627c1.584 1.04 2.972 2.353 4.1 3.871.04.056.048.13.02.194l-7.2 15.932c-.065.144-.268.151-.343.012l-2.62-4.896c-.034-.062-.098-.1-.169-.1h-5.186c-.07 0-.135.038-.168.1l-2.62 4.895c-.075.14-.278.133-.343-.011L3.145 6.677c-.028-.064-.02-.138.021-.194 1.125-1.512 2.51-2.82 4.088-3.856.097-.064.229-.026.278.08L13.3 14.948c.032.067.1.11.173.11h5.19c.075 0 .142-.043.174-.11l5.749-12.243c.05-.105.18-.143.278-.08zM.77 12.406c-.075-.166-.32-.144-.36.034C.141 13.603 0 14.815 0 16.06c0 6.095 3.396 11.397 8.399 14.118.16.087.34-.081.265-.248L.77 12.406z" transform="translate(-1115 -3567) translate(1115 3567) translate(3.941 3.941)"/>
                    <path d="M11.616 31.496c1.411.405 2.902.622 4.443.622 1.54 0 3.028-.217 4.438-.62l-4.438-9.855-4.443 9.853zM23.455 29.929c-.075.166.105.335.265.247 5.003-2.72 8.398-8.022 8.398-14.117 0-1.231-.138-2.43-.4-3.582-.041-.178-.286-.201-.361-.035l-7.902 17.487z" transform="translate(-1115 -3567) translate(1115 3567) translate(3.941 3.941)"/>
                </g>
            </g>
        </g>
    </g>
</svg>
