<svg xmlns="http://www.w3.org/2000/svg" width="100" height="40" viewBox="0 0 100 40">
    <g fill="none" fill-rule="evenodd">
        <g fill="#FFF" fill-rule="nonzero">
            <g>
                <g>
                    <path d="M24.137 0H15.34c-.429 0-.776.348-.776.777v22.6s-.194 2.593-2.528 2.593-2.5-2.593-2.5-2.593v-5.185c0-.429-.349-.777-.778-.777H.777c-.43 0-.777.348-.777.777v6.55s.5 9.043 12.277 9.043c12.227 0 12.597-11.135 12.597-11.135l.04-21.872c0-.43-.348-.778-.777-.778zM39.076 13.476c1.88 0 3.29 1.451 3.56 3.312.051.347-.227.656-.578.656h-6.85c-.114 0-.204-.096-.194-.209.067-.818.555-3.76 4.062-3.76zm10.818 8.768c.328 0 .588-.27.583-.597-.157-9.002-3.9-13.99-12.1-13.99-6.75 0-11.172 6.41-11.172 13.384 0 8.055 5.12 12.624 11.871 12.624 4.628 0 8.838-2.155 10.656-6.772.152-.385-.126-.803-.54-.803H42.75c-.178 0-.346.082-.456.222-.737.942-2.027 1.461-3.217 1.461-2.356 0-3.726-2.34-4.112-4.867-.053-.35.225-.662.578-.662h14.352zM63.717 13.476c1.88 0 3.29 1.451 3.56 3.312.051.347-.227.656-.578.656h-6.85c-.114 0-.204-.096-.195-.209.068-.818.556-3.76 4.063-3.76zm10.818 8.768c.328 0 .588-.27.583-.597-.157-9.002-3.9-13.99-12.1-13.99-6.75 0-11.172 6.41-11.172 13.384 0 8.055 5.12 12.624 11.871 12.624 4.627 0 8.838-2.155 10.656-6.772.152-.385-.126-.803-.54-.803H67.39c-.178 0-.346.082-.456.222-.737.942-2.027 1.461-3.217 1.461-2.356 0-3.727-2.34-4.112-4.867-.053-.35.225-.662.578-.662h14.352zM90.27 7.658c-4.979 0-6.5 3.246-6.5 3.246V8.841c0-.322-.26-.583-.582-.583H76.29c-.322 0-.583.26-.583.583v30.576c0 .322.261.583.583.583h7.138c.322 0 .583-.26.583-.583V29.66c1.848 3.496 6.139 3.246 6.139 3.246s9.267-.148 9.267-12.504-7.45-12.744-9.147-12.744zM87.44 25.874c-2.826 0-3.8-2.46-3.8-5.494 0-3.036 1.126-5.496 3.8-5.496 2.675 0 3.8 2.46 3.8 5.496 0 3.034-.973 5.494-3.8 5.494z" transform="translate(-699 -3565) translate(699 3565)"/>
                </g>
            </g>
        </g>
    </g>
</svg>
