<svg xmlns="http://www.w3.org/2000/svg" width="48" height="40" viewBox="0 0 48 40">
    <g fill="none" fill-rule="evenodd">
        <g fill="#FFF" fill-rule="nonzero">
            <g>
                <path d="M29.955 0H17.234C7.715 0 0 7.702 0 17.205v5.59C0 32.298 7.715 40 17.234 40h12.721c9.518 0 17.234-7.702 17.234-17.205v-5.59C47.189 7.702 39.473 0 29.955 0zm12.214 24.901c0 6.725-5.46 12.176-12.196 12.176H17.216C10.48 37.077 5.02 31.626 5.02 24.9V15.1c0-6.725 5.46-12.176 12.196-12.176h12.757c6.736 0 12.196 5.451 12.196 12.176V24.9z" transform="translate(-276 -3565) translate(276 3565)"/>
                <path d="M43.287 11.993c-.044 1.502-.38 3.05-1.357 4.04-.392.396-.938.732-1.6 1.03-2.846 1.283-7.828 1.884-11.89 3.868-2.286 1.124-3.83 4.82-4.487 6.7-.119.34-.598.34-.717 0-.657-1.88-2.2-5.576-4.488-6.7-5.004-2.445-11.41-2.79-13.489-4.899-.978-.988-1.313-2.537-1.357-4.039-.046-1.54.204-3.04.376-3.87.06-.288.41-.401.627-.203.897.812 3.12 2.584 7.13 4.38 5.106 2.301 10.22 5.053 11.381 9.718.047.186.31.186.357 0 1.162-4.664 6.275-7.417 11.381-9.718 1.894-.848 3.388-1.69 4.533-2.43 1.282-.826 2.125-1.523 2.598-1.951.218-.198.566-.084.626.203.172.83.422 2.33.376 3.871z" transform="translate(-276 -3565) translate(276 3565)"/>
                <path d="M43.287 11.993c-.844.535-1.757 1.038-2.715 1.511-2.702 1.337-5.765 2.43-8.66 3.285-5.528 1.633-7.589 5.671-8.147 7.055-.062.154-.28.154-.341 0-.558-1.384-2.62-5.422-8.147-7.055-3.92-1.158-8.15-2.753-11.375-4.796-.046-1.54.204-3.04.376-3.87.06-.288.41-.401.627-.203.897.812 3.12 2.584 7.13 4.38 5.105 2.301 10.219 5.053 11.381 9.718.047.186.31.186.357 0 1.162-4.664 6.275-7.417 11.381-9.718 1.894-.848 3.388-1.69 4.533-2.43 1.282-.826 2.125-1.523 2.598-1.951.218-.198.566-.084.626.203.172.83.422 2.33.376 3.871z" transform="translate(-276 -3565) translate(276 3565)"/>
            </g>
        </g>
    </g>
</svg>
