<svg xmlns="http://www.w3.org/2000/svg" width="77" height="40" viewBox="0 0 77 40">
    <g fill="none" fill-rule="evenodd">
        <g fill="#FFF" fill-rule="nonzero">
            <g>
                <g>
                    <path d="M38.21 0C17.105 0 0 8.954 0 20c0 11.045 17.106 20 38.21 20 21.102 0 38.208-8.955 38.208-20 0-11.046-17.106-20-38.209-20zm.16 35.423c-19.13 0-34.638-6.861-34.638-15.325 0-8.463 15.507-15.325 34.638-15.325s34.639 6.862 34.639 15.325S57.5 35.423 38.369 35.423z" transform="translate(-978 -3565) translate(978 3565)"/>
                    <path d="M50.375 12.967c0-.222-.378-.407-.378-.407l-.36.002c-.085 0-.154-.068-.155-.153l-.005-1.9c0-.085.069-.154.154-.154l6.93-.006c.208 0 .406.045.475.27 0 0 6.03 18.556 6.03 18.59 0 .197-.147.354-.332.354l.008.003-4.343.003c-.208 0-.432-.183-.5-.408l-3.72-11.928c-.025-.103-.085-.19-.19-.19-.106 0-.166.078-.19.19l-3.718 11.928c-.07.225-.294.408-.502.408l-4.33-.004c-.185 0-.337-.16-.337-.356 0-.034 5.463-16.186 5.463-16.242zM36.018 12.878v-.001c0-.223-.179-.397-.389-.397h-.575c-.043 0-.077-.036-.077-.082V10.43c0-.042.034-.08.077-.08H40.8c.208 0 .38.18.38.404v18.41c0 .223-.172.403-.38.403h-4.404c-.21 0-.38-.18-.38-.403l.002-16.285zM32.29 29.565l-5.07-.002c-.21 0-.505-.181-.658-.405 0 0-5.153-7.431-5.212-7.483-.036-.026-.093-.043-.142-.043-.13 0-.208.104-.208.245v.09l.002 7.196c0 .223-.17.403-.379.403h-4.27c-.21 0-.38-.18-.38-.403l.004-16.232v-.002c0-.223-.167-.402-.376-.402h.01l-.598.004c-.041 0-.076-.037-.076-.08v-2.022c0-.045.035-.082.076-.082l5.61.002c.21 0 .38.18.38.404v6.022-.009.098c0 .14.078.246.208.246.05 0 .106-.018.145-.044.056-.05.848-1.18.848-1.18l3.496-5.13c.154-.224.449-.404.66-.404h4.854c.183 0 .326.159.326.355 0 .073-.016.141-.05.199l-5.37 8.214c-.058.083-.089.153-.089.25s.023.152.083.235l6.425 9.368c.058.066.08.139.08.236 0 .197-.146.356-.33.356z" transform="translate(-978 -3565) translate(978 3565)"/>
                </g>
            </g>
        </g>
    </g>
</svg>
