<svg xmlns="http://www.w3.org/2000/svg" width="46" height="40" viewBox="0 0 46 40">
    <g fill="none" fill-rule="evenodd">
        <g fill="#FFF" fill-rule="nonzero">
            <g>
                <path d="M36.944 3.272l-2.709 33.452H29.32s-.062-3.24-1.565-5.691c-.246-.409-.563-.738-.95-.957-1.09-.638-2.858-.842-4.15-.842-1.293 0-3.06.204-4.15.842-.387.22-.704.548-.95.957-1.504 2.452-1.566 5.691-1.566 5.691h-4.915L8.366 3.272h3.588c1.582 9.18 2.805 14.035 4.933 18.022.457.857 1.222 1.455 2.092 1.615 1.187.21 2.332.242 3.676.242 1.344 0 2.488-.033 3.675-.242.87-.16 1.636-.758 2.093-1.615 2.128-3.987 3.35-8.842 4.933-18.022h3.588z" transform="translate(-489 -3565) translate(489 3565)"/>
                <path d="M33.553 0h-21.62C.023 0-.141 3.73.03 8.267l.914 24.32C1.1 36.705 4.216 40 7.908 40h29.493c3.692 0 6.81-3.295 6.965-7.413l.914-24.32C45.45 3.729 45.286 0 33.553 0zm8.212 8.109l-.914 24.32c-.076 2.052-1.625 3.722-3.45 3.722H7.908c-1.825 0-3.373-1.67-3.45-3.722l-.914-24.32c-.046-1.23.324-2.36 1.042-3.179.433-.492 1.18-1.08 2.288-1.08h31.562c1.107 0 1.855.588 2.287 1.08.718.82 1.089 1.948 1.042 3.179z" transform="translate(-489 -3565) translate(489 3565)"/>
            </g>
        </g>
    </g>
</svg>
