<svg xmlns="http://www.w3.org/2000/svg" width="21" height="30" viewBox="0 0 21 30">
    <g fill="none" fill-rule="evenodd">
        <g fill="#FFF" fill-rule="nonzero">
            <g>
                <path d="M17.95 3.058C15.997 1.118 13.392.033 10.616.001 7.854-.03 5.23.992 3.228 2.88 1.224 4.771.079 7.306.004 10.017c-.087 3.14 1.26 6.107 3.697 8.141.88.733 1.383 1.822 1.383 2.987v6.822c0 1.12.929 2.033 2.07 2.033h6.675c1.141 0 2.07-.912 2.07-2.033v-6.824c0-1.153.524-2.259 1.44-3.034 2.315-1.96 3.643-4.806 3.643-7.805 0-2.731-1.077-5.304-3.032-7.246zm-3.863 20.453v1.466H6.895v-1.466h7.192zm0 4.456c0 .14-.116.254-.258.254H7.154c-.143 0-.26-.114-.26-.254v-1.212h7.193v1.212zm2.07-11.205c-1.315 1.113-2.07 2.71-2.07 4.381v.59h-2.69V14.26h.005c1.159 0 3.145-.211 4.457-1.499 1.907-1.873 1.494-5.148 1.476-5.286-.054-.4-.374-.714-.78-.766-.141-.018-3.475-.424-5.382 1.45-.272.266-.496.561-.682.872-.185-.31-.41-.606-.68-.873-1.908-1.873-5.242-1.467-5.383-1.45-.407.053-.727.368-.78.767-.019.138-.431 3.413 1.476 5.286 1.311 1.288 3.298 1.499 4.457 1.499h.005v7.471h-2.69v-.587c0-1.688-.738-3.27-2.022-4.342-2.016-1.683-3.132-4.139-3.06-6.737.128-4.624 4.068-8.343 8.781-8.287 4.73.055 8.576 3.879 8.576 8.525 0 2.482-1.099 4.835-3.015 6.458zm-3.704-7.345c.843-.828 2.257-.974 3.12-.978-.003.85-.152 2.237-.995 3.065-.843.828-2.254.975-3.119.978.006-.85.156-2.242.994-3.065zM9.525 12.48c-.866-.005-2.283-.153-3.12-.976-.843-.827-.993-2.214-.996-3.063.866.005 2.283.153 3.12.976.843.828.992 2.214.996 3.063z" transform="translate(-711 -1500) translate(711 1500)"/>
            </g>
        </g>
    </g>
</svg>
