<svg xmlns="http://www.w3.org/2000/svg" width="35" height="30" viewBox="0 0 35 30">
    <g fill="none" fill-rule="evenodd">
        <g fill="#FFF" fill-rule="nonzero">
            <g>
                <path d="M14.327 25.016c.125.048.254.072.382.072.335 0 .66-.16.86-.447l7.103-10.14c.224-.32.252-.739.07-1.086-.18-.347-.538-.565-.93-.565h-1.563l.922-6.779c.066-.48-.206-.942-.657-1.118-.451-.177-.964-.022-1.242.375l-7.103 10.138c-.224.321-.252.74-.071 1.087.18.347.54.565.93.565h1.564l-.922 6.779c-.066.48.206.942.657 1.119zm4.181-14.94l-.5 3.682c-.042.3.05.603.248.832.2.228.488.359.791.359h.749l-3.463 4.943.5-3.682c.042-.3-.05-.603-.249-.832-.199-.228-.487-.359-.79-.359h-.749l3.463-4.943z" transform="translate(-1076 -1500) translate(1076 1500)"/>
                <path d="M6.733 14.49c.41-.41.41-1.074 0-1.484-.41-.41-1.075-.41-1.484 0l-.606.606C5.33 7.17 10.798 2.132 17.42 2.132c4.743 0 9.085 2.6 11.33 6.782.275.511.911.703 1.422.428.51-.274.702-.91.428-1.42C27.988 3.055 22.938.033 17.42.033c-3.993 0-7.747 1.555-10.57 4.379-2.528 2.527-4.038 5.801-4.327 9.325l-.731-.732c-.41-.41-1.075-.41-1.485 0-.41.41-.41 1.075 0 1.485l2.471 2.47c.205.205.473.308.742.308s.537-.103.742-.308l2.47-2.47zM34.533 14.242l-2.47-2.47c-.41-.41-1.074-.41-1.484 0l-2.47 2.47c-.41.41-.41 1.074 0 1.484.409.41 1.073.41 1.483 0l.679-.679c-.035 7.057-5.786 12.788-12.85 12.788-5.021 0-9.613-2.953-11.698-7.522-.24-.527-.863-.76-1.39-.519-.528.24-.76.863-.52 1.39 1.175 2.573 3.048 4.755 5.42 6.31 2.434 1.596 5.265 2.44 8.187 2.44 3.994 0 7.748-1.556 10.571-4.379 2.81-2.809 4.362-6.54 4.378-10.509l.68.68c.205.205.474.307.743.307.268 0 .537-.102.742-.307.41-.41.41-1.075 0-1.484z" transform="translate(-1076 -1500) translate(1076 1500)"/>
            </g>
        </g>
    </g>
</svg>
