<svg xmlns="http://www.w3.org/2000/svg" width="30" height="30" viewBox="0 0 30 30">
    <g fill="none" fill-rule="evenodd">
        <g fill="#FFF" fill-rule="nonzero">
            <g>
                <path d="M20.277 9.663c-1.346-1.346-3.247-2.217-5.307-2.217-2.06 0-3.96.831-5.307 2.217-1.346 1.347-2.217 3.248-2.217 5.307 0 2.06.87 3.96 2.217 5.307 1.347 1.347 3.248 2.218 5.307 2.218 2.06 0 3.96-.832 5.307-2.218 1.347-1.346 2.218-3.247 2.218-5.307 0-2.06-.832-3.96-2.218-5.307zm-1.426 9.188c-.99.99-2.376 1.585-3.88 1.585-1.506 0-2.892-.594-3.882-1.585-.99-.99-1.584-2.376-1.584-3.88 0-1.506.594-2.892 1.584-3.882.99-.99 2.376-1.584 3.881-1.584s2.891.594 3.881 1.584c.99.99 1.585 2.376 1.585 3.881s-.594 2.891-1.585 3.881zM28.91 13.94h-3.049c-.554 0-1.03.476-1.03 1.03 0 .555.476 1.03 1.03 1.03h3.05c.554 0 1.03-.475 1.03-1.03 0-.554-.476-1.03-1.03-1.03zM14.97 24.832c-.554 0-1.03.475-1.03 1.03v3.049c0 .554.476 1.03 1.03 1.03.555 0 1.03-.476 1.03-1.03v-3.05c0-.554-.475-1.03-1.03-1.03zM25.545 24.119l-2.179-2.178c-.356-.396-1.03-.396-1.425 0-.396.396-.396 1.03 0 1.425l2.178 2.179c.396.396 1.03.396 1.426 0 .396-.396.396-1.03 0-1.426zM14.97 0c-.554 0-1.03.475-1.03 1.03v3.05c0 .554.476 1.029 1.03 1.029.555 0 1.03-.475 1.03-1.03V1.03C16 .476 15.525 0 14.97 0zM25.584 4.396c-.396-.396-1.03-.396-1.426 0L21.98 6.574c-.396.396-.396 1.03 0 1.426.357.396 1.03.396 1.426 0l2.178-2.178c.396-.396.396-1.03 0-1.426zM4.08 13.94H1.03c-.555 0-1.03.476-1.03 1.03C0 15.525.436 16 1.03 16h3.05c.554 0 1.029-.475 1.029-1.03 0-.554-.475-1.03-1.03-1.03zM7.96 21.94c-.356-.395-1.03-.395-1.425 0L4.356 24.12c-.396.396-.396 1.03 0 1.426.396.396 1.03.396 1.426 0l2.178-2.179c.396-.396.396-1.03 0-1.425zM7.96 6.574L5.782 4.396C5.386 4 4.752 4 4.356 4.396c-.396.396-.396 1.03 0 1.426L6.535 8c.396.396 1.03.396 1.425 0 .396-.396.396-1.03 0-1.426z" transform="translate(-334 -1500) translate(334 1500)"/>
            </g>
        </g>
    </g>
</svg>
