<svg xmlns="http://www.w3.org/2000/svg" width="52" height="50" viewBox="0 0 52 50">
    <g fill="none" fill-rule="evenodd">
        <g fill="#FFF" fill-rule="nonzero">
            <g>
                <path d="M48.054 22.313c-.557 0-1.009.451-1.009 1.008 0 .556.452 1.008 1.009 1.008.85 0 1.543.692 1.543 1.543s-.692 1.543-1.543 1.543h-1.912c-.172-3.155-1.15-6.2-2.852-8.864-1.696-2.652-4.036-4.816-6.797-6.298.065-.482.1-.97.1-1.462 0-5.948-4.839-10.787-10.787-10.787-5.947 0-10.786 4.839-10.786 10.787 0 .232.01.462.024.692l-.054.022-4.465-2.59c-.574-.332-1.26-.333-1.835-.002-.576.331-.919.925-.919 1.59v6.46c-1.32 1.647-2.331 3.48-3.016 5.462H2.797C1.255 22.425 0 23.68 0 25.223v6.401c0 1.543 1.255 2.797 2.797 2.797h1.959c1.243 3.592 3.593 6.733 6.702 8.95v4.486c0 1.18.96 2.139 2.14 2.139h3.756c.805 0 1.534-.445 1.903-1.16l1.104-2.148c.579.055 1.16.082 1.737.082h5.725c.576 0 1.158-.027 1.736-.082l1.105 2.147c.368.716 1.097 1.161 1.903 1.161h3.756c1.18 0 2.14-.96 2.14-2.14v-4.485c4.562-3.25 7.373-8.372 7.678-13.94h1.913c1.962 0 3.559-1.596 3.559-3.559s-1.597-3.56-3.56-3.56zM25.806 2.02c4.836 0 8.77 3.935 8.77 8.77 0 1.548-.399 3.038-1.16 4.36-1.461-.8-3.024-1.352-4.624-1.656.228-.423.358-.9.358-1.406 0-1.725-1.5-3.128-3.344-3.128-.732 0-1.327-.499-1.327-1.112 0-.613.595-1.111 1.327-1.111s1.328.498 1.328 1.111c0 .557.451 1.008 1.008 1.008.557 0 1.008-.451 1.008-1.008 0-1.396-.983-2.58-2.335-2.982v-.14c0-.557-.452-1.008-1.009-1.008-.556 0-1.008.451-1.008 1.008v.14c-1.352.401-2.335 1.586-2.335 2.982 0 1.725 1.5 3.128 3.343 3.128.732 0 1.328.499 1.328 1.112 0 .613-.596 1.111-1.328 1.111-.732 0-1.327-.498-1.327-1.111 0-.557-.451-1.008-1.008-1.008-.557 0-1.008.45-1.008 1.008 0 .507.13.986.36 1.41-1.6.306-3.16.86-4.621 1.663-.764-1.325-1.166-2.818-1.166-4.37 0-4.836 3.935-8.77 8.77-8.77zm11.087 39.984c-.28.187-.447.502-.447.838v5.014c0 .068-.055.124-.123.124h-3.756c-.047 0-.089-.026-.11-.067l-1.423-2.766c-.195-.38-.608-.595-1.03-.538-.723.096-1.457.145-2.181.145h-5.725c-.725 0-1.459-.049-2.182-.145-.423-.057-.834.159-1.03.538l-1.422 2.766c-.021.041-.063.067-.11.067h-3.756c-.068 0-.124-.056-.124-.124v-5.014c0-.336-.167-.65-.447-.838-3.153-2.11-5.487-5.264-6.572-8.88-.128-.427-.52-.719-.966-.719H2.797c-.43 0-.78-.35-.78-.781V29.43h1.41c.557 0 1.008-.451 1.008-1.008 0-.556-.45-1.008-1.008-1.008h-1.41v-2.192c0-.431.35-.782.78-.782H5.49c.446 0 .838-.292.966-.718.634-2.115 1.677-4.051 3.098-5.754.151-.182.234-.41.234-.646v-6.505l4.633 2.687c.283.164.626.18.923.046l.03-.014c.249.947.626 1.855 1.126 2.706-.652.476-1.277 1.008-1.865 1.597-.394.394-.394 1.032 0 1.426.393.393 1.032.393 1.425 0 5.382-5.382 14.139-5.382 19.52 0 .197.197.455.295.713.295.258 0 .516-.098.713-.295.394-.394.394-1.032 0-1.426-.594-.594-1.225-1.13-1.884-1.61.362-.618.66-1.266.89-1.938 4.983 2.9 8.142 8.32 8.142 14.131 0 5.462-2.714 10.539-7.26 13.581z" transform="translate(-996 -2712) translate(996 2712)"/>
                <path d="M12.467 21.367c-.266 0-.525.107-.713.295-.188.188-.295.448-.295.713 0 .265.107.525.295.713.188.187.447.295.713.295.265 0 .525-.108.712-.295.188-.188.296-.448.296-.713 0-.265-.108-.525-.296-.713-.188-.188-.447-.295-.712-.295z" transform="translate(-996 -2712) translate(996 2712)"/>
            </g>
        </g>
    </g>
</svg>
