<svg xmlns="http://www.w3.org/2000/svg" width="38" height="40" viewBox="0 0 38 40">
    <g fill="none" fill-rule="evenodd">
        <g fill="#FFF" fill-rule="nonzero">
            <g>
                <path d="M1.806 39.4c.04.3.301.522.607.514h7.858c.191.008.374-.076.491-.227.117-.15.152-.347.094-.528L9.85 35.901l3.132-1.957c.402-.219.873-.278 1.318-.167l.038.01 6.54 1.191c1.804.32 3.663.06 5.307-.74.026-.013.05-.028.075-.044l11.312-7.685c.266-.181.344-.536.177-.81-.889-1.466-2.785-1.979-4.304-1.165l-.106.056c-.823-.92-2.191-1.264-3.24-.737l-.014.007-.382.204c-1.15-.918-2.752-1.043-4.033-.314l-2.422 1.304h-3.23c-.688-.001-1.367-.155-1.987-.451l-.448-.215c-2.646-1.274-5.792-.97-8.139.786-.013.01-.026.02-.039.032l-1.083.954c-.365.32-.791.566-1.254.72l-.58-1.898c-.076-.258-.312-.439-.584-.446H.667c-.178.006-.344.087-.458.221-.116.13-.17.303-.15.475L1.807 39.4zm28.852-14.47c.496-.246 1.11-.08 1.55.265l-4.132 2.206-.128.067c-.12-.3-.277-.584-.469-.844l3.18-1.695zm-4.396-.122l.014-.008c.675-.386 1.5-.417 2.202-.082l-1.912 1.019c-.327-.226-.688-.4-1.07-.517l.766-.412zM9.136 27.063l1.064-.937c1.98-1.47 4.626-1.722 6.852-.65l.449.216c.785.375 1.645.57 2.517.571h4.35c1.201.002 2.249.808 2.545 1.96l-2.993-.135c-1.154-.052-2.31.001-3.454.158-.33.05-.558.353-.512.68.045.328.348.558.68.518 1.07-.147 2.151-.196 3.23-.148l3.712.166h.027c.338 0 .611-.27.611-.604 0-.054-.002-.108-.004-.16l.44-.23 5.376-2.87c.753-.403 1.681-.29 2.312.282l-10.733 7.292c-1.398.671-2.976.887-4.506.617l-6.52-1.188c-.748-.182-1.536-.076-2.207.297-.01.005-.02.01-.028.016L9.48 34.706l-2.055-6.668c.632-.206 1.214-.538 1.71-.975zm-3.683-1.318l3.993 12.96H2.954l-1.597-12.96h4.096z" transform="translate(-113 -306) translate(113 306)"/>
                <path d="M5.93 38.507c.916 0 1.659-.735 1.659-1.641 0-.907-.743-1.642-1.659-1.642s-1.659.735-1.659 1.642c.001.906.743 1.64 1.66 1.641zm0-2.073c.241 0 .437.193.437.432 0 .238-.196.432-.437.432s-.436-.194-.436-.432c0-.239.195-.432.436-.432zM9.284 12.081l1.658.159c.188.675.464 1.324.82 1.93l-1.052 1.258c-.202.24-.185.593.038.814l1.989 1.968c.223.22.579.237.822.038l1.275-1.045c.611.352 1.266.625 1.947.814l.16 1.647c.03.311.293.55.609.552h2.82c.315-.003.578-.241.608-.552l.16-1.644c.683-.187 1.338-.46 1.95-.813l1.272 1.041c.243.2.6.183.822-.038l1.989-1.968c.223-.22.24-.573.038-.814l-1.056-1.261c.355-.606.632-1.253.823-1.928l1.634-.157c.313-.03.552-.291.552-.602V8.69c0-.312-.24-.572-.553-.602l-1.658-.158c-.188-.676-.464-1.325-.82-1.93l1.053-1.26c.2-.238.184-.589-.036-.81l-1.964-1.968c-.222-.222-.58-.24-.824-.04l-1.275 1.045c-.611-.352-1.266-.626-1.947-.814l-.16-1.624c-.031-.307-.297-.538-.609-.529h-2.82c-.31-.008-.576.222-.608.529l-.16 1.632c-.682.184-1.338.456-1.95.807l-1.272-1.044c-.243-.2-.599-.184-.822.037l-1.989 1.967c-.223.22-.24.573-.038.813l1.056 1.262c-.356.605-.632 1.252-.823 1.926l-1.659.158c-.314.03-.553.29-.553.603v2.79c0 .311.24.572.553.601zm.67-2.842l1.536-.147c.265-.025.483-.217.539-.474.188-.834.526-1.626.999-2.34.145-.222.127-.511-.043-.714l-.98-1.17 1.203-1.19 1.182.97c.208.17.505.185.73.037.717-.47 1.516-.803 2.357-.984.258-.047.453-.257.48-.515l.148-1.503h1.71l.148 1.503c.026.26.22.473.479.524.842.184 1.644.518 2.366.984.225.143.517.125.721-.044l1.18-.968 1.182 1.184-.983 1.172c-.172.205-.187.499-.037.72.474.71.811 1.502.993 2.334.056.257.274.449.539.474l1.537.147v1.692l-1.513.146c-.264.026-.482.217-.538.474-.187.834-.526 1.627-.999 2.341-.144.222-.127.51.043.714l.98 1.17-1.202 1.189-1.183-.97c-.208-.17-.504-.185-.729-.037-.717.47-1.517.803-2.358.984-.26.058-.454.275-.479.538l-.148 1.526h-1.71l-.148-1.526c-.025-.262-.219-.479-.48-.535-.841-.186-1.643-.522-2.365-.99-.224-.143-.516-.126-.721.042l-1.183.968-1.201-1.19.98-1.17c.171-.206.187-.499.037-.721-.475-.71-.812-1.501-.994-2.333-.056-.257-.274-.45-.538-.474l-1.537-.147V9.239z" transform="translate(-113 -306) translate(113 306)"/>
                <path d="M18.96 16.121c2.467 0 4.692-1.47 5.636-3.727.944-2.255.422-4.852-1.323-6.578-1.744-1.727-4.369-2.243-6.648-1.309-2.28.934-3.767 3.136-3.767 5.577.004 3.333 2.734 6.033 6.101 6.037zm0-10.864c2.694 0 4.878 2.161 4.878 4.827s-2.184 4.828-4.879 4.828c-2.694 0-4.878-2.162-4.878-4.828.003-2.664 2.185-4.824 4.878-4.827z" transform="translate(-113 -306) translate(113 306)"/>
                <path d="M17.869 11.93c.237.23.616.23.854 0l2.925-2.826c.159-.15.223-.373.17-.584-.054-.21-.218-.376-.43-.434-.21-.059-.438 0-.593.153l-2.5 2.413L17.1 9.496c-.156-.153-.383-.211-.594-.153-.211.058-.375.224-.429.435-.054.21.011.433.17.583l1.623 1.57z" transform="translate(-113 -306) translate(113 306)"/>
            </g>
        </g>
    </g>
</svg>
