<svg xmlns="http://www.w3.org/2000/svg" width="38" height="40" viewBox="0 0 38 40">
    <g fill="none" fill-rule="evenodd">
        <g fill="#FFF" fill-rule="nonzero">
            <g>
                <path d="M3.338 38.407c.628.013 1.202-.36 1.452-.942.25-.583.125-1.26-.315-1.714-.44-.454-1.108-.594-1.69-.354-.581.24-.962.812-.962 1.447-.008.854.67 1.553 1.515 1.563zm0-2.004c.18-.013.349.085.427.25.078.163.05.359-.073.492-.122.133-.313.177-.48.11-.168-.066-.278-.229-.278-.41-.009-.235.172-.432.404-.442zM24.962 19.8h-8.78c-.306 0-.555.25-.555.56 0 .31.249.562.555.562h8.78c.307 0 .556-.251.556-.561 0-.31-.25-.561-.556-.561zM21.176 22.605h-4.994c-.306 0-.555.251-.555.561 0 .31.249.561.555.561h4.995c.306 0 .555-.25.555-.56 0-.31-.249-.562-.555-.562z" transform="translate(-228 -223) translate(228 223)"/>
                <path d="M31.44 18.211c-.301.001-.602.024-.9.068V7.524c-.003-.15-.065-.292-.172-.396L23.528.232c-.106-.102-.25-.156-.397-.152H12.978c-.599-.005-1.174.231-1.6.656-.426.425-.667 1.004-.67 1.608v10.872l-7.657 6.175c-.017.014-.017.03-.033.046-.57.589-.884 1.382-.876 2.205v11.865h-.793c-.744 0-1.349.64-1.349 1.391v3.763c.001.359.145.702.398.954.253.251.595.39.95.385h12.168c.352.004.69-.136.939-.389.248-.252.385-.595.379-.95v-3.763c0-.751-.574-1.391-1.318-1.391h-.348v-.775c1.507-.266 2.618-1.553 2.618-3.097v-2.621h10.01c1.262 2.833 4.394 4.297 7.348 3.435 2.953-.863 4.83-3.79 4.401-6.866-.428-3.076-3.03-5.366-6.104-5.372zM23.718 1.972l4.908 5.002H24.84c-.636 0-1.122-.534-1.122-1.176V1.972zM13.485 34.63c.132 0 .238.108.238.24v3.768c0 .133-.106.24-.238.24H1.35c-.132 0-.238-.107-.238-.24V34.87c0-.133.106-.24.238-.24h12.136zm1.19-4.994c0 1.117-.928 2.025-2.033 2.025-.312-.002-.57.246-.585.561v1.286H3.252V21.642c-.007-.518.184-1.018.535-1.396l6.922-5.594v4.537L5.89 23.046c-.24.193-.279.546-.088.788.19.242.538.283.779.092l5.758-4.607.103.104c.532.538.532 1.41 0 1.949L9.73 24.114c-.096.098-.154.227-.162.365l-.034.598v.032c.002.464.106.921.305 1.339.427.932.344 2.02-.219 2.875-.063.092-.098.2-.1.312v1.293c0 .31.249.561.555.561.307 0 .556-.25.556-.56v-1.131c.706-1.158.784-2.598.207-3.827-.126-.264-.193-.553-.198-.846l.023-.368.051-.033c.008 1.26 1.017 2.28 2.265 2.29h1.697v2.621zm10.748-3.743H12.978c-.637 0-1.159-.557-1.159-1.2v-1.107l1.407-1.419c.965-.977.966-2.559.001-3.536l-.452-.457c-.2-.202-.518-.22-.74-.043l-.216.17V2.345c.003-.307.126-.6.344-.815.217-.214.51-.332.815-.327h9.63v4.596c0 1.261.984 2.298 2.232 2.298h4.59v10.458c-2.485.88-4.151 3.248-4.16 5.909 0 .48.05.96.153 1.429zm6.008 3.666c-2.046 0-3.891-1.246-4.674-3.156-.783-1.91-.35-4.11 1.097-5.571 1.446-1.462 3.622-1.9 5.513-1.109 1.89.792 3.123 2.656 3.123 4.724-.004 2.822-2.267 5.108-5.06 5.112z" transform="translate(-228 -223) translate(228 223)"/>
                <path d="M27.213 13.39c0-.88-.575-1.616-1.341-1.793L24.75 9.513c-.406-.737-1.008-1.577-2.059-1.577h-5.705c-.847 0-1.587.56-2.084 1.586l-1.158 2.07c-.77.17-1.334.898-1.334 1.799 0 .023.001.046.004.07l.359 2.977c.018.465.294.879.712 1.071v.718c0 .489.422.851.905.851h.975c.483 0 .897-.362.897-.85v-.593H23.4v.592c-.003.23.088.45.25.61.162.161.381.248.608.241h.974c.228.007.448-.08.612-.24.163-.16.254-.38.253-.61V17.5c.417-.19.693-.6.716-1.061l.392-2.977c.004-.025.006-.05.007-.074zm-11.336-3.344c.006-.01.011-.011.016-.022.174-.364.55-.966 1.093-.966h5.705c.374 0 .7.289 1.087.99l.81 1.495h-.343c-.228-.822-.97-1.39-1.815-1.39-.844 0-1.586.568-1.815 1.39h-5.578l.84-1.497zm7.135 1.497h-1.163c.146-.17.358-.267.581-.267.223 0 .435.097.582.267zm-7.86 6.413h-.556v-.32h.555v.32zm9.835 0h-.475v-.32h.475v.32zm.728-1.634c-.003.03-.005.059-.005.088 0 .051-.037.095-.087.103h-11.64c-.049-.008-.086-.05-.086-.102 0-.025-.001-.051-.004-.077l-.372-2.975c.012-.32.21-.661.527-.69.013.001.026-.004.038-.004h11.426c.003 0 .004.007.007.007.35 0 .57.35.584.682l-.388 2.968z" transform="translate(-228 -223) translate(228 223)"/>
                <path d="M21.74 14.59h-3.855c-.307 0-.556.25-.556.56 0 .31.249.561.556.561h3.855c.306 0 .555-.25.555-.56 0-.31-.249-.562-.555-.562zM15.22 13.421c-.772 0-1.398.632-1.398 1.412 0 .78.626 1.411 1.397 1.411.772 0 1.397-.632 1.397-1.411 0-.78-.626-1.411-1.397-1.412zm0 1.701c-.159 0-.287-.13-.287-.29 0-.16.128-.289.286-.289.158 0 .286.13.286.29 0 .16-.128.289-.286.29zM24.405 13.421c-.772 0-1.397.632-1.397 1.412 0 .78.625 1.411 1.397 1.411.771 0 1.397-.632 1.397-1.411-.001-.78-.626-1.411-1.397-1.412zm0 1.701c-.158 0-.287-.13-.287-.29 0-.16.129-.289.287-.289.158 0 .286.13.286.29 0 .16-.128.289-.286.29zM31.43 22.208c.45 0 .814.368.815.822 0 .31.248.561.555.561.146 0 .287-.06.39-.165.102-.105.159-.248.156-.396-.004-.86-.563-1.615-1.378-1.862v-.282c0-.31-.249-.56-.555-.56-.307 0-.555.25-.555.56v.282c-.912.283-1.482 1.198-1.34 2.151.143.953.954 1.658 1.908 1.656.45-.003.817.362.82.816.004.454-.358.825-.807.829h-.018c-.445-.006-.804-.372-.805-.822 0-.31-.248-.561-.555-.561-.308 0-.56.25-.564.56-.003.857.55 1.614 1.36 1.863v.344c0 .31.25.562.556.562.306 0 .555-.252.555-.562v-.344c.916-.274 1.495-1.185 1.359-2.14-.136-.956-.946-1.666-1.9-1.667-.447-.006-.806-.374-.805-.825.001-.451.362-.817.809-.82z" transform="translate(-228 -223) translate(228 223)"/>
            </g>
        </g>
    </g>
</svg>
