<svg xmlns="http://www.w3.org/2000/svg" width="210" height="852" viewBox="0 0 210 852">
    <g fill="none" fill-rule="evenodd">
        <g fill="#62619A" fill-rule="nonzero">
            <g>
                <g>
                    <path d="M103.81 89.798c-.422-.068-.849-.1-1.276-.094H29.87l1.584-.734c1.55-.73 2.958-1.725 4.164-2.937l20.377-20.3c2.684-2.552 3.135-6.658 1.069-9.728-2.405-3.272-7.016-3.982-10.3-1.586-.265.193-.518.404-.755.632L9.161 91.759c-2.88 2.866-2.882 7.514-.005 10.383l.005.006 36.848 36.709c2.882 2.863 7.549 2.857 10.423-.015.226-.226.437-.466.632-.72 2.066-3.07 1.615-7.175-1.069-9.727l-20.34-20.337c-1.081-1.078-2.324-1.982-3.685-2.68l-2.21-.99h72.369c3.765.139 7.068-2.481 7.775-6.168.651-4.002-2.077-7.773-6.095-8.422z" opacity=".5" transform="translate(0 -804) translate(-143 804) matrix(-1 0 0 1 353 479)"/>
                    <path d="M114.017 11.708c-.135-.021-.272-.031-.409-.03h-23.28l.507-.233c.496-.233.948-.549 1.334-.935l6.529-6.459c.86-.812 1.004-2.118.342-3.095-.77-1.04-2.248-1.267-3.3-.505-.085.062-.166.13-.242.201l-11.806 11.68c-.922.912-.923 2.391-.001 3.304l.001.002 11.806 11.68c.924.911 2.418.909 3.34-.004.072-.072.14-.149.202-.23.662-.976.517-2.283-.342-3.095l-6.517-6.47c-.347-.344-.745-.631-1.18-.853l-.71-.316h23.187c1.206.045 2.265-.789 2.491-1.962.209-1.273-.665-2.473-1.952-2.68z" opacity=".3" transform="translate(0 -804) translate(-143 804) matrix(-1 0 0 1 353 479)"/>
                    <path d="M179.733 166.926c-.291-.048-.585-.07-.88-.067h-50.088l1.092-.517c1.068-.514 2.039-1.215 2.87-2.069l14.046-14.302c1.85-1.798 2.161-4.69.737-6.854-1.657-2.305-4.836-2.805-7.1-1.117-.183.136-.357.285-.52.445l-25.4 25.863c-1.985 2.019-1.987 5.294-.004 7.315l.004.004 25.4 25.863c1.987 2.017 5.203 2.013 7.184-.01.156-.16.302-.329.436-.507 1.424-2.163 1.113-5.056-.737-6.854l-14.02-14.328c-.746-.76-1.603-1.397-2.54-1.888l-1.524-.698h49.885c2.595.098 4.872-1.748 5.36-4.345.449-2.82-1.432-5.477-4.201-5.934z" opacity=".7" transform="translate(0 -804) translate(-143 804) matrix(-1 0 0 1 353 479)"/>
                    <path d="M155.836 50.963c-.147-.024-.296-.035-.445-.033h-25.398l.554-.259c.542-.257 1.034-.607 1.456-1.034l7.122-7.152c.938-.899 1.095-2.345.373-3.426-.84-1.153-2.452-1.403-3.6-.56-.093.069-.18.143-.264.223l-12.879 12.932c-1.006 1.01-1.007 2.647-.002 3.657l.002.003 12.88 12.931c1.007 1.009 2.638 1.006 3.642-.005.08-.08.153-.164.221-.254.722-1.081.565-2.527-.373-3.426l-7.11-7.165c-.378-.38-.812-.698-1.288-.944l-.772-.349h25.294c1.316.05 2.47-.874 2.717-2.172.228-1.41-.726-2.738-2.13-2.967z" transform="translate(0 -804) translate(-143 804) matrix(-1 0 0 1 353 479)"/>
                    <path d="M33.836 156.963c-.147-.024-.296-.035-.445-.033H7.993l.554-.259c.542-.257 1.034-.607 1.456-1.034l7.122-7.152c.938-.899 1.095-2.345.373-3.426-.84-1.153-2.452-1.403-3.6-.56-.093.069-.18.143-.264.223L.755 157.654c-1.006 1.01-1.007 2.647-.002 3.657l.002.003 12.88 12.931c1.007 1.009 2.638 1.006 3.642-.005.08-.08.153-.164.221-.254.722-1.081.565-2.527-.373-3.426l-7.11-7.165c-.378-.38-.812-.698-1.288-.944l-.772-.349h25.294c1.316.05 2.47-.874 2.717-2.172.228-1.41-.726-2.738-2.13-2.967z" opacity=".2" transform="translate(0 -804) translate(-143 804) matrix(-1 0 0 1 353 479)"/>
                    <path d="M81.557 197.781c-.098-.016-.197-.023-.297-.022H64.33l.37-.175c.36-.175.688-.412.97-.701l4.747-4.844c.626-.61.73-1.59.25-2.322-.56-.78-1.635-.95-2.4-.378-.062.046-.121.096-.176.15l-8.586 8.76c-.671.684-.672 1.794-.002 2.478l.002.002 8.586 8.76c.671.683 1.758.681 2.428-.004.053-.054.102-.111.147-.172.482-.732.377-1.712-.249-2.321l-4.74-4.853c-.251-.257-.54-.473-.858-.64l-.515-.236h16.863c.877.033 1.647-.592 1.812-1.472.151-.955-.484-1.855-1.42-2.01zM207.836 139.963c-.147-.024-.296-.035-.445-.033h-25.398l.554-.259c.542-.257 1.034-.607 1.456-1.034l7.122-7.152c.938-.899 1.095-2.345.373-3.426-.84-1.153-2.452-1.403-3.6-.56-.093.069-.18.143-.264.223l-12.879 12.932c-1.006 1.01-1.007 2.647-.002 3.657l.002.003 12.88 12.931c1.007 1.009 2.638 1.006 3.642-.005.08-.08.153-.164.221-.254.722-1.081.565-2.527-.373-3.426l-7.11-7.165c-.378-.38-.812-.698-1.288-.944l-.772-.349h25.294c1.316.05 2.47-.874 2.717-2.172.228-1.41-.726-2.738-2.13-2.967z" transform="translate(0 -804) translate(-143 804) matrix(-1 0 0 1 353 479)"/>
                </g>
                <g>
                    <path d="M103.81 89.798c-.422-.068-.849-.1-1.276-.094H29.87l1.584-.734c1.55-.73 2.958-1.725 4.164-2.937l20.377-20.3c2.684-2.552 3.135-6.658 1.069-9.728-2.405-3.272-7.016-3.982-10.3-1.586-.265.193-.518.404-.755.632L9.161 91.759c-2.88 2.866-2.882 7.514-.005 10.383l.005.006 36.848 36.709c2.882 2.863 7.549 2.857 10.423-.015.226-.226.437-.466.632-.72 2.066-3.07 1.615-7.175-1.069-9.727l-20.34-20.337c-1.081-1.078-2.324-1.982-3.685-2.68l-2.21-.99h72.369c3.765.139 7.068-2.481 7.775-6.168.651-4.002-2.077-7.773-6.095-8.422z" opacity=".5" transform="translate(0 -804) translate(-143 804) matrix(-1 0 0 1 210 643)"/>
                    <path d="M33.836 156.963c-.147-.024-.296-.035-.445-.033H7.993l.554-.259c.542-.257 1.034-.607 1.456-1.034l7.122-7.152c.938-.899 1.095-2.345.373-3.426-.84-1.153-2.452-1.403-3.6-.56-.093.069-.18.143-.264.223L.755 157.654c-1.006 1.01-1.007 2.647-.002 3.657l.002.003 12.88 12.931c1.007 1.009 2.638 1.006 3.642-.005.08-.08.153-.164.221-.254.722-1.081.565-2.527-.373-3.426l-7.11-7.165c-.378-.38-.812-.698-1.288-.944l-.772-.349h25.294c1.316.05 2.47-.874 2.717-2.172.228-1.41-.726-2.738-2.13-2.967z" opacity=".2" transform="translate(0 -804) translate(-143 804) matrix(-1 0 0 1 210 643)"/>
                    <path d="M81.557 197.781c-.098-.016-.197-.023-.297-.022H64.33l.37-.175c.36-.175.688-.412.97-.701l4.747-4.844c.626-.61.73-1.59.25-2.322-.56-.78-1.635-.95-2.4-.378-.062.046-.121.096-.176.15l-8.586 8.76c-.671.684-.672 1.794-.002 2.478l.002.002 8.586 8.76c.671.683 1.758.681 2.428-.004.053-.054.102-.111.147-.172.482-.732.377-1.712-.249-2.321l-4.74-4.853c-.251-.257-.54-.473-.858-.64l-.515-.236h16.863c.877.033 1.647-.592 1.812-1.472.151-.955-.484-1.855-1.42-2.01z" transform="translate(0 -804) translate(-143 804) matrix(-1 0 0 1 210 643)"/>
                </g>
                <g>
                    <path d="M103.81 89.798c-.422-.068-.849-.1-1.276-.094H29.87l1.584-.734c1.55-.73 2.958-1.725 4.164-2.937l20.377-20.3c2.684-2.552 3.135-6.658 1.069-9.728-2.405-3.272-7.016-3.982-10.3-1.586-.265.193-.518.404-.755.632L9.161 91.759c-2.88 2.866-2.882 7.514-.005 10.383l.005.006 36.848 36.709c2.882 2.863 7.549 2.857 10.423-.015.226-.226.437-.466.632-.72 2.066-3.07 1.615-7.175-1.069-9.727l-20.34-20.337c-1.081-1.078-2.324-1.982-3.685-2.68l-2.21-.99h72.369c3.765.139 7.068-2.481 7.775-6.168.651-4.002-2.077-7.773-6.095-8.422z" opacity=".5" transform="translate(0 -804) translate(-143 804) matrix(-1 0 0 1 248 245)"/>
                    <path d="M114.017 11.708c-.135-.021-.272-.031-.409-.03h-23.28l.507-.233c.496-.233.948-.549 1.334-.935l6.529-6.459c.86-.812 1.004-2.118.342-3.095-.77-1.04-2.248-1.267-3.3-.505-.085.062-.166.13-.242.201l-11.806 11.68c-.922.912-.923 2.391-.001 3.304l.001.002 11.806 11.68c.924.911 2.418.909 3.34-.004.072-.072.14-.149.202-.23.662-.976.517-2.283-.342-3.095l-6.517-6.47c-.347-.344-.745-.631-1.18-.853l-.71-.316h23.187c1.206.045 2.265-.789 2.491-1.962.209-1.273-.665-2.473-1.952-2.68z" opacity=".3" transform="translate(0 -804) translate(-143 804) matrix(-1 0 0 1 248 245)"/>
                    <path d="M33.836 156.963c-.147-.024-.296-.035-.445-.033H7.993l.554-.259c.542-.257 1.034-.607 1.456-1.034l7.122-7.152c.938-.899 1.095-2.345.373-3.426-.84-1.153-2.452-1.403-3.6-.56-.093.069-.18.143-.264.223L.755 157.654c-1.006 1.01-1.007 2.647-.002 3.657l.002.003 12.88 12.931c1.007 1.009 2.638 1.006 3.642-.005.08-.08.153-.164.221-.254.722-1.081.565-2.527-.373-3.426l-7.11-7.165c-.378-.38-.812-.698-1.288-.944l-.772-.349h25.294c1.316.05 2.47-.874 2.717-2.172.228-1.41-.726-2.738-2.13-2.967z" opacity=".2" transform="translate(0 -804) translate(-143 804) matrix(-1 0 0 1 248 245)"/>
                    <path d="M81.557 197.781c-.098-.016-.197-.023-.297-.022H64.33l.37-.175c.36-.175.688-.412.97-.701l4.747-4.844c.626-.61.73-1.59.25-2.322-.56-.78-1.635-.95-2.4-.378-.062.046-.121.096-.176.15l-8.586 8.76c-.671.684-.672 1.794-.002 2.478l.002.002 8.586 8.76c.671.683 1.758.681 2.428-.004.053-.054.102-.111.147-.172.482-.732.377-1.712-.249-2.321l-4.74-4.853c-.251-.257-.54-.473-.858-.64l-.515-.236h16.863c.877.033 1.647-.592 1.812-1.472.151-.955-.484-1.855-1.42-2.01z" transform="translate(0 -804) translate(-143 804) matrix(-1 0 0 1 248 245)"/>
                </g>
                <g>
                    <path d="M130.787 97.07c-.49-.08-.988-.116-1.485-.11H44.645l1.846-.86c1.804-.854 3.446-2.017 4.85-3.437l23.74-23.76c3.127-2.987 3.653-7.793 1.246-11.386-2.802-3.829-8.174-4.66-12-1.857-.31.227-.603.474-.88.74L20.519 99.366c-3.355 3.354-3.358 8.795-.007 12.153l.007.007 42.93 42.966c3.358 3.35 8.794 3.343 12.142-.017.264-.265.51-.546.737-.843 2.407-3.593 1.881-8.399-1.245-11.386l-23.697-23.803c-1.26-1.262-2.708-2.32-4.293-3.136l-2.576-1.16h84.314c4.386.162 8.234-2.904 9.058-7.219.759-4.684-2.42-9.098-7.1-9.858z" opacity=".5" transform="translate(0 -804) translate(-143 804) matrix(-1 0 0 1 315 0)"/>
                    <path d="M114.017 11.708c-.135-.021-.272-.031-.409-.03h-23.28l.507-.233c.496-.233.948-.549 1.334-.935l6.529-6.459c.86-.812 1.004-2.118.342-3.095-.77-1.04-2.248-1.267-3.3-.505-.085.062-.166.13-.242.201l-11.806 11.68c-.922.912-.923 2.391-.001 3.304l.001.002 11.806 11.68c.924.911 2.418.909 3.34-.004.072-.072.14-.149.202-.23.662-.976.517-2.283-.342-3.095l-6.517-6.47c-.347-.344-.745-.631-1.18-.853l-.71-.316h23.187c1.206.045 2.265-.789 2.491-1.962.209-1.273-.665-2.473-1.952-2.68z" opacity=".3" transform="translate(0 -804) translate(-143 804) matrix(-1 0 0 1 315 0)"/>
                    <path d="M179.733 166.926c-.291-.048-.585-.07-.88-.067h-50.088l1.092-.517c1.068-.514 2.039-1.215 2.87-2.069l14.046-14.302c1.85-1.798 2.161-4.69.737-6.854-1.657-2.305-4.836-2.805-7.1-1.117-.183.136-.357.285-.52.445l-25.4 25.863c-1.985 2.019-1.987 5.294-.004 7.315l.004.004 25.4 25.863c1.987 2.017 5.203 2.013 7.184-.01.156-.16.302-.329.436-.507 1.424-2.163 1.113-5.056-.737-6.854l-14.02-14.328c-.746-.76-1.603-1.397-2.54-1.888l-1.524-.698h49.885c2.595.098 4.872-1.748 5.36-4.345.449-2.82-1.432-5.477-4.201-5.934z" opacity=".7" transform="translate(0 -804) translate(-143 804) matrix(-1 0 0 1 315 0)"/>
                    <path d="M155.836 50.963c-.147-.024-.296-.035-.445-.033h-25.398l.554-.259c.542-.257 1.034-.607 1.456-1.034l7.122-7.152c.938-.899 1.095-2.345.373-3.426-.84-1.153-2.452-1.403-3.6-.56-.093.069-.18.143-.264.223l-12.879 12.932c-1.006 1.01-1.007 2.647-.002 3.657l.002.003 12.88 12.931c1.007 1.009 2.638 1.006 3.642-.005.08-.08.153-.164.221-.254.722-1.081.565-2.527-.373-3.426l-7.11-7.165c-.378-.38-.812-.698-1.288-.944l-.772-.349h25.294c1.316.05 2.47-.874 2.717-2.172.228-1.41-.726-2.738-2.13-2.967z" transform="translate(0 -804) translate(-143 804) matrix(-1 0 0 1 315 0)"/>
                    <path d="M33.836 156.963c-.147-.024-.296-.035-.445-.033H7.993l.554-.259c.542-.257 1.034-.607 1.456-1.034l7.122-7.152c.938-.899 1.095-2.345.373-3.426-.84-1.153-2.452-1.403-3.6-.56-.093.069-.18.143-.264.223L.755 157.654c-1.006 1.01-1.007 2.647-.002 3.657l.002.003 12.88 12.931c1.007 1.009 2.638 1.006 3.642-.005.08-.08.153-.164.221-.254.722-1.081.565-2.527-.373-3.426l-7.11-7.165c-.378-.38-.812-.698-1.288-.944l-.772-.349h25.294c1.316.05 2.47-.874 2.717-2.172.228-1.41-.726-2.738-2.13-2.967z" opacity=".2" transform="translate(0 -804) translate(-143 804) matrix(-1 0 0 1 315 0)"/>
                    <path d="M81.557 197.781c-.098-.016-.197-.023-.297-.022H64.33l.37-.175c.36-.175.688-.412.97-.701l4.747-4.844c.626-.61.73-1.59.25-2.322-.56-.78-1.635-.95-2.4-.378-.062.046-.121.096-.176.15l-8.586 8.76c-.671.684-.672 1.794-.002 2.478l.002.002 8.586 8.76c.671.683 1.758.681 2.428-.004.053-.054.102-.111.147-.172.482-.732.377-1.712-.249-2.321l-4.74-4.853c-.251-.257-.54-.473-.858-.64l-.515-.236h16.863c.877.033 1.647-.592 1.812-1.472.151-.955-.484-1.855-1.42-2.01z" transform="translate(0 -804) translate(-143 804) matrix(-1 0 0 1 315 0)"/>
                </g>
            </g>
        </g>
    </g>
</svg>
