<svg xmlns="http://www.w3.org/2000/svg" width="541" height="305" viewBox="0 0 541 305">
    <g fill="none" fill-rule="evenodd" opacity=".3">
        <g fill="#7EB441" fill-rule="nonzero">
            <g>
                <path d="M321.126 181.252c-.536-.088-1.078-.128-1.621-.121h-92.418l2.015-.943c1.97-.938 3.762-2.214 5.296-3.77l25.916-26.068c3.414-3.277 3.987-8.55 1.36-12.491-3.059-4.201-8.924-5.113-13.1-2.037-.338.248-.659.52-.96.811l-46.865 47.138c-3.662 3.68-3.666 9.648-.007 13.332l.007.008 46.865 47.137c3.665 3.677 9.6 3.668 13.255-.018.288-.29.557-.6.804-.925 2.628-3.942 2.055-9.214-1.359-12.491l-25.87-26.114c-1.374-1.385-2.955-2.546-4.686-3.441l-2.812-1.273h92.043c4.788.179 8.99-3.185 9.889-7.92.828-5.139-2.642-9.98-7.752-10.814z" opacity=".516" transform="translate(-636 -248) matrix(1 0 0 -1 636 553) matrix(-1 0 0 1 527 0)"/>
                <path d="M440.93 36.38c-.414-.068-.832-.099-1.25-.093h-71.254l1.554-.726c1.518-.722 2.9-1.705 4.083-2.904l19.98-20.069c2.632-2.523 3.075-6.582 1.049-9.617-2.358-3.234-6.88-3.937-10.1-1.568-.26.191-.508.4-.74.624L348.119 38.32c-2.823 2.833-2.826 7.429-.005 10.265l.005.006 36.133 36.291c2.826 2.83 7.401 2.824 10.22-.014.222-.223.429-.461.62-.712 2.026-3.035 1.583-7.094-1.048-9.617l-19.945-20.106c-1.06-1.066-2.28-1.96-3.614-2.649l-2.167-.98h70.964c3.691.138 6.93-2.452 7.624-6.097.639-3.957-2.037-7.684-5.977-8.326z" opacity=".46" transform="translate(-636 -248) matrix(1 0 0 -1 636 553) matrix(-1 0 0 1 793 0)"/>
                <path d="M462.836 141.545c-.147-.024-.296-.034-.445-.032h-25.398l.554-.25c.542-.25 1.034-.588 1.456-1.002l7.122-6.92c.938-.87 1.095-2.27.373-3.317-.84-1.115-2.452-1.357-3.6-.54-.093.066-.18.138-.264.215l-12.879 12.514c-1.006.977-1.007 2.562-.002 3.54l.002.002 12.88 12.514c1.007.976 2.638.974 3.642-.005.08-.077.153-.159.221-.245.722-1.046.565-2.446-.373-3.316l-7.11-6.933c-.378-.368-.812-.676-1.288-.914l-.772-.338h25.294c1.316.048 2.47-.845 2.717-2.102.228-1.364-.726-2.65-2.13-2.871z" opacity=".505" transform="translate(-636 -248) matrix(1 0 0 -1 636 553) matrix(-1 0 0 1 894 0)"/>
                <path d="M150.836 227.545c-.147-.024-.296-.034-.445-.032h-25.398l.554-.25c.542-.25 1.034-.588 1.456-1.002l7.122-6.92c.938-.87 1.095-2.27.373-3.317-.84-1.115-2.452-1.357-3.6-.54-.093.066-.18.138-.264.215l-12.879 12.514c-1.006.977-1.007 2.562-.002 3.54l.002.002 12.88 12.514c1.007.976 2.638.974 3.642-.005.08-.077.153-.159.221-.245.722-1.046.565-2.446-.373-3.316l-7.11-6.933c-.378-.368-.812-.676-1.288-.914l-.772-.338h25.294c1.316.048 2.47-.845 2.717-2.102.228-1.364-.726-2.65-2.13-2.871z" transform="translate(-636 -248) matrix(1 0 0 -1 636 553) matrix(-1 0 0 1 270 0)"/>
                <path d="M395.372 265.435c-.315-.053-.634-.077-.953-.073h-54.322l1.184-.567c1.158-.565 2.212-1.333 3.113-2.27l15.234-15.686c2.006-1.972 2.343-5.145.798-7.517-1.797-2.528-5.245-3.077-7.7-1.226-.198.15-.386.313-.564.488l-27.546 28.366c-2.153 2.215-2.155 5.807-.004 8.024l.004.004 27.546 28.366c2.155 2.212 5.643 2.207 7.792-.011.169-.175.327-.36.472-.556 1.545-2.373 1.208-5.545-.798-7.517l-15.206-15.715c-.809-.833-1.738-1.532-2.755-2.07l-1.653-.767h54.102c2.814.108 5.283-1.916 5.812-4.765.487-3.093-1.553-6.007-4.556-6.508z" transform="translate(-636 -248) matrix(1 0 0 -1 636 553) matrix(-1 0 0 1 723 0)"/>
                <path d="M415.656 188.217c-.16-.026-.321-.038-.483-.036H387.66l.6-.284c.586-.282 1.12-.666 1.576-1.134l7.716-7.844c1.016-.986 1.186-2.572.404-3.758-.91-1.264-2.656-1.538-3.9-.613-.1.075-.196.156-.285.244l-13.953 14.183c-1.09 1.107-1.09 2.903-.002 4.012l.002.002 13.953 14.183c1.09 1.106 2.858 1.104 3.946-.006.085-.087.165-.18.24-.278.781-1.186.61-2.772-.405-3.758l-7.702-7.858c-.41-.416-.88-.766-1.395-1.035l-.837-.383h27.402c1.425.054 2.676-.958 2.944-2.383.246-1.546-.787-3.003-2.308-3.254z" transform="translate(-636 -248) matrix(1 0 0 -1 636 553) matrix(-1 0 0 1 797 0)"/>
                <path d="M474.656 227.217c-.16-.026-.321-.038-.483-.036H446.66l.6-.284c.586-.282 1.12-.666 1.576-1.134l7.716-7.844c1.016-.986 1.186-2.572.404-3.758-.91-1.264-2.656-1.538-3.9-.613-.1.075-.196.156-.285.244l-13.953 14.183c-1.09 1.107-1.09 2.903-.002 4.012l.002.002 13.953 14.183c1.09 1.106 2.858 1.104 3.946-.006.085-.087.165-.18.24-.278.781-1.186.61-2.772-.405-3.758l-7.702-7.858c-.41-.416-.88-.766-1.395-1.035l-.837-.383h27.402c1.425.054 2.676-.958 2.944-2.383.246-1.546-.787-3.003-2.308-3.254z" transform="translate(-636 -248) matrix(1 0 0 -1 636 553) matrix(-1 0 0 1 915 0)"/>
                <path d="M506.437 172.618c-.106-.018-.214-.026-.321-.025h-18.343l.4-.192c.39-.19.747-.45 1.051-.767l5.144-5.306c.677-.667.791-1.74.27-2.543-.608-.855-1.772-1.04-2.6-.414-.067.05-.131.106-.191.165l-9.301 9.594c-.727.75-.728 1.964-.002 2.714l.002.002 9.301 9.594c.728.748 1.905.746 2.63-.004.058-.059.111-.122.16-.188.522-.802.408-1.875-.27-2.543l-5.134-5.315c-.273-.282-.586-.518-.93-.7l-.558-.26h18.268c.95.037 1.784-.648 1.963-1.611.164-1.046-.525-2.032-1.539-2.201z" transform="translate(-636 -248) matrix(1 0 0 -1 636 553) matrix(-1 0 0 1 990 0)"/>
                <path d="M539.437 127.618c-.106-.018-.214-.026-.321-.025h-18.343l.4-.192c.39-.19.747-.45 1.051-.767l5.144-5.306c.677-.667.791-1.74.27-2.543-.608-.855-1.772-1.04-2.6-.414-.067.05-.131.106-.191.165l-9.301 9.594c-.727.75-.728 1.964-.002 2.714l.002.002 9.301 9.594c.728.748 1.905.746 2.63-.004.058-.059.111-.122.16-.188.522-.802.408-1.875-.27-2.543l-5.134-5.315c-.273-.282-.586-.518-.93-.7l-.558-.26h18.268c.95.037 1.784-.648 1.963-1.611.164-1.046-.525-2.032-1.539-2.201z" opacity=".417" transform="translate(-636 -248) matrix(1 0 0 -1 636 553) matrix(-1 0 0 1 1056 0)"/>
                <path d="M24.437 200.618c-.106-.018-.214-.026-.321-.025H5.773l.4-.192c.39-.19.747-.45 1.051-.767l5.144-5.306c.677-.667.791-1.74.27-2.543-.608-.855-1.772-1.04-2.6-.414-.067.05-.131.106-.191.165L.546 201.13c-.727.75-.728 1.964-.002 2.714l.002.002 9.301 9.594c.728.748 1.905.746 2.63-.004.058-.059.111-.122.16-.188.522-.802.408-1.875-.27-2.543l-5.134-5.315c-.273-.282-.586-.518-.93-.7l-.558-.26h18.268c.95.037 1.784-.648 1.963-1.611.164-1.046-.525-2.032-1.539-2.201z" opacity=".464" transform="translate(-636 -248) matrix(1 0 0 -1 636 553) matrix(-1 0 0 1 26 0)"/>
                <path d="M398.437 131.618c-.106-.018-.214-.026-.321-.025h-18.343l.4-.192c.39-.19.747-.45 1.051-.767l5.144-5.306c.677-.667.791-1.74.27-2.543-.608-.855-1.772-1.04-2.6-.414-.067.05-.131.106-.191.165l-9.301 9.594c-.727.75-.728 1.964-.002 2.714l.002.002 9.301 9.594c.728.748 1.905.746 2.63-.004.058-.059.111-.122.16-.188.522-.802.408-1.875-.27-2.543l-5.134-5.315c-.273-.282-.586-.518-.93-.7l-.558-.26h18.268c.95.037 1.784-.648 1.963-1.611.164-1.046-.525-2.032-1.539-2.201z" transform="translate(-636 -248) matrix(1 0 0 -1 636 553) matrix(-1 0 0 1 774 0)"/>
                <path d="M146.437 108.618c-.106-.018-.214-.026-.321-.025h-18.343l.4-.192c.39-.19.747-.45 1.051-.767l5.144-5.306c.677-.667.791-1.74.27-2.543-.608-.855-1.772-1.04-2.6-.414-.067.05-.131.106-.191.165l-9.301 9.594c-.727.75-.728 1.964-.002 2.714l.002.002 9.301 9.594c.728.748 1.905.746 2.63-.004.058-.059.111-.122.16-.188.522-.802.408-1.875-.27-2.543l-5.134-5.315c-.273-.282-.586-.518-.93-.7l-.558-.26h18.268c.95.037 1.784-.648 1.963-1.611.164-1.046-.525-2.032-1.539-2.201z" opacity=".53" transform="translate(-636 -248) matrix(1 0 0 -1 636 553) matrix(-1 0 0 1 270 0)"/>
                <path d="M75.038 122.854c-.065-.01-.131-.016-.198-.015H63.553l.246-.117c.24-.116.46-.274.647-.467l3.165-3.23c.417-.405.487-1.059.166-1.547-.374-.52-1.09-.633-1.6-.252-.041.03-.08.064-.117.1l-5.724 5.84c-.448.456-.448 1.196-.001 1.652v.001l5.725 5.84c.447.456 1.172.455 1.619-.002.035-.036.068-.074.098-.115.32-.488.25-1.141-.166-1.547l-3.16-3.236c-.168-.171-.36-.315-.572-.426l-.344-.158h11.242c.585.022 1.098-.394 1.208-.98.101-.638-.323-1.238-.947-1.34z" transform="translate(-636 -248) matrix(1 0 0 -1 636 553) matrix(-1 0 0 1 136 0)"/>
                <path d="M181.038 148.854c-.065-.01-.131-.016-.198-.015h-11.287l.246-.117c.24-.116.46-.274.647-.467l3.165-3.23c.417-.405.487-1.059.166-1.547-.374-.52-1.09-.633-1.6-.252-.041.03-.08.064-.117.1l-5.724 5.84c-.448.456-.448 1.196-.001 1.652v.001l5.725 5.84c.447.456 1.172.455 1.619-.002.035-.036.068-.074.098-.115.32-.488.25-1.141-.166-1.547l-3.16-3.236c-.168-.171-.36-.315-.572-.426l-.344-.158h11.242c.585.022 1.098-.394 1.208-.98.101-.638-.323-1.238-.947-1.34z" transform="translate(-636 -248) matrix(1 0 0 -1 636 553) matrix(-1 0 0 1 348 0)"/>
                <path d="M318.399 107.763c-.041-.007-.082-.01-.124-.01h-7.055l.154-.074c.15-.075.287-.177.404-.3l1.979-2.077c.26-.26.304-.68.104-.995-.234-.334-.682-.407-1-.162-.026.02-.05.041-.074.065l-3.577 3.754c-.28.293-.28.769 0 1.062l3.577 3.755c.28.293.733.292 1.012-.002.022-.023.043-.047.062-.073.2-.314.156-.734-.104-.995l-1.975-2.08c-.105-.11-.226-.203-.358-.274l-.214-.101h7.026c.365.014.686-.254.755-.631.063-.41-.202-.795-.592-.862z" transform="translate(-636 -248) matrix(1 0 0 -1 636 553) matrix(-1 0 0 1 628 0)"/>
                <path d="M241.399 254.763c-.041-.007-.082-.01-.124-.01h-7.055l.154-.074c.15-.075.287-.177.404-.3l1.979-2.077c.26-.26.304-.68.104-.995-.234-.334-.682-.407-1-.162-.026.02-.05.041-.074.065l-3.577 3.754c-.28.293-.28.769 0 1.062l3.577 3.755c.28.293.733.292 1.012-.002.022-.023.043-.047.062-.073.2-.314.156-.734-.104-.995l-1.975-2.08c-.105-.11-.226-.203-.358-.274l-.214-.101h7.026c.365.014.686-.254.755-.631.063-.41-.202-.795-.592-.862z" transform="translate(-636 -248) matrix(1 0 0 -1 636 553) matrix(-1 0 0 1 474 0)"/>
                <path d="M234.656 101.217c-.16-.026-.321-.038-.483-.036H206.66l.6-.284c.586-.282 1.12-.666 1.576-1.134l7.716-7.844c1.016-.986 1.186-2.572.404-3.758-.91-1.264-2.656-1.538-3.9-.613-.1.075-.196.156-.285.244l-13.953 14.183c-1.09 1.107-1.09 2.903-.002 4.012l.002.002 13.953 14.183c1.09 1.106 2.858 1.104 3.946-.006.085-.087.165-.18.24-.278.781-1.186.61-2.772-.405-3.758l-7.702-7.858c-.41-.416-.88-.766-1.395-1.035l-.837-.383h27.402c1.425.054 2.676-.958 2.944-2.383.246-1.546-.787-3.003-2.308-3.254z" transform="translate(-636 -248) matrix(1 0 0 -1 636 553) matrix(-1 0 0 1 435 0)"/>
                <path d="M112.656 173.217c-.16-.026-.321-.038-.483-.036H84.66l.6-.284c.586-.282 1.12-.666 1.576-1.134l7.716-7.844c1.016-.986 1.186-2.572.404-3.758-.91-1.264-2.656-1.538-3.9-.613-.1.075-.196.156-.285.244l-13.953 14.183c-1.09 1.107-1.09 2.903-.002 4.012l.002.002 13.953 14.183c1.09 1.106 2.858 1.104 3.946-.006.085-.087.165-.18.24-.278.781-1.186.61-2.772-.405-3.758l-7.702-7.858c-.41-.416-.88-.766-1.395-1.035l-.837-.383h27.402c1.425.054 2.676-.958 2.944-2.383.246-1.546-.787-3.003-2.308-3.254z" transform="translate(-636 -248) matrix(1 0 0 -1 636 553) matrix(-1 0 0 1 191 0)"/>
            </g>
        </g>
    </g>
</svg>
