<?xml version="1.0" encoding="UTF-8"?>
<svg width="177px" height="121px" viewBox="0 0 177 121" version="1.1" xmlns="http://www.w3.org/2000/svg" xmlns:xlink="http://www.w3.org/1999/xlink">
    <title>groupBoxEmp04</title>
    <g id="Page-1" stroke="none" stroke-width="1" fill="none" fill-rule="evenodd">
        <g id="groupBoxEmp04" transform="translate(88.500000, 60.500000) rotate(-180.000000) translate(-88.500000, -60.500000) " fill="#62619A">
            <rect id="Rectangle-Copy" fill-opacity="0.4" x="0" y="29" width="26" height="26"></rect>
            <g id="group-8-copy" transform="translate(116.500000, 60.500000) rotate(-180.000000) translate(-116.500000, -60.500000) translate(56.000000, 0.000000)" fill-rule="nonzero">
                <path d="M85.891,56.525 C85.543,56.469 85.191,56.443 84.839,56.447 L24.873,56.447 L26.181,55.838 C27.459,55.233 28.621,54.408 29.617,53.402 L46.433,36.562 C48.648,34.445 49.02,31.039 47.315,28.492 C45.33,25.779 41.525,25.19 38.815,27.177 C38.595,27.337 38.388,27.513 38.192,27.701 L7.784,58.153 C5.407,60.53 5.405,64.386 7.779,66.766 L7.784,66.771 L38.192,97.222 C40.571,99.597 44.422,99.592 46.793,97.21 C46.98,97.023 47.154,96.823 47.315,96.613 C49.02,94.066 48.648,90.661 46.433,88.543 L29.647,71.673 C28.755,70.779 27.729,70.029 26.607,69.45 L24.782,68.628 L84.504,68.628 C87.611,68.744 90.337,66.57 90.921,63.512 C91.458,60.192 89.207,57.064 85.891,56.525 L85.891,56.525 Z" id="Path" opacity="0.5"></path>
                <path d="M65.858,6.69 C65.78,6.678 65.702,6.672 65.623,6.673 L52.219,6.673 L52.511,6.54 C52.797,6.407 53.057,6.226 53.279,6.006 L57.038,2.316 C57.533,1.851 57.616,1.105 57.235,0.546 C56.792,-0.048 55.941,-0.178 55.335,0.258 C55.286,0.293 55.24,0.332 55.195,0.373 L48.4,7.047 C47.869,7.568 47.868,8.413 48.399,8.935 L48.399,8.936 L55.197,15.61 C55.729,16.13 56.589,16.13 57.119,15.608 C57.161,15.567 57.2,15.523 57.236,15.477 C57.617,14.919 57.534,14.172 57.039,13.708 L53.287,10.011 C53.087,9.815 52.858,9.651 52.607,9.523 L52.199,9.343 L65.549,9.343 C66.244,9.368 66.853,8.893 66.983,8.222 C67.103,7.494 66.6,6.809 65.859,6.691 L65.858,6.69 Z" id="Path" opacity="0.3"></path>
                <path d="M103.536,96.054 C103.368,96.026 103.198,96.013 103.028,96.015 L74.104,96.015 L74.734,95.715 C75.351,95.416 75.912,95.009 76.392,94.513 L84.503,86.209 C85.571,85.165 85.751,83.485 84.928,82.229 C83.971,80.891 82.136,80.6 80.828,81.58 C80.723,81.66 80.622,81.746 80.528,81.839 L65.86,96.856 C64.714,98.028 64.713,99.93 65.858,101.104 L65.86,101.106 L80.528,116.123 C81.675,117.295 83.533,117.292 84.677,116.117 C84.767,116.025 84.851,115.927 84.928,115.823 C85.751,114.567 85.571,112.887 84.503,111.843 L76.406,103.523 C75.976,103.083 75.481,102.713 74.94,102.428 L74.06,102.022 L102.867,102.022 C104.365,102.079 105.68,101.007 105.962,99.499 C106.222,97.862 105.135,96.319 103.536,96.054 L103.536,96.054 Z" id="Path" opacity="0.7"></path>
                <path d="M89.738,29.527 C89.652,29.513 89.565,29.507 89.478,29.507 L74.663,29.507 L74.986,29.357 C75.302,29.208 75.589,29.005 75.835,28.757 L79.989,24.604 C80.536,24.082 80.629,23.243 80.207,22.614 C79.717,21.945 78.777,21.8 78.107,22.29 C78.053,22.33 78.002,22.373 77.953,22.42 L70.441,29.928 C69.854,30.514 69.853,31.465 70.44,32.052 L70.44,32.053 L77.953,39.562 C78.541,40.147 79.493,40.146 80.078,39.559 C80.124,39.512 80.168,39.463 80.208,39.411 C80.628,38.784 80.536,37.944 79.989,37.421 L75.842,33.261 C75.622,33.041 75.368,32.856 75.091,32.714 L74.641,32.511 L89.395,32.511 C90.163,32.54 90.836,32.004 90.98,31.25 C91.113,30.43 90.557,29.66 89.738,29.527 L89.738,29.527 Z" id="Path"></path>
                <path d="M19.738,90.527 C19.652,90.513 19.565,90.507 19.478,90.507 L4.663,90.507 L4.986,90.357 C5.302,90.208 5.589,90.005 5.835,89.757 L9.989,85.604 C10.536,85.082 10.629,84.243 10.207,83.614 C9.717,82.945 8.777,82.8 8.107,83.29 C8.053,83.33 8.002,83.373 7.953,83.42 L0.441,90.927 C-0.146,91.513 -0.147,92.464 0.44,93.051 L0.44,93.052 L7.953,100.561 C8.541,101.146 9.493,101.145 10.078,100.558 C10.124,100.511 10.168,100.462 10.208,100.41 C10.628,99.783 10.536,98.943 9.989,98.42 L5.842,94.26 C5.622,94.04 5.368,93.855 5.091,93.713 L4.641,93.51 L19.395,93.51 C20.163,93.539 20.836,93.003 20.98,92.249 C21.113,91.429 20.557,90.659 19.738,90.526 L19.738,90.527 Z" id="Path" opacity="0.2"></path>
                <path d="M47.159,114.018 C47.101,114.008 47.043,114.004 46.985,114.005 L37.11,114.005 L37.325,113.905 C37.535,113.805 37.727,113.67 37.891,113.505 L40.661,110.736 C41.025,110.388 41.087,109.828 40.806,109.41 C40.479,108.964 39.852,108.867 39.406,109.193 C39.37,109.22 39.336,109.249 39.303,109.28 L34.295,114.285 C33.903,114.676 33.903,115.31 34.294,115.701 L34.294,115.702 L39.304,120.708 C39.695,121.098 40.329,121.098 40.72,120.706 C40.75,120.675 40.78,120.642 40.806,120.608 C41.086,120.189 41.026,119.629 40.661,119.281 L37.896,116.508 C37.749,116.361 37.58,116.238 37.395,116.143 L37.095,116.007 L46.931,116.007 C47.443,116.027 47.891,115.669 47.988,115.167 C48.076,114.621 47.706,114.107 47.16,114.017 L47.159,114.018 Z M119.738,80.527 C119.652,80.513 119.565,80.507 119.478,80.507 L104.663,80.507 L104.986,80.357 C105.302,80.208 105.589,80.005 105.835,79.757 L109.989,75.604 C110.536,75.082 110.629,74.243 110.207,73.614 C109.717,72.945 108.777,72.8 108.107,73.29 C108.053,73.33 108.002,73.373 107.953,73.42 L100.441,80.928 C99.854,81.514 99.853,82.465 100.44,83.052 L100.44,83.053 L107.953,90.562 C108.541,91.147 109.493,91.146 110.078,90.559 C110.124,90.512 110.168,90.463 110.208,90.411 C110.628,89.784 110.536,88.944 109.989,88.421 L105.842,84.261 C105.622,84.041 105.368,83.856 105.091,83.714 L104.641,83.511 L119.395,83.511 C120.163,83.54 120.836,83.004 120.98,82.25 C121.113,81.43 120.557,80.66 119.738,80.527 L119.738,80.527 Z" id="Shape"></path>
            </g>
        </g>
    </g>
</svg>