<svg xmlns="http://www.w3.org/2000/svg" width="118" height="116" viewBox="0 0 118 116">
    <g fill="none" fill-rule="evenodd" opacity=".5">
        <g fill="#7EB441" fill-rule="nonzero">
            <g>
                <path d="M83.071 54.271c-.335-.054-.675-.08-1.014-.075h-57.85l1.262-.584c1.233-.58 2.354-1.371 3.314-2.336l16.223-16.148c2.136-2.03 2.495-5.296.85-7.738-1.914-2.602-5.585-3.167-8.2-1.262-.21.155-.411.322-.6.503l-29.335 29.2c-2.293 2.28-2.295 5.977-.005 8.26.002 0 .003.003.005.004l29.335 29.2c2.294 2.278 6.01 2.273 8.297-.011.18-.18.349-.371.504-.573 1.644-2.442 1.285-5.708-.851-7.738L28.813 68.796c-.861-.858-1.85-1.577-2.934-2.131l-1.76-.789h57.615c2.997.111 5.626-1.973 6.19-4.905.518-3.184-1.654-6.184-4.853-6.7z" opacity=".809" transform="translate(-659 -1224) matrix(-1 0 0 1 777 1224)"/>
                <path d="M63.918 6.272c-.074-.011-.148-.017-.223-.016H50.997l.277-.125c.27-.124.516-.294.727-.5l3.561-3.46c.47-.436.548-1.135.187-1.659-.42-.557-1.226-.679-1.8-.27-.046.033-.09.069-.132.108l-6.44 6.257c-.503.488-.503 1.28 0 1.77l6.44 6.258c.504.488 1.32.487 1.822-.003.04-.038.076-.08.11-.122.361-.524.282-1.224-.187-1.659l-3.554-3.466c-.19-.184-.407-.338-.644-.457l-.387-.169h12.647c.658.024 1.236-.423 1.36-1.051.113-.682-.364-1.325-1.066-1.436z" opacity=".3" transform="translate(-659 -1224) matrix(-1 0 0 1 777 1224)"/>
                <path d="M100.596 91.635c-.164-.027-.33-.04-.495-.037H71.88l.616-.292c.601-.29 1.149-.686 1.617-1.168l7.913-8.074c1.042-1.015 1.218-2.648.415-3.869-.934-1.301-2.724-1.584-4-.63-.103.076-.2.16-.293.25l-14.31 14.6c-1.118 1.14-1.119 2.99-.002 4.13l.002.003 14.31 14.6c1.12 1.138 2.932 1.136 4.048-.006.088-.09.17-.186.245-.286.803-1.221.627-2.854-.415-3.87l-7.899-8.088c-.42-.429-.902-.788-1.43-1.066l-.86-.394h28.105c1.462.056 2.745-.986 3.02-2.453.253-1.592-.807-3.091-2.367-3.35z" opacity=".7" transform="translate(-659 -1224) matrix(-1 0 0 1 777 1224)"/>
                <path d="M87.738 29.109c-.086-.014-.173-.02-.26-.019H72.663l.323-.141c.316-.141.603-.333.849-.568l4.154-3.921c.547-.493.64-1.286.218-1.88-.49-.631-1.43-.769-2.1-.306-.054.037-.105.078-.154.122l-7.512 7.092c-.587.553-.588 1.451-.001 2.005v.002l7.513 7.091c.588.553 1.54.552 2.125-.003.046-.043.09-.09.13-.139.42-.593.328-1.386-.219-1.88l-4.147-3.928c-.22-.208-.474-.383-.751-.517l-.45-.192h14.754c.768.027 1.441-.48 1.585-1.191.133-.773-.423-1.502-1.242-1.627z" transform="translate(-659 -1224) matrix(-1 0 0 1 777 1224)"/>
                <path d="M19.738 87.109c-.086-.014-.173-.02-.26-.019H4.663l.323-.141c.316-.141.603-.333.849-.568l4.154-3.921c.547-.493.64-1.286.218-1.88-.49-.631-1.43-.769-2.1-.306-.054.037-.105.078-.154.122L.441 87.488c-.587.553-.588 1.451-.001 2.005v.002l7.513 7.091c.588.553 1.54.552 2.125-.003.046-.043.09-.09.13-.139.42-.593.328-1.386-.219-1.88l-4.147-3.928c-.22-.208-.474-.383-.751-.517l-.45-.192h14.754c.768.027 1.441-.48 1.585-1.191.133-.773-.423-1.502-1.242-1.627z" opacity=".2" transform="translate(-659 -1224) matrix(-1 0 0 1 777 1224)"/>
                <path d="M47.159 109.6c-.058-.009-.116-.013-.174-.012H37.11l.215-.092c.21-.091.402-.215.566-.367l2.77-2.537c.364-.32.426-.833.145-1.216-.327-.41-.954-.498-1.4-.199-.036.025-.07.05-.103.08l-5.008 4.588c-.392.358-.392.94-.001 1.298l5.01 4.59c.391.357 1.025.356 1.416-.003.03-.028.06-.058.086-.09.28-.383.22-.897-.145-1.216l-2.765-2.542c-.147-.135-.316-.248-.501-.335l-.3-.124h9.836c.512.018.96-.31 1.057-.77.088-.5-.282-.972-.828-1.053z" transform="translate(-659 -1224) matrix(-1 0 0 1 777 1224)"/>
                <path fill-opacity=".7" d="M116.738 77.109c-.086-.014-.173-.02-.26-.019h-14.815l.323-.141c.316-.141.603-.333.849-.568l4.154-3.921c.547-.493.64-1.286.218-1.88-.49-.631-1.43-.769-2.1-.306-.054.037-.105.078-.154.122l-7.512 7.092c-.587.553-.588 1.451-.001 2.005v.002l7.513 7.091c.588.553 1.54.552 2.125-.003.046-.043.09-.09.13-.139.42-.593.328-1.386-.219-1.88l-4.147-3.928c-.22-.208-.474-.383-.751-.517l-.45-.192h14.754c.768.027 1.441-.48 1.585-1.191.133-.773-.423-1.502-1.242-1.627z" transform="translate(-659 -1224) matrix(-1 0 0 1 777 1224)"/>
            </g>
        </g>
    </g>
</svg>
