<?xml version="1.0" encoding="UTF-8"?>
<svg width="177px" height="116px" viewBox="0 0 177 116" version="1.1" xmlns="http://www.w3.org/2000/svg" xmlns:xlink="http://www.w3.org/1999/xlink">
    <title>groupBoxEmp02</title>
    <g id="Page-1" stroke="none" stroke-width="1" fill="none" fill-rule="evenodd">
        <g id="groupBoxEmp02" fill="#7EB441">
            <rect id="Rectangle-Copy-2" fill-opacity="0.4" x="0" y="32" width="26" height="26"></rect>
            <g id="groupArrows02" transform="translate(59.000000, 0.000000)" fill-rule="nonzero" opacity="0.5">
                <g id="Path">
                    <path d="M107.07076,54.271 C106.73576,54.217 106.39576,54.191 106.05676,54.196 L48.2067596,54.196 L49.4687596,53.612 C50.7017596,53.032 51.8227596,52.241 52.7827596,51.276 L69.0057596,35.128 C71.1417596,33.098 71.5007596,29.832 69.8557596,27.39 C67.9417596,24.788 64.2707596,24.223 61.6557596,26.128 C61.4457596,26.283 61.2447596,26.45 61.0557596,26.631 L31.7207596,55.831 C29.4277596,58.111 29.4257596,61.808 31.7157596,64.091 C31.7177596,64.091 31.7187596,64.094 31.7207596,64.095 L61.0557596,93.295 C63.3497596,95.573 67.0657596,95.568 69.3527596,93.284 C69.5327596,93.104 69.7017596,92.913 69.8567596,92.711 C71.5007596,90.269 71.1417596,87.003 69.0057596,84.973 L52.8127596,68.796 C51.9517596,67.938 50.9627596,67.219 49.8787596,66.665 L48.1187596,65.876 L105.73376,65.876 C108.73076,65.987 111.35976,63.903 111.92376,60.971 C112.44176,57.787 110.26976,54.787 107.07076,54.271 Z" opacity="0.809" transform="translate(70.999880, 60.000071) scale(-1, 1) translate(-70.999880, -60.000071) "></path>
                    <path d="M69.9176825,6.272 C69.8436825,6.261 69.7696825,6.255 69.6946825,6.256 L56.9966825,6.256 L57.2736825,6.131 C57.5436825,6.007 57.7896825,5.837 58.0006825,5.631 L61.5616825,2.171 C62.0316825,1.735 62.1096825,1.036 61.7486825,0.512 C61.3286825,-0.045 60.5226825,-0.167 59.9486825,0.242 C59.9026825,0.275 59.8586825,0.311 59.8166825,0.35 L53.3766825,6.607 C52.8736825,7.095 52.8736825,7.887 53.3766825,8.377 L59.8166825,14.635 C60.3206825,15.123 61.1366825,15.122 61.6386825,14.632 C61.6786825,14.594 61.7146825,14.552 61.7486825,14.51 C62.1096825,13.986 62.0306825,13.286 61.5616825,12.851 L58.0076825,9.385 C57.8176825,9.201 57.6006825,9.047 57.3636825,8.928 L56.9766825,8.759 L69.6236825,8.759 C70.2816825,8.783 70.8596825,8.336 70.9836825,7.708 C71.0966825,7.026 70.6196825,6.383 69.9176825,6.272 L69.9176825,6.272 Z" opacity="0.3" transform="translate(61.999841, 7.500094) scale(-1, 1) translate(-61.999841, -7.500094) "></path>
                    <path d="M52.5978011,91.635 C52.4338011,91.608 52.2678011,91.595 52.1028011,91.598 L23.8818011,91.598 L24.4978011,91.306 C25.0988011,91.016 25.6468011,90.62 26.1148011,90.138 L34.0278011,82.064 C35.0698011,81.049 35.2458011,79.416 34.4428011,78.195 C33.5088011,76.894 31.7188011,76.611 30.4428011,77.565 C30.3398011,77.641 30.2428011,77.725 30.1498011,77.815 L15.8398011,92.415 C14.7218011,93.555 14.7208011,95.405 15.8378011,96.545 L15.8398011,96.548 L30.1498011,111.148 C31.2698011,112.286 33.0818011,112.284 34.1978011,111.142 C34.2858011,111.052 34.3678011,110.956 34.4428011,110.856 C35.2458011,109.635 35.0698011,108.002 34.0278011,106.986 L26.1288011,98.898 C25.7088011,98.469 25.2268011,98.11 24.6988011,97.832 L23.8388011,97.438 L51.9438011,97.438 C53.4058011,97.494 54.6888011,96.452 54.9638011,94.985 C55.2168011,93.393 54.1568011,91.894 52.5968011,91.635 L52.5978011,91.635 Z" opacity="0.7" transform="translate(35.000901, 94.499973) scale(-1, 1) translate(-35.000901, -94.499973) "></path>
                    <path d="M48.738094,29.109 C48.652094,29.095 48.565094,29.089 48.478094,29.09 L33.663094,29.09 L33.986094,28.949 C34.302094,28.808 34.589094,28.616 34.835094,28.381 L38.989094,24.46 C39.536094,23.967 39.629094,23.174 39.207094,22.58 C38.717094,21.949 37.777094,21.811 37.107094,22.274 C37.053094,22.311 37.002094,22.352 36.953094,22.396 L29.441094,29.488 C28.854094,30.041 28.853094,30.939 29.440094,31.493 L29.440094,31.495 L36.953094,38.586 C37.541094,39.139 38.493094,39.138 39.078094,38.583 C39.124094,38.54 39.168094,38.493 39.208094,38.444 C39.628094,37.851 39.536094,37.058 38.989094,36.564 L34.842094,32.636 C34.622094,32.428 34.368094,32.253 34.091094,32.119 L33.641094,31.927 L48.395094,31.927 C49.163094,31.954 49.836094,31.447 49.980094,30.736 C50.113094,29.963 49.557094,29.234 48.738094,29.109 L48.738094,29.109 Z" transform="translate(39.500047, 30.499984) scale(-1, 1) translate(-39.500047, -30.499984) "></path>
                    <path d="M116.738094,87.109 C116.652094,87.095 116.565094,87.089 116.478094,87.09 L101.663094,87.09 L101.986094,86.949 C102.302094,86.808 102.589094,86.616 102.835094,86.381 L106.989094,82.46 C107.536094,81.967 107.629094,81.174 107.207094,80.58 C106.717094,79.949 105.777094,79.811 105.107094,80.274 C105.053094,80.311 105.002094,80.352 104.953094,80.396 L97.441094,87.488 C96.854094,88.041 96.853094,88.939 97.440094,89.493 L97.440094,89.495 L104.953094,96.586 C105.541094,97.139 106.493094,97.138 107.078094,96.583 C107.124094,96.54 107.168094,96.493 107.208094,96.444 C107.628094,95.851 107.536094,95.058 106.989094,94.564 L102.842094,90.636 C102.622094,90.428 102.368094,90.253 102.091094,90.119 L101.641094,89.927 L116.395094,89.927 C117.163094,89.954 117.836094,89.447 117.980094,88.736 C118.113094,87.963 117.557094,87.234 116.738094,87.109 L116.738094,87.109 Z" opacity="0.2" transform="translate(107.500047, 88.499984) scale(-1, 1) translate(-107.500047, -88.499984) "></path>
                    <path d="M83.1571821,109.6 C83.0991821,109.591 83.0411821,109.587 82.9831821,109.588 L73.1081821,109.588 L73.3231821,109.496 C73.5331821,109.405 73.7251821,109.281 73.8891821,109.129 L76.6591821,106.592 C77.0231821,106.272 77.0851821,105.759 76.8041821,105.376 C76.4771821,104.966 75.8501821,104.878 75.4041821,105.177 C75.3681821,105.202 75.3341821,105.227 75.3011821,105.257 L70.2931821,109.845 C69.9011821,110.203 69.9011821,110.785 70.2921821,111.143 L75.3021821,115.733 C75.6931821,116.09 76.3271821,116.089 76.7181821,115.73 C76.7481821,115.702 76.7781821,115.672 76.8041821,115.64 C77.0841821,115.257 77.0241821,114.743 76.6591821,114.424 L73.8941821,111.882 C73.7471821,111.747 73.5781821,111.634 73.3931821,111.547 L73.0931821,111.423 L82.9291821,111.423 C83.4411821,111.441 83.8891821,111.113 83.9861821,110.653 C84.0741821,110.153 83.7041821,109.681 83.1581821,109.6 L83.1571821,109.6 Z" transform="translate(76.999091, 110.499901) scale(-1, 1) translate(-76.999091, -110.499901) "></path>
                    <path d="M19.738094,77.109 C19.652094,77.095 19.565094,77.089 19.478094,77.09 L4.66309398,77.09 L4.98609398,76.949 C5.30209398,76.808 5.58909398,76.616 5.83509398,76.381 L9.98909398,72.46 C10.536094,71.967 10.629094,71.174 10.207094,70.58 C9.71709398,69.949 8.77709398,69.811 8.10709398,70.274 C8.05309398,70.311 8.00209398,70.352 7.95309398,70.396 L0.441093981,77.488 C-0.145906019,78.041 -0.146906019,78.939 0.440093981,79.493 L0.440093981,79.495 L7.95309398,86.586 C8.54109398,87.139 9.49309398,87.138 10.078094,86.583 C10.124094,86.54 10.168094,86.493 10.208094,86.444 C10.628094,85.851 10.536094,85.058 9.98909398,84.564 L5.84209398,80.636 C5.62209398,80.428 5.36809398,80.253 5.09109398,80.119 L4.64109398,79.927 L19.395094,79.927 C20.163094,79.954 20.836094,79.447 20.980094,78.736 C21.113094,77.963 20.557094,77.234 19.738094,77.109 L19.738094,77.109 Z" fill-opacity="0.7" transform="translate(10.500047, 78.499984) scale(-1, 1) translate(-10.500047, -78.499984) "></path>
                </g>
            </g>
        </g>
    </g>
</svg>