<svg xmlns="http://www.w3.org/2000/svg" width="92" height="40" viewBox="0 0 92 40">
    <g fill="none" fill-rule="evenodd">
        <g fill="#555" fill-rule="nonzero">
            <g>
                <path d="M4.295 16.038c-1.26.443-2.349 1.27-3.114 2.365C.41 19.498-.003 20.805 0 22.144v8.429h9.774c.718-4.353 4.482-7.546 8.893-7.546 4.412 0 8.175 3.193 8.894 7.546h19.278v-16.82l-28.71-.08c-4.712.009-9.387.809-13.834 2.365zm32.462.032H41.6c.65 0 1.176.527 1.176 1.176 0 .65-.526 1.176-1.176 1.176h-4.843c-.65 0-1.176-.526-1.176-1.176 0-.65.527-1.176 1.176-1.176z" transform="translate(-805 -1015) translate(805 1015)"/>
                <path d="M18.805 24C14.495 24 11 27.492 11 31.804c0 .334.027.66.069.982.483 3.847 3.759 6.824 7.736 6.824 4.087 0 7.434-3.142 7.773-7.141.018-.221.034-.44.034-.667.001-4.309-3.494-7.802-7.807-7.802zm-3.909 4.863l1.593 1.593c-.124.213-.221.441-.283.687h-2.245c.117-.852.444-1.627.935-2.28zm-.942 3.63h2.26c.064.239.158.469.282.677L14.9 34.765c-.492-.649-.827-1.426-.946-2.272zm4.177 4.161c-.845-.117-1.614-.448-2.264-.939l1.587-1.587c.208.122.438.211.677.273v2.253zm0-7.446c-.246.062-.476.161-.69.288l-1.59-1.591c.653-.496 1.429-.825 2.28-.943v2.246zm1.352-2.246c.852.118 1.627.447 2.28.944l-1.59 1.59c-.214-.127-.444-.226-.69-.288v-2.246zm0 9.691v-2.252c.24-.063.468-.152.677-.275l1.588 1.589c-.651.488-1.421.82-2.265.938zm3.234-1.882l-1.601-1.603c.124-.209.227-.434.291-.676h2.243c-.12.847-.441 1.629-.933 2.279zm-1.31-3.63c-.063-.244-.159-.474-.283-.687l1.593-1.593c.493.653.818 1.429.935 2.278l-2.245.002zM73.805 24C69.495 24 66 27.492 66 31.804c0 .334.027.66.069.982.482 3.847 3.759 6.824 7.735 6.824 4.087 0 7.435-3.142 7.773-7.141.018-.221.034-.44.034-.667.002-4.309-3.493-7.802-7.806-7.802zm-3.91 4.863l1.594 1.593c-.124.213-.222.441-.283.687h-2.245c.117-.852.443-1.627.934-2.28zm-.941 3.63h2.26c.064.239.158.469.282.677L69.9 34.764c-.491-.648-.827-1.425-.946-2.271zm4.177 4.161c-.845-.117-1.614-.448-2.264-.939l1.587-1.587c.208.122.438.211.677.273v2.253zm0-7.446c-.246.062-.476.161-.689.288l-1.591-1.591c.653-.496 1.43-.825 2.28-.943v2.246zm1.351-2.246c.852.118 1.627.447 2.279.944l-1.59 1.59c-.214-.127-.444-.226-.689-.288v-2.246zm0 9.691v-2.252c.239-.063.468-.152.677-.275l1.588 1.589c-.651.488-1.419.82-2.265.938zm3.234-1.882l-1.601-1.603c.124-.209.227-.434.291-.676h2.243c-.12.847-.439 1.629-.933 2.279zm-1.308-3.63c-.063-.244-.159-.474-.283-.687l1.593-1.593c.493.653.818 1.429.936 2.278l-2.246.002zM49.191 11.407L68.593 11.461 68.593 0 49.191 0zM70.945 11.467l20.686.058c-.16-.493-.455-.932-.851-1.267L79.52.638c-.503-.42-1.14-.646-1.795-.638h-6.781v11.467z" transform="translate(-805 -1015) translate(805 1015)"/>
                <path d="M88.127 18.03h3.592v-4.153L49.19 13.76v16.813h15.974c.81-4.268 4.532-7.363 8.876-7.381 4.203-.024 7.854 2.886 8.767 6.989h.817c1.472 0 2.906-.464 4.098-1.326l.715.912-.69-.963c2.492-1.813 3.967-4.707 3.97-7.788v-.634h-3.591c-.65 0-1.176-.527-1.176-1.176 0-.65.526-1.176 1.176-1.176zM34.708 3.046c-6.083 2.544-10.872 6.09-13.507 8.284l25.638.07V.045c-2.212.165-4.405.534-6.55 1.102-1.902.504-3.767 1.139-5.581 1.9z" transform="translate(-805 -1015) translate(805 1015)"/>
            </g>
        </g>
    </g>
</svg>
