<svg xmlns="http://www.w3.org/2000/svg" width="50" height="50" viewBox="0 0 50 50">
    <g fill="none" fill-rule="evenodd">
        <g fill="#FFF" fill-rule="nonzero">
            <g>
                <g>
                    <path d="M25 0C11.215 0 0 11.215 0 25s11.215 25 25 25 25-11.215 25-25S38.785 0 25 0zm0 45.455C13.721 45.455 4.545 36.279 4.545 25 4.545 13.722 13.721 4.545 25 4.545c11.279 0 20.455 9.177 20.455 20.455 0 11.279-9.176 20.455-20.455 20.455z" transform="translate(-647 -1057) translate(647 1057)"/>
                </g>
                <g stroke="#FFF" stroke-width=".5">
                    <path d="M19.28 7.14h-1.209c-.1-.283-.214-.561-.344-.833l.857-.857c.279-.279.279-.731 0-1.01l-3.033-3.027c-.278-.279-.73-.279-1.01 0l-.856.857c-.271-.13-.549-.246-.831-.347V.714c0-.394-.32-.714-.715-.714H7.855C7.46 0 7.14.32 7.14.714v1.21c-.284.1-.563.214-.835.343L5.45 1.41c-.279-.278-.73-.278-1.01 0L1.413 4.443c-.279.279-.279.73 0 1.01l.857.857c-.13.27-.246.548-.347.83H.714C.32 7.14 0 7.46 0 7.856v4.284c0 .395.32.715.714.715h1.21c.099.283.214.562.343.834l-.857.857c-.278.278-.278.73 0 1.01l3.03 3.03c.28.278.731.278 1.01 0l.857-.858c.272.13.55.244.834.344v1.21c0 .394.32.713.714.713h4.284c.395 0 .715-.32.715-.714v-1.209c.284-.1.562-.215.834-.344l.857.857c.28.279.731.279 1.01 0l3.03-3.03c.279-.279.279-.73 0-1.01l-.857-.856c.13-.272.244-.55.343-.834h1.21c.394 0 .713-.32.713-.715V7.855c0-.394-.32-.714-.714-.714zm-.714 4.285H17.55c-.32 0-.6.212-.687.52-.15.533-.362 1.047-.632 1.53-.157.28-.109.63.119.857l.714.718-2.016 2.017-.718-.714c-.227-.228-.577-.277-.857-.119-.484.27-.997.481-1.53.631-.308.087-.52.368-.52.687v1.014H8.569V17.55c0-.32-.212-.6-.52-.687-.533-.15-1.046-.362-1.53-.632-.28-.157-.63-.109-.857.119l-.714.714-2.02-2.016.714-.718c.228-.227.276-.577.118-.857-.27-.484-.48-.998-.63-1.531-.089-.305-.367-.514-.684-.516H1.428V8.57h1.018c.319 0 .6-.212.687-.52.15-.532.361-1.046.63-1.53.159-.28.11-.63-.118-.857l-.714-.714 2.017-2.02.714.714c.226.228.577.276.857.118.484-.269.997-.48 1.53-.63.306-.087.518-.366.52-.684V1.428h2.856v1.018c0 .32.213.6.52.687.533.15 1.047.362 1.53.63.28.159.631.11.857-.118l.718-.714 2.017 2.017-.714.714c-.228.226-.277.577-.119.857.27.484.481.998.631 1.53.087.308.368.52.687.52h1.014v2.856h0z" transform="translate(-647 -1057) translate(647 1057) translate(15 15)"/>
                    <path d="M9.997 4.999C7.237 4.999 5 7.237 5 9.997c0 2.76 2.238 4.999 4.998 4.999 2.76 0 4.999-2.238 4.999-4.999-.003-2.76-2.24-4.995-4.999-4.998zm0 8.569c-1.972 0-3.57-1.599-3.57-3.57 0-1.973 1.598-3.571 3.57-3.571 1.972 0 3.57 1.598 3.57 3.57-.002 1.971-1.599 3.568-3.57 3.57z" transform="translate(-647 -1057) translate(647 1057) translate(15 15)"/>
                </g>
            </g>
        </g>
    </g>
</svg>
