<svg xmlns="http://www.w3.org/2000/svg" width="50" height="50" viewBox="0 0 50 50">
    <g fill="none" fill-rule="evenodd">
        <g fill="#FFF" fill-rule="nonzero">
            <g>
                <path d="M25 0C11.215 0 0 11.215 0 25s11.215 25 25 25 25-11.215 25-25S38.785 0 25 0zm0 45.455C13.721 45.455 4.545 36.279 4.545 25 4.545 13.72 13.721 4.545 25 4.545c11.279 0 20.455 9.176 20.455 20.455 0 11.279-9.176 20.455-20.455 20.455z" transform="translate(-646 -2413) translate(646 2413)"/>
                <path d="M25 34.848c-1.67 0-3.03 1.36-3.03 3.03 0 1.671 1.36 3.031 3.03 3.031 1.67 0 3.03-1.36 3.03-3.032 0-1.67-1.36-3.029-3.03-3.029zM25 9.09c-4.597 0-8.337 3.74-8.337 8.338 0 1.255 1.017 2.273 2.272 2.273 1.256 0 2.273-1.018 2.273-2.273 0-2.09 1.701-3.792 3.792-3.792 2.09 0 3.792 1.701 3.792 3.792 0 2.09-1.701 3.792-3.792 3.792-1.255 0-2.273 1.017-2.273 2.272v4.538c0 1.255 1.018 2.273 2.273 2.273 1.255 0 2.273-1.018 2.273-2.273v-2.582c3.495-.992 6.064-4.21 6.064-8.02 0-4.597-3.74-8.337-8.337-8.337z" transform="translate(-646 -2413) translate(646 2413)"/>
            </g>
        </g>
    </g>
</svg>
