<svg xmlns="http://www.w3.org/2000/svg" width="50" height="50" viewBox="0 0 50 50">
    <g fill="none" fill-rule="evenodd">
        <g fill="#FFF" fill-rule="nonzero">
            <g>
                <path d="M25 0C11.215 0 0 11.215 0 25s11.215 25 25 25 25-11.215 25-25S38.785 0 25 0zm0 45.455C13.721 45.455 4.545 36.279 4.545 25 4.545 13.722 13.721 4.545 25 4.545c11.279 0 20.455 9.177 20.455 20.455 0 11.279-9.176 20.455-20.455 20.455z" transform="translate(-771 -1710) translate(771 1710)"/>
                <path d="M25 10.606c-1.67 0-3.03 1.36-3.03 3.032 0 1.67 1.36 3.029 3.03 3.029 1.67 0 3.03-1.36 3.03-3.03 0-1.67-1.36-3.03-3.03-3.03zM25 21.212c-1.255 0-2.273 1.018-2.273 2.273V37.12c0 1.255 1.018 2.273 2.273 2.273 1.255 0 2.273-1.018 2.273-2.273V23.485c0-1.255-1.018-2.273-2.273-2.273z" transform="translate(-771 -1710) translate(771 1710)"/>
            </g>
        </g>
    </g>
</svg>
