<svg xmlns="http://www.w3.org/2000/svg" xmlns:xlink="http://www.w3.org/1999/xlink" width="157" height="100" viewBox="0 0 157 100">
    <defs>
        <path id="rd5pgz4s5a" d="M0.208 0.052L31.51 0.052 31.51 31.354 0.208 31.354z"/>
        <path id="ky4v4lcy6c" d="M0.087 0.175L111.149 0.175 111.149 58.051 0.087 58.051z"/>
    </defs>
    <g fill="none" fill-rule="evenodd">
        <g>
            <g>
                <g transform="translate(-229 -2768) translate(229 2768) translate(125.212 .16)">
                    <mask id="q1tuuji4sb" fill="#fff">
                        <use xlink:href="#rd5pgz4s5a"/>
                    </mask>
                    <path fill="#FFF" d="M31.51 15.703c0 8.644-7.007 15.651-15.65 15.651-8.644 0-15.652-7.007-15.652-15.65C.208 7.058 7.216.051 15.86.051c8.644 0 15.651 7.007 15.651 15.651" mask="url(#q1tuuji4sb)"/>
                </g>
                <g transform="translate(-229 -2768) translate(229 2768) translate(44.915 41.897)">
                    <mask id="02b1eo1dpd" fill="#fff">
                        <use xlink:href="#ky4v4lcy6c"/>
                    </mask>
                    <path fill="#FFF" d="M3.71 3.445C17.183.155 61.261-2.65 92.613 5.485c5.077 1.317 17.429 4.917 18.477 13.13 0 0 1.707 6.07-13.335 13.273-15 7.184-27.565 11.45-37.688 14.453-9.675 2.87-27.369 7.636-33.23 8.732-4.955.927-15.387 3.114-20.81 2.971-3.829-.1-1.499-2.025 1.103-3.536 4.735-2.749 18.02-7.258 24.973-9.55 6.954-2.291 28.988-10.028 33.741-11.813 5.672-2.13 16.29-6.826 19.418-8.943 3.726-2.523 8.072-6.399 3.774-8.876-3.77-2.173-7.409-2.623-15.527-3.753-8.021-1.116-26.97-1.849-32.24-1.896-5.217-.048-16.665-.51-19.833-.553C19.223 9.094 3.18 8.129 1 6.717-.531 5.725-.452 4.461 3.709 3.445" mask="url(#02b1eo1dpd)"/>
                </g>
                <path fill="#FFF" d="M11.75 72.497l1.867-7.898 1.748 7.898H11.75zm6.601-14.72H9.039L.906 80.786h8.84l.668-2.908h6.248l.825 2.907h8.84l-7.976-23.01zM70.411 72.497l1.867-7.898 1.748 7.898h-3.615zm6.601-14.72H67.7l-8.133 23.01h8.84l.668-2.908h6.248l.825 2.907h8.84l-7.976-23.01zM31.819 80.786L31.819 57.776 39.771 57.776 46.872 69.621 46.872 57.776 54.82 57.776 54.82 80.786 46.872 80.786 39.771 68.883 39.771 80.786zM0 87.394h1.26c-.002.211.041.347.129.407.062.04.143.063.242.07.1.008.412.014.937.018.55-.002.88-.006.992-.011.11-.005.198-.021.262-.049.096-.04.144-.147.144-.322 0-.127-.034-.212-.101-.255-.068-.042-.206-.066-.415-.07-.16 0-.5-.013-1.02-.038-.531-.025-.877-.04-1.038-.044-.313-.01-.553-.04-.72-.089-.169-.049-.3-.128-.394-.239-.16-.183-.24-.49-.24-.92 0-.481.091-.82.275-1.02.14-.153.354-.252.644-.294.29-.044.88-.065 1.767-.065.628 0 1.069.018 1.323.053.393.055.662.163.807.327.147.164.22.44.22.828l-.004.2H3.81c-.004-.12-.014-.2-.03-.244-.015-.044-.046-.08-.092-.107-.056-.033-.156-.055-.297-.064-.142-.009-.442-.014-.901-.014-.553 0-.89.017-1.01.052-.122.034-.182.13-.182.286 0 .15.06.242.181.275.1.027.56.054 1.38.079.69.02 1.152.045 1.384.073.232.028.418.082.555.161.157.094.267.223.332.386.064.164.097.4.097.706 0 .402-.055.701-.163.897-.081.144-.195.252-.34.322-.144.072-.348.12-.61.144-.282.025-.807.038-1.574.038-.642 0-1.117-.017-1.423-.05-.307-.033-.537-.093-.691-.178-.161-.092-.272-.213-.333-.363C.03 88.13 0 87.9 0 87.595v-.2zM8.637 84.539L13.366 84.539 13.366 85.543 9.919 85.543 9.919 86.159 13.191 86.159 13.191 87.097 9.919 87.097 9.919 87.783 13.391 87.783 13.391 88.808 8.637 88.808zM19.35 86.388h2.975l.006.115c0 .603-.016 1.056-.047 1.36-.05.493-.33.791-.838.895-.22.044-.47.074-.753.09-.282.015-.713.023-1.293.023-.734 0-1.253-.02-1.558-.06-.304-.04-.545-.118-.722-.237-.121-.081-.214-.186-.278-.313-.065-.127-.11-.295-.135-.504-.025-.194-.037-.577-.037-1.15 0-.39.01-.684.03-.883.022-.198.062-.375.123-.531.123-.33.384-.53.785-.601.438-.077 1.11-.116 2.017-.116.538 0 .964.014 1.277.04.312.028.57.073.772.135.328.103.525.324.594.664.034.168.052.401.053.697h-1.3c-.003-.12-.01-.203-.023-.245-.012-.043-.038-.08-.078-.108-.073-.052-.225-.085-.456-.097-.22-.013-.536-.02-.951-.02-.45 0-.772.011-.965.032-.193.02-.325.06-.396.116-.07.058-.119.154-.144.286-.025.133-.037.36-.037.68 0 .36.012.613.037.756.025.143.073.243.144.302.071.056.163.09.277.101.113.012.473.022 1.077.03.593-.004.952-.01 1.08-.017.127-.007.229-.027.306-.058.063-.027.107-.071.133-.133.026-.062.04-.154.04-.277l-.004-.118H19.35v-.855zM25.781 84.539h1.302V86.5c.006.45.021.735.046.854.034.167.142.276.324.329.183.051.551.077 1.106.077.45 0 .763-.012.937-.038.174-.027.298-.078.37-.155.048-.054.082-.12.102-.198.02-.077.035-.209.045-.397.01-.191.016-.349.016-.472V84.54h1.301V86.5c-.014.682-.036 1.128-.065 1.339-.053.359-.224.621-.513.788-.165.096-.398.16-.698.194-.3.033-.794.05-1.48.05-.515 0-.912-.01-1.191-.028-.28-.019-.523-.052-.73-.1-.456-.109-.723-.384-.8-.826-.029-.169-.047-.322-.054-.46-.008-.138-.013-.456-.018-.957V84.54zM36.17 86.656H38c.318-.006.509-.012.57-.017.062-.005.114-.021.158-.048.056-.036.096-.089.119-.158.023-.07.034-.176.034-.318 0-.14-.013-.244-.039-.312-.026-.07-.071-.12-.136-.15-.046-.022-.1-.034-.164-.038-.064-.004-.246-.008-.546-.01H36.17v1.051zm-1.302 2.152v-4.27h3.144c.738.003 1.18.01 1.326.024.146.014.287.062.422.146.163.098.274.233.335.405.06.172.09.442.09.812 0 .31-.019.539-.057.684-.039.147-.111.263-.218.35-.115.095-.287.16-.519.195.273.02.47.099.588.234.069.082.113.18.132.296.018.115.027.358.027.727v.397h-1.282v-.228c0-.238-.009-.407-.026-.508-.018-.101-.051-.179-.099-.233-.048-.05-.114-.082-.198-.096-.085-.013-.261-.02-.53-.02H36.17v1.085h-1.302zM46.46 85.587c-.69 0-1.105.017-1.244.053-.16.042-.266.135-.316.28-.05.145-.075.433-.075.864 0 .262.013.45.04.567.053.217.21.34.473.372.194.025.57.038 1.129.038.523 0 .872-.01 1.044-.028.173-.02.302-.061.385-.126.075-.058.126-.144.154-.258.026-.113.04-.3.04-.558 0-.307-.01-.532-.031-.676-.021-.144-.058-.252-.113-.325-.069-.092-.182-.149-.34-.17-.16-.022-.54-.033-1.145-.033m-.004-1.11c.922 0 1.556.022 1.902.068.498.067.804.304.917.71.077.28.115.752.115 1.417 0 .667-.038 1.14-.115 1.42-.113.407-.419.644-.917.71-.346.046-.976.069-1.89.069-.93 0-1.567-.023-1.913-.069-.499-.066-.804-.303-.917-.71-.077-.28-.115-.761-.115-1.445 0-.65.038-1.114.115-1.392.113-.406.418-.643.917-.71.344-.046.978-.069 1.901-.069M52.714 87.394h1.26c-.002.211.041.347.128.407.063.04.144.063.243.07.099.008.411.014.936.018.551-.002.881-.006.992-.011.11-.005.198-.021.263-.049.096-.04.144-.147.144-.322 0-.127-.034-.212-.102-.255-.068-.042-.206-.066-.414-.07-.161 0-.5-.013-1.02-.038-.532-.025-.878-.04-1.039-.044-.312-.01-.553-.04-.72-.089-.168-.049-.3-.128-.393-.239-.16-.183-.24-.49-.24-.92 0-.481.09-.82.275-1.02.14-.153.354-.252.644-.294.29-.044.879-.065 1.767-.065.628 0 1.068.018 1.323.053.392.055.661.163.807.327.146.164.219.44.219.828l-.003.2h-1.26c-.005-.12-.015-.2-.03-.244-.016-.044-.047-.08-.093-.107-.056-.033-.155-.055-.297-.064-.142-.009-.442-.014-.9-.014-.553 0-.89.017-1.01.052-.122.034-.182.13-.182.286 0 .15.06.242.181.275.1.027.56.054 1.38.079.69.02 1.151.045 1.383.073.233.028.418.082.556.161.156.094.267.223.331.386.065.164.097.4.097.706 0 .402-.054.701-.163.897-.08.144-.194.252-.339.322-.145.072-.348.12-.611.144-.282.025-.806.038-1.573.038-.643 0-1.117-.017-1.424-.05-.306-.033-.537-.093-.69-.178-.162-.092-.273-.213-.334-.363s-.092-.379-.092-.685v-.2z" transform="translate(-229 -2768) translate(229 2768)"/>
            </g>
        </g>
    </g>
</svg>
