<svg xmlns="http://www.w3.org/2000/svg" xmlns:xlink="http://www.w3.org/1999/xlink" width="283" height="60" viewBox="0 0 283 60">
    <defs>
        <path id="jx812ckjca" d="M0.039 0.187L18.443 0.187 18.443 30.804 0.039 30.804z"/>
    </defs>
    <g fill="none" fill-rule="evenodd">
        <g>
            <g>
                <path fill="#FEFEFE" d="M0 35.017L282.74 35.017 282.74 32.968 0 32.968z" transform="translate(-578 -2788) translate(578 2788)"/>
                <g>
                    <g transform="translate(-578 -2788) translate(578 2788) translate(1.636 .358)">
                        <mask id="o91pd1imqb" fill="#fff">
                            <use xlink:href="#jx812ckjca"/>
                        </mask>
                        <path fill="#FEFEFE" d="M15.16 6.618c-.63-.745-1.107-1.397-1.672-1.96-1.589-1.586-3.943-1.964-5.933-1.005-2.443 1.176-2.967 4.195-.826 6 1.502 1.265 3.354 2.12 5.064 3.136.937.558 1.928 1.028 2.851 1.607 6.111 3.83 4.053 12.333-.576 14.716C9.805 31.308 3.908 31.45.04 29.047l1.548-5.388c.91 1.114 1.65 2.22 2.585 3.12 1.693 1.628 4.404 1.955 6.522.947 2.699-1.281 3.15-5.245.706-6.96-1.427-1.002-3.064-1.7-4.557-2.615-1.37-.838-2.827-1.62-3.977-2.708-3.905-3.695-3.551-9.729.786-12.9C7.216-.062 11.139-.568 15.226 1.331c1.671.776 1.891 1.551 1.06 3.174-.343.668-.705 1.325-1.126 2.113" mask="url(#o91pd1imqb)"/>
                    </g>
                    <path fill="#FEFEFE" d="M128.328 55.725c3.785 0 7.434-.048 11.081.025 1.36.028 1.7-.5 1.688-1.764-.012-1.236-.174-1.976-1.683-1.941-3.327.078-6.659.02-9.989.031-.358.001-.715.088-1.097.138v3.511zm.036-7.247c3.952 0 7.75.015 11.547-.025.361-.004.888-.252 1.05-.545.868-1.577-.09-3.143-1.86-3.141h-10.737v3.71zm-3.536-7.129c5.25 0 10.398-.118 15.537.041 3.49.108 5.748 4.153 4.338 7.4-.226.518-.535 1-.613 1.146.37 1.596.892 2.896.927 4.208.073 2.747-2.154 5.056-4.912 5.103-5.05.084-10.103.024-15.277.024V41.349zM204.967 55.338v-.005c1.05 0 2.1.05 3.147-.01 2.589-.152 4.663-2.28 4.754-4.82.093-2.607-1.871-5.021-4.473-5.2-2.228-.155-4.486-.163-6.712.012-2.643.209-4.53 2.617-4.386 5.266.14 2.57 2.23 4.65 4.81 4.751.952.038 1.907.006 2.86.006m.102 4.117c-1.837-.184-3.734-.139-5.5-.598-4.206-1.092-6.98-5.42-6.373-9.578.683-4.68 4.226-7.892 8.79-7.941 2.047-.023 4.095-.02 6.142 0 4.89.046 8.805 3.933 8.852 8.767.05 5.037-3.776 9.053-8.752 9.174-1.047.026-2.095.004-3.142.004l-.017.172M222.853 48.54c3.8 0 7.45-.035 11.1.02 1.29.02 1.803-.433 1.756-1.737-.062-1.72-.212-1.98-1.802-1.987-3.325-.016-6.65-.01-9.974.002-.357 0-.715.088-1.08.136v3.567zm16.704 10.679c-4.477.239-4.695.355-6.626-3.263-1.632-3.057-3.693-4.527-7.18-3.864-.903.171-1.869.025-2.913.025v7.064h-3.444V41.358h5.487c3.047 0 6.094-.008 9.14.002 2.953.01 5.282 1.836 5.64 4.401.425 3.032-1.074 5.274-4.145 6.21-.129.04-.248.11-.526.237l4.567 7.011zM191.366 41.421v17.786c-1.804.05-3.409.362-5.014-1.131-3.69-3.43-7.622-6.6-11.457-9.872-.172-.146-.368-.263-.738-.525V59.16h-3.568V41.426c1.778-.09 3.429-.378 5.064 1.14 3.587 3.333 7.408 6.413 11.136 9.594.282.24.588.45 1.094.834V41.421h3.483zM266.565 55.736h14.51v3.467h-18.1V41.437h18.068v3.313c-.5.027-1.004.075-1.51.076-3.813.007-7.629.064-11.44-.029-1.364-.032-1.787.431-1.63 1.703.075.599.014 1.214.014 1.962h11.759v3.564h-11.67v3.71zM106.386 48.923V41.94l-.233-.042c-.727 1.978-1.486 3.945-2.163 5.94-.256.76-.63 1.156-1.432.918-2.31-.686-4.725-1.155-6.888-2.16-2.632-1.222-2.56-3.488-.016-4.938 3.726-2.126 7.88-2.474 12.026-2.493 3.809-.018 7.621.35 11.139 2.04 1.28.617 2.745 1.271 2.725 2.964-.02 1.693-1.48 2.337-2.792 2.9-3.886 1.665-7.998 1.836-12.366 1.855M101.596 20.575c.307 1.617.413 2.864.792 4.02.745 2.272 2.21 3.9 4.727 4.189 2.407.277 4.355-.694 5.551-2.744 2.02-3.46 2.242-7.13.51-10.766-.986-2.067-2.764-3.315-5.114-3.316-2.264-.002-3.928 1.276-4.793 3.265-.781 1.797-1.188 3.755-1.673 5.352m6.002 10c-3.839-.125-7.316-1.088-9.269-4.745-3.735-6.993 1.05-15.26 8.982-15.533 3.887-.133 7.592.581 9.945 4.078 2.305 3.427 2.333 7.17.576 10.825-1.768 3.678-5.084 5.045-8.949 5.37-.425.036-.856.005-1.285.005M85.732 19.66c.522 0 .9.043 1.264-.007 2.072-.29 3.273-1.967 2.96-4.097-.348-2.352-1.448-3.367-3.404-3.051-.303.05-.777.451-.784.701-.064 2.124-.036 4.252-.036 6.454zm-4.38-8.777c3.221 0 6.363-.159 9.479.059 1.914.133 3.097 1.518 3.489 3.456.426 2.106-.122 3.859-1.886 5.155-.68.5-1.405.941-2.181 1.457l5.325 8.646c-2.976 1.236-5.146.456-6.522-2.213-.586-1.135-1.218-2.249-1.89-3.333-.292-.471-.74-.846-1.34-1.51v7.243h-4.473v-18.96zM154.124 50.284h5.637l-2.825-5.48-2.812 5.48m14.295 8.942c-4.076.213-4.12.233-5.688-3.194-.678-1.482-1.496-2.299-3.307-2.114-1.983.202-4.002.07-6.004.035-.797-.013-1.37.15-1.653.995-.178.533-.534 1.004-.79 1.512-1.613 3.205-1.61 3.206-5.489 2.673l3.535-6.973c1.612-3.174 3.27-6.327 4.812-9.535.451-.938.974-1.212 2.009-1.345 2.632-.341 4.037.584 5.142 3.077 2.113 4.766 4.67 9.336 7.04 13.989.125.245.225.501.393.88M50.32 21.918h4.074c0 2.144.115 4.23-.073 6.288-.054.587-.976 1.552-1.52 1.565-3.696.09-7.428.252-11.086-.162-3.107-.354-5.01-2.64-5.69-5.66-.94-4.172-.48-8.145 3.014-11.06 2.762-2.301 6.184-2.811 9.698-2.521 1.175.097 2.35.38 3.488.709 2.075.598 2.387 1.737 1.015 3.444-.954-.51-1.886-1.074-2.871-1.52-3.71-1.68-6.683-.707-8.73 2.804-1.246 2.14-1.69 4.45-1.226 6.857.796 4.136 4.106 6.397 8.453 5.854 1.228-.154 1.373-1.214 1.43-2.144.088-1.416.023-2.841.023-4.454M73.506 11.04h3.153c-.142 2.982-.25 5.907-.431 8.829-.103 1.657-.266 3.316-.504 4.96-.455 3.151-1.865 4.65-4.996 5.425-2.467.61-4.93.454-7.328-.283-2.608-.802-4.113-2.659-4.171-5.35-.097-4.512-.027-9.027-.027-13.659h4.229c0 2.763-.03 5.507.011 8.25.028 1.803.026 3.623.276 5.402.395 2.815 2.36 4.283 5.213 4.132 2.537-.135 4.4-1.935 4.491-4.63.123-3.61.065-7.226.083-10.84.004-.704 0-1.408 0-2.236M249.2 44.932c-1.958 0-3.762-.086-5.552.03-1.314.083-1.71-.405-1.557-1.626.075-.599.013-1.214.013-1.898h18.2v3.43h-6.886v14.324H249.2v-14.26zM26.835 28.209h6.336c-.707 1.511-1.565 2.01-2.871 1.964-2.285-.082-4.576-.007-6.859-.103-.388-.016-1.077-.557-1.08-.861-.064-6.076-.048-12.152-.048-18.374 3.185 0 6.265-.09 9.332.063.782.039 1.525.852 2.286 1.31l-.596.768h-6.528v5.675c1.967.648 4.396-.772 6.249 1.718-1.137.343-2.064.744-3.029.88-1.015.143-2.066.032-3.192.032v6.928zM132.38 11.364l-1.004 3.051c-.516-.473-.913-.81-1.279-1.176-1.556-1.56-3.788-1.447-4.871.338-.234.385-.287 1.215-.036 1.498 1.021 1.15 2.178 2.183 3.32 3.221.307.28.737.423 1.11.632 2.036 1.142 3.792 2.529 3.499 5.177-.367 3.327-2.366 5.678-5.258 6.373-2.071.498-4.068.078-6.014-.606-.268-.095-.568-.626-.541-.926.072-.79.315-1.566.532-2.532.723.512 1.296.971 1.92 1.346.52.312 1.077.641 1.66.761 1.475.303 3.344-.507 3.709-1.504.383-1.049-.83-3.565-2.086-4.227-.88-.465-1.832-.799-2.692-1.293-2.702-1.552-3.797-4.242-2.908-6.995.9-2.786 3.677-4.572 6.683-4.154 1.396.194 2.755.65 4.256 1.016M106.526 59.275v-9.696c3.616.326 7.088.755 10.072 2.87 1.852 1.314 1.806 2.924-.1 4.23-2.22 1.523-4.813 1.96-7.404 2.349-.824.123-1.66.162-2.568.247M103.297 49.6c-1.126 3.115-2.144 6.009-3.248 8.87-.132.342-.81.782-1.109.703-2.281-.607-4.6-1.17-6.755-2.096-.893-.384-1.799-1.536-2.015-2.492-.289-1.277.93-2.082 2.002-2.642 3.41-1.779 7.102-2.247 11.125-2.342" transform="translate(-578 -2788) translate(578 2788) translate(1.636 .358)"/>
                </g>
            </g>
        </g>
    </g>
</svg>
