<svg xmlns="http://www.w3.org/2000/svg" xmlns:xlink="http://www.w3.org/1999/xlink" width="148" height="70" viewBox="0 0 148 70">
    <defs>
        <path id="ep41mhclba" d="M0 69.809L147.978 69.809 147.978 0 0 0z"/>
    </defs>
    <g fill="none" fill-rule="evenodd">
        <g>
            <g transform="translate(-233 -3055) translate(233 3055)">
                <path fill="#FEFEFE" d="M19.623 56.302c-1.648.333-3.194.581-4.64.749-1.445.165-2.822.25-4.126.25-3.585 0-6.285-.85-8.1-2.547C.943 53.056.035 50.54.035 47.197c0-3.395.921-5.986 2.764-7.775 1.84-1.787 4.519-2.681 8.03-2.681 2.99 0 5.206.513 6.647 1.54 1.44 1.028 2.202 2.634 2.283 4.823h-5.661c-.044-.784-.36-1.41-.945-1.878-.586-.469-1.36-.703-2.323-.703-1.621 0-2.88.568-3.777 1.703-.896 1.134-1.343 2.729-1.343 4.782 0 2.16.487 3.787 1.465 4.884.977 1.092 2.434 1.64 4.37 1.64.467 0 .955-.029 1.459-.09.504-.058 1.022-.148 1.552-.276V49.52h-4.118v-3.783h9.185v10.565zM36.27 43.077v10.928c0 .358.018.782.053 1.263.037.482.096 1.047.178 1.695h-5.176l-.08-2.027c-.414.722-1.018 1.292-1.81 1.71-.793.418-1.665.628-2.62.628-1.695 0-2.98-.447-3.857-1.338-.878-.89-1.318-2.2-1.318-3.93v-8.93h5.12v7.025c0 1.55.157 2.586.474 3.114.315.527.859.79 1.634.79.72 0 1.282-.26 1.689-.777.403-.518.608-1.246.608-2.182v-7.97h5.105z"/>
                <mask id="tejrpagvlb" fill="#fff">
                    <use xlink:href="#ep41mhclba"/>
                </mask>
                <path fill="#FEFEFE" d="M38.449 56.963h5.12V43.077h-5.12v13.886zm-.082-16.21h5.254V37.04h-5.254v3.715zM50.917 49.966c0 1.432.204 2.494.614 3.188.409.693 1.039 1.04 1.885 1.04.773 0 1.391-.376 1.85-1.128.46-.752.689-1.785.689-3.1 0-1.341-.235-2.383-.702-3.122-.469-.737-1.122-1.107-1.958-1.107-.775 0-1.365.359-1.77 1.075-.406.716-.608 1.767-.608 3.154zm5.146 6.996l-.055-1.822c-.621.739-1.306 1.283-2.058 1.635-.752.351-1.625.526-2.614.526-1.838 0-3.262-.637-4.27-1.91-1.008-1.276-1.512-3.065-1.512-5.371 0-2.35.515-4.152 1.545-5.403 1.032-1.253 2.515-1.878 4.452-1.878.891 0 1.705.166 2.446.5.737.333 1.355.805 1.849 1.418v-7.62h5.12v16.684c0 .414.018.898.055 1.45.035.557.09 1.153.161 1.791h-5.119zM67.33 48.331h4.918c-.082-.928-.322-1.63-.722-2.107-.402-.477-.94-.715-1.616-.715-.764 0-1.355.226-1.769.682-.413.454-.683 1.167-.81 2.14zm9.524 4.149c-.225 1.558-.951 2.75-2.18 3.578-1.23.828-2.885 1.242-4.965 1.242-2.333 0-4.105-.604-5.316-1.817-1.213-1.21-1.817-2.986-1.817-5.328 0-2.378.626-4.207 1.877-5.492 1.251-1.283 3.04-1.924 5.363-1.924 2.323 0 4.087.64 5.29 1.92 1.2 1.277 1.803 3.146 1.803 5.603 0 .253-.003.442-.006.568-.006.126-.017.243-.036.352h-9.59c0 1.099.223 1.928.668 2.483.446.562 1.11.84 1.993.84.622 0 1.124-.171 1.506-.508.382-.336.637-.844.764-1.517h4.646zM84.622 45.98h2.457c1.18 0 2.052-.215 2.615-.647.562-.434.844-1.104.844-2.014 0-.89-.277-1.54-.83-1.951-.555-.41-1.43-.615-2.629-.615h-2.457v5.228zm-5.539 10.983V37.038h9.132c2.601 0 4.572.538 5.909 1.613 1.338 1.077 2.006 2.66 2.006 4.75 0 2.044-.661 3.636-1.984 4.775-1.325 1.14-3.171 1.707-5.54 1.707h-3.984v7.08h-5.539zM101.79 49.992c0 1.566.202 2.698.608 3.39.405.697 1.063 1.042 1.971 1.042.911 0 1.571-.345 1.981-1.033.409-.69.614-1.822.614-3.399 0-1.576-.205-2.711-.614-3.411-.41-.696-1.07-1.046-1.98-1.046-.902 0-1.555.35-1.966 1.046-.408.7-.614 1.835-.614 3.411m-5.39.027c0-2.331.69-4.134 2.073-5.403 1.382-1.27 3.357-1.904 5.925-1.904 2.548 0 4.512.633 5.897 1.897 1.382 1.265 2.073 3.07 2.073 5.41 0 2.343-.691 4.145-2.073 5.41-1.385 1.266-3.349 1.9-5.897 1.9-2.568 0-4.543-.636-5.925-1.907-1.383-1.27-2.073-3.07-2.073-5.403M114.11 56.963h5.12V43.077h-5.12v13.886zm-.08-16.21h5.254V37.04h-5.254v3.715zM121.34 56.962V46.09c0-.325-.018-.725-.053-1.203-.035-.477-.09-1.08-.162-1.81h5.2l.054 1.986c.413-.712 1.018-1.276 1.81-1.695.792-.419 1.667-.628 2.621-.628 1.694 0 2.978.442 3.856 1.33.878.888 1.318 2.187 1.318 3.9v8.993h-5.12v-7.08c0-1.537-.157-2.569-.472-3.091-.317-.523-.861-.782-1.635-.782-.729 0-1.295.252-1.697.763-.4.508-.6 1.23-.6 2.167v8.023h-5.12zM147.978 56.962c-.646.09-1.261.16-1.842.205-.583.045-1.12.067-1.615.067-1.63 0-2.834-.325-3.614-.974-.779-.648-1.168-1.648-1.168-2.997v-6.864h-2.592v-3.323h2.592v-2.16l5.012-2.094v4.254h3.227v3.323h-3.308v5.862c0 .568.143.973.432 1.216.287.244.77.367 1.446.367.144 0 .383-.015.722-.04.338-.03.574-.046.708-.056v3.214zM101.116 9.53l9.489-9.488.031-.042-11.885 8.162c-6.026-3.244-12.913-5.107-20.236-5.107-19.761 0-36.388 13.473-41.333 31.562h7.975c4.527-14.131 17.747-24.301 33.358-24.301 4.7 0 9.182.94 13.275 2.624L62.073 33.35l15.198.027 22.39-22.39 1.455-1.456zM103.625 11.193l-3.916 6.26c5.645 4.299 9.948 10.38 12.165 17.164h7.974c-2.597-9.61-8.42-17.763-16.223-23.424M88.15 64.411c.113-.06.17-.187.17-.383v-.702c0-.196-.057-.324-.17-.386-.084-.051-.23-.078-.441-.078h-3.053v1.628h3.053c.21 0 .357-.027.44-.079" mask="url(#tejrpagvlb)"/>
                <path fill="#FEFEFE" d="M128.5 65.044v2.645h-1.37v-2.611l-3.03-3.223h1.81l2.001 2.24 2.012-2.24h1.594l-3.018 3.189zm-11.894-2.149h-2.69v4.794h-1.358v-4.794h-2.68v-1.04h6.728v1.04zM99.624 67.69h1.357v-5.834h-1.357v5.834zm-11.327 0l-2.352-2.205h-1.29v2.205h-1.333v-5.834h4.998c.873 0 1.31.379 1.31 1.13v1.37c0 .565-.224.915-.678 1.05-.173.055-.64.08-1.402.08l2.692 2.204h-1.945zM73.102 66.31c0 .543-.104.908-.311 1.097-.206.188-.586.282-1.136.282H67.97c-.55 0-.93-.094-1.137-.282-.208-.189-.31-.554-.31-1.097v-4.455h1.357v4.738h3.865v-4.738h1.357v4.455zm-21.64-3.415v3.698h3.663V65.34l1.357.281v.69c0 .543-.103.908-.31 1.097-.207.188-.586.282-1.137.282h-3.482c-.55 0-.928-.094-1.136-.282-.207-.189-.311-.554-.311-1.097v-3.075c0-.542.104-.907.311-1.097.208-.187.587-.283 1.136-.283h3.482c.693 0 1.124.163 1.29.488.105.187.157.67.157 1.447l-1.357.214v-1.109h-3.662zM40.487 67.69H34.46v-5.834h5.97v.997h-4.613v1.3h2.69v.994h-2.69v1.447h4.668v1.096zM24.41 66.31c0 .543-.106.908-.317 1.097-.21.188-.593.282-1.142.282h-3.606c-.597 0-.988-.104-1.176-.315-.19-.213-.283-.618-.283-1.223l1.2-.248v.69h4.124V65.26h-3.64c-.55 0-.929-.094-1.136-.282-.206-.189-.31-.554-.31-1.097v-.645c0-.542.104-.907.31-1.097.207-.187.586-.283 1.137-.283h3.313c.558 0 .938.097 1.14.29.205.19.307.563.307 1.114l-1.2.281v-.666h-3.82v1.254h3.64c.55 0 .931.096 1.142.283.211.188.317.555.317 1.097v.802zM.933 69.81h146.971V59.633H.933V69.81zM19.588 56.156c-1.648.333-3.194.581-4.64.749-1.445.166-2.822.25-4.126.25-3.585 0-6.285-.85-8.1-2.545C.908 52.91 0 50.393 0 47.051c0-3.394.921-5.986 2.764-7.774 1.84-1.787 4.518-2.682 8.03-2.682 2.99 0 5.206.514 6.646 1.541 1.441 1.027 2.203 2.633 2.283 4.822h-5.66c-.044-.784-.36-1.41-.945-1.877-.586-.47-1.36-.704-2.324-.704-1.62 0-2.88.568-3.776 1.703-.896 1.134-1.343 2.729-1.343 4.782 0 2.16.487 3.787 1.465 4.884.976 1.092 2.434 1.64 4.37 1.64.467 0 .954-.029 1.459-.089.504-.059 1.021-.149 1.552-.276v-3.646h-4.118V45.59h9.185v10.565zM36.234 42.93v10.93c0 .358.019.782.054 1.262.037.483.096 1.047.178 1.695H31.29l-.08-2.027c-.414.722-1.019 1.292-1.81 1.71-.793.418-1.665.629-2.62.629-1.695 0-2.98-.447-3.858-1.339-.877-.89-1.318-2.2-1.318-3.93v-8.93h5.12v7.025c0 1.55.158 2.586.475 3.114.314.527.859.79 1.634.79.72 0 1.282-.26 1.689-.777.403-.517.607-1.246.607-2.182v-7.97h5.105zM38.414 56.817h5.12V42.931h-5.12v13.886zm-.082-16.21h5.254v-3.714h-5.254v3.715zM50.881 49.82c0 1.433.205 2.495.615 3.188.409.693 1.039 1.04 1.884 1.04.774 0 1.392-.375 1.851-1.127.46-.752.688-1.786.688-3.1 0-1.342-.234-2.384-.701-3.12-.47-.74-1.122-1.11-1.958-1.11-.776 0-1.365.359-1.77 1.076-.406.715-.609 1.767-.609 3.154zm5.147 6.996l-.055-1.822c-.621.739-1.306 1.283-2.058 1.635-.754.352-1.625.526-2.615.526-1.837 0-3.261-.637-4.27-1.91-1.007-1.276-1.512-3.065-1.512-5.37 0-2.35.516-4.153 1.546-5.404 1.032-1.253 2.515-1.878 4.452-1.878.891 0 1.705.166 2.445.5.737.333 1.355.805 1.85 1.418v-7.619h5.12v16.684c0 .413.018.897.055 1.45.035.556.09 1.152.161 1.79h-5.119zM67.295 48.185h4.918c-.08-.927-.322-1.629-.722-2.106-.402-.478-.94-.716-1.616-.716-.764 0-1.355.227-1.77.682-.413.454-.682 1.167-.81 2.14zm9.524 4.15c-.225 1.557-.952 2.75-2.181 3.577-1.23.829-2.884 1.243-4.964 1.243-2.334 0-4.105-.605-5.315-1.818-1.212-1.209-1.819-2.986-1.819-5.328 0-2.378.627-4.207 1.878-5.492 1.251-1.282 3.04-1.924 5.363-1.924 2.323 0 4.087.64 5.29 1.92 1.2 1.278 1.803 3.147 1.803 5.604 0 .253-.003.442-.007.567-.005.126-.016.243-.035.352h-9.59c0 1.1.223 1.928.668 2.484.446.561 1.11.84 1.993.84.621 0 1.124-.172 1.506-.508.382-.337.636-.844.764-1.518h4.646zM84.587 45.835h2.457c1.179 0 2.052-.216 2.614-.648.563-.434.846-1.104.846-2.014 0-.89-.278-1.54-.832-1.95-.554-.411-1.429-.615-2.628-.615h-2.457v5.227zm-5.539 10.982V36.893h9.132c2.6 0 4.572.537 5.909 1.612 1.338 1.078 2.006 2.66 2.006 4.75 0 2.044-.662 3.637-1.985 4.776-1.324 1.139-3.17 1.706-5.538 1.706h-3.985v7.08h-5.539zM101.755 49.846c0 1.567.202 2.699.608 3.39.405.697 1.063 1.042 1.97 1.042.912 0 1.572-.345 1.982-1.033.409-.69.613-1.822.613-3.399 0-1.576-.204-2.711-.613-3.411-.41-.695-1.07-1.045-1.981-1.045-.9 0-1.555.35-1.965 1.045-.409.7-.614 1.835-.614 3.411m-5.39.027c0-2.331.69-4.133 2.073-5.403 1.382-1.27 3.357-1.904 5.924-1.904 2.55 0 4.513.633 5.898 1.897 1.381 1.265 2.073 3.07 2.073 5.41 0 2.344-.692 4.146-2.073 5.41-1.385 1.266-3.349 1.9-5.898 1.9-2.567 0-4.542-.635-5.924-1.906-1.383-1.27-2.073-3.07-2.073-5.404M114.075 56.817h5.12V42.931h-5.12v13.886zm-.08-16.21h5.254v-3.714h-5.254v3.715zM121.306 56.817V45.944c0-.325-.019-.726-.054-1.204s-.09-1.08-.163-1.81h5.201l.053 1.987c.414-.712 1.019-1.276 1.811-1.695.792-.42 1.667-.63 2.621-.63 1.694 0 2.978.444 3.856 1.332.877.886 1.318 2.187 1.318 3.897v8.996h-5.12v-7.08c0-1.537-.157-2.57-.472-3.092-.317-.522-.861-.782-1.635-.782-.729 0-1.295.251-1.697.763-.4.509-.6 1.23-.6 2.168v8.023h-5.12zM147.943 56.817c-.647.089-1.261.158-1.843.204-.582.044-1.118.066-1.614.066-1.63 0-2.834-.324-3.614-.973-.78-.647-1.168-1.647-1.168-2.997v-6.864h-2.593v-3.322h2.593v-2.163l5.011-2.092v4.255h3.228v3.322h-3.308v5.863c0 .567.142.973.432 1.216.287.244.769.365 1.446.365.144 0 .383-.014.721-.04.339-.029.575-.044.709-.054v3.214z" mask="url(#tejrpagvlb)"/>
            </g>
        </g>
    </g>
</svg>
