<svg xmlns="http://www.w3.org/2000/svg" width="71" height="48" viewBox="0 0 71 48">
    <g fill="none" fill-rule="evenodd">
        <g fill="#FFF" fill-rule="nonzero">
            <g>
                <path d="M12.93 24.006h-.033c-2.442.01-4.415 1.997-4.406 4.44.009 2.442 1.996 4.415 4.439 4.406h.032c2.45-.006 4.432-1.99 4.437-4.439v-.004c-.032-2.444-2.024-4.407-4.469-4.403zm.01 5.75h-.01c-.474.002-.913-.25-1.152-.66-.238-.409-.24-.915-.005-1.326.236-.411.673-.666 1.147-.668h.01c.474-.002.913.25 1.151.66.239.409.24.915.005 1.326-.235.411-.672.666-1.146.668zM58.097 23.785h-.032c-1.171-.009-2.296.453-3.123 1.281-.827.829-1.287 1.955-1.276 3.125.015 2.442 1.988 4.42 4.43 4.44h.034c1.18-.013 2.306-.5 3.124-1.351.827-.826 1.286-1.95 1.275-3.118-.022-2.43-2.002-4.385-4.432-4.377zm.006 5.692c-.355.005-.695-.134-.946-.385-.389-.366-.51-.935-.303-1.427.207-.493.698-.805 1.232-.784h.01c.345-.017.682.108.931.346.25.239.39.57.389.915.005.351-.131.69-.378.941s-.583.393-.935.394z" transform="translate(-277 -1949) translate(277 1949)"/>
                <path d="M70.147 16.63c-.07-.9-.251-1.787-.543-2.641-.675-1.976-2.721-3.25-5.222-3.25h-.055c-1.267 0-3.457.021-4.692.027l-2.131-3.884C55.84 3.949 53.409.565 49.332.565h-.055l-27.702.23c-3.333.025-6.255 2.323-8.23 6.445l-2.159 3.9c-1.238.006-3.465.021-4.743.031-2.526.019-4.577 1.325-5.229 3.325-.278.858-.447 1.747-.503 2.646-.017.416.14.82.435 1.113.294.294.697.454 1.113.444h.014l2.151.009c-1.108 1.362-1.697 3.073-1.662 4.828 0 .068.005.135.013.202l1.717 12.81c.065 1.896 1.354 3.53 3.182 4.034l.027 3.689c.01 1.621 1.316 2.936 2.938 2.955h.022l4.225-.05c1.624-.017 2.929-1.345 2.918-2.97l-.026-3.525 35.65-.265.026 3.52c.004.77.32 1.504.877 2.037.552.534 1.294.826 2.063.81h.022l4.224.004c.776.002 1.52-.306 2.068-.856s.854-1.295.85-2.07l-.028-3.705c1.783-.557 3.01-2.19 3.05-4.057l1.6-12.828c.009-.067.013-.135.012-.203-.003-1.761-.644-3.461-1.805-4.786l2.226-.017c.424-.003.827-.18 1.117-.489.29-.308.44-.722.417-1.145zm-54.07-7.916c.016-.028.03-.057.045-.086.832-1.75 2.652-4.715 5.478-4.736l27.701-.23h.03c1.962 0 3.602 1.44 5.471 4.734l4.256 7.721-3.609.056c-.68-3.423-3.689-5.886-7.179-5.878h-.054c-3.515.011-6.52 2.531-7.145 5.99l-29.301.205 4.308-7.776zm36.177 7.49l-7.987.047c.573-1.707 2.172-2.858 3.972-2.86h.032c1.79-.006 3.39 1.123 3.982 2.812h.001zm-48.152-.562c.018-.062.037-.124.058-.187.224-.689 1.172-1.176 2.307-1.185l2.998-.019-.75 1.352-4.613.04zm6.693 28.45l-.025-3.364 3.912-.029.025 3.365-3.912.028zm45.754-.337l-.024-3.364 3.912-.029.025 3.365-3.913.028zm6.948-7.95c-.008.068-.012.136-.012.204.002.327-.126.641-.357.873-.225.244-.537.39-.869.406l-53.43.429H8.82c-.684-.018-1.231-.576-1.234-1.26 0-.077-.005-.154-.014-.23l-1.715-12.79c.022-2.31 1.556-3.737 3.11-3.858.055.005.11.006.163.005h.012l52.495-.381c.008 0 .016.004.024.004h.035c2.048 0 3.343 1.946 3.398 3.79l-1.597 12.808zm-1.405-20.587l-.751-1.364c1.058-.004 2.215-.02 3.01-.02h.029c1.121 0 2.062.476 2.295 1.156.022.063.042.129.061.191l-4.644.037z" transform="translate(-277 -1949) translate(277 1949)"/>
                <path d="M43.729 33.073h-.012l-16.337.106c-.545-.014-1.054.269-1.33.74-.275.47-.272 1.052.007 1.52.278.469.79.748 1.334.73h.012l16.337-.075c.547.01 1.057-.278 1.332-.751.275-.473.273-1.058-.006-1.529-.279-.47-.79-.754-1.337-.741zM28.146 30.198h.012c.864-.023 1.548-.736 1.537-1.6l-.02-2.678c-.002-.855-.697-1.547-1.552-1.545-.855.003-1.546.697-1.544 1.552l.02 2.696c.003.858.69 1.557 1.547 1.575zM23.203 24.448h-.011c-.409-.003-.801.157-1.09.446-.29.288-.45.68-.447 1.089l.02 2.668c.004.853.695 1.544 1.548 1.548h.011c.86-.015 1.547-.722 1.537-1.582l-.02-2.644c-.007-.849-.7-1.53-1.548-1.525zM47.817 24.227h-.011c-.41.001-.804.166-1.092.458-.289.292-.449.687-.445 1.097l.02 2.658c.006.85.697 1.537 1.548 1.537h.012c.41-.003.804-.169 1.092-.462.289-.293.448-.689.444-1.1l-.02-2.654c-.006-.85-.698-1.536-1.548-1.534zM33.068 29.977h.012c.405.01.797-.145 1.087-.43.289-.283.451-.672.45-1.078l-.02-2.681c-.005-.855-.693-1.55-1.548-1.56h-.012c-.865.027-1.549.743-1.537 1.608l.02 2.632c.004.406.17.793.46 1.076.291.283.682.439 1.088.433zM37.99 29.977h.012c.408.006.8-.153 1.09-.44.288-.287.45-.678.447-1.086l-.02-2.672c-.005-.854-.694-1.545-1.548-1.552h-.011c-.862.02-1.548.73-1.537 1.591l.02 2.64c.003.407.169.795.459 1.08.29.285.682.443 1.089.439zM42.914 29.977h.011c.41.001.802-.16 1.091-.451.289-.29.45-.684.446-1.093l-.02-2.663c-.006-.852-.696-1.54-1.548-1.543h-.012c-.858.01-1.546.715-1.536 1.573l.02 2.65c.006.848.699 1.531 1.548 1.527z" transform="translate(-277 -1949) translate(277 1949)"/>
            </g>
        </g>
    </g>
</svg>
