<svg xmlns="http://www.w3.org/2000/svg" xmlns:xlink="http://www.w3.org/1999/xlink" width="182" height="48" viewBox="0 0 182 48">
    <defs>
        <path id="ksq29i5sja" d="M0.839 0.332L12.533 0.332 12.533 21 0.839 21z"/>
        <path id="n17mik5zmc" d="M0 47.499L181.419 47.499 181.419 0 0 0z"/>
    </defs>
    <g fill="none" fill-rule="evenodd">
        <g>
            <g transform="translate(-1024 -2794) translate(1024 2794)">
                <path fill="#FEFEFE" d="M23.75 13.507c-2.811 0-5.258.997-7.252 2.99-1.994 1.995-2.992 4.443-2.992 7.252 0 2.902.998 5.258 2.992 7.25 1.994 2.087 4.44 3.084 7.252 3.084 2.81 0 5.257-.997 7.25-3.083 1.995-1.993 2.992-4.35 2.992-7.251 0-2.81-.997-5.257-2.992-7.251-1.993-1.994-4.44-2.991-7.25-2.991"/>
                <path fill="#FEFEFE" d="M23.75 11.694V0c-4.17 0-8.068 1.088-11.694 3.082v17.767c.635-2.63 2.086-4.804 4.17-6.436 2.266-1.813 4.713-2.72 7.524-2.72M21.21 35.715c-2.718-.636-4.893-2.085-6.525-4.261-1.813-2.176-2.63-4.623-2.63-7.432H.002c0 4.17 1.087 8.067 3.172 11.693H21.21z"/>
                <g transform="translate(23 26.499)">
                    <mask id="3pueq63mlb" fill="#fff">
                        <use xlink:href="#ksq29i5sja"/>
                    </mask>
                    <path fill="#FEFEFE" d="M12.533.332c-.634 2.63-1.994 4.805-4.169 6.526C6.188 8.58 3.65 9.488.84 9.488V21c4.171 0 8.07-.997 11.694-3.082V.332z" mask="url(#3pueq63mlb)"/>
                </g>
                <path fill="#FEFEFE" d="M47.499 23.66c0-4.17-1.088-8.069-3.173-11.695H26.74c2.719.635 4.895 2.085 6.527 4.17 1.812 2.266 2.628 4.714 2.628 7.524h11.603z"/>
                <mask id="v4m8bf6npd" fill="#fff">
                    <use xlink:href="#n17mik5zmc"/>
                </mask>
                <path fill="#FEFEFE" d="M52.938 26.378L57.107 26.378 57.107 12.6 52.938 12.6zM78.953 12.6L74.693 12.6 74.693 22.571 66.625 12.6 60.099 12.6 60.099 26.378 64.359 26.378 64.359 16.317 72.336 26.378 78.953 26.378zM96.901 19.399v-.091c.725-.181 1.177-.453 1.45-.816.452-.453.634-1.27.634-2.357 0-1.27-.453-2.175-1.269-2.81-.815-.544-2.085-.725-3.807-.725H81.672v13.778h13.597c1.36 0 2.357-.182 2.99-.634.726-.636 1.179-1.632 1.179-2.992 0-1.087-.182-1.903-.543-2.356-.454-.544-1.089-.907-1.994-.997zm-10.968 1.45h7.614c.997 0 1.541.453 1.541 1.177 0 .726-.544.998-1.541.998h-7.614v-2.175zm0-2.81v-2.176h7.523c.816 0 1.269.363 1.269 1.088 0 .725-.453 1.088-1.269 1.088h-7.523zM119.29 12.6h-4.17v7.977c0 .816-.271 1.45-.543 1.813-.363.453-1.09.633-1.904.633h-4.17c-.906 0-1.45-.18-1.902-.633-.365-.364-.455-.997-.455-1.813V12.6h-4.26v8.883c0 1.722.453 2.992 1.36 3.808.906.905 2.357 1.268 4.26 1.268h6.164c1.904 0 3.354-.363 4.26-1.268.907-.816 1.36-2.086 1.36-3.808V12.6zM126.27 22.843h6.707c.635 0 1.088.09 1.36.362.272.273.363.817.363 1.542v1.63h4.26v-2.355c0-.998-.18-1.814-.634-2.267-.364-.362-.908-.634-1.633-.815.907-.182 1.542-.635 1.904-1.18.272-.543.453-1.268.453-2.265v-.816c0-1.36-.27-2.357-.815-2.99-.727-.817-1.814-1.09-3.355-1.09h-12.87v13.779h4.26v-3.535zm0-3.535v-3.354h6.707c1.135 0 1.903.194 1.903 1.45v.454c0 .997-.544 1.45-1.54 1.45h-7.07zM150.835 17.767l-4.261-.181c-.271 0-.543-.181-.635-.362-.09-.093-.18-.364-.18-.636 0-.725.544-1.087 1.632-1.087h4.713c.907 0 1.54.09 1.813.272.18.181.272.544.272 1.178h4.259v-.454c0-1.45-.271-2.447-.905-2.99-.726-.816-2.267-1.178-4.442-1.178h-5.982c-2.448 0-4.08.452-4.805 1.268-.543.635-.816 1.723-.816 3.173 0 .997.09 1.631.273 2.175.09.544.453.907.906 1.268.906.544 2.81.816 5.982.816l5.076.181c.363 0 .634.182.726.363l.18.726c0 .453-.18.817-.543.998l-1.27.18h-5.257l-1.36-.273c-.272-.18-.452-.633-.452-1.358h-4.261v.997c0 1.45.453 2.448 1.27 2.99.724.456 2.174.727 4.17.727h5.166c2.81 0 4.713-.271 5.529-.816.544-.271.907-.726 1.088-1.27.18-.544.272-1.358.272-2.267 0-1.087-.091-1.812-.363-2.355-.182-.636-.635-1.088-1.18-1.36-.995-.544-3.171-.725-6.615-.725M173.133 12.6L167.603 12.6 160.081 26.378 164.885 26.378 166.064 23.931 167.696 20.939 170.413 15.773 173.133 20.939 167.696 20.939 166.064 23.931 174.766 23.931 176.034 26.378 180.748 26.378zM87.695 37.246v-1.08l3.905-.006v3.42c-.6.48-1.218.837-1.855 1.08-.639.24-1.293.36-1.963.36-.906 0-1.73-.193-2.468-.582-.74-.386-1.298-.949-1.676-1.68-.379-.735-.568-1.555-.568-2.46 0-.898.19-1.736.565-2.512.373-.779.914-1.357 1.618-1.735.704-.375 1.516-.565 2.434-.565.666 0 1.27.108 1.809.324.538.215.962.516 1.266.902.308.387.538.89.7 1.51l-1.102.302c-.14-.47-.31-.84-.514-1.107-.207-.269-.5-.483-.883-.645-.38-.16-.805-.242-1.268-.242-.558 0-1.042.086-1.447.255-.409.17-.735.393-.986.67-.25.277-.442.58-.582.912-.234.57-.352 1.188-.352 1.856 0 .821.141 1.508.425 2.062.284.554.695.964 1.237 1.232.54.268 1.115.404 1.722.404.53 0 1.044-.104 1.547-.307.504-.202.885-.419 1.144-.65v-1.718h-2.709zM93.24 40.863v-6.679h1.019v1.012c.259-.473.5-.786.72-.937.22-.149.463-.227.727-.227.382 0 .768.123 1.163.365l-.391 1.052c-.274-.165-.551-.247-.828-.247-.25 0-.471.075-.668.224-.197.15-.337.356-.421.62-.127.401-.188.841-.188 1.32v3.497H93.24zM101.92 40.863v-.98c-.521.754-1.228 1.13-2.12 1.13-.394 0-.763-.075-1.104-.225-.341-.15-.594-.342-.76-.569-.167-.23-.284-.509-.35-.839-.045-.224-.068-.576-.068-1.059v-4.137h1.13v3.703c0 .593.025.991.07 1.197.072.298.223.53.453.701.23.17.517.254.856.254.339 0 .657-.086.956-.26.297-.174.508-.412.63-.71.125-.3.187-.737.187-1.306v-3.579h1.132v6.68h-1.012zM105.73 37.562c0 .858.174 1.494.521 1.906.348.41.771.615 1.265.615.502 0 .934-.212 1.292-.639.36-.425.54-1.084.54-1.977 0-.852-.177-1.487-.527-1.913-.35-.422-.768-.636-1.253-.636-.484 0-.91.227-1.282.678-.37.45-.556 1.108-.556 1.966zm-1.024 5.86v-9.237h1.031v.867c.242-.34.517-.594.824-.764.305-.17.676-.255 1.111-.255.572 0 1.075.148 1.51.44.438.294.766.708.987 1.242.223.534.335 1.12.335 1.758 0 .684-.123 1.3-.369 1.846-.245.548-.6.967-1.069 1.26-.468.288-.96.434-1.475.434-.378 0-.715-.08-1.015-.237-.3-.16-.545-.362-.739-.605v3.25h-1.13zM112.61 37.523c0 .856.187 1.496.561 1.921.373.427.843.64 1.408.64.562 0 1.03-.215 1.403-.642.372-.428.559-1.08.559-1.956 0-.826-.187-1.453-.563-1.878-.376-.426-.842-.638-1.399-.638-.565 0-1.035.212-1.408.636-.374.423-.561 1.063-.561 1.917m-1.163 0c0-1.236.343-2.153 1.032-2.748.573-.494 1.274-.743 2.1-.743.918 0 1.67.301 2.252.904.583.601.873 1.432.873 2.492 0 .861-.129 1.537-.386 2.03-.258.493-.634.875-1.125 1.147-.494.272-1.03.408-1.614.408-.934 0-1.69-.299-2.268-.899-.577-.599-.864-1.462-.864-2.59M122.817 40.863L122.817 31.643 129.038 31.643 129.038 32.731 124.039 32.731 124.039 35.587 128.364 35.587 128.364 36.675 124.039 36.675 124.039 40.863zM130.483 40.864h1.133v-6.68h-1.133v6.68zm0-7.917h1.133v-1.303h-1.133v1.303zM133.34 40.863v-6.679h1.018v.95c.492-.735 1.2-1.102 2.125-1.102.404 0 .773.073 1.11.217.34.146.59.335.758.571.17.234.286.513.353.835.041.211.064.578.064 1.102v4.106h-1.135V36.8c0-.46-.043-.806-.13-1.036-.088-.227-.245-.41-.468-.545-.225-.137-.487-.206-.79-.206-.483 0-.898.155-1.25.46-.35.307-.524.886-.524 1.743v3.647h-1.13zM144.766 37.51c-.41.17-1.027.312-1.848.43-.465.066-.797.14-.987.225-.193.084-.344.206-.447.369-.105.162-.158.339-.158.537 0 .302.116.554.343.755.228.2.562.3 1.002.3.436 0 .824-.094 1.164-.284.34-.191.59-.453.75-.784.121-.255.181-.633.181-1.131v-.416zm.095 2.529c-.42.357-.824.608-1.21.756-.389.146-.806.219-1.25.219-.735 0-1.296-.18-1.692-.537-.392-.36-.59-.818-.59-1.374 0-.328.073-.627.223-.897.15-.27.344-.487.584-.65.243-.164.513-.288.816-.372.221-.058.556-.115 1.004-.17.916-.108 1.59-.237 2.02-.39.005-.155.007-.254.007-.294 0-.462-.108-.788-.322-.975-.288-.257-.719-.384-1.288-.384-.533 0-.925.093-1.18.279-.254.187-.44.517-.563.99l-1.105-.151c.1-.472.265-.856.495-1.146.23-.292.564-.517 1.001-.674.435-.156.94-.237 1.515-.237.571 0 1.033.07 1.39.203.356.135.617.302.786.506.168.205.285.459.353.77.036.194.056.542.056 1.044v1.51c0 1.053.023 1.718.073 1.996.047.278.143.547.285.803h-1.183c-.116-.235-.193-.51-.225-.825zM147.667 40.863v-6.679h1.018v.95c.49-.735 1.2-1.102 2.125-1.102.404 0 .773.073 1.11.217.339.146.59.335.758.571.169.234.285.513.353.835.04.211.063.578.063 1.102v4.106h-1.133V36.8c0-.46-.043-.806-.132-1.036-.088-.227-.244-.41-.468-.545-.225-.137-.487-.206-.79-.206-.482 0-.897.155-1.25.46-.348.307-.522.886-.522 1.743v3.647h-1.132zM159.188 38.416l1.111.146c-.12.766-.43 1.368-.933 1.801-.5.434-1.116.651-1.846.651-.913 0-1.648-.299-2.203-.896-.556-.597-.835-1.453-.835-2.569 0-.722.12-1.353.358-1.894.242-.541.604-.946 1.093-1.217.487-.27 1.02-.406 1.593-.406.725 0 1.32.186 1.78.552.461.367.757.887.89 1.563l-1.103.169c-.105-.448-.29-.785-.555-1.012-.267-.226-.589-.34-.967-.34-.57 0-1.034.204-1.39.614-.357.408-.535 1.054-.535 1.939 0 .897.172 1.549.517 1.958.343.405.793.609 1.346.609.445 0 .814-.138 1.112-.41.298-.273.487-.692.567-1.258M161.274 40.864h1.134v-6.68h-1.134v6.68zm0-7.917h1.134v-1.303h-1.134v1.303zM164.986 36.88h3.729c-.049-.56-.193-.982-.427-1.261-.361-.436-.829-.655-1.403-.655-.519 0-.957.174-1.311.522-.354.348-.549.814-.588 1.395m3.716 1.83l1.17.146c-.185.684-.527 1.214-1.024 1.592-.501.375-1.137.565-1.913.565-.976 0-1.752-.301-2.322-.902-.573-.601-.859-1.445-.859-2.531 0-1.125.29-1.996.868-2.617.579-.62 1.328-.932 2.251-.932.893 0 1.623.306 2.187.913.568.608.851 1.464.851 2.566 0 .068-.003.169-.007.302h-4.98c.041.734.249 1.297.623 1.685.373.39.836.586 1.395.586.414 0 .769-.11 1.063-.328.294-.217.525-.565.697-1.044M171.282 40.863v-6.679h1.018v1.012c.259-.473.5-.786.72-.937.22-.149.462-.227.727-.227.382 0 .768.123 1.163.365l-.391 1.052c-.274-.165-.551-.247-.828-.247-.25 0-.471.075-.668.224-.197.15-.337.356-.421.62-.127.401-.188.841-.188 1.32v3.497h-1.132zM176.325 37.523c0 .856.187 1.496.56 1.921.374.427.843.64 1.408.64.562 0 1.03-.215 1.404-.642.37-.428.558-1.08.558-1.956 0-.826-.187-1.453-.563-1.878-.375-.426-.841-.638-1.4-.638-.564 0-1.033.212-1.407.636-.373.423-.56 1.063-.56 1.917m-1.164 0c0-1.236.344-2.153 1.032-2.748.574-.494 1.274-.743 2.1-.743.919 0 1.67.301 2.252.904.584.601.874 1.432.874 2.492 0 .861-.13 1.537-.387 2.03-.258.493-.633.875-1.125 1.147-.493.272-1.03.408-1.614.408-.934 0-1.69-.299-2.267-.899-.577-.599-.865-1.462-.865-2.59" mask="url(#v4m8bf6npd)"/>
            </g>
        </g>
    </g>
</svg>
