<svg xmlns="http://www.w3.org/2000/svg" xmlns:xlink="http://www.w3.org/1999/xlink" width="242" height="70" viewBox="0 0 242 70">
    <defs>
        <path id="g56q0unj3a" d="M0.001 0.611L78.701 0.611 78.701 58.504 0.001 58.504z"/>
        <path id="4fd92yy2ac" d="M0.275 0.424L25.293 0.424 25.293 25.065 0.275 25.065z"/>
        <path id="qg1zdjy1ge" d="M0.072 0.758L6.776 0.758 6.776 8.046 0.072 8.046z"/>
        <path id="yhj52y1uvg" d="M0 69.389L241.729 69.389 241.729 0.805 0 0.805z"/>
    </defs>
    <g fill="none" fill-rule="evenodd">
        <g>
            <g transform="translate(-994 -3055) translate(994 3055)">
                <g transform="translate(0 .193)">
                    <mask id="s6e1llo8eb" fill="#fff">
                        <use xlink:href="#g56q0unj3a"/>
                    </mask>
                    <path fill="#FEFEFE" d="M25.434 43.826c3.242 0 6.393.056 9.542-.027 1.253-.033 2.065-1.197 1.997-2.486-.057-1.09-.923-1.778-2.278-1.788-1.411-.008-2.824-.002-4.235-.002h-4.588l-.438 4.303M3.004 57.078L.002 58.504c.346-1.631.699-3.182 1.003-4.743.42-2.159.795-4.325 1.213-6.484.054-.28.213-.56.39-.788.265-.345.55-.695.894-.954 2.257-1.704 2.767-4.33 3.604-6.783.075-.221.035-.514-.036-.75-.414-1.37-.828-2.741-1.301-4.092-.098-.282-.42-.516-.69-.695-.202-.134-.482-.184-.733-.205-1.598-.137-2.04-1.275-2.295-2.636l.921-.095c-1.134-1.577-.164-2.842.45-4.336.121.397.16.672.286.9.344.624.325 1.456 1.152 1.807 1.612.686 1.839.677 3.122-.524 2.626-2.453 5.322-4.838 7.843-7.396 1.957-1.988 3.7-4.19 5.527-6.307 1.324-1.535 2.53-3.187 3.977-4.595.928-.904 2.207-1.442 3.302-2.185.264-.179.418-.518.624-.784l-.17-.182c.596-.223 1.188-.46 1.79-.664.45-.153.924-.257.486-.832.616-.67 2.255.24 1.955-1.61.343.16.586.262.819.383 5.382 2.812 10.768 5.616 16.137 8.454.583.308.963.284 1.49-.12 3.322-2.541 6.676-5.04 10.008-7.566.369-.279.71-.488 1.176-.277.044.019.107-.002.152.017 1.7.742 2.982.074 4.223-1.104 1.053-.999 2.258-1.837 3.396-2.747l.221.122c-.117.28-.168.621-.361.833-1.036 1.133-2.107 2.233-3.299 3.487 1.055.232 1.97.394 2.861.643.61.17 1.06.038 1.536-.358.785-.653 1.624-1.24 2.44-1.856l.198.194c-.342.343-.68.692-1.029 1.03-.364.35-.738.691-1.257 1.176l6.675 1.47c-.827.805-1.745.428-2.583.349-2.701-.254-5.397-.571-8.093-.87-1.195-.131-2.387-.313-3.586-.387-.443-.027-.976.08-1.339.32-1.106.732-2.148 1.559-3.394 2.48.824.463 1.479.971 2.22 1.219 2.155.723 4.347 1.342 6.524 2.003.19.058.374.132.601.212-.541.49-1.083.519-1.728.352-2.99-.773-5.992-1.507-8.99-2.246-.185-.046-.444-.092-.574 0-.856.591-1.684 1.221-2.643 1.93l5.64 3.524c-.749.527-1.352.757-2.175.313-1.394-.755-2.855-1.39-4.289-2.072-.225-.106-.459-.197-.748-.32-.208.384-.393.716-.568 1.052-2.248 4.318-4.506 8.63-6.726 12.963-.264.516-.55.643-1.066.521-.746-.174-1.497-.334-2.25-.47-.505-.09-.721-.295-.7-.862.077-2.206.096-4.413.135-6.62.007-.43 0-.863 0-1.537l-8.721 6.346-.42-1.115-.264.007c0 .589-.03 1.178.027 1.76.01.113.352.237.557.28 1.95.417 3.9.843 5.86 1.202.55.1.658.341.634.823-.067 1.384-.131 2.768-.15 4.153-.008.585.08 1.173.17 1.753.027.179.166.391.317.493 2.828 1.906 3.28 4.7 2.985 7.806-.286 3.006-1.643 5.402-4.052 7.256l3.395 8.01c-.229.03-.392.068-.554.069-2.336.004-4.673-.012-7.008.013-.471.005-.67-.182-.841-.586-.927-2.194-1.894-4.37-2.811-6.567-.186-.446-.403-.62-.894-.612-1.948.029-3.895.012-5.921.012l-.775 7.645h-7.338c.819-8.157 1.638-16.305 2.47-24.57h16.452c.231 0 .465-.008.692.021.999.129.99.133 1.018-.898.024-.838.072-1.676.115-2.652-1.364.159-2.622.295-3.878.453-1.802.226-3.604.46-5.402.712-.603.083-.941-.042-1.058-.724-.137-.795-.411-1.568-.687-2.576-.117.468-.25.715-.221.943.104.843-.43 1.125-1.07 1.418-2.445 1.12-4.882 2.257-7.298 3.439-.366.179-.726.578-.873.959-.827 2.121-1.57 4.275-2.386 6.4-.176.458-.485.898-.828 1.254-2.383 2.459-4.977 4.656-7.985 6.337-.315.176-.584.57-.713.92-.629 1.704-1.266 3.409-1.767 5.151-.213.74-.098 1.573-.141 2.537" mask="url(#s6e1llo8eb)"/>
                </g>
                <path fill="#FEFEFE" d="M172.996 44.026c3.235 0 6.363.05 9.487-.024 1.29-.03 2.135-1.205 2.05-2.518-.07-1.087-.937-1.76-2.301-1.766-2.36-.006-4.721 0-7.082 0h-1.722c-.146 1.451-.282 2.824-.432 4.308m17.276 14.217c-2.667 0-5.206.015-7.742-.025-.227-.004-.542-.33-.653-.577-.969-2.174-1.916-4.36-2.83-6.558-.19-.454-.426-.598-.906-.592-1.944.027-3.89.011-5.903.011l-.776 7.651h-7.338l2.467-24.542c.253-.012.5-.032.745-.032 5.286-.001 10.578-.156 15.856.048 4.163.159 7.008 2.376 7.589 5.643.717 4.035-.134 7.656-3.379 10.438-.435.374-.474.65-.254 1.15.95 2.154 1.856 4.327 2.777 6.495.108.255.202.515.347.89M70.104 33.71l-.593 5.87h-2.693c-4.029.003-8.057.002-12.085.012-.407.001-.817.05-1.221.107-.705.1-1.157.476-1.316 1.203-.125.568-.313 1.12-.506 1.795h17.535l-.625 5.867H51.12c.093.814.11 1.602.29 2.352.19.806.868.973 1.627.97 4.746-.017 9.494-.018 14.24-.025h1.012l-.624 6.339h-.873c-5.08 0-10.163-.083-15.242.024-5.132.11-6.908-2.73-7.406-6.234-.62-4.379-.208-8.705 1.497-12.827 1.163-2.815 3.148-4.77 6.256-5.351.526-.1 1.07-.152 1.604-.153 5.287-.012 10.573-.008 15.858-.005.224 0 .447.033.745.056M217.671 33.651l-.598 5.93H214.5c-4.08.002-8.16 0-12.24.011-.407.001-.817.051-1.22.113-.67.103-1.112.46-1.27 1.155-.13.57-.315 1.125-.519 1.84h17.53c-.148 1.433-.284 2.752-.423 4.072-.01.102-.037.202-.05.304-.195 1.569-.195 1.551-1.802 1.538-5.003-.04-10.006-.067-15.009-.1h-.697c-.11.93-.119 1.815.261 2.645.299.654.92.728 1.57.726 4.72-.014 9.443-.017 14.164-.024h1.05l-.618 6.34h-.908c-5.08 0-10.162-.08-15.24.022-5.002.1-6.85-2.625-7.366-6.19-.634-4.378-.234-8.708 1.474-12.828 1.544-3.723 4.344-5.61 8.447-5.567 5.003.054 10.008.013 15.012.013h1.025zM107.801 52.047v-.008c.795 0 1.594-.037 2.387.007 2.402.135 3.747-.911 4.244-3.502.365-1.897.47-3.864.486-5.801.018-2.182-1.263-3.317-3.455-3.33-1.54-.008-3.08 0-4.62-.001-1.673-.003-2.951.691-3.632 2.236-1.121 2.545-1.328 5.267-1.13 7.984.117 1.617 1.302 2.413 2.948 2.414.923.002 1.849 0 2.772 0m-.18 6.48c-1.848 0-3.695.004-5.543 0-3.52-.008-5.584-1.657-6.395-5.102-.536-2.277-.51-4.58-.296-6.887.247-2.633.637-5.24 1.695-7.694 1.114-2.587 2.78-4.615 5.655-5.316.714-.174 1.467-.255 2.203-.26 3.26-.024 6.52-.012 9.78-.002 3.963.015 6.35 2.111 6.983 6.043.433 2.695.126 5.373-.085 8.054-.164 2.1-.53 4.17-1.33 6.133-1.056 2.594-2.73 4.551-5.666 4.948-1.237.168-2.511.07-3.767.08-1.078.01-2.156.003-3.235.003"/>
                <g transform="translate(216.437 33.182)">
                    <mask id="0mcitxqrdd" fill="#fff">
                        <use xlink:href="#4fd92yy2ac"/>
                    </mask>
                    <path fill="#FEFEFE" d="M.275 25.023c.141-1.467.274-2.864.41-4.26.014-.153.05-.304.066-.457.146-1.487.145-1.48 1.613-1.489 4.952-.028 9.905-.063 14.858-.093.647-.004 1.213-.16 1.594-.745.59-.903.213-1.856-.856-2.018-.758-.115-1.532-.162-2.298-.17-2.438-.021-4.877.018-7.315-.027-.864-.016-1.744-.13-2.584-.337-2.598-.637-4.177-2.636-4.368-5.377-.12-1.7.201-3.312.835-4.879C3.35 2.4 5.566 1.116 8.38.715 9.62.538 10.882.453 12.133.442 16.19.41 20.243.432 24.3.432h.994c-.086 1.093-.159 2.123-.25 3.152-.075.844-.212 1.683-.24 2.526-.018.57-.207.732-.775.73-4.594-.017-9.188-.008-13.782.007-.483.002-.989.024-1.442.169-.596.19-1.143.543-1.107 1.288.035.711.533 1.148 1.375 1.166 2.668.054 5.337.043 8.004.122 1.043.03 2.107.13 3.116.382 2.3.575 3.72 2.072 4.16 4.427.462 2.481.103 4.844-1.094 7.072-1.168 2.174-3.15 3.064-5.457 3.383-.936.13-1.89.193-2.835.197-4.672.02-9.343.01-14.014.009-.178 0-.356-.02-.677-.04" mask="url(#0mcitxqrdd)"/>
                </g>
                <path fill="#FEFEFE" d="M71.67 33.573h.798c5.416 0 10.83-.008 16.247.01.688 0 1.39.06 2.059.212 2.75.622 4.417 2.735 4.4 5.883-.015 2.377-.287 4.754-.503 7.126-.307 3.37-.667 6.735-1.007 10.101-.044.429-.105.855-.162 1.325h-6.458c.061-.742.104-1.47.183-2.194.49-4.51.984-9.019 1.49-13.527.138-1.25-.414-1.936-1.653-1.936-2.874-.002-5.75.027-8.623.003-.616-.006-.757.21-.81.787-.366 3.93-.777 7.857-1.168 11.785-.127 1.275-.237 2.553-.362 3.828-.043.428-.113.853-.173 1.307h-6.735l2.477-24.71M131.462 40.446h-2.011l.692-6.822h22.007l-.674 6.87h-.892c-3.672 0-7.342.007-11.013-.014-.536-.004-.747.103-.798.7-.193 2.272-.463 4.539-.702 6.808-.027.254-.043.512-.049.767-.037 1.647.812 2.532 2.475 2.537 3.774.014 7.547.01 11.32.012h3.415l-.638 6.909h-.882c-5.236 0-10.473.017-15.71-.016-.939-.006-1.902-.122-2.809-.36-2.939-.766-4.696-3.077-4.666-6.347.02-2.25.31-4.497.502-6.744.118-1.397.28-2.791.433-4.3M162.835 58.183h-7.313l2.585-24.514h7.16l-2.432 24.514M165.126 67.524c.383-1.071.693-1.952 1.013-2.83.13-.361.278-.715.417-1.073.673-1.729.672-1.729 2.666-1.427v7.002h-1.082v-5.765l-.182-.037c-.083.191-.171.38-.246.574-.61 1.6-1.2 3.21-1.848 4.795-.09.222-.448.393-.716.472-.381.112-.646-.046-.803-.477-.576-1.585-1.196-3.154-1.801-4.728-.08-.205-.17-.406-.369-.59v5.742h-1.213v-7.07c.61 0 1.199-.044 1.773.027.195.024.43.312.517.531.616 1.538 1.198 3.09 1.874 4.854M175.755 69.22h-1.25v-7.103c.665 0 1.324-.038 1.972.023.181.018.384.305.491.512.79 1.522 1.56 3.056 2.336 4.586.125.247.255.491.516.721v-5.796h1.249v7.084c-.654 0-1.292.045-1.917-.025-.205-.023-.439-.31-.554-.531-.836-1.614-1.644-3.243-2.463-4.865-.075-.149-.164-.289-.38-.405v5.798zM232.866 65.661c-.008 2.443.157 2.6 2.551 2.454.855-.053 1.164-.306 1.214-1.16.05-.866.03-1.738.007-2.607-.018-.694-.393-1.046-1.105-1.102-2.442-.19-2.659-.003-2.667 2.415m5.14-.01c-.077.708-.132 1.37-.222 2.028-.11.81-.592 1.34-1.396 1.396-1.06.074-2.133.084-3.193.008-.882-.062-1.395-.552-1.444-1.42-.075-1.318-.072-2.65.013-3.97.055-.869.578-1.348 1.458-1.413 1.009-.076 2.031-.085 3.04-.012.953.07 1.363.503 1.523 1.44.111.653.152 1.319.22 1.942M184.039 65.695c-.007 2.395.145 2.54 2.51 2.421.896-.046 1.209-.305 1.258-1.195.045-.84.025-1.687.008-2.53-.014-.731-.393-1.097-1.143-1.147-2.448-.16-2.626-.006-2.633 2.451m5.14-.067c-.075.705-.133 1.367-.218 2.026-.1.77-.526 1.34-1.3 1.399-1.135.085-2.284.088-3.42.013-.729-.048-1.268-.566-1.305-1.3-.07-1.372-.07-2.753.007-4.124.042-.76.577-1.296 1.35-1.35 1.085-.073 2.183-.078 3.269-.01.805.052 1.28.596 1.395 1.4.094.656.151 1.319.221 1.946M205.54 63.97c-.595.086-1.12.176-1.325-.565-.04-.145-.37-.276-.577-.292-.483-.04-.973-.027-1.458.004-.604.039-.85.446-.847.991.003.538.202.91.855.944.837.043 1.67.175 2.503.284.693.09 1.024.535 1.066 1.2.026.408.03.823-.005 1.23-.073.83-.48 1.278-1.309 1.33-.934.06-1.884.112-2.81.015-1.329-.138-1.62-.596-1.466-2.011h1.022c.273 1.139.312 1.169 1.55 1.172.256 0 .513.007.769-.002.77-.03 1.078-.344 1.087-1.084.009-.724-.406-.985-1.068-1.017-.637-.03-1.274-.071-1.904-.158-.348-.047-.752-.109-1.006-.315-.756-.615-.494-1.502-.45-2.297.034-.598.448-1.049 1.02-1.088 1.135-.077 2.286-.1 3.417-.005.778.065 1.053.67.936 1.665M130.447 69.25v-7.086h4.743v1.068h-3.46v1.762h3.272v1.02h-3.264v2.104c.927 0 1.862.006 2.798-.003.403-.004.763-.04.766.559.003.578-.32.586-.744.582-1.352-.013-2.705-.005-4.11-.005M195.033 66v2.119c.987 0 1.928.008 2.866-.005.394-.005.699.005.709.54.01.559-.28.61-.725.603-1.355-.018-2.709-.006-4.123-.006v-7.08h4.728v1.073h-3.444v1.76h3.288v.997h-3.3z"/>
                <g transform="translate(152.874 61.343)">
                    <mask id="7oqaez6qof" fill="#fff">
                        <use xlink:href="#qg1zdjy1ge"/>
                    </mask>
                    <path fill="#FEFEFE" d="M2.108 5.504h2.635L3.508 1.855l-.182.004C2.932 3.034 2.54 4.21 2.108 5.504m4.668 2.32c-.903.233-1.405.051-1.588-.81-.043-.204-.438-.428-.699-.47-.474-.077-.973.018-1.455-.03-.819-.085-1.401.031-1.63 1.004-.06.255-.773.356-1.186.528l-.146-.24C.504 6.504.935 5.202 1.37 3.9c.291-.87.608-1.733.872-2.613.115-.382.286-.56.697-.525.356.03.72-.024 1.073.022.167.02.408.154.457.293.78 2.235 1.537 4.48 2.307 6.748" mask="url(#7oqaez6qof)"/>
                </g>
                <path fill="#FEFEFE" d="M221.752 62.152h1.149v1.595c-.001 1.028.011 2.053-.007 3.08-.032 1.858-.37 2.267-2.212 2.399-.831.06-1.686-.05-2.517-.173-.61-.088-1.048-.521-1.06-1.151-.038-1.89-.014-3.782-.014-5.732h1.152v3.897c0 .334-.015.668.007 1 .013.2.022.448.137.586.708.844 1.667.412 2.52.412.66 0 .779-.586.786-1.121.019-1.36.007-2.721.012-4.081 0-.225.03-.45.047-.71M151.926 64.282h-.944c-.32-.362-.573-.909-.886-.946-.767-.093-1.567.018-2.342.125-.15.021-.349.397-.355.612-.03 1.097-.009 2.194.009 3.29.001.119.057.268.141.348.714.677 1.597.376 2.416.367.591-.007.8-.467.861-.998.01-.097.051-.191.087-.314h.986c.382 1.597-.196 2.332-2.055 2.462-.807.056-1.635-.047-2.44-.165-.668-.097-1.125-.527-1.164-1.239-.07-1.3-.163-2.606-.128-3.906.027-.943.485-1.473 1.376-1.591.975-.13 1.983-.174 2.959-.076 1.24.124 1.574.669 1.479 2.03M230.64 62.204c-.623 1.04-1.177 2.075-1.842 3.033-.57.821-.822 1.673-.725 2.657.041.424.007.855.007 1.318h-1.353c.778-2.865-1.328-4.73-2.413-6.976 1.155-.296 1.267-.25 1.823.717l1.305 2.276c.434-.756.868-1.39 1.177-2.08.392-.87.953-1.278 2.022-.945M212.188 63.242L210.186 63.242 210.186 62.164 215.547 62.164 215.547 63.228 213.503 63.228 213.503 69.181 212.188 69.181zM137.066 69.187L137.066 62.153 138.274 62.153 138.274 68.092 141.634 68.092 141.634 69.187z"/>
                <mask id="2erusydmth" fill="#fff">
                    <use xlink:href="#yhj52y1uvg"/>
                </mask>
                <path fill="#FEFEFE" d="M171.274 69.217L172.433 69.217 172.433 62.175 171.274 62.175zM154.981 66.847l1.218-3.645.183-.004 1.234 3.65h-2.635z" mask="url(#2erusydmth)"/>
            </g>
        </g>
    </g>
</svg>
