<svg xmlns="http://www.w3.org/2000/svg" width="216" height="60" viewBox="0 0 216 60">
    <g fill="none" fill-rule="evenodd">
        <g fill-rule="nonzero">
            <g>
                <path fill="#E20009" d="M0 29.978C0 13.414 48.36 0 108 0s108 13.414 108 29.978c0 16.565-48.36 29.979-108 29.979S0 46.543 0 29.978" transform="translate(-808 -4606) translate(808 4606)"/>
                <path fill="#FFF" d="M50.89 40.95l6.541-14.529s1.759-4.371 5.876-4.371h16.02l-2.337 5.057H64.959s-1.244-.321-1.952 1.136L57.26 40.95h-6.37zm114.777 0h22.003s3.26.107 5.083-3.836c1.48-3.193 2.037-4.843 2.037-4.843s.901-3.064-2.101-3.064h-15.184s-.557-2.164 2.917-2.164h16.749l2.294-4.993h-21.574s-3.839.064-5.168 3c-1.265 2.807-2.595 5.4-2.595 5.4s-1.287 3.45 2.295 3.45h15.183s-.558 2.143-2.66 2.143h-17.241l-2.038 4.907zM146.26 22.07l-6.434 14.7s-2.166 4.179 2.36 4.179h17.156s3.581.257 5.533-4.114c1.951-4.372 6.348-14.765 6.348-14.765h-6.434l-5.469 12.45s-.364 1.586-1.823 1.586h-9.672s-1.372 0-.621-1.693l5.425-12.343h-6.37zm-6.262-6.943h6.176l-2.166 5.036h-6.155l2.145-5.036zm-3.067 6.922h6.112l-8.45 18.921h-6.176l8.514-18.921zm-36.8 18.9l8.428-18.922h20.48s4.504-.3 2.595 4.093c-1.737 3.965-6.712 14.829-6.712 14.829h-6.434l5.855-12.836s.579-1.007-1.287-1.007h-10.337l-6.412 13.843h-6.177zM84.066 22.028c-4.118 0-5.598 4.372-5.598 4.372l-5.06 11.228s-1.716 3.322 3.195 3.322H92.73s3.71.385 5.554-3.686c1.866-4.093 5.254-11.464 5.254-11.464s1.737-3.772-1.415-3.772H84.067zm1.33 5.058c.3-.022.493.042.493.042h9.8c.944 0 .45 1.179.45 1.179s-2.637 5.871-3.152 6.9c-.536 1.029-1.716.793-1.716.793h-9.114c-1.716 0-1.03-1.179-1.03-1.179l2.553-6.214c.514-1.2 1.244-1.479 1.715-1.521zM21.037 40.95l10.315-23.786s1.802-4.5 5.64-4.5H62.45l-2.21 5.014H38.903s-.986-.171-1.587.986c-.6 1.157-7.849 17.357-7.849 17.357h2.123l4.504-9.685s1.78-4.265 5.683-4.265h16.449l-2.166 4.972-12.696.064s-1.072-.536-2.209 1.821c-1.008 2.1-5.469 12.022-5.469 12.022H21.038z" transform="translate(-808 -4606) translate(808 4606)"/>
            </g>
        </g>
    </g>
</svg>
