<svg xmlns="http://www.w3.org/2000/svg" width="86" height="84" viewBox="0 0 86 84">
    <g fill="none" fill-rule="evenodd" opacity=".5">
        <g fill="#7EB441" fill-rule="nonzero">
            <g>
                <path d="M59.777 39.326c-.241-.04-.485-.058-.73-.055H17.424l.907-.425c.888-.423 1.695-1 2.386-1.702l11.672-11.765c1.537-1.479 1.795-3.858.612-5.638-1.378-1.895-4.019-2.307-5.9-.919-.152.112-.297.235-.432.366L5.562 40.463c-1.65 1.66-1.651 4.355-.004 6.017l.004.004 21.107 21.274c1.65 1.66 4.323 1.656 5.97-.008.13-.131.25-.27.362-.418 1.183-1.779.925-4.158-.612-5.637L20.738 49.909c-.62-.625-1.332-1.15-2.111-1.553l-1.267-.575h41.455c2.156.081 4.048-1.437 4.453-3.574.374-2.32-1.19-4.505-3.49-4.881z" opacity=".809" transform="translate(-866 -1507) matrix(-1 0 0 1 952 1507)"/>
                <path d="M46.542 4.6c-.053-.009-.107-.013-.16-.012H37.21l.2-.092c.195-.091.373-.215.526-.367l2.571-2.537c.34-.32.396-.833.135-1.216-.303-.41-.885-.498-1.3-.199-.033.025-.065.05-.095.08l-4.65 4.588c-.364.358-.364.94-.001 1.298l4.651 4.59c.364.357.953.356 1.315-.003.029-.028.056-.058.08-.09.261-.383.204-.897-.135-1.216L37.94 6.882c-.136-.135-.293-.248-.465-.335l-.279-.124h9.134c.475.018.892-.31.981-.77.083-.5-.262-.972-.769-1.053z" opacity=".3" transform="translate(-866 -1507) matrix(-1 0 0 1 952 1507)"/>
                <path d="M72.58 66.454c-.118-.02-.238-.028-.358-.027h-20.46l.447-.208c.436-.208.833-.49 1.172-.835l5.737-5.767c.756-.725.883-1.891.301-2.763-.677-.93-1.975-1.132-2.9-.451-.075.055-.146.115-.212.18L45.932 67.01c-.81.814-.811 2.135-.002 2.95l.002.002L56.307 80.39c.811.814 2.125.812 2.934-.004.064-.064.123-.132.178-.204.582-.873.455-2.039-.3-2.764l-5.728-5.777c-.304-.307-.654-.564-1.037-.762l-.622-.281h20.375c1.06.04 1.99-.705 2.19-1.752.183-1.137-.585-2.209-1.717-2.393z" opacity=".7" transform="translate(-866 -1507) matrix(-1 0 0 1 952 1507)"/>
                <path d="M63.422 21.018c-.061-.01-.124-.014-.186-.013H52.654l.23-.1c.226-.1.432-.235.607-.4l2.968-2.769c.39-.348.456-.908.155-1.326-.35-.446-1.021-.543-1.5-.217-.038.027-.075.056-.11.087l-5.366 5.005c-.42.391-.42 1.025 0 1.416v.001l5.367 5.006c.42.39 1.099.39 1.517-.002.033-.031.064-.064.092-.098.301-.419.236-.979-.155-1.327l-2.962-2.773c-.158-.147-.339-.27-.537-.365l-.322-.136h10.54c.548.02 1.029-.338 1.132-.84.094-.546-.303-1.06-.888-1.15z" transform="translate(-866 -1507) matrix(-1 0 0 1 952 1507)"/>
                <path d="M14.422 63.018c-.061-.01-.124-.014-.186-.013H3.654l.23-.1c.226-.1.432-.235.607-.4l2.968-2.769c.39-.348.456-.908.155-1.326-.35-.446-1.021-.543-1.5-.217-.038.027-.075.056-.11.087L.639 63.285c-.42.391-.42 1.025 0 1.416v.001l5.367 5.006c.42.39 1.099.39 1.517-.002.033-.031.064-.064.092-.098.301-.419.236-.979-.155-1.327l-2.962-2.773c-.158-.147-.339-.27-.537-.365l-.322-.136h10.54c.548.02 1.029-.338 1.132-.84.094-.546-.303-1.06-.888-1.15z" opacity=".2" transform="translate(-866 -1507) matrix(-1 0 0 1 952 1507)"/>
                <path d="M33.722 79.345c-.04-.006-.082-.009-.123-.008h-7.055l.154-.067c.15-.066.287-.157.404-.267l1.978-1.845c.26-.232.305-.606.104-.885-.233-.297-.681-.362-1-.144-.026.018-.05.037-.073.057l-3.578 3.338c-.28.26-.28.683 0 .943v.001l3.578 3.337c.28.26.733.26 1.012-.001.022-.02.042-.043.061-.066.2-.279.157-.652-.104-.884l-1.974-1.849c-.105-.098-.226-.18-.358-.243l-.215-.09h7.026c.366.012.687-.226.755-.561.063-.364-.201-.707-.592-.766z" transform="translate(-866 -1507) matrix(-1 0 0 1 952 1507)"/>
                <path fill-opacity=".7" d="M84.422 56.018c-.061-.01-.124-.014-.186-.013H73.654l.23-.1c.226-.1.432-.235.607-.4l2.968-2.769c.39-.348.456-.908.155-1.326-.35-.446-1.021-.543-1.5-.217-.038.027-.075.056-.11.087l-5.366 5.005c-.42.391-.42 1.025 0 1.416v.001l5.367 5.006c.42.39 1.099.39 1.517-.002.033-.031.064-.064.092-.098.301-.419.236-.979-.155-1.327l-2.962-2.773c-.158-.147-.339-.27-.537-.365l-.322-.136h10.54c.548.02 1.029-.338 1.132-.84.094-.546-.303-1.06-.888-1.15z" transform="translate(-866 -1507) matrix(-1 0 0 1 952 1507)"/>
            </g>
        </g>
    </g>
</svg>
