<svg xmlns="http://www.w3.org/2000/svg" width="86" height="84" viewBox="0 0 86 84">
    <g fill="none" fill-rule="evenodd">
        <g fill="#62619A" fill-rule="nonzero">
            <g>
                <path d="M60.954 39.326c-.242-.04-.486-.058-.73-.055H18.6l.908-.425c.887-.423 1.694-1 2.385-1.702l11.672-11.765c1.537-1.479 1.796-3.858.612-5.638-1.377-1.895-4.018-2.307-5.9-.919-.152.112-.296.235-.432.366L6.738 40.463c-1.65 1.66-1.65 4.355-.003 6.017l.003.004 21.107 21.274c1.651 1.66 4.324 1.656 5.97-.008.13-.131.25-.27.362-.418 1.184-1.779.925-4.158-.612-5.637l-11.65-11.786c-.62-.625-1.332-1.15-2.112-1.553l-1.266-.575h41.454c2.157.081 4.049-1.437 4.454-3.574.373-2.32-1.19-4.505-3.491-4.881z" opacity=".5" transform="translate(-490 -1507) matrix(-1 0 0 1 576 1507)"/>
                <path d="M46.719 4.6c-.054-.009-.107-.013-.161-.012h-9.171l.2-.092c.195-.091.373-.215.525-.367l2.572-2.537c.339-.32.395-.833.135-1.216-.304-.41-.886-.498-1.3-.199-.034.025-.066.05-.095.08l-4.651 4.588c-.364.358-.364.94 0 1.298l4.65 4.59c.364.357.953.356 1.316-.003.028-.028.055-.058.08-.09.26-.383.204-.897-.135-1.216l-2.567-2.542c-.137-.135-.294-.248-.465-.335l-.28-.124h9.135c.475.018.892-.31.98-.77.083-.5-.261-.972-.768-1.053z" opacity=".3" transform="translate(-490 -1507) matrix(-1 0 0 1 576 1507)"/>
                <path d="M72.817 66.454c-.115-.02-.23-.028-.346-.027H52.717l.43-.208c.422-.208.805-.49 1.133-.835l5.54-5.767c.729-.725.851-1.891.29-2.763-.654-.93-1.908-1.132-2.8-.451-.073.055-.141.115-.205.18L47.088 67.01c-.783.814-.784 2.135-.002 2.95l.002.002L57.105 80.39c.783.814 2.051.812 2.833-.004.061-.064.119-.132.172-.204.561-.873.439-2.039-.29-2.764l-5.53-5.777c-.294-.307-.632-.564-1.002-.762l-.601-.281H72.36c1.024.04 1.922-.705 2.114-1.752.177-1.137-.565-2.209-1.657-2.393z" opacity=".7" transform="translate(-490 -1507) matrix(-1 0 0 1 576 1507)"/>
                <path d="M63.598 21.018c-.06-.01-.123-.014-.185-.013H52.83l.23-.1c.226-.1.431-.235.607-.4l2.967-2.769c.391-.348.457-.908.156-1.326-.35-.446-1.022-.543-1.5-.217-.039.027-.076.056-.11.087l-5.366 5.005c-.42.391-.42 1.025-.001 1.416v.001l5.367 5.006c.42.39 1.1.39 1.518-.002.033-.031.063-.064.092-.098.3-.419.235-.979-.156-1.327l-2.962-2.773c-.157-.147-.338-.27-.537-.365l-.322-.136h10.54c.548.02 1.029-.338 1.132-.84.095-.546-.302-1.06-.888-1.15z" transform="translate(-490 -1507) matrix(-1 0 0 1 576 1507)"/>
                <path d="M14.598 63.018c-.06-.01-.123-.014-.185-.013H3.83l.23-.1c.226-.1.431-.235.607-.4l2.967-2.769c.391-.348.457-.908.156-1.326-.35-.446-1.022-.543-1.5-.217-.039.027-.076.056-.11.087L.815 63.285c-.42.391-.42 1.025-.001 1.416v.001l5.367 5.006c.42.39 1.1.39 1.518-.002.033-.031.063-.064.092-.098.3-.419.235-.979-.156-1.327l-2.962-2.773c-.157-.147-.338-.27-.537-.365l-.322-.136h10.54c.548.02 1.029-.338 1.132-.84.095-.546-.302-1.06-.888-1.15z" opacity=".2" transform="translate(-490 -1507) matrix(-1 0 0 1 576 1507)"/>
                <path d="M33.899 79.345c-.041-.006-.082-.009-.124-.008H26.72l.154-.067c.15-.066.287-.157.404-.267l1.979-1.845c.26-.232.304-.606.104-.885-.234-.297-.682-.362-1-.144-.026.018-.05.037-.074.057l-3.577 3.338c-.28.26-.28.683 0 .943v.001l3.577 3.337c.28.26.733.26 1.012-.001.022-.02.043-.043.062-.066.2-.279.156-.652-.104-.884l-1.975-1.849c-.105-.098-.226-.18-.358-.243l-.214-.09h7.026c.365.012.686-.226.755-.561.063-.364-.202-.707-.592-.766zM84.598 56.018c-.06-.01-.123-.014-.185-.013H73.83l.23-.1c.226-.1.431-.235.607-.4l2.967-2.769c.391-.348.457-.908.156-1.326-.35-.446-1.022-.543-1.5-.217-.039.027-.076.056-.11.087l-5.366 5.005c-.42.391-.42 1.025-.001 1.416v.001l5.367 5.006c.42.39 1.1.39 1.518-.002.033-.031.063-.064.092-.098.3-.419.235-.979-.156-1.327l-2.962-2.773c-.157-.147-.338-.27-.537-.365l-.322-.136h10.54c.548.02 1.029-.338 1.132-.84.095-.546-.302-1.06-.888-1.15z" transform="translate(-490 -1507) matrix(-1 0 0 1 576 1507)"/>
            </g>
        </g>
    </g>
</svg>
