<svg xmlns="http://www.w3.org/2000/svg" width="45" height="20" viewBox="0 0 45 20">
    <g fill="none" fill-rule="evenodd">
        <g fill="#FFF" fill-rule="nonzero">
            <g>
                <path d="M2.11 8.12c-.62.21-1.154.6-1.53 1.119C.2 9.757-.001 10.376 0 11.01V15h4.8c.352-2.06 2.2-3.572 4.366-3.572 2.167 0 4.015 1.512 4.367 3.572H23V7.038L8.902 7c-2.313.004-4.61.383-6.793 1.12zm15.94.015h2.378c.318 0 .577.25.577.557 0 .307-.259.556-.577.556h-2.379c-.319 0-.577-.249-.577-.556 0-.308.258-.557.577-.557z" transform="translate(-494 -4250) translate(494 4250)"/>
                <path d="M9 12c-2.21 0-4 1.79-4 4 0 .17.014.338.035.503C5.283 18.474 6.962 20 9 20c2.095 0 3.81-1.61 3.984-3.66.009-.113.017-.225.017-.342C13 13.79 11.21 12 9 12zm-2.004 2.492l.817.817c-.064.109-.114.226-.145.352h-1.15c.06-.437.227-.834.478-1.169zm-.482 1.86h1.158c.033.123.08.241.144.348l-.818.817c-.252-.333-.423-.73-.484-1.164zm2.14 2.133c-.433-.06-.827-.23-1.16-.481l.813-.813c.107.062.225.108.347.14v1.154zm0-3.816c-.126.032-.244.083-.353.148L7.486 14c.334-.254.732-.423 1.168-.483v1.151zm.693-1.151c.436.06.834.23 1.168.484l-.815.815c-.11-.065-.227-.116-.353-.148v-1.151zm0 4.967V17.33c.123-.032.24-.077.347-.14l.814.814c-.334.25-.729.42-1.161.48zm1.657-.965l-.82-.821c.063-.108.116-.223.149-.347h1.15c-.062.434-.227.835-.479 1.168zm-.671-1.86c-.032-.125-.082-.243-.145-.352l.816-.817c.253.335.42.733.48 1.168h-1.151zM36 12c-2.209 0-4 1.79-4 4 0 .17.014.338.035.503C32.282 18.474 33.962 20 36 20c2.095 0 3.81-1.61 3.984-3.66.009-.113.017-.225.017-.342C40.001 13.79 38.21 12 36 12zm-2.004 2.492l.817.817c-.064.109-.114.226-.145.352h-1.15c.06-.437.226-.834.478-1.169zm-.482 1.86h1.158c.033.123.08.241.144.348l-.817.816c-.252-.332-.424-.73-.485-1.163zm2.14 2.133c-.433-.06-.827-.23-1.16-.481l.813-.813c.107.062.225.108.347.14v1.154zm0-3.816c-.126.032-.244.083-.353.148L34.486 14c.335-.254.733-.423 1.168-.483v1.151zm.693-1.151c.436.06.833.23 1.168.484l-.815.815c-.11-.065-.228-.116-.353-.148v-1.151zm0 4.967V17.33c.122-.032.24-.077.347-.14l.813.814c-.333.25-.727.42-1.16.48zm1.657-.965l-.82-.821c.063-.108.116-.223.149-.347h1.15c-.062.434-.226.835-.479 1.168zm-.67-1.86c-.033-.125-.082-.243-.145-.352l.816-.817c.253.335.42.733.48 1.168h-1.151zM24 5.972L33 6 33 0 24 0zM35 5.97L45 6c-.077-.257-.22-.485-.411-.66L39.146.332c-.243-.218-.551-.336-.868-.332H35v5.97z" transform="translate(-494 -4250) translate(494 4250)"/>
                <path d="M43.226 9.032H45V7.056L24 7v8h7.888c.4-2.03 2.238-3.503 4.383-3.512 2.075-.011 3.878 1.373 4.329 3.326h.403c.727 0 1.435-.221 2.024-.632l.353.435-.34-.459c1.23-.862 1.958-2.24 1.96-3.706v-.301h-1.774c-.32 0-.58-.25-.58-.56 0-.308.26-.559.58-.559zM16.849 1.586C13.764 2.93 11.336 4.804 10 5.962L23 6V0c-1.122.087-2.234.282-3.321.582-.965.266-1.91.602-2.83 1.004z" transform="translate(-494 -4250) translate(494 4250)"/>
            </g>
        </g>
    </g>
</svg>
