<svg xmlns="http://www.w3.org/2000/svg" width="30" height="30" viewBox="0 0 30 30">
    <g fill="none" fill-rule="evenodd">
        <g fill="#FFF" fill-rule="nonzero">
            <g>
                <g>
                    <path d="M28.177 16.089c-1.107-.375-2.281-.017-2.991.911l-3.274 4.28.002-.07c0-1.614-1.314-2.929-2.93-2.929H13.17c-1.854-1.577-4.474-1.857-6.607-.753v-.126c0-.485-.394-.879-.88-.879H.88c-.485 0-.879.394-.879.88V29.12c0 .485.394.879.879.879h4.805c.485 0 .878-.394.878-.879v-.879H20.97c2.103 0 4.037-1.056 5.175-2.825l3.43-5.336c.279-.433.426-.935.426-1.45 0-1.17-.715-2.167-1.823-2.542zM4.805 28.242H1.758v-9.96h3.047v9.96zm23.29-9.111l-3.43 5.335c-.812 1.264-2.194 2.018-3.696 2.018H6.562v-6.872l.294-.21c1.65-1.177 3.906-1.013 5.367.392.164.157.382.245.609.245h6.152c.647 0 1.172.526 1.172 1.172 0 .646-.525 1.172-1.172 1.172h-6.269c-.486 0-.88.393-.88.879 0 .485.394.879.88.879H19.767c1.36 0 2.664-.645 3.49-1.725l3.325-4.348c.374-.489.884-.364 1.032-.314.147.05.628.26.628.876 0 .178-.05.351-.147.5zM15.355 10.53c.556.364.948.491 1.421.532v.364c0 .323.262.586.586.586.323 0 .586-.263.586-.586v-.42c.973-.247 1.597-1.078 1.735-1.898.178-1.055-.395-2.009-1.425-2.373l-.31-.112V4.73c.179.066.272.155.285.169.213.24.58.264.824.053.244-.213.27-.583.057-.827-.195-.223-.597-.503-1.166-.602v-.3c0-.324-.263-.586-.586-.586-.324 0-.586.262-.586.586v.364l-.11.031c-.694.21-1.212.802-1.353 1.547-.129.684.093 1.346.58 1.727.229.18.509.345.883.517v2.474c-.265-.037-.463-.127-.78-.334-.27-.177-.634-.1-.81.17-.178.27-.102.634.169.811zm2.593-2.659c.634.267.618.813.58 1.042-.054.318-.25.652-.58.84V7.871zm-1.332-1.9c-.139-.11-.198-.34-.151-.589.034-.18.132-.387.31-.524v1.225c-.057-.037-.11-.075-.16-.113z" transform="translate(-1078 -1057) translate(182 957) matrix(-1 0 0 1 926 100)"/>
                    <path d="M17.402 14.648c4.039 0 7.325-3.285 7.325-7.324C24.727 3.286 21.44 0 17.402 0c-4.038 0-7.324 3.286-7.324 7.324 0 4.039 3.286 7.324 7.324 7.324zm0-12.89c3.07 0 5.567 2.497 5.567 5.566 0 3.07-2.497 5.567-5.567 5.567-3.069 0-5.566-2.497-5.566-5.567 0-3.07 2.497-5.566 5.566-5.566z" transform="translate(-1078 -1057) translate(182 957) matrix(-1 0 0 1 926 100)"/>
                </g>
            </g>
        </g>
    </g>
</svg>
