<svg xmlns="http://www.w3.org/2000/svg" width="49" height="17" viewBox="0 0 49 17">
    <g fill="none" fill-rule="evenodd">
        <g fill="#62619A" fill-rule="nonzero">
            <g>
                <path d="M8.5 10C6.567 10 5 11.567 5 13.5c0 .15.012.296.03.44C5.249 15.666 6.717 17 8.5 17c1.831 0 3.333-1.408 3.485-3.201.008-.098.015-.198.015-.299 0-1.933-1.566-3.5-3.5-3.5zm-1.752 2.181l.714.714c-.056.095-.1.198-.127.308H6.329c.051-.38.197-.729.42-1.022zm-.424 1.628h1.014c.028.108.07.21.127.304l-.715.714c-.222-.29-.371-.638-.426-1.018zm1.873 1.866c-.379-.053-.723-.202-1.015-.421l.712-.712c.093.054.196.095.303.123v1.01zm0-3.339c-.11.03-.213.072-.309.129l-.713-.713c.293-.223.64-.37 1.022-.423v1.007zm.606-1.008c.382.053.73.201 1.023.424l-.713.713c-.095-.057-.2-.1-.309-.13v-1.007zm0 4.346v-1.009c.108-.028.21-.068.304-.123l.712.712c-.292.22-.637.367-1.016.42zm1.45-.843l-.718-.719c.056-.094.102-.195.13-.303h1.006c-.053.38-.196.73-.418 1.022zm-.586-1.628c-.029-.11-.072-.213-.127-.308l.714-.714c.22.293.367.641.42 1.022H9.666zM39.5 10c-1.933 0-3.5 1.567-3.5 3.5 0 .15.012.296.03.44.218 1.726 1.686 3.06 3.47 3.06 1.831 0 3.333-1.408 3.485-3.201.008-.098.015-.198.015-.299 0-1.933-1.566-3.5-3.5-3.5zm-1.752 2.181l.713.714c-.055.095-.099.198-.127.308h-1.006c.052-.38.198-.729.42-1.022zm-.423 1.628h1.013c.029.108.071.21.127.304l-.714.714c-.223-.29-.373-.638-.426-1.018zm1.872 1.866c-.379-.053-.723-.202-1.015-.421l.712-.712c.093.054.196.095.303.123v1.01zm0-3.339c-.11.03-.213.072-.309.129l-.713-.713c.293-.223.64-.37 1.022-.423v1.007zm.607-1.008c.381.053.73.201 1.022.424l-.713.713c-.095-.057-.2-.101-.309-.13v-1.007zm0 4.346v-1.009c.108-.028.21-.068.303-.123l.712.712c-.291.22-.637.367-1.015.42zm1.449-.843l-.718-.718c.056-.095.102-.195.13-.303h1.006c-.053.378-.196.729-.418 1.02zm-.586-1.628c-.029-.11-.071-.213-.127-.308l.714-.714c.22.293.366.641.42 1.022h-1.007z" transform="translate(-225 -4252) translate(225 4252)"/>
                <path d="M48.134 8.175V5.423c0-.443-.32-.818-.755-.886-1.043-.165-2.892-.475-3.723-.732-1.192-.37-5.794-2.33-7.388-2.698-1.594-.369-8.782-2.334-15.667.067-1.165.406-6.406 2.926-9.487 4.236-.908.02-9.89 1.904-10.37 3.195C.268 9.896.118 10.523.03 10.85c-.089.327 0 1.896.667 2.988.68.387 1.99.647 3.504.821-.017-.093-.036-.184-.048-.279-.026-.2-.039-.385-.039-.56 0-2.463 1.992-4.467 4.44-4.467 2.45 0 4.44 2.004 4.44 4.467 0 .127-.008.252-.017.376-.023.276-.073.545-.145.803h.012l22.04-.446c-.01-.058-.022-.114-.03-.173-.026-.2-.038-.384-.038-.56 0-2.463 1.991-4.467 4.44-4.467 2.449 0 4.44 2.004 4.44 4.467v.026l.093-.007 3.769-.714S49 12.353 49 10.226c0-1.418-.866-2.051-.866-2.051zM26.27 5.565l-8.232.254C18.19 4.58 17.46 4.3 17.46 4.3c3.272-2.988 9.867-3.089 9.867-3.089L26.27 5.566zm9.238-.378l-7.501.253.68-4.228c3.876-.051 6.09.81 6.09.81l1.108 1.797-.377 1.368zm4.228-.026h-2.09l-2.089-2.887c1.568.628 2.822 1.247 3.57 1.638.453.237.7.743.61 1.249z" transform="translate(-225 -4252) translate(225 4252)"/>
            </g>
        </g>
    </g>
</svg>
