<svg xmlns="http://www.w3.org/2000/svg" width="718" height="230" viewBox="0 0 718 230">
    <g fill="none" fill-rule="evenodd" opacity=".5">
        <g fill="#FFF" fill-rule="nonzero">
            <g>
                <path fill-opacity=".4" d="M369.574 84.49c-.233-.038-.47-.056-.705-.053h-40.213l.877-.409c.857-.406 1.637-.96 2.304-1.635l11.277-11.303c1.485-1.421 1.735-3.707.591-5.417-1.33-1.821-3.882-2.217-5.7-.883-.147.108-.286.225-.417.352l-20.392 20.44c-1.593 1.596-1.595 4.184-.003 5.781l.003.004 20.392 20.44c1.595 1.594 4.177 1.59 5.767-.008.126-.126.242-.26.35-.401 1.144-1.71.894-3.996-.591-5.417l-11.256-11.324c-.599-.6-1.287-1.104-2.04-1.492l-1.223-.552h40.05c2.083.078 3.91-1.38 4.302-3.434.36-2.228-1.15-4.328-3.373-4.69z" transform="translate(-579 -4258) matrix(1 0 0 -1 579 4488) matrix(-1 0 0 1 689 0)"/>
                <path fill-opacity=".4" d="M564.574 49.49c-.233-.038-.47-.056-.705-.053h-40.213l.877-.409c.857-.406 1.637-.96 2.304-1.635l11.277-11.303c1.485-1.421 1.735-3.707.591-5.417-1.33-1.821-3.882-2.217-5.7-.883-.147.108-.286.225-.417.352l-20.392 20.44c-1.593 1.596-1.595 4.184-.003 5.781l.003.004 20.392 20.44c1.595 1.594 4.177 1.59 5.767-.008.126-.126.242-.26.35-.401 1.144-1.71.894-3.996-.591-5.417l-11.256-11.324c-.599-.6-1.287-1.104-2.04-1.492l-1.223-.552h40.05c2.083.078 3.91-1.38 4.302-3.434.36-2.228-1.15-4.328-3.373-4.69z" transform="translate(-579 -4258) matrix(1 0 0 -1 579 4488) matrix(-1 0 0 1 1079 0)"/>
                <path fill-opacity=".5" d="M262.071 137.69c-.335-.056-.675-.081-1.014-.077h-57.85l1.262-.592c1.233-.59 2.354-1.391 3.314-2.37l16.223-16.378c2.136-2.06 2.495-5.372.85-7.849-1.914-2.639-5.585-3.212-8.2-1.28-.21.157-.411.327-.6.51l-29.335 29.618c-2.293 2.312-2.295 6.062-.005 8.377l.005.005 29.335 29.617c2.294 2.31 6.01 2.305 8.297-.012.18-.182.349-.376.504-.58 1.644-2.477 1.285-5.79-.851-7.849l-16.193-16.408c-.861-.87-1.85-1.6-2.934-2.162l-1.76-.8h57.615c2.997.113 5.626-2.001 6.19-4.976.518-3.229-1.654-6.271-4.853-6.795z" transform="translate(-579 -4258) matrix(1 0 0 -1 579 4488) matrix(-1 0 0 1 452 0)"/>
                <path fill-opacity=".5" d="M682.071 110.69c-.335-.056-.675-.081-1.014-.077h-57.85l1.262-.592c1.233-.59 2.354-1.391 3.314-2.37l16.223-16.378c2.136-2.06 2.495-5.372.85-7.849-1.914-2.639-5.585-3.212-8.2-1.28-.21.157-.411.327-.6.51l-29.335 29.618c-2.293 2.312-2.295 6.062-.005 8.377l.005.005 29.335 29.617c2.294 2.31 6.01 2.305 8.297-.012.18-.182.349-.376.504-.58 1.644-2.477 1.285-5.79-.851-7.849l-16.193-16.408c-.861-.87-1.85-1.6-2.934-2.162l-1.76-.8h57.615c2.997.113 5.626-2.001 6.19-4.976.518-3.229-1.654-6.271-4.853-6.795z" transform="translate(-579 -4258) matrix(1 0 0 -1 579 4488) matrix(-1 0 0 1 1292 0)"/>
                <path fill-opacity=".5" d="M420.656 131.217c-.16-.026-.321-.038-.483-.036H392.66l.6-.284c.586-.282 1.12-.666 1.576-1.134l7.716-7.844c1.016-.986 1.186-2.572.404-3.758-.91-1.264-2.656-1.538-3.9-.613-.1.075-.196.156-.285.244l-13.953 14.183c-1.09 1.107-1.09 2.903-.002 4.012l.002.002 13.953 14.183c1.09 1.106 2.858 1.104 3.946-.006.085-.087.165-.18.24-.278.781-1.186.61-2.772-.405-3.758l-7.702-7.858c-.41-.416-.88-.766-1.395-1.035l-.837-.383h27.402c1.425.054 2.676-.958 2.944-2.383.246-1.546-.787-3.003-2.308-3.254z" transform="translate(-579 -4258) matrix(1 0 0 -1 579 4488) matrix(-1 0 0 1 807 0)"/>
                <path fill-opacity=".6" d="M421.257 81.454c-.119-.02-.239-.028-.359-.027H400.44l.446-.208c.436-.208.833-.49 1.173-.835l5.737-5.767c.755-.725.882-1.891.3-2.763-.676-.93-1.975-1.132-2.9-.451-.074.055-.145.115-.212.18L394.61 82.01c-.811.814-.812 2.135-.002 2.95l.002.002 10.374 10.428c.812.814 2.125.812 2.935-.004.063-.064.123-.132.178-.204.581-.873.454-2.039-.301-2.764l-5.727-5.777c-.304-.307-.654-.564-1.038-.762l-.622-.281h20.376c1.06.04 1.99-.705 2.189-1.752.183-1.137-.585-2.209-1.716-2.393z" transform="translate(-579 -4258) matrix(1 0 0 -1 579 4488) matrix(-1 0 0 1 817 0)"/>
                <path fill-opacity=".5" d="M573.656 193.217c-.16-.026-.321-.038-.483-.036H545.66l.6-.284c.586-.282 1.12-.666 1.576-1.134l7.716-7.844c1.016-.986 1.186-2.572.404-3.758-.91-1.264-2.656-1.538-3.9-.613-.1.075-.196.156-.285.244l-13.953 14.183c-1.09 1.107-1.09 2.903-.002 4.012l.002.002 13.953 14.183c1.09 1.106 2.858 1.104 3.946-.006.085-.087.165-.18.24-.278.781-1.186.61-2.772-.405-3.758l-7.702-7.858c-.41-.416-.88-.766-1.395-1.035l-.837-.383h27.402c1.425.054 2.676-.958 2.944-2.383.246-1.546-.787-3.003-2.308-3.254z" transform="translate(-579 -4258) matrix(1 0 0 -1 579 4488) matrix(-1 0 0 1 1113 0)"/>
                <path d="M472.437 216.618c-.106-.018-.214-.026-.321-.025h-18.343l.4-.192c.39-.19.747-.45 1.051-.767l5.144-5.306c.677-.667.791-1.74.27-2.543-.608-.855-1.772-1.04-2.6-.414-.067.05-.131.106-.191.165l-9.301 9.594c-.727.75-.728 1.964-.002 2.714l.002.002 9.301 9.594c.728.748 1.905.746 2.63-.004.058-.059.111-.122.16-.188.522-.802.408-1.875-.27-2.543l-5.134-5.315c-.273-.282-.586-.518-.93-.7l-.558-.26h18.268c.95.037 1.784-.648 1.963-1.611.164-1.046-.525-2.032-1.539-2.201z" transform="translate(-579 -4258) matrix(1 0 0 -1 579 4488) matrix(-1 0 0 1 922 0)"/>
                <path d="M478.437 73.618c-.106-.018-.214-.026-.321-.025h-18.343l.4-.192c.39-.19.747-.45 1.051-.767l5.144-5.306c.677-.667.791-1.74.27-2.543-.608-.855-1.772-1.04-2.6-.414-.067.05-.131.106-.191.165l-9.301 9.594c-.727.75-.728 1.964-.002 2.714l.002.002 9.301 9.594c.728.748 1.905.746 2.63-.004.058-.059.111-.122.16-.188.522-.802.408-1.875-.27-2.543l-5.134-5.315c-.273-.282-.586-.518-.93-.7l-.558-.26h18.268c.95.037 1.784-.648 1.963-1.611.164-1.046-.525-2.032-1.539-2.201z" transform="translate(-579 -4258) matrix(1 0 0 -1 579 4488) matrix(-1 0 0 1 934 0)"/>
                <path d="M152.437 93.618c-.106-.018-.214-.026-.321-.025h-18.343l.4-.192c.39-.19.747-.45 1.051-.767l5.144-5.306c.677-.667.791-1.74.27-2.543-.608-.855-1.772-1.04-2.6-.414-.067.05-.131.106-.191.165l-9.301 9.594c-.727.75-.728 1.964-.002 2.714l.002.002 9.301 9.594c.728.748 1.905.746 2.63-.004.058-.059.111-.122.16-.188.522-.802.408-1.875-.27-2.543l-5.134-5.315c-.273-.282-.586-.518-.93-.7l-.558-.26h18.268c.95.037 1.784-.648 1.963-1.611.164-1.046-.525-2.032-1.539-2.201z" transform="translate(-579 -4258) matrix(1 0 0 -1 579 4488) matrix(-1 0 0 1 282 0)"/>
                <path fill-opacity=".3" d="M298.437 98.618c-.106-.018-.214-.026-.321-.025h-18.343l.4-.192c.39-.19.747-.45 1.051-.767l5.144-5.306c.677-.667.791-1.74.27-2.543-.608-.855-1.772-1.04-2.6-.414-.067.05-.131.106-.191.165l-9.301 9.594c-.727.75-.728 1.964-.002 2.714l.002.002 9.301 9.594c.728.748 1.905.746 2.63-.004.058-.059.111-.122.16-.188.522-.802.408-1.875-.27-2.543l-5.134-5.315c-.273-.282-.586-.518-.93-.7l-.558-.26h18.268c.95.037 1.784-.648 1.963-1.611.164-1.046-.525-2.032-1.539-2.201z" transform="translate(-579 -4258) matrix(1 0 0 -1 579 4488) matrix(-1 0 0 1 574 0)"/>
                <path fill-opacity=".8" d="M340.437 159.618c-.106-.018-.214-.026-.321-.025h-18.343l.4-.192c.39-.19.747-.45 1.051-.767l5.144-5.306c.677-.667.791-1.74.27-2.543-.608-.855-1.772-1.04-2.6-.414-.067.05-.131.106-.191.165l-9.301 9.594c-.727.75-.728 1.964-.002 2.714l.002.002 9.301 9.594c.728.748 1.905.746 2.63-.004.058-.059.111-.122.16-.188.522-.802.408-1.875-.27-2.543l-5.134-5.315c-.273-.282-.586-.518-.93-.7l-.558-.26h18.268c.95.037 1.784-.648 1.963-1.611.164-1.046-.525-2.032-1.539-2.201z" transform="translate(-579 -4258) matrix(1 0 0 -1 579 4488) matrix(-1 0 0 1 658 0)"/>
                <path fill-opacity=".8" d="M428.437 18.618c-.106-.018-.214-.026-.321-.025h-18.343l.4-.192c.39-.19.747-.45 1.051-.767l5.144-5.306c.677-.667.791-1.74.27-2.543-.608-.855-1.772-1.04-2.6-.414-.067.05-.131.106-.191.165l-9.301 9.594c-.727.75-.728 1.964-.002 2.714l.002.002 9.301 9.594c.728.748 1.905.746 2.63-.004.058-.059.111-.122.16-.188.522-.802.408-1.875-.27-2.543l-5.134-5.315c-.273-.282-.586-.518-.93-.7l-.558-.26h18.268c.95.037 1.784-.648 1.963-1.611.164-1.046-.525-2.032-1.539-2.201z" transform="translate(-579 -4258) matrix(1 0 0 -1 579 4488) matrix(-1 0 0 1 834 0)"/>
                <path d="M15.038 69.854c-.065-.01-.131-.016-.198-.015H3.553l.246-.117c.24-.116.46-.274.647-.467l3.165-3.23c.417-.405.487-1.059.166-1.547-.374-.52-1.09-.633-1.6-.252-.041.03-.08.064-.117.1l-5.724 5.84c-.448.456-.448 1.196-.001 1.652v.001l5.725 5.84c.447.456 1.172.455 1.619-.002.035-.036.068-.074.098-.115.32-.488.25-1.141-.166-1.547l-3.16-3.236c-.168-.171-.36-.315-.572-.426l-.344-.158h11.242c.585.022 1.098-.394 1.208-.98.101-.638-.323-1.238-.947-1.34z" transform="translate(-579 -4258) matrix(1 0 0 -1 579 4488) matrix(-1 0 0 1 16 0)"/>
                <path fill-opacity=".5" d="M170.038 52.854c-.065-.01-.131-.016-.198-.015h-11.287l.246-.117c.24-.116.46-.274.647-.467l3.165-3.23c.417-.405.487-1.059.166-1.547-.374-.52-1.09-.633-1.6-.252-.041.03-.08.064-.117.1l-5.724 5.84c-.448.456-.448 1.196-.001 1.652v.001l5.725 5.84c.447.456 1.172.455 1.619-.002.035-.036.068-.074.098-.115.32-.488.25-1.141-.166-1.547l-3.16-3.236c-.168-.171-.36-.315-.572-.426l-.344-.158h11.242c.585.022 1.098-.394 1.208-.98.101-.638-.323-1.238-.947-1.34z" transform="translate(-579 -4258) matrix(1 0 0 -1 579 4488) matrix(-1 0 0 1 326 0)"/>
                <path d="M218.399 74.763c-.041-.007-.082-.01-.124-.01h-7.055l.154-.074c.15-.075.287-.177.404-.3l1.979-2.077c.26-.26.304-.68.104-.995-.234-.334-.682-.407-1-.162-.026.02-.05.041-.074.065l-3.577 3.754c-.28.293-.28.769 0 1.062l3.577 3.755c.28.293.733.292 1.012-.002.022-.023.043-.047.062-.073.2-.314.156-.734-.104-.995l-1.975-2.08c-.105-.11-.226-.203-.358-.274l-.214-.101h7.026c.365.014.686-.254.755-.631.063-.41-.202-.795-.592-.862z" transform="translate(-579 -4258) matrix(1 0 0 -1 579 4488) matrix(-1 0 0 1 428 0)"/>
                <path d="M717.399 129.763c-.041-.007-.082-.01-.124-.01h-7.055l.154-.074c.15-.075.287-.177.404-.3l1.979-2.077c.26-.26.304-.68.104-.995-.234-.334-.682-.407-1-.162-.026.02-.05.041-.074.065l-3.577 3.754c-.28.293-.28.769 0 1.062l3.577 3.755c.28.293.733.292 1.012-.002.022-.023.043-.047.062-.073.2-.314.156-.734-.104-.995l-1.975-2.08c-.105-.11-.226-.203-.358-.274l-.214-.101h7.026c.365.014.686-.254.755-.631.063-.41-.202-.795-.592-.862z" transform="translate(-579 -4258) matrix(1 0 0 -1 579 4488) matrix(-1 0 0 1 1426 0)"/>
                <path d="M491.399 3.763c-.041-.007-.082-.01-.124-.01h-7.055l.154-.074c.15-.075.287-.177.404-.3l1.979-2.077c.26-.26.304-.68.104-.995-.234-.334-.682-.407-1-.162-.026.02-.05.041-.074.065l-3.577 3.754c-.28.293-.28.769 0 1.062l3.577 3.755c.28.293.733.292 1.012-.002.022-.023.043-.047.062-.073.2-.314.156-.734-.104-.995l-1.975-2.08c-.105-.11-.226-.203-.358-.274l-.214-.101h7.026c.365.014.686-.254.755-.631.063-.41-.202-.795-.592-.862z" transform="translate(-579 -4258) matrix(1 0 0 -1 579 4488) matrix(-1 0 0 1 974 0)"/>
                <path d="M655.399 171.763c-.041-.007-.082-.01-.124-.01h-7.055l.154-.074c.15-.075.287-.177.404-.3l1.979-2.077c.26-.26.304-.68.104-.995-.234-.334-.682-.407-1-.162-.026.02-.05.041-.074.065l-3.577 3.754c-.28.293-.28.769 0 1.062l3.577 3.755c.28.293.733.292 1.012-.002.022-.023.043-.047.062-.073.2-.314.156-.734-.104-.995l-1.975-2.08c-.105-.11-.226-.203-.358-.274l-.214-.101h7.026c.365.014.686-.254.755-.631.063-.41-.202-.795-.592-.862z" transform="translate(-579 -4258) matrix(1 0 0 -1 579 4488) matrix(-1 0 0 1 1302 0)"/>
                <path d="M271.656 46.217c-.16-.026-.321-.038-.483-.036H243.66l.6-.284c.586-.282 1.12-.666 1.576-1.134l7.716-7.844c1.016-.986 1.186-2.572.404-3.758-.91-1.264-2.656-1.538-3.9-.613-.1.075-.196.156-.285.244l-13.953 14.183c-1.09 1.107-1.09 2.903-.002 4.012l.002.002 13.953 14.183c1.09 1.106 2.858 1.104 3.946-.006.085-.087.165-.18.24-.278.781-1.186.61-2.772-.405-3.758l-7.702-7.858c-.41-.416-.88-.766-1.395-1.035l-.837-.383h27.402c1.425.054 2.676-.958 2.944-2.383.246-1.546-.787-3.003-2.308-3.254z" transform="translate(-579 -4258) matrix(1 0 0 -1 579 4488) matrix(-1 0 0 1 509 0)"/>
                <path d="M534.656 132.217c-.16-.026-.321-.038-.483-.036H506.66l.6-.284c.586-.282 1.12-.666 1.576-1.134l7.716-7.844c1.016-.986 1.186-2.572.404-3.758-.91-1.264-2.656-1.538-3.9-.613-.1.075-.196.156-.285.244l-13.953 14.183c-1.09 1.107-1.09 2.903-.002 4.012l.002.002 13.953 14.183c1.09 1.106 2.858 1.104 3.946-.006.085-.087.165-.18.24-.278.781-1.186.61-2.772-.405-3.758l-7.702-7.858c-.41-.416-.88-.766-1.395-1.035l-.837-.383h27.402c1.425.054 2.676-.958 2.944-2.383.246-1.546-.787-3.003-2.308-3.254z" transform="translate(-579 -4258) matrix(1 0 0 -1 579 4488) matrix(-1 0 0 1 1035 0)"/>
                <path d="M94.656 115.217c-.16-.026-.321-.038-.483-.036H66.66l.6-.284c.586-.282 1.12-.666 1.576-1.134l7.716-7.844c1.016-.986 1.186-2.572.404-3.758-.91-1.264-2.656-1.538-3.9-.613-.1.075-.196.156-.285.244l-13.953 14.183c-1.09 1.107-1.09 2.903-.002 4.012l.002.002 13.953 14.183c1.09 1.106 2.858 1.104 3.946-.006.085-.087.165-.18.24-.278.781-1.186.61-2.772-.405-3.758l-7.702-7.858c-.41-.416-.88-.766-1.395-1.035l-.837-.383H94.02c1.425.054 2.676-.958 2.944-2.383.246-1.546-.787-3.003-2.308-3.254z" transform="translate(-579 -4258) matrix(1 0 0 -1 579 4488) matrix(-1 0 0 1 155 0)"/>
                <path fill-opacity=".4" d="M74.656 46.217c-.16-.026-.321-.038-.483-.036H46.66l.6-.284c.586-.282 1.12-.666 1.576-1.134l7.716-7.844c1.016-.986 1.186-2.572.404-3.758-.91-1.264-2.656-1.538-3.9-.613-.1.075-.196.156-.285.244L38.818 46.975c-1.09 1.107-1.09 2.903-.002 4.012l.002.002 13.953 14.183c1.09 1.106 2.858 1.104 3.946-.006.085-.087.165-.18.24-.278.781-1.186.61-2.772-.405-3.758l-7.702-7.858c-.41-.416-.88-.766-1.395-1.035l-.837-.383H74.02c1.425.054 2.676-.958 2.944-2.383.246-1.546-.787-3.003-2.308-3.254z" transform="translate(-579 -4258) matrix(1 0 0 -1 579 4488) matrix(-1 0 0 1 115 0)"/>
            </g>
        </g>
    </g>
</svg>
