<?xml version="1.0" encoding="UTF-8"?>
<svg width="44px" height="51px" viewBox="0 0 44 51" version="1.1" xmlns="http://www.w3.org/2000/svg" xmlns:xlink="http://www.w3.org/1999/xlink">
    <title>groupPoly-04</title>
    <g id="Page-1" stroke="none" stroke-width="1" fill="none" fill-rule="evenodd" opacity="0.2">
        <g id="groupPoly-04" transform="translate(-136.000000, -269.000000)" fill="#62619A" fill-rule="nonzero">
            <g id="Shape">
                <path d="M107.5,31 L151.234,56.25 L151.234,106.75 L107.5,132 L63.766,106.75 L63.766,56.25 L107.5,31 Z M22,0 L43.651,12.5 L43.651,37.5 L22,50 L0.349,37.5 L0.349,12.5 L22,0 Z M158,270 L179.651,282.5 L179.651,307.5 L158,320 L136.349,307.5 L136.349,282.5 L158,270 Z M22,102 L34.99,109.5 L34.99,124.5 L22,132 L9.01,124.5 L9.01,109.5 L22,102 Z M148.5,167 L156.727,171.75 L156.727,181.25 L148.5,186 L140.273,181.25 L140.273,171.75 L148.5,167 Z"></path>
            </g>
        </g>
    </g>
</svg>