<?xml version="1.0" encoding="UTF-8"?>
<svg width="49px" height="55px" viewBox="0 0 49 55" version="1.1" xmlns="http://www.w3.org/2000/svg" xmlns:xlink="http://www.w3.org/1999/xlink">
    <title>groupPoly-05</title>
    <g id="Page-1" stroke="none" stroke-width="1" fill="none" fill-rule="evenodd" opacity="0.3">
        <path d="M162,-269 L200.105,-247 L200.105,-203 L162,-181 L123.895,-203 L123.895,-247 L162,-269 Z M118.5,-172 L142.316,-158.25 L142.316,-130.75 L118.5,-117 L94.684,-130.75 L94.684,-158.25 L118.5,-172 Z M8,-151 L22.722,-142.5 L22.722,-125.5 L8,-117 L-6.722,-125.5 L-6.722,-142.5 L8,-151 Z M24.5,0 L48.316,13.75 L48.316,41.25 L24.5,55 L0.684,41.25 L0.684,13.75 L24.5,0 Z M51.5,-280 L75.316,-266.25 L75.316,-238.75 L51.5,-225 L27.684,-238.75 L27.684,-266.25 L51.5,-280 Z" id="Shape" fill="#7EB441" fill-rule="nonzero"></path>
    </g>
</svg>