<svg xmlns="http://www.w3.org/2000/svg" xmlns:xlink="http://www.w3.org/1999/xlink" width="45" height="66" viewBox="0 0 45 66">
    <defs>
        <linearGradient id="4myg5u6lmb" x1="31.538%" x2="74.525%" y1="59.797%" y2="34.209%">
            <stop offset="0%" stop-color="#EE4956"/>
            <stop offset="100%" stop-color="#951531"/>
        </linearGradient>
        <linearGradient id="51nyrem8ne" x1="50%" x2="50%" y1="100%" y2="0%">
            <stop offset="0%" stop-color="#EE4956"/>
            <stop offset="100%" stop-color="#951531"/>
        </linearGradient>
        <linearGradient id="e5bodvoxch" x1="50%" x2="50%" y1="100%" y2="0%">
            <stop offset="0%" stop-color="#EE4956"/>
            <stop offset="100%" stop-color="#951531"/>
        </linearGradient>
        <path id="jt9if2udra" d="M21.784.04c-.2 0-.4.003-.6.009C8.886.38.011 11.24 0 23.239v.046c.003 3.13.61 6.337 1.915 9.453l18.302 32.32c.711 1.256 3.987 1.256 4.697 0l18.303-32.32C49.537 17.655 37.905.467 22.383.048c-.199-.005-.399-.007-.6-.007zm-13.1 22.458c0-6.428 4.9-11.638 10.943-11.638 6.044 0 10.944 5.21 10.944 11.638 0 6.427-4.9 11.638-10.944 11.638-6.044 0-10.943-5.21-10.943-11.638z"/>
        <path id="tcjwemjo4d" d="M2.185.04c-.19 0-.38.004-.568.009C1.082.063.554.097.032.149c14.892 1.48 24.25 18.017 18.033 32.589L.61 63.013c-.356.618-.356 1.39 0 2.007l.022.038c.724 1.256 4.06 1.256 4.783 0l18.634-32.32c1.329-3.115 1.946-6.32 1.95-9.448v-.053C25.986 11.239 16.95.38 4.429.049 4.242.044 2.675.04 2.293.04h-.107z"/>
        <path id="4ttsbsnv4g" d="M.038 11.508c0 6.335 4.87 11.47 10.878 11.47.7 0 1.383-.07 2.046-.203-5.029-1.01-8.831-5.67-8.831-11.267C4.131 5.91 7.933 1.25 12.962.24 12.3.108 11.615.037 10.916.037 4.908.037.038 5.173.038 11.507"/>
    </defs>
    <g fill="none" fill-rule="evenodd">
        <g>
            <g>
                <g transform="translate(-1145 -2880) translate(1145 2880)">
                    <mask id="vmw7exf6nc" fill="#fff">
                        <use xlink:href="#jt9if2udra"/>
                    </mask>
                    <path fill="url(#4myg5u6lmb)" d="M21.784.04c-.2 0-.4.003-.6.009C8.886.38.011 11.24 0 23.239v.046c.003 3.13.61 6.337 1.915 9.453l18.302 32.32c.711 1.256 3.987 1.256 4.697 0l18.303-32.32C49.537 17.655 37.905.467 22.383.048c-.199-.005-.399-.007-.6-.007zm-13.1 22.458c0-6.428 4.9-11.638 10.943-11.638 6.044 0 10.944 5.21 10.944 11.638 0 6.427-4.9 11.638-10.944 11.638-6.044 0-10.943-5.21-10.943-11.638z" mask="url(#vmw7exf6nc)"/>
                </g>
                <g transform="translate(-1145 -2880) translate(1145 2880) translate(19)">
                    <mask id="799duc8i8f" fill="#fff">
                        <use xlink:href="#tcjwemjo4d"/>
                    </mask>
                    <path fill="url(#51nyrem8ne)" d="M2.185.04c-.19 0-.38.004-.568.009C1.082.063.554.097.032.149c14.892 1.48 24.25 18.017 18.033 32.589L.61 63.013c-.356.618-.356 1.39 0 2.007l.022.038c.724 1.256 4.06 1.256 4.783 0l18.634-32.32c1.329-3.115 1.946-6.32 1.95-9.448v-.053C25.986 11.239 16.95.38 4.429.049 4.242.044 2.675.04 2.293.04h-.107z" mask="url(#799duc8i8f)"/>
                </g>
                <g transform="translate(-1145 -2880) translate(1145 2880) translate(8 11)">
                    <mask id="ytrl05ij3i" fill="#fff">
                        <use xlink:href="#4ttsbsnv4g"/>
                    </mask>
                    <path fill="url(#e5bodvoxch)" d="M.038 11.508c0 6.335 4.87 11.47 10.878 11.47.7 0 1.383-.07 2.046-.203-5.029-1.01-8.831-5.67-8.831-11.267C4.131 5.91 7.933 1.25 12.962.24 12.3.108 11.615.037 10.916.037 4.908.037.038 5.173.038 11.507" mask="url(#ytrl05ij3i)"/>
                </g>
            </g>
        </g>
    </g>
</svg>
