<svg xmlns="http://www.w3.org/2000/svg" width="25" height="25" viewBox="0 0 25 25">
    <g fill="none" fill-rule="evenodd">
        <g>
            <g>
                <g>
                    <g>
                        <g transform="translate(-1068 -5192) translate(-179 4629) translate(168 432) translate(318 131) translate(761)">
                            <circle cx="12.5" cy="12.5" r="12" stroke="#62619A"/>
                            <g fill="#62619A" fill-rule="nonzero">
                                <path d="M12.973 3.821c-.03-.69-.142-1.165-.302-1.577-.165-.436-.419-.827-.751-1.152-.325-.33-.719-.587-1.15-.75-.414-.16-.887-.27-1.577-.301C8.497.008 8.276 0 6.51 0 4.747 0 4.526.008 3.833.038c-.69.03-1.166.142-1.577.302-.437.165-.828.42-1.153.752-.33.325-.586.718-.749 1.15-.16.414-.271.886-.302 1.577-.033.695-.04.916-.04 2.681 0 1.765.007 1.986.037 2.679.03.69.143 1.165.303 1.577.165.436.421.827.751 1.152.325.33.719.587 1.15.75.414.16.887.27 1.577.301.693.03.914.038 2.679.038 1.765 0 1.985-.007 2.679-.038.69-.03 1.165-.142 1.576-.302.874-.337 1.564-1.028 1.902-1.901.16-.414.272-.887.302-1.577.03-.693.038-.914.038-2.679 0-1.765-.002-1.986-.033-2.679zm-1.17 5.307c-.028.635-.135.977-.224 1.206-.218.566-.667 1.016-1.234 1.234-.228.089-.573.195-1.206.223-.685.03-.89.038-2.625.038-1.734 0-1.942-.007-2.625-.038-.635-.028-.978-.134-1.207-.223-.281-.104-.538-.27-.746-.485-.216-.21-.38-.465-.485-.746-.089-.229-.195-.574-.223-1.206-.03-.686-.038-.892-.038-2.626s.007-1.942.038-2.625c.028-.635.134-.978.223-1.206.104-.282.27-.539.488-.747.21-.216.464-.38.746-.485.229-.089.574-.195 1.206-.223.686-.03.891-.038 2.625-.038 1.737 0 1.943.007 2.626.038.635.028.977.134 1.206.223.282.104.538.27.746.485.216.21.381.465.485.747.09.228.196.573.224 1.206.03.685.038.89.038 2.625 0 1.734-.008 1.937-.038 2.623z" transform="translate(6 6)"/>
                                <path d="M6.511 3.161c-1.843 0-3.338 1.496-3.338 3.339S4.668 9.839 6.51 9.839c1.844 0 3.34-1.496 3.34-3.339S8.354 3.161 6.51 3.161zm0 5.505c-1.195 0-2.165-.97-2.165-2.166s.97-2.166 2.165-2.166c1.196 0 2.166.97 2.166 2.166s-.97 2.166-2.166 2.166zM10.762 3.03c0 .43-.35.779-.78.779-.43 0-.78-.35-.78-.78 0-.43.35-.78.78-.78.43 0 .78.35.78.78z" transform="translate(6 6)"/>
                            </g>
                        </g>
                    </g>
                </g>
            </g>
        </g>
    </g>
</svg>
