<?xml version="1.0" encoding="UTF-8"?>
<svg width="25px" height="25px" viewBox="0 0 25 25" version="1.1" xmlns="http://www.w3.org/2000/svg" xmlns:xlink="http://www.w3.org/1999/xlink">
    <title>icon-whatsapp</title>
    <defs>
        <filter id="filter-1">
            <feColorMatrix in="SourceGraphic" type="matrix" values="0 0 0 0 0.384314 0 0 0 0 0.380392 0 0 0 0 0.603922 0 0 0 1.000000 0"></feColorMatrix>
        </filter>
    </defs>
    <g id="Page-1" stroke="none" stroke-width="1" fill="none" fill-rule="evenodd">
        <g id="icon-whatsapp">
            <g filter="url(#filter-1)" id="iconowhatsapp">
                <g transform="translate(6.000000, 6.000000)">
                    <path d="M10.572565,1.80838732 C9.41129676,0.641209227 7.86293894,2.13162821e-14 6.21411527,2.13162821e-14 C2.8189567,2.13162821e-14 0.0531878595,2.76576884 0.0502329781,6.16092738 C0.0502329781,7.24832364 0.333901577,8.30617116 0.871689966,9.24286851 L8.65973959e-13,12.4370951 L3.26809865,11.5801796 C4.16933742,12.0706899 5.18286167,12.3307194 6.21411527,12.3307194 L6.2170701,12.3307194 C6.2170701,12.3307194 6.2170701,12.3307194 6.2170701,12.3307194 C9.61222866,12.3307194 12.3779975,9.56495057 12.3809524,6.16683711 C12.3779975,4.52096829 11.7367883,2.97261053 10.572565,1.80838732 Z M6.21411527,11.2876463 L6.21411527,11.2876463 C5.29219229,11.2876463 4.39095352,11.0394363 3.60495511,10.572565 L3.41879759,10.4602796 L1.4803955,10.9685192 L1.99749972,9.07739517 L1.87634958,8.882373 C1.36220025,8.0668258 1.09330606,7.12421865 1.09330606,6.15797248 C1.09330606,3.3390158 3.39220366,1.04011819 6.2170701,1.04011819 C7.58518014,1.04011819 8.87055347,1.5749517 9.83975454,2.54119786 C10.8060007,3.51039891 11.3378793,4.79577225 11.3378793,6.16388228 C11.3349244,8.99170362 9.03602681,11.2876463 6.21411527,11.2876463 Z M9.02420728,7.4522105 C8.87055347,7.37538354 8.1141039,7.00306855 7.97226956,6.94988066 C7.83043529,6.89964767 7.72701441,6.87305376 7.62654849,7.02670757 C7.52312761,7.18036138 7.22763953,7.52903741 7.13899309,7.62950333 C7.05034664,7.73292421 6.9587453,7.74474375 6.80509149,7.66791678 C6.65143768,7.59108988 6.15501764,7.42857143 5.56699625,6.90260257 C5.10898966,6.49482897 4.80168201,5.98954429 4.71008069,5.83589042 C4.62143425,5.68223661 4.70121605,5.59949997 4.77804296,5.52267306 C4.84600523,5.45471073 4.93169678,5.34242528 5.00852368,5.25377883 C5.08535059,5.16513239 5.11194456,5.10012502 5.16217749,4.99670414 C5.21241048,4.89328333 5.18877147,4.80463689 5.15035801,4.72780998 C5.11194456,4.65098307 4.80463689,3.89157859 4.67462212,3.58427094 C4.5505171,3.28287306 4.42345721,3.32424139 4.32890101,3.32128651 C4.24025457,3.31537675 4.13683373,3.31537675 4.03341289,3.31537675 C3.92999205,3.31537675 3.76451869,3.3537902 3.6226844,3.50744403 C3.48085009,3.66109785 3.08489601,4.03341289 3.08489601,4.79281737 C3.08489601,5.55222181 3.6374588,6.28207753 3.71428571,6.38549835 C3.79111263,6.48891917 4.79872713,8.04318673 6.34413,8.71098986 C6.71053531,8.87055347 6.99715875,8.96510965 7.22172973,9.03602681 C7.59108988,9.15422207 7.92499147,9.1364928 8.1909308,9.09807934 C8.48641888,9.05375609 9.10103418,8.7257643 9.23104898,8.36526879 C9.35810887,8.00477328 9.35810887,7.6974656 9.31969542,7.63245823 C9.28128197,7.56745086 9.17786115,7.52903741 9.02420728,7.4522105 Z" id="Shape" fill="#FFFFFF" fill-rule="nonzero"></path>
                </g>
            </g>
            <circle id="Oval" stroke="#62619A" cx="12.5" cy="12.5" r="12"></circle>
        </g>
    </g>
</svg>