<svg xmlns="http://www.w3.org/2000/svg" width="25" height="25" viewBox="0 0 25 25">
    <g fill="none" fill-rule="evenodd">
        <g>
            <g>
                <g transform="translate(-992 -46) translate(-2 33) translate(994 13)">
                    <g fill="#62619A" fill-rule="nonzero">
                        <path d="M11.386 1.858L6.91 5.8 2.434 1.858c-.178-.157-.45-.14-.607.038-.157.178-.14.45.039.607l4.76 4.194c.082.072.183.107.285.107.101 0 .203-.035.284-.107l4.76-4.194c.178-.157.195-.429.038-.607s-.429-.195-.607-.038z" transform="translate(5.405 7.432)"/>
                        <path d="M12.53.03H1.29C.579.03 0 .61 0 1.32v6.823c0 .71.579 1.29 1.29 1.29h11.24c.711 0 1.29-.58 1.29-1.29V1.32c0-.711-.579-1.29-1.29-1.29zm.43 8.113c0 .237-.193.43-.43.43H1.29c-.237 0-.43-.193-.43-.43V1.32c0-.237.193-.43.43-.43h11.24c.237 0 .43.193.43.43v6.823z" transform="translate(5.405 7.432)"/>
                    </g>
                    <circle cx="12.5" cy="12.5" r="12" stroke="#62619A"/>
                </g>
            </g>
        </g>
    </g>
</svg>
