<svg xmlns="http://www.w3.org/2000/svg" xmlns:xlink="http://www.w3.org/1999/xlink" width="99" height="100" viewBox="0 0 99 100">
    <defs>
        <path id="232yoxwn9a" d="M0 0.241L98.685 0.241 98.685 99.487 0 99.487z"/>
    </defs>
    <g fill="none" fill-rule="evenodd">
        <g>
            <g>
                <g transform="translate(-1065 -2496) translate(1065 2496) translate(0 .272)">
                    <mask id="mhi9x0vgvb" fill="#fff">
                        <use xlink:href="#232yoxwn9a"/>
                    </mask>
                    <path fill="#FFF" d="M98.685 99.487V.24h-.002l-37.53 49.013h-5.669L93.14.24H0v86.54c.083-.087.142-.148.172-.167.132-.101 6.339-7.848 12.04-15.487 5.124-6.663 9.933-13.142 10.354-13.76 1.02-1.492 2.492-4.716 2.492-4.716h7.585s.233 2.967.454 3.685c.199.636 4.82 15.882 4.927 16.046l2.555-3.286-4.367-13.52s-1.023-2.543-1.357-2.925h8.858s-.069 1.31.29 2.423c.36 1.115 2.258 8.007 2.258 8.007s6.043-7.617 6.396-8.162c.665-.92.745-2.268.745-2.268h7.382s-1.35.995-3.72 4.007c-.795 1.013-8.588 10.974-8.588 10.974s.68 2.333 1.01 3.495c.09.333.155.557.155.581 0 .01.171-.2.465-.581C52.117 68.563 61.265 56.5 61.82 55.468c.446-.837 1.104-1.783 1.491-2.818h7.2s.167 2.163.388 2.761l4.507 15.715c1.72 4.838 5.266 17.433 6.673 18.437h-9.304s-.035-1.862-.437-3.304c-.402-1.44-3.766-12.33-3.766-12.33H53.787l-2.322 3.316s2.791 8.786 2.965 9.215c.302.777 1.633 3.103 1.633 3.103h-8.916s-.233-1.342-.32-1.901c-.07-.451-.843-2.924-.843-2.924s-2.023 2.228-2.572 3.26c-.557 1.032-.803 1.565-.803 1.565h-6.976s-.233-1.342-.321-1.901c-.067-.451-.92-3.122-.92-3.122s-1.955 2.384-2.51 3.414c-.553 1.035-.791 1.609-.791 1.609h-6.898s1.95-1.867 2.63-2.669c1.151-1.36 5.433-6.986 5.433-6.986l-1.72-5.98H15.87S7.507 84.982 7.176 85.326c-.334.336-2.77 3.855-2.825 4.238H0v9.924h98.685z" mask="url(#mhi9x0vgvb)"/>
                </g>
                <path fill="#FFF" d="M26.912 62.636c-.265-1.062-.193-2.428-.193-2.592 0-.12-.025-.32-.14-.064-1.057 2.285-7.281 9.905-7.281 9.905h9.856s-1.909-5.917-2.242-7.25M42.352 74.404l-2.624 3.422 1.69 5.255 2.712-3.747c-.25-.27-1.778-4.93-1.778-4.93M64.779 62.636c-.265-1.062-.193-2.428-.193-2.592 0-.12-.023-.32-.138-.064-1.057 2.285-7.28 9.905-7.28 9.905h9.855s-1.91-5.917-2.244-7.25" transform="translate(-1065 -2496) translate(1065 2496)"/>
            </g>
        </g>
    </g>
</svg>
