<svg xmlns="http://www.w3.org/2000/svg" xmlns:xlink="http://www.w3.org/1999/xlink" width="228" height="60" viewBox="0 0 228 60">
    <defs>
        <path id="ie7achxyoa" d="M0.007 0.004L57.146 0.004 57.146 43.982 0.007 43.982z"/>
        <path id="bms2njnj3c" d="M0 0.128L227.126 0.128 227.126 11.843 0 11.843z"/>
        <path id="csth4w6qte" d="M0.05 0.074L5.049 0.074 5.049 7.278 0.05 7.278z"/>
    </defs>
    <g fill="none" fill-rule="evenodd">
        <g>
            <g>
                <path fill="#FFF" d="M190.177 25.432c1.759-.01 3.515.132 5.25.427l-.093.1c-2.281 2.619-2.836 6.324-1.423 9.496-1.39.606-2.815 1.129-4.268 1.565-6.367 1.871-15.6 3.33-20.922 2.505-.775-.11-1.457-.568-1.85-1.246-.476-1.067.079-2.788 1.601-4.98 1.653-2.156 3.816-3.868 6.296-4.979.263-.12.544-.196.832-.22.719.22 1.21.206.612-.15-.597-.355-.875-.932-.711-1.23.07-.164.327-.164.44-.164 1.374.021 1.516-.37 1.217-.434-1.091-.248-2.142-.648-3.123-1.188-1.345-.724-2.267-2.044-2.483-3.557-.162-1.354.125-2.724.819-3.899.207-.325.446-.63.71-.91.2-.2.08-.285-.198-.285-.043-.142-.043-.42-.043-.42v-.455c-.213-5.086 2.739-6.886 3.692-7.327l.071-.035c.477-.221.811-.328.89-.363.327-.164.042-.264-.107-.27-.15-.008-.107-.136-.107-.136.128-.647 1.217-1.316 2.476-1.316.627.011 1.241.188 1.778.512.114.076.217.167.306.27.1.15-.106.15-.106.15-.62.071-.819.313-.278.398.41.107.815.237 1.21.392 2.62.85 4.644 2.953 5.392 5.605.192.74.178.982-.057 1.018-.071.014-.989.163-.427.363.501.16.98.384 1.423.668 1.14.86 1.888 2.142 2.077 3.557.227 1.966-.61 3.905-2.198 5.087-1.35.917-2.854 1.584-4.44 1.97-.177.057-.177.164-.177.164h.377c.299-.043 1.138-.185 2.134-.434.15-.04.307.02.391.15.3.37-.505 1.074-.597 1.145-.342.241-.029.306.092.306.69-.107 1.964-1.33 2.604-1.573.33-.103.672-.168 1.017-.192m-28.37 18.639c-.008-.757.12-1.509.377-2.22.33.805.784 1.554 1.344 2.22h-1.7" transform="translate(-597 -3332) translate(597 3332)"/>
                <path fill="#FFF" d="M196.472 26.947c1.343-1.494 3.25-2.358 5.258-2.383-.574.396-1.085.875-1.516 1.423-1.262 1.634-1.844 3.694-1.622 5.748.184 3.602 2.879 6.577 6.446 7.114-.399.193-.816.346-1.245.455-3.052.754-6.339-.711-8.153-3.657-1.62-2.768-1.282-6.265.84-8.671m-32.255 8.01c.792-1.189 1.937-2.099 3.272-2.604l-.12.157c-1.857 2.682-2.447 4.83-1.736 6.402.21.471.533.884.939 1.202-.819 1.126-1.214 2.504-1.117 3.892-2.64-2.268-3.17-6.151-1.23-9.042" transform="translate(-597 -3332) translate(597 3332)"/>
                <path fill="#FFF" d="M201.331 26.869c.754-.937 1.777-1.62 2.931-1.957-.444.558-.797 1.182-1.046 1.85-.542 1.479-.574 3.096-.092 4.596.983 2.96 3.705 4.995 6.822 5.1-1.593 1.028-3.548 1.33-5.378.833-2.545-.78-4.355-3.037-4.56-5.691-.186-1.689.288-3.384 1.323-4.731" transform="translate(-597 -3332) translate(597 3332)"/>
                <path fill="#FFF" d="M206.02 26.968c.407 2.408 1.978 4.459 4.197 5.478.897.392 1.866.595 2.845.598.517 0 1.032-.055 1.537-.164-.87 1.054-2.067 1.788-3.4 2.084-2.936.55-5.822-1.17-6.738-4.012-.658-2.006-.12-4.212 1.388-5.69-.011.567.037 1.134.142 1.692" transform="translate(-597 -3332) translate(597 3332)"/>
                <path fill="#FFF" d="M208.09 22.316c.124.581.325 1.143.597 1.672.918 1.718 2.525 2.962 4.418 3.422.603.16 1.225.238 1.85.234 1.395.017 2.76-.41 3.898-1.216.153-.111.3-.23.44-.356-.195 1.71-1.102 3.26-2.496 4.269-.808.656-1.777 1.084-2.806 1.24-3.178.477-6.142-1.712-6.62-4.89-.31-1.505-.056-3.072.711-4.403" transform="translate(-597 -3332) translate(597 3332)"/>
                <g transform="translate(-597 -3332) translate(597 3332) translate(166.864 .174)">
                    <mask id="daexo05klb" fill="#fff">
                        <use xlink:href="#ie7achxyoa"/>
                    </mask>
                    <path fill="#FFF" d="M36.14 40.667c.177 1.127.016 2.28-.463 3.315H.036c-.137-1.198.214-2.4.975-3.336.231.08.47.14.711.177 1.251.18 2.514.266 3.777.257 2.161-.017 4.319-.169 6.46-.456 3.815-.491 7.588-1.276 11.283-2.347 1.558-.465 3.086-1.028 4.574-1.686 1.651 2.522 4.441 4.066 7.455 4.126.29-.001.58-.018.868-.05M56.97 4.244c.412.498.135 2.276-1.174 5.598-.327.733-1.942 4.874-3.479 6.218-.33.305-.779.446-1.224.384-.768-.163-.704.349-.12.818-.135.605-.377 1.615-.442 1.907-.113.512-.633.797-.917.946-.066.03-.129.068-.185.114-.052.046-.07.12-.043.185.079.199.491.199.662.199.377.01.748-.091 1.067-.292.583-.455.903-1.963.903-2.027l.114-.541c.197-.066.386-.154.562-.263.346.527.601 1.11.754 1.722.337 2.247-.543 4.505-2.312 5.932-.902.637-1.983.97-3.087.954-.494.005-.987-.054-1.466-.178-3.948-1.117-4.147-4.454-4.147-5.08.073-.79.223-1.572.448-2.333.217-.785.648-1.495 1.245-2.049.399-.397.863-.722 1.373-.96-.15.527-.207 1.075-.17 1.622.134.441.59 1.288.71 1.152.122-.135-.113-.519.072-1.18.043-.164.156-.69.256-1.181l.256-1.167c-.2-.42-.352-.862-.455-1.316v-.185c-.04-.204-.063-.411-.072-.62-.092-.846-.277-2.311-.483-3.335 0 0-.768-4.788-.79-4.98-.021-.192.278-.377.64-.377.414.006.792.231.996.59.329.583.569 1.21.712 1.864.185.399.661 1.658.81 1.928.234.26.452.534.655.818.079.15.185.007.143-.156-.131-.319-.288-.626-.47-.918C48.923 6.968 52.153.63 52.153.63c.125-.181.327-.294.547-.306.14.004.276.04.399.107.125.055.225.157.277.284L50.95 6.55c-.031.09-.015.19.043.266.095.125.273.149.398.054.036-.027.064-.064.079-.107L53.967.794l.056-.129c.093-.362.403-.627.776-.661.092.001.183.016.27.043.555.185.455.825.356 1.116-.029.072-.121.306-.2.513-.58.626-.974 1.402-1.137 2.24-.39 1.224-.938 2.39-1.63 3.472-.019.022-.035.046-.047.072-.073.152-.008.335.145.407.153.073.335.008.407-.144.737-1.1 1.325-2.29 1.75-3.543.556-1.992 1.103-2.184 1.523-2.134h.164c.576.199.462.71.398.974-.048.16-.107.318-.178.47-.157-.007-.314.017-.462.07-.689.35-1.135 1.044-1.167 1.815-.146 1.133-.542 2.219-1.16 3.18-.098.138-.066.329.072.427.051.037.114.057.177.057.1 0 .192-.048.25-.129.676-1.04 1.109-2.219 1.266-3.45.002-.566.306-1.09.797-1.373h.348c.063.021.121.055.17.1l.058.043" mask="url(#daexo05klb)"/>
                </g>
                <path fill="#FFF" d="M183.98 18.802c-.028.12.086.206.164.206.268.033.518.153.712.342.076.077.126.176.142.284v.007c0 .063.05.114.114.114.048.003.094-.015.128-.05.026-.026.042-.062.042-.1-.04-.37-.28-.687-.626-.825-.14-.055-.29-.086-.44-.092-.05 0-.235 0-.235.12" transform="translate(-597 -3332) translate(597 3332)"/>
                <path fill="#7EB441" d="M174.384 13.744c-.118.464-.159.945-.121 1.423.02.473.12.94.299 1.38.176.463.47.873.853 1.188.192.141.418.227.655.249.203.029.409.029.612 0 .18-.029.357-.066.533-.114.811-.256 1.238-1.743.932-3.01-.277-1.152-.654-1.991-1.6-2.29-.098-.032-.198-.053-.3-.064-.385-.036-.773.048-1.11.242-.378.245-.646.627-.746 1.067m.341 1.97c-.1-.555-.241-2.34 1.124-2.56.807-.138 1.58.376 1.765 1.173v.093c.196.51.262 1.06.192 1.6-.019.183-.054.364-.107.541-.072.325-.256.615-.52.818.387-.474.56-1.087.477-1.693-.015-.183-.048-.364-.1-.54-.039.224-.227.392-.455.405-.288-.064-.478-.34-.434-.633.015-.328.22-.584.47-.584-.22-.275-.56-.426-.91-.405-.698.057-1.181.96-1.089 2.006.02.658.343 1.27.875 1.657-.144-.022-.28-.078-.398-.163-.323-.271-.568-.622-.712-1.017-.087-.212-.154-.43-.199-.655m8.693.932c.299-.404.483-.88.534-1.38.062-.474.04-.956-.064-1.423-.089-.464-.252-.911-.484-1.323-.22-.405-.59-.706-1.032-.84-.387-.103-.796-.086-1.173.05-.1.036-.195.08-.285.135-.86.513-.996 1.452-.996 2.647.029 1.316.847 2.689 1.722 2.689.187.01.374.01.562 0 .21-.015.419-.058.619-.128.23-.082.434-.225.59-.413m.164-2.134c.025.237.025.475 0 .712-.041.426-.196.834-.448 1.18-.037.044-.077.085-.121.121.328-.465.47-1.036.398-1.6-.015-.183-.049-.364-.1-.54-.045.226-.238.393-.47.405-.217-.065-.384-.242-.436-.463-.08-.34.132-.681.473-.761-.218-.284-.56-.446-.918-.434-.712.064-1.21.968-1.117 2.013.019.677.363 1.302.925 1.68h-.079c-.38-.093-.698-.355-.86-.712-.098-.158-.182-.325-.25-.498-.212-.508-.293-1.06-.234-1.608v-.092c-.015-.823.604-1.52 1.423-1.601 1.422-.142 1.75 1.636 1.8 2.205m-8.338 5.13c-.145.027-.271.118-.341.248-.04.125-.04.26 0 .384.035.15.135.328.213.306.078-.021.078-.128.078-.256.363.207 1.046.477 1.146.534.165.099.322.21.47.334.244.21.5.404.767.584.378.235.799.392 1.238.462.87.134 1.761-.024 2.533-.448.389-.234.744-.521 1.053-.854.237-.289.527-.53.853-.711.4-.132.79-.291 1.167-.477.132-.048.22-.173.22-.313 0-.034-.007-.067-.019-.098-.06-.154-.232-.231-.386-.172l-.185.085-.37.142c-1.397.573-2.876.924-4.382 1.039-.913.088-1.834.038-2.732-.15-.365-.076-.72-.193-1.06-.348l-.156-.085.057-.057c.064-.05.02-.164-.128-.164m3.172 1.942c-.381-.128-.736-.326-1.045-.583 1.507.127 3.026-.005 4.489-.391-.303.322-.659.59-1.053.79-.372.163-.77.259-1.174.284-.41.042-.822.003-1.217-.114" transform="translate(-597 -3332) translate(597 3332)"/>
                <g transform="translate(-597 -3332) translate(597 3332) translate(0 40.292)">
                    <mask id="p0g5ykjcwd" fill="#fff">
                        <use xlink:href="#bms2njnj3c"/>
                    </mask>
                    <path fill="#FFF" d="M5.107 0.128L5.107 4.777 227.126 4.777 227.126 7.401 222.128 11.843 222.128 7.369 0 7.369 0 4.668z" mask="url(#p0g5ykjcwd)"/>
                </g>
                <path fill="#FFF" d="M42.006 40.989L54.079 40.989 54.079 43.445 39.242 43.445 39.242 16.272 53.974 16.272 53.974 18.729 42.006 18.729 42.006 28.587 52.698 28.587 52.698 31.044 42.006 31.044zM63.294 40.989L73.368 40.989 73.368 43.445 60.531 43.445 60.531 16.272 63.294 16.272zM80.285 40.989L90.359 40.989 90.359 43.445 77.522 43.445 77.522 16.272 80.285 16.272zM97.332 34.494l10.242-.039-5.083-14.752-5.159 14.79zm-3.32 8.951h-3.031l10.009-27.173h3.146l9.783 27.173h-3.07l-2.28-6.2-12.269.077-2.287 6.123zM140.81 34.494l10.242-.039-5.083-14.752-5.16 14.79zm-3.32 8.951h-3.032l10.01-27.173h3.145l9.783 27.173h-3.07l-2.28-6.2-12.268.077-2.288 6.123zM130.082 20.812c-.564-.799-1.287-1.442-2.17-1.93-.882-.486-1.949-.73-3.199-.73-.638 0-1.287.1-1.95.3-.661.2-1.262.506-1.801.918-.54.412-.975.93-1.306 1.555-.33.624-.496 1.362-.496 2.21 0 .85.158 1.55.476 2.099.318.55.74 1.018 1.265 1.405.526.387 1.125.706 1.798.955.672.25 1.375.5 2.109.75.904.3 1.815.624 2.732.974.917.35 1.742.805 2.476 1.367.733.563 1.332 1.274 1.797 2.136.464.862.697 1.955.697 3.279 0 1.324-.249 2.467-.744 3.428-.496.962-1.14 1.755-1.93 2.38-.793.624-1.697 1.086-2.714 1.386-1.018.3-2.041.45-3.071.45-.785 0-1.57-.082-2.354-.244-.785-.163-1.532-.406-2.243-.73-.712-.325-1.373-.737-1.986-1.237-.613-.5-1.153-1.074-1.618-1.724l2.28-1.723c.564.95 1.354 1.742 2.372 2.379 1.017.637 2.212.955 3.586.955.662 0 1.336-.105 2.022-.318.687-.212 1.306-.537 1.858-.974.551-.437 1.005-.975 1.36-1.612.356-.636.534-1.38.534-2.229 0-.924-.178-1.692-.534-2.304-.355-.612-.827-1.124-1.415-1.537-.589-.412-1.264-.755-2.023-1.03-.76-.274-1.558-.55-2.39-.824-.86-.275-1.705-.587-2.538-.937-.834-.35-1.582-.806-2.244-1.368-.662-.562-1.195-1.255-1.6-2.08-.404-.824-.606-1.835-.606-3.034 0-1.274.25-2.373.754-3.297.502-.924 1.158-1.686 1.967-2.286.81-.6 1.704-1.036 2.685-1.311.98-.275 1.949-.413 2.905-.413 1.766 0 3.273.319 4.524.956 1.25.637 2.194 1.393 2.832 2.267l-2.097 1.723zM33.27 38.517c-1.316 1.675-2.957 2.97-4.925 3.885-1.967.915-4.165 1.372-6.594 1.372-4.617 0-8.259-1.537-10.926-4.61-2.237-2.596-3.356-5.73-3.356-9.402 0-3.864 1.355-7.115 4.064-9.752 2.71-2.638 6.104-3.956 10.183-3.956 2.464 0 4.688.487 6.674 1.462 1.985.975 3.612 2.341 4.88 4.1l.706 1.032-2.154 1.494-.633-.93c-1.148-1.495-2.527-2.628-4.135-3.4-1.61-.77-3.377-1.157-5.303-1.157-2.105 0-4.054.506-5.849 1.516-1.794 1.011-3.184 2.369-4.171 4.073-.987 1.705-1.48 3.622-1.48 5.75 0 3.219 1.103 5.904 3.31 8.057 2.207 2.153 4.99 3.23 8.352 3.23 3.5 0 6.46-1.299 8.877-3.896.237-.255.455-.527.654-.813l.434-.625 2.275 1.336-.883 1.234zM15.29 56.13h.263c.034.19.064.428.091.714.027.287.034.565.02.835-.101.08-.222.147-.364.197-.142.05-.292.093-.45.127-.159.033-.32.057-.486.07-.165.014-.322.02-.47.02-.567 0-1.073-.072-1.518-.217-.445-.145-.822-.366-1.128-.663-.307-.296-.543-.676-.709-1.138-.165-.462-.247-1.01-.247-1.644 0-.661.09-1.223.273-1.685.182-.462.428-.84.738-1.133.31-.294.671-.508 1.083-.643.411-.134.843-.202 1.295-.202.445 0 .82.029 1.123.086.304.058.57.143.8.258 0 .108-.004.235-.01.38-.007.145-.017.298-.031.46-.013.162-.03.32-.05.476-.02.155-.041.296-.061.424h-.263l-.526-1.457c-.074-.04-.197-.067-.369-.08-.171-.014-.341-.02-.51-.02-.336 0-.653.062-.953.187-.299.124-.561.317-.786.576-.226.26-.406.587-.54.982-.135.394-.202.858-.202 1.39 0 .48.06.913.182 1.301.12.388.296.719.525.992.228.273.507.482.837.627.33.145.703.218 1.12.218.222 0 .407-.017.555-.051.148-.034.245-.077.292-.132l.476-1.254zM18.79 53.237c-.384 0-.677.13-.88.39-.202.26-.323.716-.364 1.37h2.226c.007-.06.012-.12.015-.177.004-.057.006-.112.006-.167 0-.431-.081-.775-.243-1.031-.162-.257-.415-.385-.76-.385zm1.853 4.027c-.055.115-.139.223-.253.324-.115.101-.247.189-.395.263-.149.074-.31.133-.486.177-.175.044-.354.066-.536.066-.398 0-.749-.063-1.052-.187-.304-.125-.557-.304-.76-.537-.202-.232-.355-.51-.46-.834-.104-.324-.156-.688-.156-1.093 0-.864.198-1.521.597-1.973.397-.452.96-.678 1.69-.678.235 0 .468.032.698.096.229.064.433.17.612.319.178.148.324.345.435.591.111.247.167.552.167.916 0 .115-.005.231-.016.35-.01.117-.028.244-.055.379h-3.157c0 .283.035.548.106.794s.177.46.319.643c.142.182.32.325.536.43.216.104.469.156.76.156.235 0 .475-.033.718-.1.242-.068.424-.156.546-.264l.142.162zM27.159 57.972h-2.176v-.253c.182-.094.381-.175.597-.242v-2.398c0-.513-.074-.918-.222-1.215-.149-.296-.419-.445-.81-.445-.168 0-.325.03-.47.091-.145.06-.274.144-.385.248-.111.105-.207.223-.288.354-.081.132-.145.268-.192.41v2.955c.208.04.411.121.607.242v.253h-2.186v-.253c.169-.087.391-.168.668-.242V53.5l-.668-.08v-.264c.175-.074.378-.142.607-.202.23-.061.469-.115.719-.162h.253v1.133h.01c.141-.31.345-.577.612-.8.266-.222.588-.333.966-.333.27 0 .511.032.724.096.212.064.39.177.53.339.142.162.25.38.325.652.074.274.11.62.11 1.038v2.56c.27.047.493.128.669.242v.253zM27.584 53.167c.256-.167.526-.285.81-.355v-.86c.087-.074.19-.14.308-.197.118-.058.234-.113.349-.167h.253v1.325h1.517v.526h-1.517v2.92c0 .403.064.688.192.856.128.168.32.252.577.252.121 0 .273-.009.455-.026s.337-.049.466-.096l.07.152c-.054.06-.13.125-.227.192-.098.068-.21.132-.334.192-.125.06-.262.112-.41.152-.148.04-.3.06-.455.06-.405 0-.714-.114-.926-.342-.213-.228-.319-.597-.319-1.108V53.44h-.81v-.272zM33.756 53.672c-.075.04-.167.123-.278.248-.112.125-.212.309-.299.551v3.006c.135.013.27.038.405.075.134.038.27.093.404.167v.253H31.6v-.253c.122-.067.236-.118.345-.151.107-.034.215-.064.323-.091V53.5l-.668-.081v-.263c.216-.094.439-.17.668-.227.23-.058.449-.103.658-.137h.253v1.072h.04c.061-.135.147-.27.259-.404.11-.135.239-.257.384-.365.145-.107.304-.19.475-.248.172-.057.35-.075.532-.055.047.088.089.184.126.288.037.105.073.214.106.33v.262h-1.345zM37.469 57.467c.168 0 .317-.034.445-.102.128-.067.236-.148.324-.243.087-.094.158-.19.212-.288.054-.098.091-.18.112-.248v-1.062c-.392 0-.712.02-.962.06-.25.041-.445.105-.586.193-.142.087-.24.197-.294.329-.054.131-.08.281-.08.45 0 .29.073.514.222.673.148.158.35.238.607.238m1.953-.82c0 .148.003.276.01.384l.02.344.698.102v.212c-.169.088-.356.166-.561.233-.206.067-.403.118-.592.152h-.253c-.068-.156-.108-.326-.122-.511-.013-.186-.023-.39-.03-.613h-.05c-.027.136-.08.272-.157.41-.078.139-.18.262-.304.37-.125.108-.272.195-.44.263-.169.067-.36.1-.577.1-.411 0-.747-.124-1.006-.374-.26-.249-.39-.576-.39-.981 0-.31.062-.565.187-.764.125-.199.309-.356.552-.47.242-.115.542-.198.9-.248.358-.051.772-.09 1.245-.117.026-.29.035-.551.025-.784-.01-.233-.047-.432-.111-.597-.065-.165-.159-.293-.284-.384-.125-.092-.288-.137-.49-.137-.095 0-.201.005-.32.015-.117.01-.234.04-.348.086l-.476 1.214h-.263c-.068-.202-.126-.41-.177-.627-.05-.216-.083-.428-.096-.637.256-.156.541-.277.855-.365.313-.087.663-.131 1.047-.131.344 0 .619.049.825.146.206.098.362.225.47.38.108.155.18.327.213.516s.05.378.05.567c0 .404-.008.794-.025 1.168-.017.375-.025.734-.025 1.078M43.145 57.972H40.9v-.253c.223-.107.445-.188.668-.242v-6.405l-.77-.081v-.263c.176-.081.395-.152.658-.213.264-.06.52-.111.77-.152h.252v7.114c.223.054.446.135.668.242v.253zM48.801 57.467c.33 0 .594-.105.79-.314.195-.21.33-.493.404-.85V53.45c-.115-.068-.25-.115-.404-.142-.156-.027-.355-.04-.597-.04-.46 0-.81.2-1.053.601-.243.402-.364.936-.364 1.604 0 .277.023.535.07.774.048.24.122.45.223.632.102.183.228.326.38.43.152.105.335.158.551.158zm1.164-.496c-.034.148-.091.29-.172.425-.081.135-.18.254-.299.359-.118.105-.253.187-.404.248-.152.06-.316.09-.491.09-.668 0-1.167-.212-1.498-.637-.33-.425-.495-1.086-.495-1.983 0-.863.21-1.52.632-1.973.421-.452.99-.678 1.705-.678.25 0 .445.012.587.036.141.023.296.065.465.126v-1.912l-.769-.081v-.263c.196-.081.423-.152.683-.213.26-.06.508-.111.744-.152h.253v7.033l.668.08v.213c-.196.095-.398.175-.607.243-.21.067-.415.115-.618.142h-.253l-.09-1.103h-.041zM54.569 53.237c-.385 0-.678.13-.88.39-.203.26-.324.716-.365 1.37h2.226c.007-.06.012-.12.015-.177.004-.057.006-.112.006-.167 0-.431-.081-.775-.244-1.031-.161-.257-.414-.385-.758-.385zm1.851 4.027c-.054.115-.138.223-.253.324-.114.101-.246.189-.394.263-.149.074-.31.133-.486.177-.175.044-.354.066-.536.066-.398 0-.749-.063-1.052-.187-.304-.125-.557-.304-.76-.537-.202-.232-.355-.51-.46-.834-.104-.324-.156-.688-.156-1.093 0-.864.198-1.521.597-1.973.397-.452.96-.678 1.69-.678.235 0 .468.032.697.096.23.064.434.17.613.319.178.148.323.345.435.591.111.247.167.552.167.916 0 .115-.005.231-.016.35-.01.117-.028.244-.055.379h-3.157c0 .283.035.548.106.794.07.246.177.46.319.643.142.182.32.325.536.43.216.104.469.156.759.156.236 0 .476-.033.718-.1.243-.068.425-.156.547-.264l.141.162zM59.952 50.89h2.772v.293c-.162.06-.324.113-.486.157-.162.044-.323.076-.485.096v6.01h2.327l.597-1.629h.263c.02.142.039.305.056.49.016.186.03.379.04.577.01.2.015.394.015.583 0 .188-.003.357-.01.505h-5.09v-.293c.163-.074.31-.128.446-.162.135-.034.263-.06.384-.081v-6c-.155-.027-.303-.062-.445-.106-.142-.044-.27-.093-.384-.147v-.294zM67.975 57.972H65.73v-.253c.223-.107.445-.188.668-.242v-6.405l-.77-.081v-.263c.176-.081.395-.152.658-.213.264-.06.52-.111.77-.152h.252v7.114c.223.054.446.135.668.242v.253zM70.657 57.467c.168 0 .316-.034.445-.102.128-.067.236-.148.324-.243.087-.094.158-.19.212-.288.054-.098.091-.18.111-.248v-1.062c-.391 0-.711.02-.96.06-.25.041-.446.105-.588.193-.141.087-.24.197-.293.329-.054.131-.081.281-.081.45 0 .29.074.514.223.673.148.158.35.238.607.238m1.952-.82c0 .148.004.276.01.384.007.108.014.223.02.344l.699.102v.212c-.169.088-.356.166-.562.233-.205.067-.403.118-.592.152h-.252c-.068-.156-.109-.326-.122-.511-.014-.186-.024-.39-.03-.613h-.05c-.028.136-.08.272-.158.41-.077.139-.179.262-.303.37-.125.108-.272.195-.44.263-.169.067-.361.1-.577.1-.412 0-.747-.124-1.007-.374-.26-.249-.39-.576-.39-.981 0-.31.063-.565.188-.764.124-.199.308-.356.551-.47.243-.115.543-.198.9-.248.358-.051.773-.09 1.245-.117.027-.29.036-.551.025-.784-.01-.233-.047-.432-.11-.597-.065-.165-.16-.293-.284-.384-.125-.092-.288-.137-.49-.137-.095 0-.202.005-.32.015-.118.01-.234.04-.349.086l-.475 1.214h-.263c-.068-.202-.127-.41-.177-.627-.05-.216-.083-.428-.096-.637.256-.156.541-.277.854-.365.314-.087.663-.131 1.048-.131.344 0 .619.049.824.146.206.098.363.225.471.38.108.155.179.327.212.516.034.189.051.378.051.567 0 .404-.009.794-.025 1.168-.017.375-.026.734-.026 1.078M79.51 57.972h-2.175v-.253c.182-.094.38-.175.597-.242v-2.398c0-.513-.075-.918-.223-1.215-.148-.296-.418-.445-.81-.445-.168 0-.325.03-.47.091-.145.06-.273.144-.384.248-.112.105-.208.223-.289.354-.08.132-.145.268-.192.41v2.955c.209.04.411.121.607.242v.253h-2.186v-.253c.169-.087.392-.168.668-.242V53.5l-.668-.08v-.264c.176-.074.378-.142.607-.202.23-.061.47-.115.719-.162h.253v1.133h.01c.142-.31.346-.577.612-.8.266-.222.589-.333.967-.333.269 0 .51.032.723.096.212.064.39.177.531.339.142.162.25.38.324.652.074.274.111.62.111 1.038v2.56c.27.047.493.128.668.242v.253zM79.935 53.167c.256-.167.526-.285.81-.355v-.86c.087-.074.19-.14.308-.197.118-.058.234-.113.35-.167h.252v1.325h1.518v.526h-1.518v2.92c0 .403.064.688.192.856.128.168.32.252.577.252.121 0 .273-.009.455-.026s.338-.049.466-.096l.07.152c-.053.06-.13.125-.227.192-.098.068-.21.132-.334.192-.125.06-.261.112-.41.152-.148.04-.3.06-.455.06-.405 0-.713-.114-.926-.342-.212-.228-.318-.597-.318-1.108V53.44h-.81v-.272zM85.834 57.467c.168 0 .317-.034.445-.102.128-.067.236-.148.324-.243.087-.094.158-.19.212-.288.054-.098.091-.18.112-.248v-1.062c-.392 0-.712.02-.962.06-.25.041-.445.105-.586.193-.142.087-.24.197-.294.329-.054.131-.08.281-.08.45 0 .29.073.514.222.673.148.158.35.238.607.238m1.953-.82c0 .148.003.276.01.384l.02.344.698.102v.212c-.169.088-.356.166-.561.233-.206.067-.403.118-.592.152h-.253c-.068-.156-.108-.326-.122-.511-.013-.186-.023-.39-.03-.613h-.05c-.027.136-.08.272-.157.41-.078.139-.18.262-.304.37-.125.108-.272.195-.44.263-.169.067-.36.1-.577.1-.411 0-.747-.124-1.006-.374-.26-.249-.39-.576-.39-.981 0-.31.062-.565.187-.764.125-.199.308-.356.552-.47.242-.115.542-.198.9-.248.358-.051.772-.09 1.245-.117.026-.29.035-.551.025-.784-.01-.233-.047-.432-.111-.597-.065-.165-.159-.293-.284-.384-.125-.092-.288-.137-.49-.137-.095 0-.201.005-.32.015-.117.01-.234.04-.348.086l-.476 1.214h-.263c-.068-.202-.126-.41-.177-.627-.05-.216-.083-.428-.096-.637.256-.156.541-.277.855-.365.313-.087.663-.131 1.047-.131.344 0 .619.049.825.146.206.098.362.225.47.38.108.155.18.327.213.516s.05.378.05.567c0 .404-.008.794-.025 1.168-.017.375-.025.734-.025 1.078M91.834 56.819c0-.189-.06-.35-.177-.48-.118-.132-.268-.255-.45-.37-.183-.115-.376-.226-.582-.334-.206-.108-.4-.234-.582-.38-.182-.144-.332-.311-.45-.5s-.177-.422-.177-.698c0-.183.042-.351.126-.506.084-.155.197-.289.34-.4.14-.111.306-.199.495-.263s.391-.096.607-.096c.364 0 .663.02.896.06.232.04.456.098.672.172-.026.217-.059.434-.096.653-.037.22-.09.444-.157.673h-.253l-.384-1.032c-.081-.034-.172-.056-.273-.066-.101-.01-.206-.015-.314-.015-.121 0-.228.022-.319.066-.09.044-.168.1-.232.167s-.113.145-.147.232c-.034.088-.05.176-.05.263 0 .183.058.34.176.47.118.132.269.254.45.365.183.112.377.221.583.33.205.107.4.228.581.363.182.135.333.292.45.471.119.179.178.393.178.642 0 .23-.05.435-.147.618-.098.182-.233.337-.405.465-.172.128-.37.228-.597.299-.226.07-.467.106-.723.106-.29 0-.557-.026-.8-.076-.242-.05-.495-.123-.758-.218.013-.242.043-.477.09-.703.048-.226.108-.443.183-.653h.253l.445 1.103c.074.054.163.085.268.091.105.007.2.01.288.01.297 0 .537-.08.719-.242.182-.162.273-.358.273-.587M100.445 57.972H97.6v-.293c.149-.054.299-.101.45-.142.152-.04.316-.074.491-.1v-6.021h-1.548l-.536 1.447h-.253c-.02-.135-.037-.289-.05-.46-.014-.173-.026-.348-.036-.527-.01-.179-.019-.354-.025-.526-.007-.172-.01-.326-.01-.46h5.878c0 .134-.003.286-.01.455-.007.168-.015.342-.026.521l-.03.526c-.01.172-.026.329-.046.47h-.266l-.532-1.446h-1.538v6.02c.175.034.339.068.49.101.152.034.299.081.44.142v.293zM104.917 57.972h-2.246v-.253c.222-.107.445-.188.667-.242v-6.405l-.769-.081v-.263c.176-.081.395-.152.658-.213.263-.06.52-.111.769-.152h.253v7.114c.223.054.445.135.668.242v.253zM107.598 57.467c.169 0 .317-.034.445-.102.128-.067.236-.148.324-.243.088-.094.159-.19.213-.288.053-.098.09-.18.11-.248v-1.062c-.39 0-.711.02-.96.06-.25.041-.446.105-.587.193-.142.087-.24.197-.294.329-.054.131-.08.281-.08.45 0 .29.073.514.222.673.148.158.35.238.607.238m1.953-.82c0 .148.003.276.01.384.007.108.014.223.02.344l.698.102v.212c-.168.088-.356.166-.561.233-.206.067-.403.118-.592.152h-.253c-.067-.156-.108-.326-.121-.511-.014-.186-.024-.39-.03-.613h-.051c-.027.136-.08.272-.157.41-.078.139-.18.262-.304.37-.125.108-.271.195-.44.263-.169.067-.36.1-.577.1-.411 0-.747-.124-1.006-.374-.26-.249-.39-.576-.39-.981 0-.31.062-.565.187-.764.125-.199.309-.356.552-.47.242-.115.542-.198.9-.248.358-.051.772-.09 1.245-.117.027-.29.035-.551.025-.784-.01-.233-.047-.432-.111-.597-.064-.165-.159-.293-.284-.384-.125-.092-.288-.137-.49-.137-.095 0-.201.005-.32.015-.117.01-.233.04-.348.086l-.476 1.214h-.263c-.067-.202-.126-.41-.177-.627-.05-.216-.083-.428-.096-.637.256-.156.541-.277.855-.365.314-.087.663-.131 1.047-.131.344 0 .62.049.825.146.206.098.362.225.47.38.108.155.18.327.213.516s.05.378.05.567c0 .404-.008.794-.025 1.168-.017.375-.025.734-.025 1.078M113.274 57.972h-2.246v-.253c.223-.107.445-.188.668-.242v-6.405l-.77-.081v-.263c.176-.081.396-.152.658-.213.264-.06.52-.111.77-.152h.252v7.114c.223.054.446.135.668.242v.253zM119.598 57.972h-2.175v-.253c.182-.094.38-.175.597-.242v-2.398c0-.513-.075-.918-.223-1.215-.148-.296-.418-.445-.81-.445-.168 0-.325.03-.47.091-.145.06-.273.144-.384.248-.112.105-.208.223-.289.354-.08.132-.145.268-.192.41v2.955c.209.04.411.121.607.242v.253h-2.185v-.253c.168-.087.39-.168.668-.242V53.5l-.668-.08v-.264c.175-.074.377-.142.607-.202.229-.061.468-.115.718-.162h.253v1.133h.01c.142-.31.346-.577.612-.8.267-.222.589-.333.967-.333.27 0 .51.032.723.096.213.064.39.177.531.339.142.162.25.38.324.652.074.274.111.62.111 1.038v2.56c.27.047.493.128.668.242v.253zM122.533 53.237c-.385 0-.678.13-.88.39-.203.26-.325.716-.365 1.37h2.226c.007-.06.012-.12.015-.177.003-.057.005-.112.005-.167 0-.431-.08-.775-.243-1.031-.162-.257-.415-.385-.758-.385zm1.851 4.027c-.054.115-.138.223-.253.324-.115.101-.246.189-.394.263-.149.074-.31.133-.486.177-.175.044-.354.066-.537.066-.398 0-.748-.063-1.052-.187-.303-.125-.556-.304-.759-.537-.202-.232-.355-.51-.46-.834-.105-.324-.157-.688-.157-1.093 0-.864.2-1.521.597-1.973.398-.452.961-.678 1.69-.678.236 0 .469.032.698.096.23.064.433.17.612.319.179.148.324.345.435.591.112.247.167.552.167.916 0 .115-.005.231-.015.35-.01.117-.029.244-.055.379h-3.158c0 .283.036.548.107.794.07.246.177.46.319.643.141.182.32.325.536.43.216.104.468.156.759.156.236 0 .475-.033.718-.1.243-.068.425-.156.547-.264l.141.162z" transform="translate(-597 -3332) translate(597 3332)"/>
                <g transform="translate(-597 -3332) translate(597 3332) translate(125.325 52.718)">
                    <mask id="uotjdvw9vf" fill="#fff">
                        <use xlink:href="#csth4w6qte"/>
                    </mask>
                    <path fill="#FFF" d="M2.833.701c-.33 0-.594.105-.79.314-.195.209-.333.496-.414.86v2.833c.121.074.258.13.41.167.151.037.349.056.591.056.223 0 .424-.058.603-.173.178-.114.33-.276.455-.485.125-.21.22-.454.288-.734.068-.28.101-.588.101-.926 0-.276-.022-.53-.065-.763-.044-.233-.115-.436-.213-.608-.098-.172-.226-.305-.384-.4-.159-.094-.353-.141-.582-.141zm-.536 6.577H.05v-.253c.23-.108.452-.189.668-.243v-6L.05.701V.438C.266.344.487.268.713.21.94.153 1.16.108 1.376.074h.253v1.133h.01c.135-.344.324-.619.567-.825.242-.205.56-.308.95-.308.6 0 1.066.199 1.397.597.33.398.496 1.045.496 1.942 0 .425-.056.81-.167 1.154-.111.344-.27.634-.476.87-.206.236-.455.418-.748.546-.294.129-.62.193-.977.193-.25 0-.445-.015-.587-.046-.141-.03-.297-.082-.465-.157v1.61c.108.013.216.038.324.075.107.037.222.093.344.167v.253z" mask="url(#uotjdvw9vf)"/>
                </g>
                <path fill="#FFF" d="M133.086 57.467c.168 0 .317-.034.445-.102.128-.067.236-.148.324-.243.087-.094.158-.19.212-.288.054-.098.091-.18.112-.248v-1.062c-.392 0-.712.02-.962.06-.25.041-.445.105-.587.193-.141.087-.239.197-.293.329-.054.131-.08.281-.08.45 0 .29.073.514.222.673.148.158.35.238.607.238m1.953-.82c0 .148.003.276.01.384l.02.344.698.102v.212c-.169.088-.356.166-.561.233-.206.067-.404.118-.593.152h-.252c-.068-.156-.108-.326-.122-.511-.013-.186-.023-.39-.03-.613h-.05c-.028.136-.08.272-.158.41-.077.139-.178.262-.303.37-.125.108-.272.195-.44.263-.169.067-.361.1-.577.1-.412 0-.747-.124-1.007-.374-.26-.249-.39-.576-.39-.981 0-.31.063-.565.188-.764.125-.199.308-.356.551-.47.243-.115.543-.198.9-.248.358-.051.773-.09 1.245-.117.027-.29.036-.551.026-.784-.01-.233-.048-.432-.112-.597-.064-.165-.158-.293-.283-.384-.125-.092-.288-.137-.49-.137-.095 0-.201.005-.32.015-.117.01-.234.04-.348.086l-.476 1.214h-.263c-.068-.202-.127-.41-.177-.627-.05-.216-.083-.428-.096-.637.256-.156.541-.277.855-.365.313-.087.663-.131 1.047-.131.344 0 .619.049.825.146.205.098.362.225.47.38.108.155.179.327.213.516.033.189.05.378.05.567 0 .404-.008.794-.025 1.168-.017.375-.025.734-.025 1.078M141.94 57.972h-2.176v-.253c.182-.094.38-.175.597-.242v-2.398c0-.513-.075-.918-.223-1.215-.148-.296-.418-.445-.81-.445-.168 0-.325.03-.47.091-.145.06-.273.144-.384.248-.112.105-.208.223-.289.354-.08.132-.145.268-.192.41v2.955c.209.04.412.121.607.242v.253h-2.185v-.253c.168-.087.39-.168.668-.242V53.5l-.668-.08v-.264c.175-.074.377-.142.607-.202.229-.061.468-.115.718-.162h.253v1.133h.01c.142-.31.346-.577.612-.8.267-.222.589-.333.967-.333.27 0 .51.032.723.096.213.064.39.177.531.339.142.162.25.38.324.652.074.274.111.62.111 1.038v2.56c.27.047.493.128.668.242v.253zM142.364 53.167c.256-.167.526-.285.81-.355v-.86c.087-.074.19-.14.308-.197.118-.058.235-.113.35-.167h.252v1.325h1.518v.526h-1.518v2.92c0 .403.064.688.192.856.129.168.32.252.577.252.122 0 .274-.009.456-.026s.337-.049.465-.096l.07.152c-.053.06-.13.125-.227.192-.098.068-.21.132-.334.192-.125.06-.261.112-.41.152-.148.04-.3.06-.455.06-.404 0-.713-.114-.926-.342-.212-.228-.318-.597-.318-1.108V53.44h-.81v-.272zM148.729 57.972h-2.247v-.253c.223-.107.446-.188.668-.242v-6.405l-.769-.081v-.263c.176-.081.395-.152.658-.213.263-.06.52-.111.769-.152h.253v7.114c.222.054.445.135.668.242v.253zM151.41 57.467c.168 0 .317-.034.445-.102.128-.067.236-.148.324-.243.087-.094.158-.19.212-.288.054-.098.091-.18.112-.248v-1.062c-.392 0-.712.02-.962.06-.25.041-.445.105-.586.193-.142.087-.24.197-.294.329-.054.131-.08.281-.08.45 0 .29.073.514.222.673.148.158.35.238.607.238m1.953-.82c0 .148.003.276.01.384l.02.344.698.102v.212c-.169.088-.356.166-.561.233-.206.067-.404.118-.592.152h-.253c-.068-.156-.108-.326-.122-.511-.013-.186-.023-.39-.03-.613h-.05c-.028.136-.08.272-.158.41-.077.139-.178.262-.303.37-.125.108-.272.195-.44.263-.169.067-.361.1-.577.1-.412 0-.747-.124-1.007-.374-.26-.249-.39-.576-.39-.981 0-.31.063-.565.188-.764.125-.199.308-.356.551-.47.243-.115.543-.198.901-.248.357-.051.772-.09 1.245-.117.026-.29.035-.551.025-.784-.01-.233-.047-.432-.112-.597-.064-.165-.158-.293-.283-.384-.125-.092-.288-.137-.49-.137-.095 0-.201.005-.32.015-.117.01-.234.04-.348.086l-.476 1.214h-.263c-.068-.202-.127-.41-.177-.627-.05-.216-.083-.428-.096-.637.256-.156.541-.277.855-.365.313-.087.663-.131 1.047-.131.344 0 .619.049.825.146.206.098.362.225.47.38.108.155.179.327.213.516.033.189.05.378.05.567 0 .404-.008.794-.025 1.168-.017.375-.025.734-.025 1.078M158.503 57.274c.08.081.185.15.314.208.127.057.32.086.576.086.216 0 .418-.03.607-.086.19-.058.353-.142.491-.253.138-.112.248-.247.329-.405.08-.159.121-.339.121-.541 0-.27-.083-.496-.248-.678-.165-.183-.37-.344-.617-.486-.246-.142-.514-.28-.804-.415-.29-.135-.559-.295-.805-.48-.246-.186-.452-.408-.617-.668-.165-.26-.248-.585-.248-.977 0-.283.05-.536.152-.759.101-.222.244-.411.43-.566.185-.155.406-.275.663-.36.256-.084.543-.126.86-.126.411 0 .787.032 1.128.096.34.064.609.144.804.238 0 .115-.008.248-.025.4-.017.151-.037.308-.06.47-.024.162-.05.319-.077.47-.027.152-.054.286-.08.4h-.264l-.404-1.386c-.123-.054-.278-.094-.465-.121-.187-.027-.386-.04-.597-.04-.347 0-.627.095-.838.288-.21.192-.316.46-.316.804 0 .277.083.51.25.698.165.19.374.358.625.506.251.149.521.292.81.43.288.138.558.299.809.48.25.183.46.399.626.648.166.25.25.56.25.931 0 .304-.056.58-.168.83-.111.25-.271.462-.48.637-.21.176-.466.31-.77.405-.303.095-.647.142-1.031.142-.425 0-.807-.05-1.144-.152-.337-.101-.577-.209-.718-.324.007-.114.018-.253.035-.415.017-.162.037-.329.061-.5.024-.172.049-.34.076-.501.027-.162.054-.3.08-.415h.264l.415 1.487zM163.228 57.396c0-.203.064-.365.192-.486s.293-.182.496-.182c.209 0 .378.06.506.182.128.121.192.283.192.486 0 .195-.064.354-.192.475-.128.122-.297.182-.506.182-.203 0-.368-.06-.496-.182-.128-.121-.192-.28-.192-.475M167.675 55.058h2.033l-.795-2.145-.191-.87h-.02l-.252.89-.775 2.125zm.005 2.914h-2.246v-.293c.242-.108.485-.189.728-.243l2.56-6.668h.293l2.56 6.668c.135.027.268.058.4.091.132.034.255.085.37.152v.293h-2.611v-.293c.135-.054.273-.101.415-.142.141-.04.28-.074.415-.1l-.685-1.853h-2.405l-.664 1.852c.283.04.573.122.87.243v.293zM177.424 57.467c.33 0 .593-.105.789-.314.196-.21.33-.493.405-.85V53.45c-.115-.068-.25-.115-.405-.142-.155-.027-.354-.04-.597-.04-.459 0-.81.2-1.052.601-.243.402-.365.936-.365 1.604 0 .277.024.535.071.774.047.24.122.45.223.632.101.183.227.326.38.43.151.105.335.158.55.158zm1.163-.496c-.034.148-.09.29-.172.425-.08.135-.18.254-.298.359-.118.105-.253.187-.405.248-.152.06-.315.09-.49.09-.668 0-1.168-.212-1.498-.637-.33-.425-.496-1.086-.496-1.983 0-.863.21-1.52.632-1.973.422-.452.99-.678 1.705-.678.25 0 .446.012.587.036.142.023.297.065.466.126v-1.912l-.77-.081v-.263c.196-.081.424-.152.684-.213.26-.06.507-.111.743-.152h.253v7.033l.668.08v.213c-.195.095-.398.175-.607.243-.209.067-.415.115-.617.142h-.253l-.091-1.103h-.04zM183.191 53.237c-.384 0-.678.13-.88.39-.203.26-.324.716-.364 1.37h2.225c.007-.06.012-.12.016-.177.003-.057.005-.112.005-.167 0-.431-.081-.775-.243-1.031-.162-.257-.415-.385-.759-.385zm1.852 4.027c-.054.115-.139.223-.253.324-.115.101-.247.189-.395.263-.148.074-.31.133-.485.177-.176.044-.355.066-.537.066-.398 0-.749-.063-1.052-.187-.304-.125-.557-.304-.759-.537-.202-.232-.356-.51-.46-.834-.105-.324-.157-.688-.157-1.093 0-.864.199-1.521.597-1.973.398-.452.961-.678 1.69-.678.236 0 .468.032.698.096.229.064.433.17.612.319.178.148.324.345.435.591.111.247.167.552.167.916 0 .115-.005.231-.015.35-.01.117-.03.244-.056.379h-3.157c0 .283.036.548.106.794.071.246.178.46.32.643.14.182.32.325.535.43.216.104.47.156.76.156.235 0 .475-.033.718-.1.243-.068.425-.156.546-.264l.142.162zM193.815 56.13h.263c.034.19.064.428.091.714.027.287.034.565.02.835-.1.08-.222.147-.363.197-.142.05-.292.093-.45.127-.16.033-.321.057-.486.07-.166.014-.323.02-.47.02-.568 0-1.073-.072-1.519-.217-.445-.145-.821-.366-1.128-.663-.307-.296-.543-.676-.708-1.138-.165-.462-.248-1.01-.248-1.644 0-.661.09-1.223.273-1.685.182-.462.428-.84.739-1.133.31-.294.67-.508 1.083-.643.41-.134.843-.202 1.294-.202.446 0 .82.029 1.124.086.303.058.57.143.8.258 0 .108-.004.235-.011.38-.007.145-.017.298-.03.46-.014.162-.03.32-.051.476-.02.155-.04.296-.06.424h-.264l-.526-1.457c-.074-.04-.197-.067-.368-.08-.172-.014-.342-.02-.51-.02-.336 0-.654.062-.953.187-.3.124-.562.317-.787.576-.225.26-.405.587-.54.982-.134.394-.201.858-.201 1.39 0 .48.06.913.181 1.301.121.388.296.719.525.992.229.273.508.482.837.627.33.145.703.218 1.12.218.222 0 .407-.017.555-.051.148-.034.246-.077.293-.132l.475-1.254zM195.616 57.396c0-.203.064-.365.193-.486.128-.121.293-.182.495-.182.21 0 .378.06.506.182.128.121.193.283.193.486 0 .195-.065.354-.193.475-.128.122-.297.182-.506.182-.202 0-.367-.06-.495-.182-.129-.121-.193-.28-.193-.475M202.527 51.436c-.162-.034-.314-.072-.455-.116-.142-.044-.28-.09-.415-.137v-.294h2.277v.294c-.196.108-.439.192-.729.253l-2.287 6.536-.556.122-2.58-6.658c-.135-.034-.267-.072-.395-.116-.128-.044-.253-.09-.374-.137v-.294h2.681v.294c-.115.047-.243.093-.384.137-.142.044-.29.082-.446.116l1.73 4.624.213.81h.02l.203-.83 1.497-4.604z" transform="translate(-597 -3332) translate(597 3332)"/>
            </g>
        </g>
    </g>
</svg>
