<svg xmlns="http://www.w3.org/2000/svg" xmlns:xlink="http://www.w3.org/1999/xlink" width="159" height="60" viewBox="0 0 159 60">
    <defs>
        <path id="9hdu1t8uza" d="M0 59.86L158.86 59.86 158.86 0 0 0z"/>
    </defs>
    <g fill="none" fill-rule="evenodd">
        <g>
            <g transform="translate(-641 -2516) translate(641 2516)">
                <path fill="#FEFEFE" d="M71.265 28.609c0-1.654.295-2.244-1.555-3.228l-1.278-.629v-1.141h12.75v1.141l-1.3.512c-1.928.787-1.928 1.003-1.888 3.345l.02 9.424-.473.452c-2.223.571-7.417 1.988-12.1 1.988-10.743 0-16.036-5.569-16.036-17.61C49.405 9.916 56.882 4.31 66.7 4.31c2.636 0 7.418 0 10.743 2.813 1.102.925 1.2 1.968 1.2 2.381 0 .787-.157.945-.315 1.26l-2.38 4.623h-.886c0-2.282-2.656-8.362-9.562-8.362-8.008 0-8.402 5.588-8.402 15.032 0 8.264.866 15.701 10.428 15.701 3.09 0 3.66-1.632 3.739-3.462v-5.686zM84.368 38.643l2.283-.925c1.87-.728 1.87-2.086 1.87-5.096V10.92c0-1.673-.473-2.499-1.771-3.384l-2.086-1.397V4.998h9.464l.57.354c1.043 1.397 3.207 5.155 6.12 9.09l10.034 13.655c.413.57.63.826.826.826.414 0 .414-.511.414-1.456V10.96c0-2.38-.04-2.853-2.067-3.679l-2.97-1.141V4.998h11.903v1.14l-1.515.571c-2.223.886-2.656 1.397-2.656 4.82v20.464c0 3.128.06 6.296.06 7.378l-.355.413h-2.912l-.57-.413c-.473-.57-3.168-4.368-5.923-8.048l-12.16-16.252c-.669-.885-.983-1.357-1.24-1.357-.471 0-.471.531-.471 1.259v18.574c0 2.498 0 3.286 2.184 4.014l3.069 1.082v1.14h-12.1v-1.14zM122.008 38.643l2.282-.767c1.712-.571 1.77-1.515 1.77-4.782v-22.45c0-2.479 0-3.108-1.77-3.679l-2.282-.826V4.998h17.216c6.02 0 11.923 1.298 11.923 9.188 0 7.221-5.39 11.688-13.812 11.688-.354 0-.826-.06-1.141-.06l-.767-1.869.413-.413c3.778-.098 8.362-1.653 7.713-8.952-.512-5.687-2.165-6.75-6.828-6.75-3.168 0-3.384.473-3.384 1.772v23.492c0 3.483-.059 4.211 2.026 4.782l2.696.767v1.14h-16.055v-1.14z"/>
                <mask id="zyu4eh0vyb" fill="#fff">
                    <use xlink:href="#9hdu1t8uza"/>
                </mask>
                <path fill="#FEFEFE" d="M49.405 45.175L158.83 45.175 158.83 44.447 49.405 44.447zM28.038 22.214c0 3.207-2.598 5.804-5.824 5.804-3.207 0-5.805-2.597-5.805-5.804 0-3.208 2.598-5.805 5.805-5.805 3.226 0 5.824 2.597 5.824 5.805M12.553 12.514H0l2.538 7.771h6.257v-.02c6.336 0 11.47-5.134 11.49-11.49V2.538L12.553 0v12.514zM12.514 31.894v12.534l7.771-2.519v-6.257h-.02c0-6.335-5.134-11.47-11.49-11.49H2.538L0 31.893h12.514zM31.894 31.914h12.553l-2.558-7.753h-6.257c-6.335.02-11.47 5.156-11.47 11.491V41.89l7.732 2.538V31.914zM31.914 12.553V.02l-7.752 2.518v6.257c.02 6.336 5.155 11.47 11.49 11.49H41.89l2.558-7.732H31.914zM155.968 6.237v.472h-.511v.945h.511v.688l-.138-.216h-.373v1.417h-.61V6.237h1.121zm0 4.014c-1.22 0-2.204-.984-2.204-2.342 0-1.377.984-2.341 2.204-2.341v-.57c-1.613 0-2.912 1.298-2.912 2.911 0 1.594 1.299 2.893 2.912 2.893v-.551zm0-1.909v-.688h.02c.373 0 .668-.06.668-.492 0-.394-.354-.453-.65-.453h-.038v-.472h.098c.787 0 1.22.276 1.22.964 0 .57-.334.846-.866.886l.886 1.456h-.63l-.708-1.2zm0-2.774c1.2 0 2.184.964 2.184 2.341 0 1.358-.984 2.342-2.184 2.342v.55c1.594 0 2.892-1.298 2.892-2.892 0-1.613-1.298-2.911-2.892-2.911v.57zM52.044 59.86c-1.23 0-1.992-.348-2.273-.509-.254-.294-.428-1.256-.428-2.165.094-.174.401-.187.508-.04.268.869 1.163 2.099 2.3 2.099.989 0 1.443-.682 1.443-1.35 0-1.083-1.016-1.725-1.818-2.126-.962-.481-2.018-1.283-2.018-2.607-.014-1.51 1.163-2.553 3.101-2.553.441 0 .99.054 1.524.214.174.054.294.08.454.107.108.294.241 1.016.241 1.911-.067.161-.4.174-.521.041-.227-.682-.802-1.658-1.765-1.658-.882 0-1.363.575-1.363 1.244 0 .614.548 1.176 1.216 1.523l.882.468c.83.441 1.885 1.216 1.885 2.687 0 1.644-1.35 2.714-3.368 2.714M66.32 54.299c0 .374.014.4.375.4h.922c.695 0 .855-.093.989-.735l.067-.334c.093-.106.428-.106.495.014-.027.428-.04.909-.04 1.417s.013.989.04 1.416c-.067.12-.402.134-.495.014l-.067-.334c-.134-.642-.294-.749-.989-.749h-.922c-.361 0-.375.013-.375.415v1.59c0 .615.054 1.043.214 1.27.174.24.428.348 1.404.348 1.163 0 1.617-.04 2.352-1.55.107-.148.441-.094.495.066-.054.695-.374 1.778-.561 2.139-.709-.027-1.992-.04-3.088-.04h-1.738c-.642 0-1.297.013-2.3.04-.106-.08-.106-.4 0-.468l.629-.093c.601-.094.682-.174.682-1.404v-4.986c0-1.217-.08-1.297-.682-1.417l-.334-.067c-.12-.08-.107-.388.027-.468.628.027 1.283.04 1.924.04h2.834c.856 0 1.618-.013 1.792-.04.013.214.107 1.176.173 2.072-.053.147-.36.174-.494.053-.147-.467-.334-.868-.508-1.055-.254-.255-.655-.415-1.31-.415h-1.07c-.44 0-.44.027-.44.521v2.34zM86.76 58.135c0 .562.026.83.28.883.053.053.04.28-.04.32-.227.04-.575.08-.936.201-.468.147-1.617.32-2.366.32-.91 0-1.684-.093-2.633-.467-1.565-.629-2.634-2.112-2.634-4.037 0-1.671.748-3.142 2.353-4.037.909-.495 1.991-.709 3.128-.709 1.483 0 2.219.32 2.646.32.04.402.054 1.338.188 2.153-.054.147-.415.16-.508.027-.428-1.257-1.27-1.885-2.513-1.885-2.126 0-3.155 1.764-3.155 3.877 0 1.911.655 3.047 1.524 3.636.641.427 1.337.508 1.831.508.762 0 .922-.147.922-1.016v-.842c0-.722-.08-.803-.721-.896l-.589-.08c-.146-.08-.146-.388 0-.468.95.027 1.605.04 2.26.04.641 0 1.296-.013 1.75-.04.108.08.108.387 0 .468l-.307.053c-.4.067-.48.2-.48.923v.748zM96.25 52.748c0-1.243-.08-1.323-.682-1.444l-.334-.067c-.107-.08-.12-.374.027-.454.641.027 1.31.04 1.951.04.655 0 1.31-.013 1.952-.04.107.08.107.375 0 .454l-.32.054c-.602.107-.683.214-.683 1.457v3.088c0 1.564.174 3.288 2.206 3.288 1.711 0 2.232-1.497 2.232-3.328v-1.618c0-1.082-.053-2.099-.2-2.446-.12-.28-.414-.36-.776-.428l-.36-.067c-.107-.106-.08-.374 0-.454.722.027 1.243.04 1.79.04.496 0 .99-.013 1.498-.04.08.08.107.348 0 .454l-.24.054c-.348.08-.602.16-.722.441-.147.347-.2 1.364-.2 2.446v1.497c0 1.257-.121 2.407-.856 3.222-.589.628-1.564.963-2.647.963-1.016 0-1.925-.161-2.647-.749-.695-.575-.99-1.564-.99-3.021v-3.342zM115.125 54.686c0 .468.04.509.829.509.48 0 .761-.12 1.016-.375.227-.227.48-.655.48-1.444 0-1.203-.708-1.978-1.75-1.978-.549 0-.575.04-.575.681v2.607zm-1.831-1.697c0-1.337-.028-1.484-.589-1.564l-.36-.054c-.135-.067-.135-.4.026-.468 1.002-.067 2.045-.12 3.315-.12 1.136 0 2.112.174 2.62.482.776.454 1.177 1.122 1.177 1.978 0 1.19-.802 1.698-1.417 2.005-.134.067-.134.147-.067.294.882 1.791 1.43 2.793 2.071 3.342.348.28.696.36.896.374.12.067.12.267.054.348-.214.093-.642.12-1.056.12-1.23 0-2.005-.44-2.594-1.404-.427-.708-.735-1.363-1.042-2.072-.16-.36-.374-.467-.708-.467-.469 0-.495.026-.495.293v1.645c0 1.23.08 1.323.681 1.43l.361.067c.094.067.094.388 0 .468-.708-.027-1.323-.04-1.965-.04-.668 0-1.256.013-1.951.04-.107-.08-.107-.4 0-.468l.36-.067c.602-.107.683-.2.683-1.43v-4.732zM132.529 51.224c-1.644 0-2.526 1.538-2.526 3.77 0 1.63.575 4.25 2.753 4.25 1.752 0 2.433-1.71 2.433-3.876 0-2.286-1.002-4.144-2.66-4.144m4.799 3.97c0 2.915-1.952 4.666-4.826 4.666-2.687 0-4.638-1.765-4.638-4.559 0-2.647 1.978-4.692 4.772-4.692 2.78 0 4.692 1.872 4.692 4.586M147.955 59.86c-1.23 0-1.991-.348-2.272-.509-.254-.294-.428-1.256-.428-2.165.094-.174.401-.187.508-.04.267.869 1.163 2.099 2.299 2.099.99 0 1.443-.682 1.443-1.35 0-1.083-1.015-1.725-1.817-2.126-.963-.481-2.019-1.283-2.019-2.607-.013-1.51 1.163-2.553 3.101-2.553.442 0 .99.054 1.525.214.173.054.294.08.454.107.107.294.24 1.016.24 1.911-.066.161-.4.174-.521.041-.227-.682-.802-1.658-1.764-1.658-.882 0-1.364.575-1.364 1.244 0 .614.548 1.176 1.217 1.523l.882.468c.829.441 1.885 1.216 1.885 2.687 0 1.644-1.35 2.714-3.369 2.714" mask="url(#zyu4eh0vyb)"/>
            </g>
        </g>
    </g>
</svg>
