<svg xmlns="http://www.w3.org/2000/svg" width="78" height="49" viewBox="0 0 78 49">
    <g fill="none" fill-rule="evenodd">
        <g fill="#FFF" fill-rule="nonzero">
            <g>
                <path d="M17.196 42.327H15.72c-2.001 0-3.63 1.628-3.63 3.629v1.21c0 .668.541 1.209 1.21 1.209h24.187c.669 0 1.21-.54 1.21-1.21v-1.21c0-2-1.629-3.628-3.63-3.628h-1.475l-.604-2.415h14.166c2.001 0 3.63-1.628 3.63-3.629V3.641c0-2-1.629-3.629-3.63-3.629H3.633C1.632.012.003 1.64.003 3.642v32.641c0 2 1.629 3.63 3.63 3.63h14.166l-.603 2.414zm-1.476 2.419h19.347c.668 0 1.21.542 1.21 1.21H14.51c0-.668.542-1.21 1.21-1.21zm15.38-2.42H19.687l.604-2.414h10.205l.604 2.415zM3.633 2.432h43.523c.667 0 1.21.542 1.21 1.21v29.013H2.422V3.641c0-.668.542-1.21 1.21-1.21zm-1.21 33.852v-1.21h22.995c-.668 0-1.203.541-1.203 1.21 0 .669.547 1.21 1.216 1.21.668 0 1.21-.541 1.21-1.21 0-.669-.542-1.21-1.21-1.21h22.934v1.21c0 .668-.542 1.21-1.21 1.21H3.634c-.668 0-1.21-.542-1.21-1.21zM73.787.012H56.85c-2 0-3.629 1.628-3.629 3.63v41.104c0 2 1.628 3.629 3.629 3.629h16.937c2 0 3.629-1.628 3.629-3.629V3.641c0-2.002-1.629-3.629-3.63-3.629zM55.64 7.265h19.356v1.208H55.64V7.265zm1.21-4.834h16.937c.667 0 1.21.542 1.21 1.21v1.205H55.64V3.641c0-.668.542-1.21 1.21-1.21zm16.937 43.525H56.85c-.668 0-1.21-.542-1.21-1.21V10.892h19.356v33.854c0 .668-.542 1.21-1.21 1.21z" transform="translate(-681 -1947) translate(681 1947)"/>
                <path d="M65.319 25.408c2 0 3.629-1.628 3.629-3.629 0-2-1.628-3.629-3.629-3.629-2 0-3.63 1.628-3.63 3.629 0 2 1.63 3.63 3.63 3.63zm0-4.839c.668 0 1.21.542 1.21 1.21 0 .668-.542 1.21-1.21 1.21-.668 0-1.21-.542-1.21-1.21 0-.668.542-1.21 1.21-1.21zM70.158 32.669H60.48c-.669 0-1.21.54-1.21 1.21 0 .668.541 1.209 1.21 1.209h9.678c.669 0 1.21-.54 1.21-1.21 0-.669-.541-1.21-1.21-1.21zM70.158 36.298H60.48c-.669 0-1.21.54-1.21 1.21 0 .668.541 1.209 1.21 1.209h9.678c.669 0 1.21-.54 1.21-1.21 0-.669-.541-1.21-1.21-1.21zM70.158 39.927H60.48c-.669 0-1.21.54-1.21 1.21 0 .668.541 1.209 1.21 1.209h9.678c.669 0 1.21-.54 1.21-1.21 0-.669-.541-1.21-1.21-1.21z" transform="translate(-681 -1947) translate(681 1947)"/>
            </g>
        </g>
    </g>
</svg>
