<svg xmlns="http://www.w3.org/2000/svg" width="70" height="70" viewBox="0 0 70 70">
    <g fill="none" fill-rule="evenodd">
        <g fill="#FFF" fill-rule="nonzero">
            <g>
                <path d="M47.314 22.548c-3.142-3.142-7.578-5.175-12.383-5.175-4.806 0-9.241 1.94-12.383 5.175-3.142 3.142-5.175 7.577-5.175 12.383 0 4.805 2.033 9.24 5.175 12.383 3.142 3.141 7.577 5.174 12.383 5.174 4.805 0 9.24-1.94 12.383-5.174 3.141-3.142 5.174-7.578 5.174-12.383 0-4.806-1.94-9.241-5.174-12.383zm-3.327 21.439c-2.31 2.31-5.545 3.696-9.056 3.696-3.512 0-6.746-1.386-9.056-3.696-2.31-2.31-3.697-5.545-3.697-9.056 0-3.512 1.386-6.746 3.697-9.056 2.31-2.31 5.544-3.697 9.056-3.697 3.511 0 6.746 1.386 9.056 3.697 2.31 2.31 3.696 5.544 3.696 9.056 0 3.511-1.386 6.746-3.696 9.056zM67.459 32.528h-7.116c-1.293 0-2.402 1.109-2.402 2.403 0 1.293 1.109 2.402 2.402 2.402h7.116c1.293 0 2.402-1.109 2.402-2.402 0-1.294-1.109-2.403-2.402-2.403zM34.93 57.94c-1.293 0-2.402 1.11-2.402 2.403v7.116c0 1.293 1.109 2.402 2.403 2.402 1.293 0 2.402-1.109 2.402-2.402v-7.116c0-1.293-1.109-2.402-2.402-2.402zM59.604 56.277l-5.083-5.082c-.831-.924-2.402-.924-3.326 0-.924.924-.924 2.402 0 3.326l5.082 5.083c.924.924 2.403.924 3.327 0 .924-.924.924-2.403 0-3.327zM34.93 0c-1.293 0-2.402 1.109-2.402 2.403v7.115c0 1.294 1.109 2.403 2.403 2.403 1.293 0 2.402-1.11 2.402-2.403V2.403C37.333 1.109 36.224 0 34.931 0zM59.696 10.257c-.924-.924-2.402-.924-3.326 0l-5.083 5.083c-.924.924-.924 2.403 0 3.327.832.924 2.403.924 3.327 0l5.082-5.083c.924-.924.924-2.402 0-3.327zM9.518 32.528H2.403C1.109 32.528 0 33.637 0 34.931c0 1.293 1.017 2.402 2.403 2.402h7.115c1.294 0 2.403-1.109 2.403-2.402 0-1.294-1.11-2.403-2.403-2.403zM18.574 51.195c-.831-.924-2.402-.924-3.326 0l-5.083 5.082c-.924.924-.924 2.403 0 3.327.924.924 2.403.924 3.327 0l5.082-5.083c.924-.924.924-2.402 0-3.326zM18.574 15.34l-5.082-5.083c-.924-.924-2.403-.924-3.327 0-.924.925-.924 2.403 0 3.327l5.083 5.083c.924.924 2.402.924 3.326 0 .924-.924.924-2.403 0-3.327z" transform="translate(-1088 -1937) translate(1088 1937)"/>
            </g>
        </g>
    </g>
</svg>
