<svg xmlns="http://www.w3.org/2000/svg" width="182" height="60" viewBox="0 0 182 60">
    <g fill="none" fill-rule="evenodd">
        <g fill="#FFF">
            <g>
                <path d="M179.047 47.869h.453c.216 0 .364-.033.442-.097.08-.065.119-.15.119-.256 0-.069-.02-.13-.057-.184-.038-.054-.091-.095-.158-.121-.068-.027-.193-.04-.375-.04h-.424v.698zm-.373 1.301v-2.312h.794c.272 0 .468.021.59.064.121.042.218.117.29.223.073.107.109.22.109.34 0 .168-.06.315-.181.44-.121.126-.28.196-.48.212.081.034.147.075.196.122.093.091.207.244.342.459l.282.452h-.456l-.205-.364c-.161-.287-.291-.466-.39-.539-.068-.053-.168-.08-.299-.08h-.22v.983h-.372zm.942-2.982c-.301 0-.595.078-.881.232-.286.155-.51.376-.67.664-.162.288-.243.587-.243.899 0 .309.08.606.238.89.158.284.38.505.665.663.285.159.582.238.891.238.31 0 .607-.08.892-.238.285-.158.506-.38.663-.663.158-.284.237-.581.237-.89 0-.312-.08-.611-.24-.899-.161-.288-.385-.509-.671-.664-.287-.154-.58-.232-.88-.232zm0-.356c.361 0 .713.093 1.057.278.344.185.611.45.803.795.192.344.288.703.288 1.078 0 .37-.094.726-.284 1.068-.188.341-.453.607-.794.796-.34.189-.698.283-1.07.283-.372 0-.728-.094-1.07-.283-.34-.19-.605-.455-.795-.796-.19-.342-.285-.698-.285-1.068 0-.375.096-.734.29-1.078.192-.345.46-.61.804-.795.343-.185.696-.278 1.056-.278zM148.881 46.535L150.036 46.535 148.328 53.042 147.092 53.042zM151.597 46.535L152.752 46.535 151.044 53.042 149.808 53.042zM165.745 53.04l.445-1.265s-.304.234-.72.203c-.508-.038-.326-.551-.326-.551l1.318-4.903h-1.155l-1.428 5.194s-.265.87.359 1.217c.13.072.279.1.427.1l1.08.004zM161.729 48.206c.855.161 1.081.825 1.12 1.367.02.283-.016.568-.09.842l-.7 2.627h-1.236l.415-1.466c.186-.76.248-1.519.248-1.519s.055-.643-.658-.736c-.321-.042-.57.102-.746.272-.189.182-.314.42-.38.672l-.723 2.777h-1.237l1.342-4.86 1.156.011-.157.588s.8-.734 1.646-.575M154.555 52.224c-.395.041-.723-.107-.733-.556-.013-.62.458-.78.944-.821.353-.03.748.08.992.316-.199.634-.586.996-1.203 1.06m1.905-3.734c-1.104-.65-2.8.061-2.8.061l.15.992s.476-.357 1.359-.291c.441.033.648.273.745.505.083.2.09.424.04.636l-.002.007s-1.5-.464-2.417-.056c-.915.409-.993 1.38-.993 1.38s-.198 1.247 1.247 1.357c.669.051 1.215-.292 1.609-.676l-.194.644h1.236l.67-2.627c.387-1.347-.65-1.932-.65-1.932M169.094 52.224c-.396.041-.723-.107-.733-.556-.014-.62.458-.78.944-.821.353-.03.748.08.991.316-.198.634-.585.996-1.202 1.06m1.905-3.734c-1.104-.65-2.8.061-2.8.061l.15.992s.476-.357 1.358-.291c.442.033.649.273.745.505.084.2.09.424.04.636v.007s-1.502-.464-2.418-.056c-.916.409-.993 1.38-.993 1.38s-.199 1.247 1.247 1.357c.669.051 1.215-.292 1.608-.676l-.193.644h1.236l.67-2.627c.387-1.347-.65-1.932-.65-1.932" transform="translate(-217 -3332) translate(217 3332)"/>
                <path d="M164.143 48.311L163.85 49.346 166.786 49.346 167.056 48.323zM172.724 51.458l-.49.664-.128.191.543.402c.45.306.982.372 1.467.42 1 .003 1.734-.471 1.93-1.218.213-.812-.056-1.204-1.126-1.763-.302-.158-.92-.223-.653-.747.226-.443.731-.236 1.127-.09.078.03.16.058.225.108l.465.247.367-.591.182-.283-.567-.333c-.366-.205-.777-.282-1.206-.28-1.024.003-1.697.45-1.902 1.286-.18.74.123 1.164 1.156 1.672.301.148.853.204.703.658-.169.51-.703.307-1.1.24-.185-.032-.392-.115-.525-.24M75.1 35.318L79.063 29l.658 6.318H75.1zm10.852-16.484h-8.648L59.68 44.854l9.617-.027 1.926-3.427h8.996l.468 3.54h9.182l-3.917-26.106zM142.687 35.318L146.65 29l.658 6.318h-4.622zm10.852-16.484h-8.648l-17.623 26.02 9.616-.027 1.927-3.427h8.996l.467 3.54h9.182l-3.917-26.106zM164.989 18.834L173.609 18.834 168.626 37.596 180.358 37.596 178.389 44.947 158.048 44.947zM124.766 19.021L133.355 19.021 126.449 44.94 117.845 44.94zM105.425 26.616c.474.007.956.013 1.42.093 2.902.5 4.25 2.572 3.543 5.436-.729 2.953-2.752 4.487-5.628 5.053-1.215.238-2.445.224-3.738.158.825-3.112 1.636-6.184 2.455-9.254l.447-1.486h1.5zm.695-7.614h-8.795l-6.94 25.938h5.693l1.478.012c2.101-.057 4.599.113 7.09-.163 4.386-.485 8.256-2.03 11.186-5.463 3.037-3.56 4.047-7.699 3.15-12.238-.87-4.396-4.513-7.352-9.45-7.853 0 0-2.661-.252-3.412-.233zM41.602 53.59c-14.281 6.247-31.038-.827-36.185-15.275-4.59-12.887 2.06-27.173 15.069-32.373 3.227-1.29 6.784-1.975 10.25-1.972 12.26.01 23.123 8.301 25.923 19.786 2.997 12.288-3.253 24.671-15.057 29.834M56.9 13.875C49.41 2.474 35-2.659 21.737 1.351 8.814 5.258.04 16.786 0 28.978c.023 4.816.731 8.559 2.227 12.144C9.67 58.97 32.237 65.548 48.428 54.59c13.66-9.244 17.386-27.148 8.472-40.715" transform="translate(-217 -3332) translate(217 3332)"/>
                <path d="M23.898 10.95c4.122.03 8.243.009 12.365.025 1.914.008 3.8.252 5.63.838 4.984 1.597 7.546 5.829 6.797 11.01-.791 5.475-4.338 8.333-9.232 9.986l-1.433.52.63 1.422c1.49 3.004 2.987 6.006 4.479 9.01.146.293.278.594.473 1.013-2.747 0-5.354-.016-7.96.013h-.458l-.298-.61c-1.512-3.15-3.045-6.29-4.53-9.452l-.31-.767h-5.68l-.197.834c-.793 3.085-1.658 6.15-2.437 9.24l-.235.755-.79-.001c-2.185-.031-4.37-.012-6.628-.012.796-2.974 1.573-5.884 2.354-8.792 2.176-8.095 4.36-16.187 6.515-24.287l.212-.746h.733zm30.835 10.597C48.886 5.843 29 .068 15.356 10.113 4.262 18.28 1.867 33.348 9.92 44.315c6.632 9.03 18.673 12.67 29.454 8.9C49.48 49.682 56.2 40.386 56.208 29.933c.002-2.958-.485-5.727-1.475-8.386z" transform="translate(-217 -3332) translate(217 3332)"/>
                <path d="M28.454 19.048c-.742 2.776-1.477 5.553-2.22 8.351 2.637 0 5.216.083 7.788-.026 2.004-.085 3.951-.557 5.483-2.006 1.409-1.333 1.862-2.983 1.328-4.829-.51-1.766-1.95-2.424-3.619-2.68-2.312-.356-4.644-.113-6.966-.166l-1.427.019-.367 1.337z" transform="translate(-217 -3332) translate(217 3332)"/>
            </g>
        </g>
    </g>
</svg>
