<svg xmlns="http://www.w3.org/2000/svg" width="33" height="25" viewBox="0 0 33 25">
    <g fill="none" fill-rule="evenodd">
        <g fill="#434343" fill-rule="nonzero">
            <g>
                <path d="M32.486 22.656v-.014c-.003-.019-.005-.037-.01-.055v-.006l-.014-.048-.005-.013-.018-.042-.003-.007-2.545-5.02V.934c0-.508-.414-.921-.922-.921H3.518c-.508 0-.921.413-.921.921V17.45L.05 22.47c0 .003-.002.006-.003.008l-.018.042-.004.013c-.006.015-.01.032-.014.048l-.001.006c-.004.018-.007.036-.009.055v.014l-.002.03v1.207c0 .603.49 1.094 1.094 1.094h30.3c.603 0 1.093-.49 1.093-1.094v-1.207l-.001-.03zM3.548.965h25.39v16.123H3.549V.965zM3.365 18.04h25.757l2.115 4.17H20.78l-.525-1.903c-.107-.387-.462-.658-.864-.658h-6.297c-.402 0-.757.27-.864.658l-.525 1.903H1.251l2.114-4.17zm16.429 4.17h-7.1l.443-1.609h6.213l.444 1.609zm11.742 1.683c0 .079-.064.142-.143.142H1.094c-.078 0-.142-.063-.142-.142v-.731h30.584v.731z" transform="translate(-234 -155) translate(234 155)"/>
                <path d="M27.448 9.82c-.263 0-.476.213-.476.475v4.826H5.515v-4.826c0-.262-.213-.475-.475-.475-.263 0-.476.213-.476.475v5.032c0 .411.334.746.746.746h21.867c.412 0 .747-.335.747-.746v-5.032c0-.262-.213-.475-.476-.475zM26.734 2.233H5.754c-.396 0-.717.322-.717.716v4.828c0 .252.204.456.457.456.252 0 .456-.204.456-.456v-4.63h20.587v4.63c0 .252.204.456.457.456.252 0 .456-.204.456-.456V2.949c0-.395-.32-.716-.716-.716z" transform="translate(-234 -155) translate(234 155)"/>
            </g>
        </g>
    </g>
</svg>
