<svg xmlns="http://www.w3.org/2000/svg" width="35" height="40" viewBox="0 0 35 40">
    <g fill="none" fill-rule="evenodd">
        <g fill="#62619A" fill-rule="nonzero">
            <g>
                <path d="M5.999 28.584h-.015c-1.138.004-2.057.934-2.053 2.079.004 1.144.93 2.068 2.067 2.064h.016c1.137-.008 2.055-.936 2.058-2.079v-.008c0-1.133-.95-2.056-2.073-2.056zm.006 2.956c-.232.002-.455-.089-.62-.253-.165-.163-.258-.386-.26-.619-.002-.235.088-.462.251-.63.161-.17.383-.267.616-.27H6c.483.002.875.396.876.883.002.486-.386.883-.87.89zM28.898 28.414h-.016c-1.137.004-2.056.935-2.052 2.08.004 1.144.93 2.068 2.067 2.064h.016c.545-.001 1.066-.224 1.445-.617.58-.594.75-1.48.432-2.25-.319-.769-1.064-1.272-1.892-1.277zm.868 2.071c.003.234-.087.458-.248.625-.161.168-.383.263-.614.264h-.007c-.23 0-.45-.091-.613-.254-.251-.253-.329-.631-.197-.963.133-.331.45-.551.804-.559h.007c.48.003.868.396.868.88v.007z" transform="translate(-328 -4014) translate(328 4014)"/>
                <path d="M34.546 23.342c-.315-.927-1.28-1.524-2.462-1.524h-.026c-.68 0-1.9.012-2.496.014l-1.135-2.066c-.818-1.449-2.007-3.106-3.973-3.106h-.026l-14.044.102c-1.613.012-3.032 1.138-4 3.172l-1.153 2.09-2.519.015c-1.195.009-2.163.62-2.466 1.559-.135.42-.217.855-.245 1.295-.007.167.052.329.165.451.11.12.261.19.423.195h.005l1.559-.028c-.69.62-1.121 1.564-1.114 2.647 0 .024.002.047.006.07l.872 6.54c.028.937.696 1.732 1.612 1.916l.015 2.033c.005.713.584 1.287 1.293 1.283h.01l2.142-.012c.714-.005 1.29-.59 1.285-1.309l-.014-1.991 18.466-.137.015 1.993c.005.714.584 1.289 1.293 1.287h.01l2.142-.013c.714-.006 1.29-.592 1.285-1.31l-.015-2.04c.895-.212 1.532-1.007 1.547-1.932l.812-6.55c.003-.026.005-.052.005-.078-.001-.855-.31-1.68-.869-2.324-.098-.11-.203-.215-.316-.311l1.593-.013c.161-.001.315-.069.425-.187.11-.118.167-.277.158-.439-.035-.44-.124-.874-.265-1.292zm-27.124-2.85c.007-.011.012-.022.017-.033.442-.934 1.414-2.501 2.953-2.513l14.045-.102h.017c1.074 0 1.957.75 2.945 2.5l2.317 4.22-2.326.018c-.257-1.742-1.75-3.027-3.5-3.014-1.75.013-3.224 1.32-3.456 3.065l-15.358.114 2.346-4.255zm18.774 4.098l-4.567.034c.224-1.084 1.17-1.864 2.27-1.872 1.1-.008 2.057.757 2.297 1.838zm-24.927-.27c.025-.113.057-.233.097-.357.141-.438.686-.735 1.355-.74.486-.004 1.243-.008 1.855-.011l-.598 1.084-2.709.023zm5.712 14.484l-2.142.012h-.001c-.03.001-.06-.01-.082-.03-.023-.02-.035-.05-.035-.08l-.015-1.992 2.376-.017.015 1.993c0 .03-.013.06-.035.082-.021.021-.05.033-.081.032zm23.196-.17l-2.142.013c-.031 0-.06-.01-.082-.031-.023-.021-.035-.05-.035-.082l-.015-1.992 2.376-.017.014 1.992c0 .03-.012.06-.034.083-.021.021-.051.034-.082.034zm2.465-10.762l-.812 6.553c-.003.026-.005.052-.004.078 0 .456-.363.827-.817.833l-27.088.2c-.217.001-.427-.084-.582-.238-.156-.153-.244-.363-.246-.582 0-.025-.002-.05-.005-.074l-.871-6.535c.007-1.04.66-2.093 1.765-2.165.03.009.06.015.09.02h.005l26.616-.226c.004 0 .008-.028.012-.028h.017c.521.009 1.012.244 1.348.644.36.425.562.962.572 1.52zm-1.835-3.77l-.597-1.089c.613-.002 1.371-.01 1.856-.01h.017c.661 0 1.203.29 1.35.721.041.124.075.245.101.357l-2.727.022z" transform="translate(-328 -4014) translate(328 4014)"/>
                <path d="M21.613 33.15h-.004l-8.283.081c-.323.005-.582.27-.581.596.001.325.262.589.585.592h.005l8.282-.053c.327-.012.585-.282.584-.61 0-.329-.261-.597-.588-.606zM13.713 31.29h.004c.156 0 .305-.062.415-.172.11-.111.17-.262.17-.418l-.01-1.358c-.003-.325-.265-.588-.59-.59h-.004c-.326.005-.587.274-.584.603l.01 1.35c.003.325.266.586.589.585zM11.207 28.753h-.004c-.329.008-.589.28-.585.61l.01 1.347c.002.156.065.304.175.413.11.109.26.169.414.167h.004c.155.002.304-.058.414-.167.11-.11.172-.258.17-.414l-.01-1.362c-.001-.326-.263-.591-.588-.594zM23.686 28.668h-.004c-.328.007-.589.278-.585.607l.01 1.349c.002.156.064.304.175.413.11.11.26.17.414.168h.004c.155.002.304-.059.414-.169.11-.11.172-.26.17-.415l-.01-1.36c-.001-.327-.264-.59-.588-.593zM16.208 31.29h.005c.156-.002.306-.066.415-.178.11-.112.17-.264.17-.421l-.01-1.357c-.002-.211-.116-.406-.298-.51-.183-.105-.408-.104-.59.003-.18.107-.291.303-.29.515l.01 1.358c.002.325.265.588.588.59zM18.704 31.29h.005c.327-.007.588-.279.584-.609l-.01-1.348c-.002-.155-.064-.304-.175-.413-.11-.109-.26-.169-.414-.167h-.004c-.155-.003-.304.058-.414.168-.11.11-.172.26-.17.415l.01 1.36c.002.327.264.591.588.594zM21.2 31.29h.004c.325-.085.587-.29.585-.618l-.01-1.365c-.002-.329-.267-.594-.593-.593-.156 0-.305.063-.415.175-.11.111-.17.262-.17.418l.01 1.375c.001.33.262.598.589.608zM17.406 15.212c3.39-.002 6.36-2.284 7.252-5.573.892-3.29-.513-6.772-3.433-8.505-2.92-1.733-6.63-1.288-9.062 1.087C9.73 4.597 9.179 8.314 10.816 11.3c1.325 2.413 3.85 3.91 6.59 3.912zm0-13.952c2.568 0 4.885 1.555 5.868 3.941.983 2.387.44 5.134-1.376 6.96-1.816 1.827-4.548 2.374-6.92 1.385-2.374-.99-3.92-3.319-3.92-5.902.004-3.524 2.844-6.38 6.348-6.384z" transform="translate(-328 -4014) translate(328 4014)"/>
                <path d="M17.42 11.32l-.014-.001h-.015c-.778-.008-1.404-.645-1.405-1.427 0-.327-.264-.592-.589-.592-.325 0-.588.265-.588.592.001 1.214.833 2.267 2.008 2.544v.678c0 .327.264.592.589.592.325 0 .588-.265.588-.592v-.678c1.286-.301 2.143-1.524 1.992-2.842-.15-1.32-1.26-2.314-2.58-2.314-.575 0-1.092-.348-1.312-.882-.22-.534-.098-1.148.308-1.556.406-.409 1.017-.53 1.547-.31.531.221.877.742.877 1.32 0 .327.263.592.588.592.326 0 .59-.265.59-.592-.002-1.214-.834-2.267-2.01-2.544v-.586c0-.327-.263-.592-.588-.592-.325 0-.589.265-.589.592v.586c-1.285.3-2.142 1.523-1.991 2.842.15 1.318 1.26 2.314 2.58 2.314.78 0 1.415.635 1.419 1.42.004.786-.624 1.427-1.405 1.435z" transform="translate(-328 -4014) translate(328 4014)"/>
            </g>
        </g>
    </g>
</svg>
