<svg xmlns="http://www.w3.org/2000/svg" width="45" height="40" viewBox="0 0 45 40">
    <g fill="none" fill-rule="evenodd">
        <g fill="#62619A" fill-rule="nonzero">
            <g>
                <path d="M24.237.01c-.354 0-.642.286-.642.64 0 .353.288.639.642.639 10.364 0 18.795 8.394 18.795 18.711 0 10.317-8.43 18.696-18.795 18.696-9.283.02-17.183-6.727-18.574-15.865h3.75c.232.007.449-.115.562-.316.114-.202.106-.45-.02-.643L5.61 15.087c-.119-.184-.323-.295-.542-.294-.22 0-.424.112-.541.297L.182 21.88c-.125.19-.134.435-.021.635.115.2.331.322.563.316h3.64C5.883 33.395 15.47 40.908 26.14 39.898c10.672-1.01 18.664-10.187 18.155-20.847C43.787 8.39 34.957.009 24.237.01zM4.92 21.553H1.894l3.174-4.96 3.175 4.96H4.92z" transform="translate(-559 -4153) translate(559 4153)"/>
                <path d="M15.503 23.412v1.417c0 .307.37.468.664.468h5.225c.264 0 .514-.334.514-.7 0-.365-.25-.67-.514-.67h-4.33v-.515c0-1.68 4.763-2.703 4.763-5.845 0-1.753-1.435-2.908-3.137-2.908-1.6 0-3.007 1.023-3.007 2.587 0 .657.294.862.705.862.514 0 .823-.292.823-.585 0-.993.66-1.446 1.482-1.446 1.116 0 1.598.818 1.598 1.534 0 2.25-4.786 3.434-4.786 5.801zM27.057 15.258c0-.365-.484-.599-.778-.599-.288 0-.551.164-.675.424l-3.552 6.97c-.056.094-.086.201-.088.31 0 .351.235.56.543.56h3.637v1.906c0 .336.383.512.78.512.38 0 .779-.176.779-.512v-1.907h.69c.279 0 .528-.372.528-.723 0-.365-.176-.738-.528-.738h-.69v-1.98c0-.365-.398-.511-.78-.511-.396 0-.78.146-.78.511v1.98H23.96l3.024-5.987c.042-.065.067-.139.073-.216zM29.35 11.115c-.28 0-.454.126-.454.307v6.189c0 .153.173.315.454.315.253 0 .463-.162.463-.315v-2.235c-.008-.242.083-.478.25-.654.169-.176.4-.278.645-.283.497 0 .94.469.94.937v2.235c0 .207.236.315.454.315.235 0 .463-.108.463-.315v-2.235c0-.973-.734-1.774-1.584-1.774-.488-.008-.939.256-1.168.685v-2.865c0-.18-.21-.307-.463-.307zM34 13.656c-.271 0-.426.126-.426.306v3.649c0 .153.174.315.445.315s.472-.162.472-.315v-1.847c0-.82.54-1.335 1.092-1.335h.29c.19 0 .361-.181.361-.415.009-.21-.151-.39-.362-.407h-.29c-.501.018-.955.306-1.183.751v-.396c0-.18-.163-.306-.399-.306z" transform="translate(-559 -4153) translate(559 4153)"/>
            </g>
        </g>
    </g>
</svg>
