<svg xmlns="http://www.w3.org/2000/svg" width="46" height="20" viewBox="0 0 46 20">
    <g fill="none" fill-rule="evenodd">
        <g fill-rule="nonzero">
            <g>
                <path fill="#FFF" d="M.765 17.66h3.691c1.255 2.192 4.047 2.95 6.236 1.693.703-.404 1.287-.989 1.69-1.693h21.159c1.254 2.192 4.046 2.95 6.234 1.694.71-.408 1.299-1 1.703-1.714.087-.016.17-.046.247-.09l3.827-2.3c.23-.139.371-.388.371-.657v-6.9c-.002-.091-.02-.18-.053-.265-.009-.023-.018-.044-.029-.066-.01-.022-.015-.044-.027-.065l-2.08-3.472.578-1.157c.189-.379.035-.84-.343-1.029-.068-.034-.14-.057-.215-.07L39.817.911 37.949.6C28.785-.905 19.38.639 11.175 4.994L8.918 6.2l-3.444.767C3.133 7.483 1.15 9.034.083 11.184c-.054.106-.082.223-.083.342v5.367c0 .423.343.767.765.767zm10.457-1.074c-.68 1.547-2.482 2.25-4.026 1.568-1.544-.68-2.245-2.486-1.566-4.033.68-1.547 2.482-2.249 4.026-1.568 1.111.49 1.827 1.59 1.825 2.806-.001.423-.09.84-.26 1.227h.001zm29.085 0c-.68 1.547-2.482 2.25-4.026 1.568-1.545-.68-2.246-2.486-1.566-4.033.68-1.547 2.482-2.249 4.026-1.568 1.11.49 1.827 1.59 1.825 2.806-.002.423-.09.84-.26 1.227zm4.086-6.594h-1.914L41.331 8.46h3.062v1.533zm-15.42-8.357c2.917-.157 5.843.004 8.725.48l.402.068-3.975 3.976h-5.798l.646-4.524zm5.47 6.057c.203 0 .397-.08.54-.224l4.97-4.98 2.526.423-.306.605c-.117.234-.106.513.029.737l1.604 2.672H39.8c-.423 0-.765.344-.765.767 0 .166.054.327.153.46l2.296 3.067c.145.193.371.307.612.307h2.297v2.633l-2.297 1.382c0-.06.004-.121.004-.182 0-2.54-2.056-4.6-4.592-4.6-2.536 0-4.592 2.06-4.592 4.6.001.23.02.46.058.686.003.027 0 .054.006.081h-6.074l1.202-8.434h6.334zm-7.032-5.95l-.63 4.417H12.25c4.718-2.446 9.868-3.946 15.16-4.417zM1.53 13.06h1.53v-1.533H1.643c.896-1.562 2.406-2.674 4.16-3.063l3.466-.77h17.29l-1.2 8.433H12.947c0-.027 0-.054.006-.081.037-.227.056-.456.059-.686 0-2.54-2.057-4.6-4.593-4.6s-4.592 2.06-4.592 4.6c.002.23.021.459.058.686.004.027 0 .054.006.08h-2.36V13.06z" transform="translate(-109 -109) translate(109 109)"/>
                <path fill="#434343" d="M19.9 9.226L22.962 9.226 22.962 10.759 19.9 10.759z" transform="translate(-109 -109) translate(109 109)"/>
            </g>
        </g>
    </g>
</svg>
