<svg xmlns="http://www.w3.org/2000/svg" width="40" height="40" viewBox="0 0 40 40">
    <g fill="none" fill-rule="evenodd">
        <g fill="#62619A" fill-rule="nonzero">
            <g>
                <path d="M31.158 27.776c-.11-.11-.26-.172-.416-.172-.156 0-.305.062-.416.172l-.859.86-2.062-2.063c5.857-6.3 5.587-16.132-.609-22.1-6.195-5.968-16.03-5.872-22.107.216-6.088 6.077-6.184 15.912-.216 22.107 5.968 6.196 15.8 6.466 22.1.609l2.062 2.062-.859.86c-.11.11-.172.26-.172.415 0 .156.062.306.172.416l8.133 8.133c.853.852 2.236.852 3.09 0l.292-.293c.852-.853.852-2.236 0-3.09l-8.133-8.132zm-4.993-1.61c-5.7 5.7-14.943 5.7-20.644 0-5.7-5.701-5.7-14.944 0-20.645 2.738-2.738 6.45-4.276 10.322-4.276 3.871 0 7.584 1.538 10.322 4.276 2.738 2.738 4.276 6.45 4.276 10.322 0 3.872-1.538 7.585-4.276 10.322zm12.294 12l-.292.293c-.394.393-1.032.393-1.426 0l-7.717-7.717 1.718-1.718 7.717 7.716c.393.394.393 1.032 0 1.427z" transform="translate(-325 -4307) translate(325 4307)"/>
                <path d="M7.293 15.882h-.012c-.928.004-1.678.759-1.675 1.687.004.928.76 1.678 1.687 1.675h.013c.93-.002 1.684-.756 1.686-1.687v-.001c-.012-.93-.77-1.675-1.699-1.674zm.004 2.185h-.004c-.18 0-.347-.095-.437-.25-.09-.156-.092-.348-.002-.504.09-.157.255-.253.435-.254h.004c.18 0 .347.095.438.25.09.156.091.348.002.504-.09.157-.256.254-.436.254zM24.457 15.798h-.012c-.445-.003-.873.172-1.187.487-.314.315-.489.743-.485 1.188.006.927.755 1.679 1.683 1.687h.013c.449-.005.877-.19 1.187-.514.315-.313.49-.74.485-1.185-.008-.923-.76-1.666-1.684-1.663zm.002 2.163c-.135.002-.264-.05-.36-.146-.147-.139-.193-.355-.114-.542.078-.188.265-.306.468-.298h.003c.131-.007.26.04.354.131.095.09.149.217.148.348.002.133-.05.262-.143.358-.094.095-.222.149-.356.15z" transform="translate(-325 -4307) translate(325 4307)"/>
                <path d="M29.036 13.08c-.026-.342-.096-.68-.206-1.004-.257-.751-1.034-1.235-1.985-1.235h-.02c-.482 0-1.315.008-1.784.01l-.81-1.476c-.632-1.114-1.556-2.4-3.105-2.4h-.02l-10.528.087c-1.266.01-2.376.883-3.127 2.45l-.82 1.48-1.803.013c-.96.007-1.74.503-1.987 1.264-.105.325-.17.663-.19 1.005-.007.158.053.311.164.423.112.112.265.172.423.169h.006l.817.003c-.42.518-.645 1.168-.632 1.835 0 .025.002.051.006.076l.652 4.868c.025.72.514 1.341 1.21 1.533l.01 1.402c.003.616.5 1.116 1.116 1.123h.008l1.606-.019c.617-.007 1.113-.511 1.108-1.129l-.01-1.34 13.548-.1.01 1.337c.001.293.121.572.333.775.21.203.492.313.784.308h.008l1.605.001c.295 0 .578-.116.786-.325.208-.209.324-.492.323-.787l-.01-1.408c.677-.211 1.143-.832 1.159-1.542l.608-4.874c.003-.026.004-.051.004-.077-.001-.67-.245-1.315-.686-1.819l.846-.006c.16-.001.314-.069.424-.186.11-.117.168-.275.159-.435zM8.489 10.07l.017-.032c.317-.665 1.008-1.792 2.082-1.8l10.526-.088h.012c.745 0 1.369.548 2.079 1.8l1.617 2.934-1.371.02c-.259-1.3-1.402-2.236-2.728-2.233h-.021c-1.336.004-2.478.962-2.715 2.276l-11.134.078 1.636-2.955zm13.748 2.846l-3.035.018c.217-.648.825-1.085 1.509-1.086h.012c.68-.003 1.288.426 1.513 1.068zm-18.298-.213l.022-.071c.085-.262.445-.447.876-.45l1.14-.007-.285.513-1.753.015zm2.543 10.811l-.01-1.278 1.487-.011.01 1.278-1.487.011zm17.387-.128l-.01-1.278 1.487-.011.01 1.278-1.487.011zm2.64-3.02c-.003.025-.005.05-.005.076.001.125-.048.244-.136.332-.085.093-.203.148-.33.154l-20.303.163h-.003c-.26-.006-.468-.218-.47-.479 0-.029-.001-.058-.005-.087l-.651-4.86c.008-.878.59-1.42 1.182-1.466.02.002.04.002.062.002h.004l19.948-.145.009.001.014.001c.778 0 1.27.74 1.29 1.44l-.606 4.867zm-.534-7.824l-.286-.518c.403-.002.842-.008 1.144-.008h.011c.426 0 .784.18.872.44.009.023.016.048.024.072l-1.765.014z" transform="translate(-325 -4307) translate(325 4307)"/>
                <path d="M18.997 19.328h-.004l-6.209.04c-.207-.005-.4.102-.505.28-.104.18-.104.401.002.579.106.178.3.284.508.277h.004l6.208-.028c.208.003.402-.106.506-.286.105-.18.104-.402-.002-.58-.106-.18-.3-.287-.508-.282zM13.076 18.235h.004c.328-.009.588-.28.584-.608l-.008-1.018c0-.324-.264-.587-.59-.586-.324 0-.587.264-.586.59l.007 1.024c.002.326.263.591.589.598zM11.197 16.05h-.004c-.155-.001-.305.06-.414.17-.11.11-.171.258-.17.414l.007 1.013c.002.325.264.587.589.589h.004c.327-.006.588-.275.584-.602l-.008-1.004c-.002-.323-.265-.582-.588-.58zM20.55 15.966h-.004c-.156 0-.305.063-.415.174-.11.111-.17.261-.169.417l.008 1.01c.002.323.265.584.588.584h.004c.157 0 .306-.064.416-.175.11-.112.17-.262.168-.418l-.007-1.009c-.002-.323-.265-.583-.588-.583zM14.946 18.151h.004c.154.004.303-.055.413-.163.11-.108.172-.256.171-.41l-.007-1.019c-.002-.325-.264-.588-.589-.593h-.004c-.329.01-.589.283-.584.612l.008 1c.001.154.064.301.175.409.11.107.259.167.413.164zM16.816 18.151h.005c.155.002.304-.058.414-.167.11-.109.17-.258.17-.413l-.008-1.015c-.002-.324-.264-.587-.588-.59h-.004c-.328.008-.588.277-.584.605l.007 1.003c.002.155.064.302.175.41.11.109.259.169.413.167zM18.687 18.151h.005c.155 0 .304-.06.414-.171.11-.11.17-.26.17-.415l-.008-1.013c-.002-.323-.265-.585-.588-.586h-.005c-.326.004-.587.272-.584.598l.008 1.007c.003.322.266.582.588.58z" transform="translate(-325 -4307) translate(325 4307)"/>
            </g>
        </g>
    </g>
</svg>
