<svg xmlns="http://www.w3.org/2000/svg" width="99" height="39" viewBox="0 0 99 39">
    <g fill="none" fill-rule="evenodd">
        <g fill="#555" fill-rule="nonzero">
            <g>
                <path d="M15.796 22.934c-4.31 0-7.805 3.492-7.805 7.804 0 .334.027.66.069.982.483 3.847 3.759 6.824 7.736 6.824 4.087 0 7.434-3.142 7.773-7.141.018-.221.034-.44.034-.667.001-4.309-3.494-7.802-7.807-7.802zm-3.909 4.863l1.593 1.593c-.124.213-.221.441-.283.687h-2.245c.117-.852.444-1.627.935-2.28zm-.942 3.63h2.26c.064.239.158.469.282.677l-1.596 1.595c-.492-.649-.827-1.426-.946-2.272zm4.177 4.161c-.845-.117-1.614-.448-2.264-.939l1.587-1.587c.208.122.438.211.677.273v2.253zm0-7.446c-.246.062-.476.161-.69.288l-1.59-1.591c.653-.496 1.429-.825 2.28-.943v2.246zm1.352-2.246c.852.118 1.627.447 2.28.944l-1.59 1.59c-.214-.127-.444-.226-.69-.288v-2.246zm0 9.691v-2.252c.24-.063.468-.152.677-.275l1.588 1.589c-.651.488-1.421.82-2.265.938zm3.234-1.882l-1.601-1.603c.124-.209.227-.434.291-.676h2.243c-.12.847-.441 1.629-.933 2.279zm-1.31-3.63c-.063-.244-.159-.474-.283-.687l1.593-1.593c.493.653.818 1.429.935 2.278l-2.245.002zM81.505 22.934c-4.31 0-7.805 3.492-7.805 7.804 0 .334.027.66.069.982.482 3.847 3.759 6.824 7.735 6.824 4.087 0 7.435-3.142 7.773-7.141.018-.221.034-.44.034-.667.002-4.309-3.493-7.802-7.806-7.802zm-3.91 4.863l1.594 1.593c-.124.213-.222.441-.283.687h-2.245c.117-.852.443-1.627.934-2.28zm-.941 3.63h2.26c.064.239.158.469.282.677L77.6 33.698c-.491-.648-.827-1.425-.946-2.271zm4.177 4.161c-.845-.117-1.614-.448-2.264-.939l1.587-1.587c.208.122.438.211.677.273v2.253zm0-7.446c-.246.062-.476.161-.689.288l-1.591-1.591c.653-.496 1.43-.825 2.28-.943v2.246zm1.351-2.246c.852.118 1.627.447 2.279.944l-1.59 1.59c-.214-.127-.444-.226-.689-.288v-2.246zm0 9.691v-2.252c.239-.063.468-.152.677-.275l1.588 1.589c-.651.488-1.419.82-2.265.938zm3.234-1.882l-1.601-1.603c.124-.209.227-.434.291-.676h2.243c-.12.847-.439 1.629-.933 2.279zm-1.308-3.63c-.063-.244-.159-.474-.283-.687l1.593-1.593c.493.653.818 1.429.936 2.278l-2.246.002z" transform="translate(-270 -564) translate(270 564)"/>
                <path d="M98.125 20.451l-1.5-1.433.003-4.521c.001-1.187-.438-2.331-1.233-3.211L89.85 5.145v-.003c-.027-1.276-.943-2.354-2.197-2.589-6.593-1.239-27.049-4.442-43.24-.092C34.41 5.148 24.24 10.557 24.24 10.557s-17.66 2.25-21.892 7.766C.874 20.243.256 22.765.032 25.037c-.313 3.175 1.775 6.074 4.886 6.775l1.633.368c-.014-.089-.035-.176-.046-.268-.054-.416-.081-.804-.081-1.177 0-5.169 4.206-9.374 9.375-9.374 5.17 0 9.376 4.205 9.376 9.374 0 .271-.018.533-.04.798-.027.319-.072.633-.131.941l47.323.096c-.043-.218-.086-.435-.114-.658-.054-.416-.081-.804-.081-1.177 0-5.169 4.206-9.374 9.375-9.374 5.17 0 9.376 4.205 9.376 9.374 0 .271-.018.533-.04.798-.03.365-.09.723-.162 1.074l.646.001 2.692-1.475c2.808-1.537 4.602-4.438 4.723-7.636l.054-1.399c.022-.618-.221-1.216-.671-1.647zm-64.582-9.258l.724-2.893s10.961-5.734 29.306-5.11v8.549l-29.381 2.318s.158-1.834-.649-2.864zm47.078-.798l-13.815 1.09V3.37c4.543.33 9.48 1.047 14.779 2.327.536.129.966.527 1.137 1.051.172.524.06 1.1-.297 1.52l-1.804 2.127z" transform="translate(-270 -564) translate(270 564)"/>
            </g>
        </g>
    </g>
</svg>
