<svg xmlns="http://www.w3.org/2000/svg" width="30" height="20" viewBox="0 0 30 20">
    <g fill="none" fill-rule="evenodd">
        <g fill="#62619A" fill-rule="nonzero">
            <g>
                <path d="M29.854 9.146l-1-1C28.76 8.053 28.633 8 28.5 8H27c-.276 0-.5.224-.5.5V11h-1V7.5c0-.276-.224-.5-.5-.5h-3.233l-1.85-2.777c-.093-.14-.25-.224-.417-.223h-3V3H20c.276 0 .5-.224.5-.5v-2c0-.276-.224-.5-.5-.5H10c-.276 0-.5.224-.5.5v2c0 .276.224.5.5.5h3.5v1h-3c-.167 0-.323.083-.416.223L8.233 7H5.5c-.276 0-.5.224-.5.5v3H4v-3c0-.276-.224-.5-.5-.5h-2c-.167 0-.323.083-.416.223l-1 1.5C.029 8.805 0 8.9 0 9v1.5c0 .099.03.195.084.277L1 12.15v4.35c0 .276.224.5.5.5h2c.276 0 .5-.224.5-.5v-3h1v3c0 .276.224.5.5.5h2.732l1.85 2.777c.094.14.25.223.418.223H25c.276 0 .5-.224.5-.5V15h1v3.5c0 .276.224.5.5.5h1.5c.133 0 .26-.053.354-.146l1-1c.093-.094.146-.221.146-.354v-8c0-.133-.053-.26-.146-.354zM3 11v5H2v-4c0-.099-.03-.195-.084-.277L1 10.35v-1.2L1.768 8H3v3zm2 1.5H4v-1h1v1zM10.5 2V1h9v1h-9zm5 1v1h-1V3h1zm7 16H10.768l-1.85-2.777c-.094-.14-.25-.223-.418-.223H6V8h2.5c.167 0 .323-.083.416-.223L10.767 5h8.466l1.85 2.777c.093.14.25.224.417.223h1v11zm2-7.5V19h-1V8h1v3.5zm2 2.5h-1v-2h1v2zm2.5 3.293l-.707.707H27.5V9h.793l.707.707v7.586z" transform="translate(-148 -2305) translate(148 2305)"/>
            </g>
        </g>
    </g>
</svg>
