<svg xmlns="http://www.w3.org/2000/svg" width="23" height="20" viewBox="0 0 23 20">
    <g fill="none" fill-rule="evenodd">
        <g fill="#62619A" fill-rule="nonzero">
            <g>
                <path d="M11.916 2.315H3.664c-.256 0-.466.21-.466.466v5.454c0 .257.21.467.466.467h8.252c.256 0 .466-.21.466-.467V2.781c0-.257-.21-.466-.466-.466zm-.466 5.454H4.13V3.247h7.32V7.77z" transform="translate(-148 -2417) translate(148 2417)"/>
                <path d="M21.78 19.051h-7.813v-7.459h.76c.69 0 1.25.564 1.245 1.254v1.3c0 1.367 1.105 2.472 2.47 2.472 1.367 0 2.472-1.105 2.472-2.471V6.772c0-.765-.285-1.502-.807-2.066L16.462.552l-.7.616 2.825 3.221c-1.02.173-1.71 1.138-1.538 2.159.15.904.932 1.566 1.85 1.566.388-.004.765-.121 1.082-.345v6.378c0 .848-.69 1.538-1.538 1.538-.849 0-1.539-.69-1.539-1.538v-1.292c.005-1.207-.97-2.19-2.172-2.195h-.765V1.974c0-1.063-.857-1.944-1.92-1.944H3.385c-1.063 0-1.912.886-1.912 1.944v17.077H.466c-.256 0-.466.21-.466.466 0 .257.21.467.466.467h21.32c.256 0 .466-.21.466-.467 0-.256-.21-.466-.471-.466zM18.9 7.177c-.522 0-.942-.424-.942-.942 0-.517.424-.941.942-.941.522 0 .941.424.941.941 0 .518-.424.942-.941.942zm-5.865 11.874H2.405V1.974c0-.55.43-1.011.98-1.011h8.662c.55 0 .988.466.988 1.011v17.077z" transform="translate(-148 -2417) translate(148 2417)"/>
            </g>
        </g>
    </g>
</svg>
