<svg xmlns="http://www.w3.org/2000/svg" width="21" height="22" viewBox="0 0 21 22">
    <g fill="none" fill-rule="evenodd">
        <g fill="#62619A" fill-rule="nonzero" stroke="#62609C" stroke-width=".25">
            <g>
                <path d="M.092 1.315c-.001-.005.001.005 0 0h0zM18.435 14.443c-.65-.57-1.464-.823-2.294-.714l-8.867 1.164-.35-3.394c-.162-1.875-.598-3.712-1.297-5.46l-.312-.782C5.069 4.64 4.6 4.16 4.022 3.896c.255-.566.292-1.206.095-1.803l-.006-.017C3.618.842 2.44.027 1.114 0 .789-.006.482.134.276.387c-.207.252-.285.58-.214.897l2.943 12.847c.036.158.193.258.352.223.158-.035.258-.192.223-.351L1.567 4.959c-.04-.179.004-.363.12-.506.117-.142.29-.22.473-.217l.843.017c.174.003.344.03.506.077l.024.008c.554.169 1.013.58 1.235 1.137l.313.783c.677 1.695 1.1 3.476 1.257 5.294v.005l.352 3.412-.558.074c-.378-.509-1.033-.777-1.69-.63-.89.198-1.453 1.084-1.255 1.975v.005l.721 2.994c.087.36.407.613.779.613h11.31c.834 0 1.515-.674 1.526-1.506h.687c.752 0 1.363-.657 1.363-1.464 0-1.01-.414-1.952-1.138-2.587zM3.46 3.713c-.145-.029-.293-.045-.444-.048l-.843-.018c-.319-.007-.622.114-.848.334L.635 1.154C.605 1.014.64.87.731.76.822.648.958.586 1.1.589c1.089.022 2.053.688 2.46 1.696.154.475.116.985-.102 1.428zm1.228 15.699h0c-.099 0-.183-.067-.206-.163l-.72-2.991c-.127-.573.236-1.143.81-1.27.573-.129 1.145.234 1.273.81l.84 3.614H4.688zm13.523-1.507H14.89c-.162 0-.294.132-.294.294 0 .163.132.295.294.295h2.043c-.01.508-.427.918-.938.918H7.29l-.214-.918h6.447c.163 0 .295-.132.295-.295 0-.162-.132-.294-.295-.294H6.938l-.52-2.237c-.005-.023-.01-.045-.017-.067l9.816-1.289c.66-.086 1.31.117 1.83.574.596.523.938 1.304.938 2.144 0 .482-.348.875-.775.875z" transform="translate(-147 -2527) translate(148 2528)"/>
            </g>
        </g>
    </g>
</svg>
