<svg xmlns="http://www.w3.org/2000/svg" width="30" height="30" viewBox="0 0 30 30">
    <g fill="none" fill-rule="evenodd">
        <g fill="#FFF" fill-rule="nonzero">
            <g>
                <path d="M.08 2.75l2 3.498c.067.118.18.204.312.237l1.865.466 6.397 6.397.707-.706-6.497-6.497c-.064-.064-.144-.11-.232-.132l-1.792-.45-1.702-2.98 1.459-1.459 2.981 1.704.45 1.792c.022.088.068.168.132.232l6.497 6.497.706-.707-6.397-6.397L6.5 2.381c-.033-.132-.119-.245-.237-.313L2.765.07c-.196-.11-.441-.078-.6.08l-2 2c-.16.158-.195.404-.085.6zM20.859 9.85L9.864 20.845 9.157 20.138 20.152 9.143zM7.94 21.234c-.091-.15-.254-.243-.43-.243H4.513c-.175 0-.338.092-.428.243l-1.5 2.499c-.094.158-.094.356 0 .514l1.5 2.5c.09.15.253.241.428.241h2.999c.175 0 .338-.092.428-.242l1.5-2.499c.095-.158.095-.356 0-.514l-1.5-2.5zm-.712 4.755H4.795l-1.2-2 1.2-1.998h2.433l1.2 1.999-1.2 1.999z" transform="translate(-1077 -1060) translate(1077 1060)"/>
                <path d="M24.003 11.995C27.304 12.007 29.99 9.34 30 6.04c.002-.503-.06-1.003-.183-1.49-.067-.268-.338-.431-.606-.364-.088.022-.168.067-.232.131l-3.111 3.109-2.469-.823-.823-2.467 3.111-3.112c.195-.195.195-.512 0-.707-.065-.064-.146-.11-.234-.132-3.201-.81-6.453 1.127-7.264 4.328-.123.486-.184.985-.183 1.486.001.394.042.786.122 1.171L7.183 18.114c-.386-.08-.778-.12-1.171-.121-3.313 0-5.998 2.685-5.998 5.997s2.685 5.997 5.998 5.997c3.312 0 5.997-2.685 5.997-5.997-.001-.394-.042-.786-.122-1.171l2.62-2.62 1.147 1.146c.195.195.511.195.706 0l.25-.25c.22-.218.574-.218.793 0 .219.218.22.572 0 .791v.001l-.25.25c-.195.195-.195.512 0 .707l5.962 5.962c1.568 1.582 4.122 1.593 5.704.025 1.582-1.568 1.594-4.122.026-5.704l-.026-.026-5.962-5.961c-.195-.196-.511-.196-.706 0l-.25.25c-.22.217-.573.217-.793 0-.219-.219-.22-.573 0-.792v-.001l.25-.25c.195-.195.195-.512 0-.707l-1.146-1.146 2.62-2.62c.386.08.778.12 1.171.121zm1.964 16.993c-.363-.001-.723-.067-1.063-.194l3.903-3.904c.59 1.567-.203 3.315-1.77 3.904-.342.128-.705.194-1.07.194zm-5.662-12.99c-.553.66-.467 1.645.194 2.198.58.486 1.425.486 2.005-.002l5.608 5.614c.061.061.118.125.173.19l-4.273 4.274c-.065-.055-.13-.112-.19-.173l-5.614-5.613c.554-.66.467-1.645-.193-2.198-.58-.486-1.426-.486-2.006.001l-.8-.8 4.296-4.288.8.798zm2.018-5.026L10.986 22.307c-.125.124-.175.305-.132.475.685 2.693-.942 5.431-3.634 6.117-2.693.685-5.432-.942-6.117-3.634-.686-2.693.941-5.432 3.634-6.117.815-.208 1.668-.208 2.483 0 .17.041.35-.009.474-.132L19.03 7.68c.124-.125.174-.305.132-.475-.681-2.661.924-5.37 3.585-6.052.503-.128 1.023-.178 1.541-.145l-2.636 2.637c-.134.134-.18.332-.121.511l1 2.999c.05.149.167.266.316.316l2.999 1c.179.059.377.012.51-.121l2.637-2.637c.006.096.01.19.01.284.013 2.746-2.202 4.984-4.948 4.998-.424.002-.847-.05-1.259-.156-.17-.042-.35.008-.474.132h.002z" transform="translate(-1077 -1060) translate(1077 1060)"/>
                <path d="M25.856 25.136L25.15 25.843 20.152 20.845 20.859 20.138z" transform="translate(-1077 -1060) translate(1077 1060)"/>
            </g>
        </g>
    </g>
</svg>
