<svg xmlns="http://www.w3.org/2000/svg" width="48" height="30" viewBox="0 0 48 30">
    <g fill="none" fill-rule="evenodd">
        <g fill="#FFF" fill-rule="nonzero">
            <g>
                <path d="M10.661 26.242h-.915c-1.24 0-2.25 1.01-2.25 2.25v.75c0 .415.335.75.75.75h14.996c.415 0 .75-.335.75-.75v-.75c0-1.24-1.01-2.25-2.25-2.25h-.915l-.375-1.497h8.784c1.24 0 2.25-1.009 2.25-2.25V2.258c0-1.24-1.01-2.25-2.25-2.25H2.252c-1.24 0-2.25 1.01-2.25 2.25v20.238c0 1.241 1.01 2.25 2.25 2.25h8.784l-.375 1.497zm-.915 1.5h11.996c.414 0 .75.336.75.75H8.996c0-.414.336-.75.75-.75zm9.536-1.5h-7.076l.375-1.497h6.326l.375 1.497zM2.252 1.508h26.985c.414 0 .75.337.75.75v17.988H1.502V2.258c0-.414.336-.75.75-.75zm-.75 20.988v-.75H15.76c-.414 0-.745.336-.745.75 0 .415.338.75.753.75.414 0 .75-.335.75-.75 0-.414-.336-.75-.75-.75h14.22v.75c0 .415-.336.75-.75.75H2.252c-.414 0-.75-.335-.75-.75zM45.748.007H35.247c-1.24 0-2.25 1.01-2.25 2.25v25.485c0 1.241 1.01 2.25 2.25 2.25h10.5c1.241 0 2.25-1.009 2.25-2.25V2.258c0-1.24-1.009-2.25-2.25-2.25zM34.497 4.505h12v.749h-12v-.748zm.75-2.996h10.5c.415 0 .75.335.75.75v.747h-12v-.748c0-.414.336-.75.75-.75zm10.5 26.985h-10.5c-.414 0-.75-.336-.75-.75V6.753h12v20.99c0 .414-.335.75-.75.75z" transform="translate(-696 -1060) translate(696 1060)"/>
                <path d="M40.498 15.753c1.24 0 2.25-1.01 2.25-2.25s-1.01-2.25-2.25-2.25-2.25 1.01-2.25 2.25 1.01 2.25 2.25 2.25zm0-3c.414 0 .75.336.75.75s-.336.75-.75.75-.75-.336-.75-.75.336-.75.75-.75zM43.498 20.255h-6c-.415 0-.75.335-.75.75 0 .414.335.75.75.75h6c.415 0 .75-.336.75-.75 0-.415-.335-.75-.75-.75zM43.498 22.505h-6c-.415 0-.75.335-.75.75 0 .414.335.75.75.75h6c.415 0 .75-.336.75-.75 0-.415-.335-.75-.75-.75zM43.498 24.755h-6c-.415 0-.75.335-.75.75 0 .414.335.75.75.75h6c.415 0 .75-.336.75-.75 0-.415-.335-.75-.75-.75z" transform="translate(-696 -1060) translate(696 1060)"/>
            </g>
        </g>
    </g>
</svg>
