<svg xmlns="http://www.w3.org/2000/svg" width="37" height="30" viewBox="0 0 37 30">
    <g fill="none" fill-rule="evenodd">
        <g fill="#FFF" fill-rule="nonzero">
            <g transform="translate(-330 -1060) translate(330 1060)">
                <path d="M35.48 15.637L31.386 1.333C31.163.545 30.445.002 29.626 0h-4.338c-.649 0-1.25.343-1.58.902-.329.56-.338 1.251-.023 1.82l.615 1.114-2.916 1.25V2.444c0-1.012-.82-1.833-1.833-1.833H12.22c-1.013 0-1.833.82-1.833 1.833v4.888c0 .337-.274.61-.611.61h-6.11c-1.012 0-1.833.821-1.833 1.834v6.11c0 1.012.82 1.832 1.833 1.832h1.833v1.222C2.462 18.94 0 21.402 0 24.44c0 3.036 2.462 5.498 5.499 5.498h12.22c3.036 0 5.498-2.462 5.498-5.499 0-3.037-2.462-5.499-5.499-5.499v-1.222h1.833c1.008-.017 1.92-.599 2.36-1.506l3.143-4.718 2.81-1.202 3.939 7.139c-.017.095-.027.19-.032.287 0 .02.005.038.005.057-.068.029-.13.07-.183.122l-6.049 6.048c-.238.24-.238.626 0 .864l1.728 1.729.432.432c1.909 1.83 4.926 1.81 6.81-.045 1.885-1.854 1.954-4.87.155-6.809.995-.184 1.771-.964 1.951-1.96.18-.995-.274-1.997-1.14-2.519zM20.162 2.444v10.081l-5.734-2.39c-.227-.094-.375-.316-.375-.563v-7.74h5.498c.338 0 .611.274.611.612zm1.833 21.995c-.002 2.361-1.916 4.274-4.277 4.277H5.498c-2.361 0-4.276-1.915-4.276-4.277s1.915-4.277 4.277-4.277h12.22c2.36.003 4.274 1.916 4.276 4.277zm-5.499-5.499H6.721v-1.222h9.775v1.222zm.611-2.444H3.666c-.338 0-.611-.273-.611-.61v-6.11c0-.338.273-.611.61-.611h6.11c1.013 0 1.834-.821 1.834-1.833V2.444c0-.338.273-.611.61-.611h.612v7.74c-.002.74.444 1.407 1.127 1.691l6.204 2.585v2.036c0 .338-.273.611-.61.611h-2.445zm7.3-6.054c-.11.046-.203.124-.268.223l-2.755 4.126V6.458c.083-.057.17-.108.26-.153l4.276-1.833c.804-.345 1.73-.234 2.43.29.7.523 1.067 1.38.964 2.248-.104.868-.662 1.615-1.466 1.96l-3.442 1.472zm4.548-.696c1.567-1.062 2.067-3.142 1.156-4.8-.912-1.659-2.936-2.35-4.672-1.597l-.01.004-.672-1.222c-.106-.189-.104-.42.006-.606.109-.187.309-.302.525-.303h4.338c.273 0 .511.181.586.443l3.896 13.62c-.637.027-1.237.303-1.672.768l-3.48-6.307zm3.069 9.447l.864.865-5.184 5.184-.864-.864 5.184-5.185zm1.728 6.913c-1.432 1.43-3.752 1.43-5.184 0l5.184-5.184c1.432 1.431 1.432 3.752 0 5.184zm.463-7.166c-.675 0-1.222-.547-1.222-1.222 0-.674.547-1.222 1.222-1.222.675 0 1.222.548 1.222 1.222 0 .675-.547 1.222-1.222 1.222z"/>
                <circle cx="26.883" cy="6.721" r="1"/>
                <path d="M14.663 24.44c0 1.686 1.368 3.054 3.055 3.054 1.688 0 3.055-1.368 3.055-3.055s-1.367-3.055-3.055-3.055c-1.686.002-3.052 1.369-3.055 3.055zm4.888 0c0 1.011-.82 1.832-1.833 1.832-1.012 0-1.833-.82-1.833-1.833 0-1.012.821-1.833 1.833-1.833 1.013 0 1.833.82 1.833 1.833zM5.499 21.384c-1.687 0-3.055 1.368-3.055 3.055s1.368 3.055 3.055 3.055 3.055-1.368 3.055-3.055c-.002-1.686-1.369-3.053-3.055-3.055zm0 4.888c-1.012 0-1.833-.82-1.833-1.833 0-1.012.82-1.833 1.833-1.833 1.012 0 1.833.82 1.833 1.833 0 1.012-.82 1.833-1.833 1.833zM12.83 23.828h-2.443c-.338 0-.611.274-.611.611 0 .338.273.611.61.611h2.445c.337 0 .61-.273.61-.61 0-.338-.273-.612-.61-.612z"/>
            </g>
        </g>
    </g>
</svg>
