<?xml version="1.0" encoding="UTF-8"?>
<svg width="32px" height="32px" viewBox="0 0 32 32" version="1.1" xmlns="http://www.w3.org/2000/svg" xmlns:xlink="http://www.w3.org/1999/xlink">
    <!-- Generator: Sketch 63.1 (92452) - https://sketch.com -->
    <title>Favicon</title>
    <desc>Created with Sketch.</desc>
    <defs>
        <path d="M7.62556947,0.418791946 L7.46925191,0.568791946 C6.92593588,1.09020134 6.92519695,1.95825503 7.46757252,2.48060403 L7.46757252,2.48060403 L9.3953771,4.33704698 L1.60039084,4.33704698 C1.4225771,4.33704698 1.24946565,4.39395973 1.10644885,4.4995302 L1.10644885,4.4995302 L0.832842748,4.7014094 L0.395126718,5.02436242 C0.101636641,5.2409396 -0.019951145,5.62463087 0.10439084,5.96731544 L0.10439084,5.96731544 C1.15427786,8.86127517 3.55419237,11.1291946 6.56258321,12.0451678 L6.56258321,12.0451678 L3.23752672,8.71275168 L2.41469313,7.89067114 C2.20033588,7.67651007 2.35215267,7.31033557 2.65524885,7.31033557 L2.65524885,7.31033557 L8.9584,7.31033557 L7.47079695,8.74080537 C6.92781679,9.26302013 6.92828702,10.1315436 7.47187176,10.6532215 L7.47187176,10.6532215 L7.56887328,10.7463087 C8.08269924,11.239396 8.89451603,11.239396 9.40834198,10.7463758 L9.40834198,10.7463758 L14.3349985,6.0185906 C14.5960427,5.76805369 14.5962443,5.35080537 14.3353344,5.10006711 L14.3353344,5.10006711 L9.46591145,0.419530201 C9.20889771,0.172483221 8.87711756,0.0489261745 8.5453374,0.0489261745 L8.5453374,0.0489261745 C8.21396031,0.0489261745 7.88258321,0.172214765 7.62556947,0.418791946 L7.62556947,0.418791946 Z" id="path-1"></path>
    </defs>
    <g id="Favicon" stroke="none" stroke-width="1" fill="none" fill-rule="evenodd">
        <g id="Group" transform="translate(6.000000, 6.000000)">
            <path d="M19.9799096,10.6354228 C19.552673,15.4223356 15.609534,19.2226711 10.6930211,19.5475034 L19.9799096,10.6354228 Z" id="Fill-18" fill="#7EB441"></path>
            <path d="M5.24025268e-14,8.91201342 C0.427236641,4.12510067 4.37037557,0.324765101 9.28688855,3.46389584e-14 L5.24025268e-14,8.91201342 Z" id="Fill-19" fill="#62619A"></path>
            <path d="M19.6907053,6.35951678 C18.6408183,3.46555705 16.2409038,1.19763758 13.2325802,0.281597315 L16.5575023,3.61401342 L17.3804031,4.43616107 C17.5947603,4.65032215 17.4429435,5.01649664 17.1397802,5.01649664 L10.8366962,5.01649664 L12.3242321,3.58595973 C12.8672794,3.06381208 12.8668092,2.19522148 12.3232244,1.67354362 L12.2262229,1.58045638 C11.7123969,1.08730201 10.900513,1.08730201 10.386687,1.58045638 L5.46009771,6.30824161 C5.19905344,6.55877852 5.19891908,6.97595973 5.45976183,7.22669799 L10.3291847,11.9072349 C10.8429435,12.4011275 11.6552977,12.401396 12.1695267,11.9080403 L12.3258443,11.7580403 C12.8691603,11.2365638 12.8698992,10.3685101 12.3275237,9.84616107 L10.3997191,7.98971812 L18.1947053,7.98971812 C18.3725191,7.98971812 18.5456305,7.93273826 18.6886473,7.8272349 L18.9622534,7.6253557 L19.3999695,7.30240268 C19.6934595,7.08589262 19.8150473,6.70220134 19.6907053,6.35951678" id="Fill-20" fill="#62619A"></path>
            <g id="Group-214" transform="translate(0.470216, 7.084282)">
                <mask id="mask-2" fill="white">
                    <use xlink:href="#path-1"></use>
                </mask>
                <g id="Clip-23"></g>
                <polygon id="Fill-22" fill="#7EB441" mask="url(#mask-2)" points="-0.019951145 12.0451678 14.5962443 12.0451678 14.5962443 -0.0746308725 -0.019951145 -0.0746308725"></polygon>
                <path d="M13.9426528,6.04707383 C13.9426528,7.88150336 13.1984147,9.54230872 11.9951658,10.7444564 C11.3935414,11.3455302 10.6771139,11.8319732 9.88162076,12.1681477 L9.88162076,12.1123087 L4.70527267,12.1123087 L4.70527267,12.1681477 C3.90971237,11.8319732 3.19335206,11.3455302 2.59172763,10.7444564 C1.38847878,9.54230872 0.644240611,7.88150336 0.644240611,6.04707383 C0.644240611,2.37814765 3.62119328,-0.596080537 7.29341313,-0.596080537 C10.9657002,-0.596080537 13.9426528,2.37814765 13.9426528,6.04707383" id="Fill-24" fill="#7EB441" mask="url(#mask-2)"></path>
                <path d="M13.9076544,6.04707383 C13.9076544,7.87183893 13.1673124,9.52391946 11.970378,10.7197584 C11.3719108,11.3176107 10.6593124,11.8015034 9.86798412,12.1359329 L9.86798412,12.1123087 L4.71884214,12.1123087 L4.71884214,12.1359329 C3.92758107,11.8015034 3.21491542,11.3176107 2.61651542,10.7197584 C1.41951389,9.52391946 0.679239084,7.87183893 0.679239084,6.04707383 C0.679239084,2.39747651 3.64047267,-0.561114094 7.29341313,-0.561114094 C10.9463536,-0.561114094 13.9076544,2.39747651 13.9076544,6.04707383" id="Fill-25" fill="#7EB441" mask="url(#mask-2)"></path>
                <path d="M13.8726559,6.04707383 C13.8726559,7.8621745 13.1362773,9.50546309 11.9456574,10.6949933 C11.3503475,11.2897584 10.6415108,11.7711007 9.85434748,12.1037181 C9.46083298,12.2700268 9.04763603,12.3991544 8.61939176,12.4867383 L8.61939176,12.1123087 L5.96750168,12.1123087 L5.96750168,12.4867383 C5.53919023,12.3991544 5.12606046,12.2700268 4.73254595,12.1037181 C3.9453826,11.7711007 3.23654595,11.2897584 2.64123603,10.6949933 C1.45061618,9.50546309 0.714237557,7.8621745 0.714237557,6.04707383 C0.714237557,2.41680537 3.65981924,-0.526147651 7.29341313,-0.526147651 C10.927007,-0.526147651 13.8726559,2.41680537 13.8726559,6.04707383" id="Fill-26" fill="#7EB441" mask="url(#mask-2)"></path>
                <path d="M13.8376574,6.04707383 C13.8376574,7.85251007 13.105175,9.48714094 11.9208696,10.6702953 C11.3287841,11.261906 10.6237093,11.7406309 9.84071084,12.0715034 C9.44927878,12.2369396 9.0383658,12.365396 8.61233832,12.452443 L8.61233832,12.1123087 L5.97455511,12.1123087 L5.97455511,12.452443 C5.54852763,12.365396 5.13761466,12.2369396 4.74611542,12.0715034 C3.96318412,11.7406309 3.25810931,11.261906 2.66595664,10.6702953 C1.4816513,9.48714094 0.749236031,7.85251007 0.749236031,6.04707383 C0.749236031,2.43606711 3.6791658,-0.491181208 7.29341313,-0.491181208 C10.9077276,-0.491181208 13.8376574,2.43606711 13.8376574,6.04707383" id="Fill-27" fill="#7EB442" mask="url(#mask-2)"></path>
                <path d="M13.8026589,6.04707383 C13.8026589,9.63875168 10.8883811,12.5502953 7.29341313,12.5502953 C3.69844519,12.5502953 0.784234504,9.63875168 0.784234504,6.04707383 C0.784234504,2.45539597 3.69844519,-0.456214765 7.29341313,-0.456214765 C10.8883811,-0.456214765 13.8026589,2.45539597 13.8026589,6.04707383" id="Fill-28" fill="#7FB442" mask="url(#mask-2)"></path>
                <path d="M13.7676605,6.04707383 C13.7676605,9.61942282 10.8691017,12.515396 7.29341313,12.515396 C3.71779176,12.515396 0.819165802,9.61942282 0.819165802,6.04707383 C0.819165802,2.47465772 3.71779176,-0.421248322 7.29341313,-0.421248322 C10.8691017,-0.421248322 13.7676605,2.47465772 13.7676605,6.04707383" id="Fill-29" fill="#7FB542" mask="url(#mask-2)"></path>
                <path d="M13.7326956,6.04707383 C13.7326956,9.60009396 10.8497215,12.4803624 7.29344672,12.4803624 C3.73717191,12.4803624 0.854197863,9.60009396 0.854197863,6.04707383 C0.854197863,2.49405369 3.73717191,-0.386281879 7.29344672,-0.386281879 C10.8497215,-0.386281879 13.7326956,2.49405369 13.7326956,6.04707383" id="Fill-30" fill="#7FB543" mask="url(#mask-2)"></path>
                <path d="M13.6976971,6.04707383 C13.6976971,9.5807651 10.830375,12.4454631 7.29344672,12.4454631 C3.7564513,12.4454631 0.889196336,9.5807651 0.889196336,6.04707383 C0.889196336,2.51331544 3.7564513,-0.351315436 7.29344672,-0.351315436 C10.830375,-0.351315436 13.6976971,2.51331544 13.6976971,6.04707383" id="Fill-31" fill="#7FB543" mask="url(#mask-2)"></path>
                <path d="M13.6626986,6.04707383 C13.6626986,9.56143624 10.8110956,12.4104295 7.29344672,12.4104295 C3.77579786,12.4104295 0.924194809,9.56143624 0.924194809,6.04707383 C0.924194809,2.5326443 3.77579786,-0.316348993 7.29344672,-0.316348993 C10.8110956,-0.316348993 13.6626986,2.5326443 13.6626986,6.04707383" id="Fill-32" fill="#80B544" mask="url(#mask-2)"></path>
                <path d="M13.6277002,6.04707383 C13.6277002,9.5421745 10.791749,12.3755302 7.29344672,12.3755302 C3.79507725,12.3755302 0.959193282,9.5421745 0.959193282,6.04707383 C0.959193282,2.55190604 3.79507725,-0.28138255 7.29344672,-0.28138255 C10.791749,-0.28138255 13.6277002,2.55190604 13.6277002,6.04707383" id="Fill-33" fill="#80B544" mask="url(#mask-2)"></path>
                <path d="M13.5927017,6.04707383 C13.5927017,9.52284564 10.7724024,12.3404966 7.29344672,12.3404966 C3.81449099,12.3404966 0.994191756,9.52284564 0.994191756,6.04707383 C0.994191756,2.5712349 3.81449099,-0.246416107 7.29344672,-0.246416107 C10.7724024,-0.246416107 13.5927017,2.5712349 13.5927017,6.04707383" id="Fill-34" fill="#80B544" mask="url(#mask-2)"></path>
                <path d="M13.5577032,6.04707383 C13.5577032,9.50351678 10.7531231,12.3055973 7.29344672,12.3055973 C3.83377038,12.3055973 1.02919023,9.50351678 1.02919023,6.04707383 C1.02919023,2.59056376 3.83377038,-0.211449664 7.29344672,-0.211449664 C10.7531231,-0.211449664 13.5577032,2.59056376 13.5577032,6.04707383" id="Fill-35" fill="#81B645" mask="url(#mask-2)"></path>
                <path d="M13.5227047,6.04707383 C13.5227047,9.48425503 10.7337765,12.2705638 7.29344672,12.2705638 C3.85311695,12.2705638 1.0641887,9.48425503 1.0641887,6.04707383 C1.0641887,2.60989262 3.85311695,-0.176483221 7.29344672,-0.176483221 C10.7337765,-0.176483221 13.5227047,2.60989262 13.5227047,6.04707383" id="Fill-36" fill="#81B645" mask="url(#mask-2)"></path>
                <path d="M13.4877063,6.04707383 C13.4877063,9.46492617 10.7144299,12.2356644 7.29344672,12.2356644 C3.87239634,12.2356644 1.09918718,9.46492617 1.09918718,6.04707383 C1.09918718,2.62915436 3.87239634,-0.141516779 7.29344672,-0.141516779 C10.7144299,-0.141516779 13.4877063,2.62915436 13.4877063,6.04707383" id="Fill-37" fill="#81B646" mask="url(#mask-2)"></path>
                <path d="M13.4527078,6.04707383 C13.4527078,9.44566443 10.6950834,12.200698 7.29344672,12.200698 C3.8917429,12.200698 1.13418565,9.44566443 1.13418565,6.04707383 C1.13418565,2.64848322 3.8917429,-0.106550336 7.29344672,-0.106550336 C10.6950834,-0.106550336 13.4527078,2.64848322 13.4527078,6.04707383" id="Fill-38" fill="#82B647" mask="url(#mask-2)"></path>
                <path d="M13.4177093,6.04707383 C13.4177093,9.42633557 10.675804,12.1657315 7.29344672,12.1657315 C3.91108947,12.1657315 1.16918412,9.42633557 1.16918412,6.04707383 C1.16918412,2.66774497 3.91108947,-0.0715838926 7.29344672,-0.0715838926 C10.675804,-0.0715838926 13.4177093,2.66774497 13.4177093,6.04707383" id="Fill-39" fill="#82B647" mask="url(#mask-2)"></path>
                <path d="M13.3827108,6.04707383 C13.3827108,9.40700671 10.6564574,12.1307651 7.29344672,12.1307651 C3.93043603,12.1307651 1.2041826,9.40700671 1.2041826,6.04707383 C1.2041826,2.68714094 3.93043603,-0.0366174497 7.29344672,-0.0366174497 C10.6564574,-0.0366174497 13.3827108,2.68714094 13.3827108,6.04707383" id="Fill-40" fill="#82B748" mask="url(#mask-2)"></path>
                <path d="M13.3477124,6.04707383 C13.3477124,9.38767785 10.6371108,12.0957987 7.29344672,12.0957987 C3.94971542,12.0957987 1.23918107,9.38767785 1.23918107,6.04707383 C1.23918107,2.7064698 3.94971542,-0.00165100671 7.29344672,-0.00165100671 C10.6371108,-0.00165100671 13.3477124,2.7064698 13.3477124,6.04707383" id="Fill-41" fill="#83B748" mask="url(#mask-2)"></path>
                <path d="M13.3127139,6.04707383 C13.3127139,9.36834899 10.6177643,12.0608322 7.29344672,12.0608322 C3.96906198,12.0608322 1.27417954,9.36834899 1.27417954,6.04707383 C1.27417954,2.72573154 3.96906198,0.0332483221 7.29344672,0.0332483221 C10.6177643,0.0332483221 13.3127139,2.72573154 13.3127139,6.04707383" id="Fill-42" fill="#83B749" mask="url(#mask-2)"></path>
                <path d="M13.2777154,6.04707383 C13.2777154,9.34902013 10.5984849,12.0258658 7.29344672,12.0258658 C3.98840855,12.0258658 1.30911084,9.34902013 1.30911084,6.04707383 C1.30911084,2.7450604 3.98840855,0.0682147651 7.29344672,0.0682147651 C10.5984849,0.0682147651 13.2777154,2.7450604 13.2777154,6.04707383" id="Fill-43" fill="#84B749" mask="url(#mask-2)"></path>
                <path d="M13.2427505,6.04707383 C13.2427505,9.32975839 10.5791719,11.9908993 7.29341313,11.9908993 C4.00772153,11.9908993 1.3441429,9.32975839 1.3441429,6.04707383 C1.3441429,2.76438926 4.00772153,0.103181208 7.29341313,0.103181208 C10.5791719,0.103181208 13.2427505,2.76438926 13.2427505,6.04707383" id="Fill-44" fill="#84B84A" mask="url(#mask-2)"></path>
                <path d="M13.2077521,6.04707383 C13.2077521,9.31042953 10.5598253,11.9559329 7.29341313,11.9559329 C4.02706809,11.9559329 1.37914137,9.31042953 1.37914137,6.04707383 C1.37914137,2.78365101 4.02706809,0.138147651 7.29341313,0.138147651 C10.5598253,0.138147651 13.2077521,2.78365101 13.2077521,6.04707383" id="Fill-45" fill="#84B84B" mask="url(#mask-2)"></path>
                <path d="M13.1727536,6.04707383 C13.1727536,9.29116779 10.5404788,11.9209664 7.29341313,11.9209664 C4.04641466,11.9209664 1.41413985,9.29116779 1.41413985,6.04707383 C1.41413985,2.80297987 4.04641466,0.173114094 7.29341313,0.173114094 C10.5404788,0.173114094 13.1727536,2.80297987 13.1727536,6.04707383" id="Fill-46" fill="#85B84B" mask="url(#mask-2)"></path>
                <path d="M13.1377551,6.04707383 C13.1377551,9.27183893 10.5211322,11.886 7.29341313,11.886 C4.06569405,11.886 1.44913832,9.27183893 1.44913832,6.04707383 C1.44913832,2.82224161 4.06569405,0.208080537 7.29341313,0.208080537 C10.5211322,0.208080537 13.1377551,2.82224161 13.1377551,6.04707383" id="Fill-47" fill="#85B84C" mask="url(#mask-2)"></path>
                <path d="M13.1027566,6.04707383 C13.1027566,9.25251007 10.5018528,11.8510336 7.29341313,11.8510336 C4.08504061,11.8510336 1.48413679,9.25251007 1.48413679,6.04707383 C1.48413679,2.84157047 4.08504061,0.24304698 7.29341313,0.24304698 C10.5018528,0.24304698 13.1027566,2.84157047 13.1027566,6.04707383" id="Fill-48" fill="#86B94C" mask="url(#mask-2)"></path>
                <path d="M13.0677582,6.04707383 C13.0677582,9.23324832 10.4825063,11.8160671 7.29341313,11.8160671 C4.10432,11.8160671 1.51913527,9.23324832 1.51913527,6.04707383 C1.51913527,2.86089933 4.10432,0.278013423 7.29341313,0.278013423 C10.4825063,0.278013423 13.0677582,2.86089933 13.0677582,6.04707383" id="Fill-49" fill="#86B94D" mask="url(#mask-2)"></path>
                <path d="M13.0327664,6.04707383 C13.0327664,9.21391946 10.4631664,11.7811678 7.29341985,11.7811678 C4.12367328,11.7811678 1.55414046,9.21391946 1.55414046,6.04707383 C1.55414046,2.88016107 4.12367328,0.312979866 7.29341985,0.312979866 C10.4631664,0.312979866 13.0327664,2.88016107 13.0327664,6.04707383" id="Fill-50" fill="#87B94E" mask="url(#mask-2)"></path>
                <path d="M12.9977679,6.04707383 C12.9977679,9.19452349 10.4438198,11.7461342 7.29341985,11.7461342 C4.14301985,11.7461342 1.58913893,9.19452349 1.58913893,6.04707383 C1.58913893,2.89955705 4.14301985,0.347946309 7.29341985,0.347946309 C10.4438198,0.347946309 12.9977679,2.89955705 12.9977679,6.04707383" id="Fill-51" fill="#87B94E" mask="url(#mask-2)"></path>
                <path d="M12.9627695,6.04707383 C12.9627695,9.17526174 10.4245405,11.7112349 7.29341985,11.7112349 C4.16236641,11.7112349 1.62407023,9.17526174 1.62407023,6.04707383 C1.62407023,2.91888591 4.16236641,0.382912752 7.29341985,0.382912752 C10.4245405,0.382912752 12.9627695,2.91888591 12.9627695,6.04707383" id="Fill-52" fill="#88BA4F" mask="url(#mask-2)"></path>
                <path d="M12.927771,6.04707383 C12.927771,9.15593289 10.4051939,11.6762685 7.29341985,11.6762685 C4.1816458,11.6762685 1.6590687,9.15593289 1.6590687,6.04707383 C1.6590687,2.93814765 4.1816458,0.417879195 7.29341985,0.417879195 C10.4051939,0.417879195 12.927771,2.93814765 12.927771,6.04707383" id="Fill-53" fill="#88BA50" mask="url(#mask-2)"></path>
                <path d="M12.8927725,6.04707383 C12.8927725,9.13667114 10.3858473,11.641302 7.29341985,11.641302 C4.20099237,11.641302 1.69406718,9.13667114 1.69406718,6.04707383 C1.69406718,2.95747651 4.20099237,0.452845638 7.29341985,0.452845638 C10.3858473,0.452845638 12.8927725,2.95747651 12.8927725,6.04707383" id="Fill-54" fill="#89BA51" mask="url(#mask-2)"></path>
                <path d="M12.857774,6.04707383 C12.857774,9.11734228 10.3665679,11.6063356 7.29341985,11.6063356 C4.22033893,11.6063356 1.72906565,9.11734228 1.72906565,6.04707383 C1.72906565,2.97673826 4.22033893,0.487812081 7.29341985,0.487812081 C10.3665679,0.487812081 12.857774,2.97673826 12.857774,6.04707383" id="Fill-55" fill="#89BA51" mask="url(#mask-2)"></path>
                <path d="M12.8227756,6.04707383 C12.8227756,9.09801342 10.3472214,11.5713691 7.29341985,11.5713691 C4.2396855,11.5713691 1.76406412,9.09801342 1.76406412,6.04707383 C1.76406412,2.99606711 4.2396855,0.522711409 7.29341985,0.522711409 C10.3472214,0.522711409 12.8227756,2.99606711 12.8227756,6.04707383" id="Fill-56" fill="#8ABB52" mask="url(#mask-2)"></path>
                <path d="M12.7877771,6.04707383 C12.7877771,9.07875168 10.3278748,11.5364027 7.29341985,11.5364027 C4.25896489,11.5364027 1.7990626,9.07875168 1.7990626,6.04707383 C1.7990626,3.01539597 4.25896489,0.557677852 7.29341985,0.557677852 C10.3278748,0.557677852 12.7877771,3.01539597 12.7877771,6.04707383" id="Fill-57" fill="#8ABB53" mask="url(#mask-2)"></path>
                <path d="M12.7528122,6.04707383 C12.7528122,9.05942282 10.3085618,11.5014362 7.29338626,11.5014362 C4.27834504,11.5014362 1.83402748,9.05942282 1.83402748,6.04707383 C1.83402748,3.03465772 4.27834504,0.592644295 7.29338626,0.592644295 C10.3085618,0.592644295 12.7528122,3.03465772 12.7528122,6.04707383" id="Fill-58" fill="#8ABB53" mask="url(#mask-2)"></path>
                <path d="M12.7178137,6.04707383 C12.7178137,9.04009396 10.2892153,11.4664698 7.29338626,11.4664698 C4.29762443,11.4664698 1.86902595,9.04009396 1.86902595,6.04707383 C1.86902595,3.05398658 4.29762443,0.627610738 7.29338626,0.627610738 C10.2892153,0.627610738 12.7178137,3.05398658 12.7178137,6.04707383" id="Fill-59" fill="#8BBC54" mask="url(#mask-2)"></path>
                <path d="M12.6828153,6.04707383 C12.6828153,9.02083221 10.2699359,11.4315034 7.29338626,11.4315034 C4.31697099,11.4315034 1.90402443,9.02083221 1.90402443,6.04707383 C1.90402443,3.07331544 4.31697099,0.662577181 7.29338626,0.662577181 C10.2699359,0.662577181 12.6828153,3.07331544 12.6828153,6.04707383" id="Fill-60" fill="#8CBC55" mask="url(#mask-2)"></path>
                <path d="M12.6478168,6.04707383 C12.6478168,9.00150336 10.2505893,11.3965369 7.29338626,11.3965369 C4.33625038,11.3965369 1.9390229,9.00150336 1.9390229,6.04707383 C1.9390229,3.0926443 4.33625038,0.697543624 7.29338626,0.697543624 C10.2505893,0.697543624 12.6478168,3.0926443 12.6478168,6.04707383" id="Fill-61" fill="#8CBC56" mask="url(#mask-2)"></path>
                <path d="M12.6128183,6.04707383 C12.6128183,8.9821745 10.2312427,11.3615705 7.29338626,11.3615705 C4.35566412,11.3615705 1.97402137,8.9821745 1.97402137,6.04707383 C1.97402137,3.11197315 4.35566412,0.732510067 7.29338626,0.732510067 C10.2312427,0.732510067 12.6128183,3.11197315 12.6128183,6.04707383" id="Fill-62" fill="#8DBC56" mask="url(#mask-2)"></path>
                <path d="M12.5778198,6.04707383 C12.5778198,8.96284564 10.2118962,11.326604 7.29338626,11.326604 C4.37494351,11.326604 2.00901985,8.96284564 2.00901985,6.04707383 C2.00901985,3.1312349 4.37494351,0.76747651 7.29338626,0.76747651 C10.2118962,0.76747651 12.5778198,3.1312349 12.5778198,6.04707383" id="Fill-63" fill="#8DBD57" mask="url(#mask-2)"></path>
                <path d="M12.5428214,6.04707383 C12.5428214,8.94351678 10.1926168,11.2916376 7.29338626,11.2916376 C4.39429008,11.2916376 2.04401832,8.94351678 2.04401832,6.04707383 C2.04401832,3.15056376 4.39429008,0.802442953 7.29338626,0.802442953 C10.1926168,0.802442953 12.5428214,3.15056376 12.5428214,6.04707383" id="Fill-64" fill="#8EBD58" mask="url(#mask-2)"></path>
                <path d="M12.5078229,6.04707383 C12.5078229,8.92425503 10.1732702,11.2566711 7.29338626,11.2566711 C4.41356947,11.2566711 2.07901679,8.92425503 2.07901679,6.04707383 C2.07901679,3.16989262 4.41356947,0.837409396 7.29338626,0.837409396 C10.1732702,0.837409396 12.5078229,3.16989262 12.5078229,6.04707383" id="Fill-65" fill="#8EBD59" mask="url(#mask-2)"></path>
                <path d="M12.4728244,6.04707383 C12.4728244,8.90492617 10.1539237,11.2217047 7.29338626,11.2217047 C4.43291603,11.2217047 2.11401527,8.90492617 2.11401527,6.04707383 C2.11401527,3.18915436 4.43291603,0.872375839 7.29338626,0.872375839 C10.1539237,0.872375839 12.4728244,3.18915436 12.4728244,6.04707383" id="Fill-66" fill="#8FBE5A" mask="url(#mask-2)"></path>
                <path d="M12.437826,6.04707383 C12.437826,8.88559732 10.1345771,11.1867383 7.29338626,11.1867383 C4.4522626,11.1867383 2.14901374,8.88559732 2.14901374,6.04707383 C2.14901374,3.20848322 4.4522626,0.907342282 7.29338626,0.907342282 C10.1345771,0.907342282 12.437826,3.20848322 12.437826,6.04707383" id="Fill-67" fill="#8FBE5A" mask="url(#mask-2)"></path>
                <path d="M12.4028275,6.04707383 C12.4028275,8.86633557 10.1152977,11.1518389 7.29338626,11.1518389 C4.47160916,11.1518389 2.18401221,8.86633557 2.18401221,6.04707383 C2.18401221,3.22781208 4.47160916,0.942308725 7.29338626,0.942308725 C10.1152977,0.942308725 12.4028275,3.22781208 12.4028275,6.04707383" id="Fill-68" fill="#90BE5B" mask="url(#mask-2)"></path>
                <path d="M12.367829,6.04707383 C12.367829,8.84700671 10.0959511,11.1168054 7.29338626,11.1168054 C4.49088855,11.1168054 2.21901069,8.84700671 2.21901069,6.04707383 C2.21901069,3.24707383 4.49088855,0.977275168 7.29338626,0.977275168 C10.0959511,0.977275168 12.367829,3.24707383 12.367829,6.04707383" id="Fill-69" fill="#90BF5C" mask="url(#mask-2)"></path>
                <path d="M12.3328305,6.04707383 C12.3328305,8.82774497 10.0766046,11.081906 7.29338626,11.081906 C4.51023511,11.081906 2.25400916,8.82774497 2.25400916,6.04707383 C2.25400916,3.26640268 4.51023511,1.01224161 7.29338626,1.01224161 C10.0766046,1.01224161 12.3328305,3.26640268 12.3328305,6.04707383" id="Fill-70" fill="#91BF5D" mask="url(#mask-2)"></path>
                <path d="M12.2978321,6.04707383 C12.2978321,8.80841611 10.057258,11.0468725 7.29338626,11.0468725 C4.52958168,11.0468725 2.28900763,8.80841611 2.28900763,6.04707383 C2.28900763,3.28566443 4.52958168,1.04720805 7.29338626,1.04720805 C10.057258,1.04720805 12.2978321,3.28566443 12.2978321,6.04707383" id="Fill-71" fill="#91BF5E" mask="url(#mask-2)"></path>
                <path d="M12.2628336,6.04707383 C12.2628336,8.78902013 10.0379786,11.0119732 7.29338626,11.0119732 C4.54886107,11.0119732 2.32400611,8.78902013 2.32400611,6.04707383 C2.32400611,3.3050604 4.54886107,1.0821745 7.29338626,1.0821745 C10.0379786,1.0821745 12.2628336,3.3050604 12.2628336,6.04707383" id="Fill-72" fill="#92C05E" mask="url(#mask-2)"></path>
                <path d="M12.2278687,6.04707383 C12.2278687,8.76975839 10.0186656,10.9769396 7.29341985,10.9769396 C4.56824122,10.9769396 2.35897099,8.76975839 2.35897099,6.04707383 C2.35897099,3.32438926 4.56824122,1.11714094 7.29341985,1.11714094 C10.0186656,1.11714094 12.2278687,3.32438926 12.2278687,6.04707383" id="Fill-73" fill="#93C05F" mask="url(#mask-2)"></path>
                <path d="M12.1928702,6.04707383 C12.1928702,8.75042953 9.99931908,10.9420403 7.29341985,10.9420403 C4.58758779,10.9420403 2.39396947,8.75042953 2.39396947,6.04707383 C2.39396947,3.34365101 4.58758779,1.15210738 7.29341985,1.15210738 C9.99931908,1.15210738 12.1928702,3.34365101 12.1928702,6.04707383" id="Fill-74" fill="#93C060" mask="url(#mask-2)"></path>
                <path d="M12.1578718,6.04707383 C12.1578718,8.73110067 9.97997252,10.9070067 7.29341985,10.9070067 C4.60686718,10.9070067 2.42896794,8.73110067 2.42896794,6.04707383 C2.42896794,3.36297987 4.60686718,1.18707383 7.29341985,1.18707383 C9.97997252,1.18707383 12.1578718,3.36297987 12.1578718,6.04707383" id="Fill-75" fill="#94C161" mask="url(#mask-2)"></path>
                <path d="M12.1228733,6.04707383 C12.1228733,8.71183893 9.96062595,10.8721074 7.29341985,10.8721074 C4.62621374,10.8721074 2.46396641,8.71183893 2.46396641,6.04707383 C2.46396641,3.38230872 4.62621374,1.22204027 7.29341985,1.22204027 C9.96062595,1.22204027 12.1228733,3.38230872 12.1228733,6.04707383" id="Fill-76" fill="#94C162" mask="url(#mask-2)"></path>
                <path d="M12.0878748,6.04707383 C12.0878748,8.69251007 9.94134656,10.8370738 7.29341985,10.8370738 C4.64549313,10.8370738 2.49896489,8.69251007 2.49896489,6.04707383 C2.49896489,3.40157047 4.64549313,1.25700671 7.29341985,1.25700671 C9.94134656,1.25700671 12.0878748,3.40157047 12.0878748,6.04707383" id="Fill-77" fill="#95C163" mask="url(#mask-2)"></path>
                <path d="M12.0528763,6.04707383 C12.0528763,8.67324832 9.922,10.8021745 7.29341985,10.8021745 C4.66490687,10.8021745 2.53396336,8.67324832 2.53396336,6.04707383 C2.53396336,3.42089933 4.66490687,1.29197315 7.29341985,1.29197315 C9.922,1.29197315 12.0528763,3.42089933 12.0528763,6.04707383" id="Fill-78" fill="#95C264" mask="url(#mask-2)"></path>
                <path d="M12.0178779,6.04707383 C12.0178779,8.65391946 9.90265344,10.7671409 7.29341985,10.7671409 C4.68418626,10.7671409 2.56896183,8.65391946 2.56896183,6.04707383 C2.56896183,3.44016107 4.68418626,1.3269396 7.29341985,1.3269396 C9.90265344,1.3269396 12.0178779,3.44016107 12.0178779,6.04707383" id="Fill-79" fill="#96C264" mask="url(#mask-2)"></path>
                <path d="M11.9828794,6.04707383 C11.9828794,8.6345906 9.88337405,10.7322416 7.29341985,10.7322416 C4.70353282,10.7322416 2.60396031,8.6345906 2.60396031,6.04707383 C2.60396031,3.45948993 4.70353282,1.36190604 7.29341985,1.36190604 C9.88337405,1.36190604 11.9828794,3.45948993 11.9828794,6.04707383" id="Fill-80" fill="#97C265" mask="url(#mask-2)"></path>
                <path d="M11.9478809,6.04707383 C11.9478809,8.61532886 9.86402748,10.6972752 7.29341985,10.6972752 C4.72281221,10.6972752 2.63895878,8.61532886 2.63895878,6.04707383 C2.63895878,3.47881879 4.72281221,1.39687248 7.29341985,1.39687248 C9.86402748,1.39687248 11.9478809,3.47881879 11.9478809,6.04707383" id="Fill-81" fill="#97C366" mask="url(#mask-2)"></path>
                <path d="M11.9128892,6.04707383 C11.9128892,8.596 9.84468763,10.6623087 7.29342656,10.6623087 C4.7421655,10.6623087 2.67396397,8.596 2.67396397,6.04707383 C2.67396397,3.49814765 4.7421655,1.43183893 7.29342656,1.43183893 C9.84468763,1.43183893 11.9128892,3.49814765 11.9128892,6.04707383" id="Fill-82" fill="#98C367" mask="url(#mask-2)"></path>
                <path d="M11.8778907,6.04707383 C11.8778907,8.57667114 9.82534107,10.6273423 7.29342656,10.6273423 C4.76151206,10.6273423 2.70896244,8.57667114 2.70896244,6.04707383 C2.70896244,3.51747651 4.76151206,1.46680537 7.29342656,1.46680537 C9.82534107,1.46680537 11.8778907,3.51747651 11.8778907,6.04707383" id="Fill-83" fill="#98C368" mask="url(#mask-2)"></path>
                <path d="M11.8428922,6.04707383 C11.8428922,8.55734228 9.80606168,10.5923758 7.29342656,10.5923758 C4.78085863,10.5923758 2.74396092,8.55734228 2.74396092,6.04707383 C2.74396092,3.53680537 4.78085863,1.50177181 7.29342656,1.50177181 C9.80606168,1.50177181 11.8428922,3.53680537 11.8428922,6.04707383" id="Fill-84" fill="#99C469" mask="url(#mask-2)"></path>
                <path d="M11.8078937,6.04707383 C11.8078937,8.53801342 9.78671511,10.5574094 7.29342656,10.5574094 C4.80013802,10.5574094 2.77895939,8.53801342 2.77895939,6.04707383 C2.77895939,3.55606711 4.80013802,1.53667114 7.29342656,1.53667114 C9.78671511,1.53667114 11.8078937,3.55606711 11.8078937,6.04707383" id="Fill-85" fill="#9AC46A" mask="url(#mask-2)"></path>
                <path d="M11.7728953,6.04707383 C11.7728953,8.51875168 9.76736855,10.522443 7.29342656,10.522443 C4.81948458,10.522443 2.81395786,8.51875168 2.81395786,6.04707383 C2.81395786,3.57539597 4.81948458,1.57163758 7.29342656,1.57163758 C9.76736855,1.57163758 11.7728953,3.57539597 11.7728953,6.04707383" id="Fill-86" fill="#9AC46B" mask="url(#mask-2)"></path>
                <path d="M11.7379304,6.04707383 C11.7379304,8.49942282 9.74805557,10.4874765 7.29339298,10.4874765 C4.83879756,10.4874765 2.84892275,8.49942282 2.84892275,6.04707383 C2.84892275,3.59465772 4.83879756,1.60660403 7.29339298,1.60660403 C9.74805557,1.60660403 11.7379304,3.59465772 11.7379304,6.04707383" id="Fill-87" fill="#9BC56C" mask="url(#mask-2)"></path>
                <path d="M11.7029319,6.04707383 C11.7029319,8.48009396 9.72870901,10.4525101 7.29339298,10.4525101 C4.85814412,10.4525101 2.88392122,8.48009396 2.88392122,6.04707383 C2.88392122,3.61398658 4.85814412,1.64157047 7.29339298,1.64157047 C9.72870901,1.64157047 11.7029319,3.61398658 11.7029319,6.04707383" id="Fill-88" fill="#9CC56D" mask="url(#mask-2)"></path>
                <path d="M11.6679334,6.04707383 C11.6679334,8.46083221 9.70942962,10.4175436 7.29339298,10.4175436 C4.87749069,10.4175436 2.91891969,8.46083221 2.91891969,6.04707383 C2.91891969,3.63331544 4.87749069,1.67653691 7.29339298,1.67653691 C9.70942962,1.67653691 11.6679334,3.63331544 11.6679334,6.04707383" id="Fill-89" fill="#9CC66D" mask="url(#mask-2)"></path>
                <path d="M11.632935,6.04707383 C11.632935,8.44150336 9.69008305,10.3825772 7.29339298,10.3825772 C4.89683725,10.3825772 2.95391817,8.44150336 2.95391817,6.04707383 C2.95391817,3.65257718 4.89683725,1.71150336 7.29339298,1.71150336 C9.69008305,1.71150336 11.632935,3.65257718 11.632935,6.04707383" id="Fill-90" fill="#9DC66E" mask="url(#mask-2)"></path>
                <path d="M11.5979365,6.04707383 C11.5979365,8.42224161 9.67073649,10.3476107 7.29339298,10.3476107 C4.91611664,10.3476107 2.98891664,8.42224161 2.98891664,6.04707383 C2.98891664,3.67190604 4.91611664,1.7464698 7.29339298,1.7464698 C9.67073649,1.7464698 11.5979365,3.67190604 11.5979365,6.04707383" id="Fill-91" fill="#9DC66F" mask="url(#mask-2)"></path>
                <path d="M11.562938,6.04707383 C11.562938,8.40291275 9.65138992,10.3126443 7.29339298,10.3126443 C4.93546321,10.3126443 3.02391511,8.40291275 3.02391511,6.04707383 C3.02391511,3.6912349 4.93546321,1.78143624 7.29339298,1.78143624 C9.65138992,1.78143624 11.562938,3.6912349 11.562938,6.04707383" id="Fill-92" fill="#9EC770" mask="url(#mask-2)"></path>
                <path d="M11.5279395,6.04707383 C11.5279395,8.38351678 9.63211053,10.2776779 7.29339298,10.2776779 C4.9547426,10.2776779 3.05891359,8.38351678 3.05891359,6.04707383 C3.05891359,3.71056376 4.9547426,1.81640268 7.29339298,1.81640268 C9.63211053,1.81640268 11.5279395,3.71056376 11.5279395,6.04707383" id="Fill-93" fill="#9FC771" mask="url(#mask-2)"></path>
                <path d="M11.4929411,6.04707383 C11.4929411,8.36425503 9.61276397,10.2427114 7.29339298,10.2427114 C4.97408916,10.2427114 3.09391206,8.36425503 3.09391206,6.04707383 C3.09391206,3.72989262 4.97408916,1.85136913 7.29339298,1.85136913 C9.61276397,1.85136913 11.4929411,3.72989262 11.4929411,6.04707383" id="Fill-94" fill="#9FC772" mask="url(#mask-2)"></path>
                <path d="M11.4579426,6.04707383 C11.4579426,8.34492617 9.5934174,10.207745 7.29339298,10.207745 C4.99343573,10.207745 3.12891053,8.34492617 3.12891053,6.04707383 C3.12891053,3.74915436 4.99343573,1.88633557 7.29339298,1.88633557 C9.5934174,1.88633557 11.4579426,3.74915436 11.4579426,6.04707383" id="Fill-95" fill="#A0C873" mask="url(#mask-2)"></path>
                <path d="M11.4229441,6.04707383 C11.4229441,8.32559732 9.57413802,10.1728456 7.29339298,10.1728456 C5.01278229,10.1728456 3.16390901,8.32559732 3.16390901,6.04707383 C3.16390901,3.76848322 5.01278229,1.92130201 7.29339298,1.92130201 C9.57413802,1.92130201 11.4229441,3.76848322 11.4229441,6.04707383" id="Fill-96" fill="#A1C874" mask="url(#mask-2)"></path>
                <path d="M11.3879456,6.04707383 C11.3879456,8.30633557 9.55479145,10.1378121 7.29339298,10.1378121 C5.03206168,10.1378121 3.19890748,8.30633557 3.19890748,6.04707383 C3.19890748,3.78781208 5.03206168,1.95626846 7.29339298,1.95626846 C9.55479145,1.95626846 11.3879456,3.78781208 11.3879456,6.04707383" id="Fill-97" fill="#A1C975" mask="url(#mask-2)"></path>
                <path d="M11.3529472,6.04707383 C11.3529472,8.28700671 9.53544489,10.1029128 7.29339298,10.1029128 C5.05140824,10.1029128 3.23390595,8.28700671 3.23390595,6.04707383 C3.23390595,3.80707383 5.05140824,1.9912349 7.29339298,1.9912349 C9.53544489,1.9912349 11.3529472,3.80707383 11.3529472,6.04707383" id="Fill-98" fill="#A2C976" mask="url(#mask-2)"></path>
                <path d="M11.3179487,6.04707383 C11.3179487,8.26774497 9.51609832,10.0678792 7.29339298,10.0678792 C5.07075481,10.0678792 3.26890443,8.26774497 3.26890443,6.04707383 C3.26890443,3.82640268 5.07075481,2.02620134 7.29339298,2.02620134 C9.51609832,2.02620134 11.3179487,3.82640268 11.3179487,6.04707383" id="Fill-99" fill="#A3C977" mask="url(#mask-2)"></path>
                <path d="M11.2829502,6.04707383 C11.2829502,8.24841611 9.49681893,10.0329799 7.29339298,10.0329799 C5.09010137,10.0329799 3.3039029,8.24841611 3.3039029,6.04707383 C3.3039029,3.84566443 5.09010137,2.06116779 7.29339298,2.06116779 C9.49681893,2.06116779 11.2829502,3.84566443 11.2829502,6.04707383" id="Fill-100" fill="#A3CA78" mask="url(#mask-2)"></path>
                <path d="M11.2479853,6.04707383 C11.2479853,8.22908725 9.47750595,9.99794631 7.29342656,9.99794631 C5.10941435,9.99794631 3.33886779,8.22908725 3.33886779,6.04707383 C3.33886779,3.86499329 5.10941435,2.09613423 7.29342656,2.09613423 C9.47750595,2.09613423 11.2479853,3.86499329 11.2479853,6.04707383" id="Fill-101" fill="#A4CA79" mask="url(#mask-2)"></path>
                <path d="M11.2129869,6.04707383 C11.2129869,8.2098255 9.45809221,9.96304698 7.29342656,9.96304698 C5.12876092,9.96304698 3.37386626,8.2098255 3.37386626,6.04707383 C3.37386626,3.88432215 5.12876092,2.13110067 7.29342656,2.13110067 C9.45809221,2.13110067 11.2129869,3.88432215 11.2129869,6.04707383" id="Fill-102" fill="#A5CA7A" mask="url(#mask-2)"></path>
                <path d="M11.1779884,6.04707383 C11.1779884,8.19049664 9.43881282,9.92801342 7.29342656,9.92801342 C5.14804031,9.92801342 3.40886473,8.19049664 3.40886473,6.04707383 C3.40886473,3.90365101 5.14804031,2.16606711 7.29342656,2.16606711 C9.43881282,2.16606711 11.1779884,3.90365101 11.1779884,6.04707383" id="Fill-103" fill="#A5CB7B" mask="url(#mask-2)"></path>
                <path d="M11.1429899,6.04707383 C11.1429899,8.17110067 9.41946626,9.89311409 7.29342656,9.89311409 C5.16738687,9.89311409 3.44386321,8.17110067 3.44386321,6.04707383 C3.44386321,3.92297987 5.16738687,2.20103356 7.29342656,2.20103356 C9.41946626,2.20103356 11.1429899,3.92297987 11.1429899,6.04707383" id="Fill-104" fill="#A6CB7C" mask="url(#mask-2)"></path>
                <path d="M11.1079915,6.04707383 C11.1079915,8.15183893 9.40018687,9.85808054 7.29342656,9.85808054 C5.18673344,9.85808054 3.47886168,8.15183893 3.47886168,6.04707383 C3.47886168,3.94230872 5.18673344,2.236 7.29342656,2.236 C9.40018687,2.236 11.1079915,3.94230872 11.1079915,6.04707383" id="Fill-105" fill="#A7CC7D" mask="url(#mask-2)"></path>
                <path d="M11.072993,6.04707383 C11.072993,8.13251007 9.38084031,9.82318121 7.29342656,9.82318121 C5.20608,9.82318121 3.51386015,8.13251007 3.51386015,6.04707383 C3.51386015,3.96157047 5.20608,2.27096644 7.29342656,2.27096644 C9.38084031,2.27096644 11.072993,3.96157047 11.072993,6.04707383" id="Fill-106" fill="#A7CC7E" mask="url(#mask-2)"></path>
                <path d="M11.0379945,6.04707383 C11.0379945,8.11324832 9.36149374,9.78814765 7.29342656,9.78814765 C5.22535939,9.78814765 3.54885863,8.11324832 3.54885863,6.04707383 C3.54885863,3.98089933 5.22535939,2.30593289 7.29342656,2.30593289 C9.36149374,2.30593289 11.0379945,3.98089933 11.0379945,6.04707383" id="Fill-107" fill="#A8CC7F" mask="url(#mask-2)"></path>
                <path d="M11.002996,6.04707383 C11.002996,8.09391946 9.34214718,9.75324832 7.29342656,9.75324832 C5.24470595,9.75324832 3.5838571,8.09391946 3.5838571,6.04707383 C3.5838571,4.00016107 5.24470595,2.34089933 7.29342656,2.34089933 C9.34214718,2.34089933 11.002996,4.00016107 11.002996,6.04707383" id="Fill-108" fill="#A9CD80" mask="url(#mask-2)"></path>
                <path d="M10.9679976,6.04707383 C10.9679976,8.0745906 9.32286779,9.71828188 7.29342656,9.71828188 C5.26398534,9.71828188 3.61885557,8.0745906 3.61885557,6.04707383 C3.61885557,4.01948993 5.26398534,2.37586577 7.29342656,2.37586577 C9.32286779,2.37586577 10.9679976,4.01948993 10.9679976,6.04707383" id="Fill-109" fill="#A9CD81" mask="url(#mask-2)"></path>
                <path d="M10.9329991,6.04707383 C10.9329991,8.05532886 9.30352122,9.68331544 7.29342656,9.68331544 C5.28333191,9.68331544 3.65385405,8.05532886 3.65385405,6.04707383 C3.65385405,4.03881879 5.28333191,2.41083221 7.29342656,2.41083221 C9.30352122,2.41083221 10.9329991,4.03881879 10.9329991,6.04707383" id="Fill-110" fill="#AACE82" mask="url(#mask-2)"></path>
                <path d="M10.8980006,6.04707383 C10.8980006,8.036 9.28417466,9.64834899 7.29342656,9.64834899 C5.30267847,9.64834899 3.68885252,8.036 3.68885252,6.04707383 C3.68885252,4.05808054 5.30267847,2.44579866 7.29342656,2.44579866 C9.28417466,2.44579866 10.8980006,4.05808054 10.8980006,6.04707383" id="Fill-111" fill="#ABCE83" mask="url(#mask-2)"></path>
                <path d="M10.8630021,6.04707383 C10.8630021,8.01667114 9.26482809,9.61338255 7.29342656,9.61338255 C5.32202504,9.61338255 3.72385099,8.01667114 3.72385099,6.04707383 C3.72385099,4.0774094 5.32202504,2.4807651 7.29342656,2.4807651 C9.26482809,2.4807651 10.8630021,4.0774094 10.8630021,6.04707383" id="Fill-112" fill="#ACCF84" mask="url(#mask-2)"></path>
                <path d="M10.8280104,6.04707383 C10.8280104,7.9974094 9.24555542,9.57841611 7.29343328,9.57841611 C5.34131115,9.57841611 3.75885618,7.9974094 3.75885618,6.04707383 C3.75885618,4.09673826 5.34131115,2.51566443 7.29343328,2.51566443 C9.24555542,2.51566443 10.8280104,4.09673826 10.8280104,6.04707383" id="Fill-113" fill="#ACCF85" mask="url(#mask-2)"></path>
                <path d="M10.7930119,6.04707383 C10.7930119,7.97801342 9.22620885,9.54344966 7.29343328,9.54344966 C5.36065771,9.54344966 3.79385466,7.97801342 3.79385466,6.04707383 C3.79385466,4.11606711 5.36065771,2.55063087 7.29343328,2.55063087 C9.22620885,2.55063087 10.7930119,4.11606711 10.7930119,6.04707383" id="Fill-114" fill="#ADCF86" mask="url(#mask-2)"></path>
                <path d="M10.7580403,6.04707383 C10.7580403,7.95875168 9.20688916,9.50848322 7.29339298,9.50848322 C5.37996397,9.50848322 3.82881282,7.95875168 3.82881282,6.04707383 C3.82881282,4.13539597 5.37996397,2.58559732 7.29339298,2.58559732 C9.20688916,2.58559732 10.7580403,4.13539597 10.7580403,6.04707383" id="Fill-115" fill="#AED087" mask="url(#mask-2)"></path>
                <path d="M10.7230485,6.04707383 C10.7230485,7.93942282 9.18754931,9.47351678 7.29339969,9.47351678 C5.39931725,9.47351678 3.86381802,7.93942282 3.86381802,6.04707383 C3.86381802,4.15465772 5.39931725,2.62056376 7.29339969,2.62056376 C9.18754931,2.62056376 10.7230485,4.15465772 10.7230485,6.04707383" id="Fill-116" fill="#AED088" mask="url(#mask-2)"></path>
                <path d="M10.6880501,6.04707383 C10.6880501,7.92009396 9.16820275,9.43855034 7.29339969,9.43855034 C5.41866382,9.43855034 3.89881649,7.92009396 3.89881649,6.04707383 C3.89881649,4.17398658 5.41866382,2.6555302 7.29339969,2.6555302 C9.16820275,2.6555302 10.6880501,4.17398658 10.6880501,6.04707383" id="Fill-117" fill="#AFD189" mask="url(#mask-2)"></path>
                <path d="M10.6530516,6.04707383 C10.6530516,7.90083221 9.14885618,9.40358389 7.29339969,9.40358389 C5.43801038,9.40358389 3.93381496,7.90083221 3.93381496,6.04707383 C3.93381496,4.19331544 5.43801038,2.69049664 7.29339969,2.69049664 C9.14885618,2.69049664 10.6530516,4.19331544 10.6530516,6.04707383" id="Fill-118" fill="#B0D18A" mask="url(#mask-2)"></path>
                <path d="M10.6180531,6.04707383 C10.6180531,7.88150336 9.12957679,9.36861745 7.29339969,9.36861745 C5.45728977,9.36861745 3.96881344,7.88150336 3.96881344,6.04707383 C3.96881344,4.21257718 5.45728977,2.7255302 7.29339969,2.7255302 C9.12957679,2.7255302 10.6180531,4.21257718 10.6180531,6.04707383" id="Fill-119" fill="#B1D18C" mask="url(#mask-2)"></path>
                <path d="M10.5830547,6.04707383 C10.5830547,7.8621745 9.11023023,9.33365101 7.29339969,9.33365101 C5.47663634,9.33365101 4.00381191,7.8621745 4.00381191,6.04707383 C4.00381191,4.23190604 5.47663634,2.76042953 7.29339969,2.76042953 C9.11023023,2.76042953 10.5830547,4.23190604 10.5830547,6.04707383" id="Fill-120" fill="#B1D28D" mask="url(#mask-2)"></path>
                <path d="M10.5480562,6.04707383 C10.5480562,7.84291275 9.09095084,9.29868456 7.29339969,9.29868456 C5.49591573,9.29868456 4.03881038,7.84291275 4.03881038,6.04707383 C4.03881038,4.2512349 5.49591573,2.79539597 7.29339969,2.79539597 C9.09095084,2.79539597 10.5480562,4.2512349 10.5480562,6.04707383" id="Fill-121" fill="#B2D28E" mask="url(#mask-2)"></path>
                <path d="M10.5130577,6.04707383 C10.5130577,7.82358389 9.07160427,9.26371812 7.29339969,9.26371812 C5.51532947,9.26371812 4.07380885,7.82358389 4.07380885,6.04707383 C4.07380885,4.27049664 5.51532947,2.83036242 7.29339969,2.83036242 C9.07160427,2.83036242 10.5130577,4.27049664 10.5130577,6.04707383" id="Fill-122" fill="#B3D38F" mask="url(#mask-2)"></path>
                <path d="M10.4780592,6.04707383 C10.4780592,7.80432215 9.05225771,9.22875168 7.29339969,9.22875168 C5.53460885,9.22875168 4.10880733,7.80432215 4.10880733,6.04707383 C4.10880733,4.2898255 5.53460885,2.86532886 7.29339969,2.86532886 C9.05225771,2.86532886 10.4780592,4.2898255 10.4780592,6.04707383" id="Fill-123" fill="#B4D390" mask="url(#mask-2)"></path>
                <path d="M10.4430608,6.04707383 C10.4430608,7.78499329 9.03291115,9.19385235 7.29339969,9.19385235 C5.55395542,9.19385235 4.1438058,7.78499329 4.1438058,6.04707383 C4.1438058,4.30908725 5.55395542,2.9002953 7.29339969,2.9002953 C9.03291115,2.9002953 10.4430608,4.30908725 10.4430608,6.04707383" id="Fill-124" fill="#B4D491" mask="url(#mask-2)"></path>
                <path d="M10.4080623,6.04707383 C10.4080623,7.76559732 9.01363176,9.15881879 7.29339969,9.15881879 C5.57323481,9.15881879 4.17880427,7.76559732 4.17880427,6.04707383 C4.17880427,4.32848322 5.57323481,2.93526174 7.29339969,2.93526174 C9.01363176,2.93526174 10.4080623,4.32848322 10.4080623,6.04707383" id="Fill-125" fill="#B5D492" mask="url(#mask-2)"></path>
                <path d="M10.3730638,6.04707383 C10.3730638,7.74633557 8.99428519,9.12391946 7.29339969,9.12391946 C5.59258137,9.12391946 4.21380275,7.74633557 4.21380275,6.04707383 C4.21380275,4.34781208 5.59258137,2.97022819 7.29339969,2.97022819 C8.99428519,2.97022819 10.3730638,4.34781208 10.3730638,6.04707383" id="Fill-126" fill="#B6D493" mask="url(#mask-2)"></path>
                <path d="M10.3380653,6.04707383 C10.3380653,7.72700671 8.97493863,9.08888591 7.29339969,9.08888591 C5.61192794,9.08888591 4.24880122,7.72700671 4.24880122,6.04707383 C4.24880122,4.36707383 5.61192794,3.00519463 7.29339969,3.00519463 C8.97493863,3.00519463 10.3380653,4.36707383 10.3380653,6.04707383" id="Fill-127" fill="#B6D594" mask="url(#mask-2)"></path>
                <path d="M10.3030669,6.04707383 C10.3030669,7.70767785 8.95559206,9.05398658 7.29339969,9.05398658 C5.6312745,9.05398658 4.28379969,7.70767785 4.28379969,6.04707383 C4.28379969,4.38640268 5.6312745,3.04016107 7.29339969,3.04016107 C8.95559206,3.04016107 10.3030669,4.38640268 10.3030669,6.04707383" id="Fill-128" fill="#B7D595" mask="url(#mask-2)"></path>
                <path d="M10.2680684,6.04707383 C10.2680684,7.68841611 8.93631267,9.01895302 7.29339969,9.01895302 C5.65055389,9.01895302 4.31879817,7.68841611 4.31879817,6.04707383 C4.31879817,4.40573154 5.65055389,3.07512752 7.29339969,3.07512752 C8.93631267,3.07512752 10.2680684,4.40573154 10.2680684,6.04707383" id="Fill-129" fill="#B8D696" mask="url(#mask-2)"></path>
                <path d="M10.2331035,6.04707383 C10.2331035,7.66908725 8.91693252,8.98405369 7.29343328,8.98405369 C5.66993405,8.98405369 4.35376305,7.66908725 4.35376305,6.04707383 C4.35376305,4.42499329 5.66993405,3.11009396 7.29343328,3.11009396 C8.91693252,3.11009396 10.2331035,4.42499329 10.2331035,6.04707383" id="Fill-130" fill="#B9D697" mask="url(#mask-2)"></path>
                <path d="M10.198105,6.04707383 C10.198105,7.6498255 8.89765313,8.94902013 7.29343328,8.94902013 C5.68921344,8.94902013 4.38876153,7.6498255 4.38876153,6.04707383 C4.38876153,4.44432215 5.68921344,3.1450604 7.29343328,3.1450604 C8.89765313,3.1450604 10.198105,4.44432215 10.198105,6.04707383" id="Fill-131" fill="#B9D799" mask="url(#mask-2)"></path>
                <path d="M10.1631066,6.04707383 C10.1631066,7.63049664 8.87830656,8.91412081 7.29343328,8.91412081 C5.70856,8.91412081 4.42376,7.63049664 4.42376,6.04707383 C4.42376,4.46358389 5.70856,3.18002685 7.29343328,3.18002685 C8.87830656,3.18002685 10.1631066,4.46358389 10.1631066,6.04707383" id="Fill-132" fill="#BAD79A" mask="url(#mask-2)"></path>
                <path d="M10.1281081,6.04707383 C10.1281081,7.61116779 8.85896,8.87908725 7.29343328,8.87908725 C5.72790656,8.87908725 4.45875847,7.61116779 4.45875847,6.04707383 C4.45875847,4.48291275 5.72790656,3.21499329 7.29343328,3.21499329 C8.85896,3.21499329 10.1281081,4.48291275 10.1281081,6.04707383" id="Fill-133" fill="#BBD79B" mask="url(#mask-2)"></path>
                <path d="M10.0931096,6.04707383 C10.0931096,7.59190604 8.83961344,8.84418792 7.29343328,8.84418792 C5.74725313,8.84418792 4.49375695,7.59190604 4.49375695,6.04707383 C4.49375695,4.50224161 5.74725313,3.24995973 7.29343328,3.24995973 C8.83961344,3.24995973 10.0931096,4.50224161 10.0931096,6.04707383" id="Fill-134" fill="#BCD89C" mask="url(#mask-2)"></path>
                <path d="M10.0581111,6.04707383 C10.0581111,7.57251007 8.82033405,8.80915436 7.29343328,8.80915436 C5.76653252,8.80915436 4.52875542,7.57251007 4.52875542,6.04707383 C4.52875542,4.52157047 5.76653252,3.28492617 7.29343328,3.28492617 C8.82033405,3.28492617 10.0581111,4.52157047 10.0581111,6.04707383" id="Fill-135" fill="#BDD89D" mask="url(#mask-2)"></path>
                <path d="M10.0231127,6.04707383 C10.0231127,7.55318121 8.80098748,8.77425503 7.29343328,8.77425503 C5.78587908,8.77425503 4.56375389,7.55318121 4.56375389,6.04707383 C4.56375389,4.54089933 5.78587908,3.3198255 7.29343328,3.3198255 C8.80098748,3.3198255 10.0231127,4.54089933 10.0231127,6.04707383" id="Fill-136" fill="#BDD99E" mask="url(#mask-2)"></path>
                <path d="M9.9881142,6.04707383 C9.9881142,7.53391946 8.78170809,8.73922148 7.29343328,8.73922148 C5.80515847,8.73922148 4.59875237,7.53391946 4.59875237,6.04707383 C4.59875237,4.56022819 5.80515847,3.35485906 7.29343328,3.35485906 C8.78170809,3.35485906 9.9881142,4.56022819 9.9881142,6.04707383" id="Fill-137" fill="#BED99F" mask="url(#mask-2)"></path>
                <path d="M9.95311573,6.04707383 C9.95311573,7.5145906 8.76229435,8.70432215 7.29343328,8.70432215 C5.82457221,8.70432215 4.63375084,7.5145906 4.63375084,6.04707383 C4.63375084,4.57948993 5.82457221,3.38975839 7.29343328,3.38975839 C8.76229435,3.38975839 9.95311573,4.57948993 9.95311573,6.04707383" id="Fill-138" fill="#BFDAA0" mask="url(#mask-2)"></path>
                <path d="M9.91811725,6.04707383 C9.91811725,7.49532886 8.74301496,8.6693557 7.29343328,8.6693557 C5.8438516,8.6693557 4.66874931,7.49532886 4.66874931,6.04707383 C4.66874931,4.59881879 5.8438516,3.42479195 7.29343328,3.42479195 C8.74301496,3.42479195 9.91811725,4.59881879 9.91811725,6.04707383" id="Fill-139" fill="#C0DAA2" mask="url(#mask-2)"></path>
                <path d="M9.88311878,6.04707383 C9.88311878,7.476 8.7236684,8.63438926 7.29343328,8.63438926 C5.86319817,8.63438926 4.70374779,7.476 4.70374779,6.04707383 C4.70374779,4.61808054 5.86319817,3.45969128 7.29343328,3.45969128 C8.7236684,3.45969128 9.88311878,4.61808054 9.88311878,6.04707383" id="Fill-140" fill="#C0DBA3" mask="url(#mask-2)"></path>
                <path d="M9.84812031,6.04707383 C9.84812031,7.45667114 8.70438901,8.59942282 7.29343328,8.59942282 C5.88247756,8.59942282 4.73874626,7.45667114 4.73874626,6.04707383 C4.73874626,4.6374094 5.88247756,3.49472483 7.29343328,3.49472483 C8.70438901,3.49472483 9.84812031,4.6374094 9.84812031,6.04707383" id="Fill-141" fill="#C1DBA4" mask="url(#mask-2)"></path>
                <path d="M9.81312183,6.04707383 C9.81312183,7.4374094 8.68504244,8.56445638 7.29343328,8.56445638 C5.90182412,8.56445638 4.77374473,7.4374094 4.77374473,6.04707383 C4.77374473,4.65673826 5.90182412,3.52962416 7.29343328,3.52962416 C8.68504244,3.52962416 9.81312183,4.65673826 9.81312183,6.04707383" id="Fill-142" fill="#C2DCA5" mask="url(#mask-2)"></path>
                <path d="M9.77812336,6.04707383 C9.77812336,7.41808054 8.66569588,8.52948993 7.29343328,8.52948993 C5.92117069,8.52948993 4.80867603,7.41808054 4.80867603,6.04707383 C4.80867603,4.676 5.92117069,3.56465772 7.29343328,3.56465772 C8.66569588,3.56465772 9.77812336,4.676 9.77812336,6.04707383" id="Fill-143" fill="#C3DCA6" mask="url(#mask-2)"></path>
                <path d="M9.74315847,6.04707383 C9.74315847,7.39875168 8.6463829,8.49452349 7.29339969,8.49452349 C5.94048366,8.49452349 4.84370809,7.39875168 4.84370809,6.04707383 C4.84370809,4.69532886 5.94048366,3.59955705 7.29339969,3.59955705 C8.6463829,3.59955705 9.74315847,4.69532886 9.74315847,6.04707383" id="Fill-144" fill="#C4DCA7" mask="url(#mask-2)"></path>
                <path d="M9.70816,6.04707383 C9.70816,7.37948993 8.62703634,8.45955705 7.29339969,8.45955705 C5.95983023,8.45955705 4.87870656,7.37948993 4.87870656,6.04707383 C4.87870656,4.71465772 5.95983023,3.6345906 7.29339969,3.6345906 C8.62703634,3.6345906 9.70816,4.71465772 9.70816,6.04707383" id="Fill-145" fill="#C4DDA9" mask="url(#mask-2)"></path>
                <path d="M9.67316153,6.04707383 C9.67316153,7.36009396 8.60768977,8.4245906 7.29339969,8.4245906 C5.97917679,8.4245906 4.91370504,7.36009396 4.91370504,6.04707383 C4.91370504,4.73398658 5.97917679,3.66948993 7.29339969,3.66948993 C8.60768977,3.66948993 9.67316153,4.73398658 9.67316153,6.04707383" id="Fill-146" fill="#C5DDAA" mask="url(#mask-2)"></path>
                <path d="M9.63816305,6.04707383 C9.63816305,7.34083221 8.58841038,8.38962416 7.29339969,8.38962416 C5.99845618,8.38962416 4.94870351,7.34083221 4.94870351,6.04707383 C4.94870351,4.75331544 5.99845618,3.70452349 7.29339969,3.70452349 C8.58841038,3.70452349 9.63816305,4.75331544 9.63816305,6.04707383" id="Fill-147" fill="#C6DEAB" mask="url(#mask-2)"></path>
                <path d="M9.6031713,6.04707383 C9.6031713,7.32150336 8.56907053,8.35465772 7.29340641,8.35465772 C6.01780947,8.35465772 4.9837087,7.32150336 4.9837087,6.04707383 C4.9837087,4.77257718 6.01780947,3.73942282 7.29340641,3.73942282 C8.56907053,3.73942282 9.6031713,4.77257718 9.6031713,6.04707383" id="Fill-148" fill="#C7DEAC" mask="url(#mask-2)"></path>
                <path d="M9.56817282,6.04707383 C9.56817282,7.3021745 8.54972397,8.31969128 7.29340641,8.31969128 C6.03715603,8.31969128 5.01870718,7.3021745 5.01870718,6.04707383 C5.01870718,4.79190604 6.03715603,3.77438926 7.29340641,3.77438926 C8.54972397,3.77438926 9.56817282,4.79190604 9.56817282,6.04707383" id="Fill-149" fill="#C7DFAD" mask="url(#mask-2)"></path>
                <path d="M9.53317435,6.04707383 C9.53317435,7.28291275 8.5303774,8.28472483 7.29340641,8.28472483 C6.0565026,8.28472483 5.05370565,7.28291275 5.05370565,6.04707383 C5.05370565,4.8112349 6.0565026,3.8093557 7.29340641,3.8093557 C8.5303774,3.8093557 9.53317435,4.8112349 9.53317435,6.04707383" id="Fill-150" fill="#C8DFAE" mask="url(#mask-2)"></path>
                <path d="M9.49817588,6.04707383 C9.49817588,7.26358389 8.51109802,8.24975839 7.29340641,8.24975839 C6.07578198,8.24975839 5.08870412,7.26358389 5.08870412,6.04707383 C5.08870412,4.83049664 6.07578198,3.84432215 7.29340641,3.84432215 C8.51109802,3.84432215 9.49817588,4.83049664 9.49817588,6.04707383" id="Fill-151" fill="#C9E0B0" mask="url(#mask-2)"></path>
                <path d="M9.4631774,6.04707383 C9.4631774,7.24425503 8.49175145,8.21485906 7.29340641,8.21485906 C6.09512855,8.21485906 5.1237026,7.24425503 5.1237026,6.04707383 C5.1237026,4.8498255 6.09512855,3.87928859 7.29340641,3.87928859 C8.49175145,3.87928859 9.4631774,4.8498255 9.4631774,6.04707383" id="Fill-152" fill="#CAE0B1" mask="url(#mask-2)"></path>
                <path d="M9.42817893,6.04707383 C9.42817893,7.22499329 8.47240489,8.1798255 7.29340641,8.1798255 C6.11440794,8.1798255 5.15870107,7.22499329 5.15870107,6.04707383 C5.15870107,4.86915436 6.11440794,3.91425503 7.29340641,3.91425503 C8.47240489,3.91425503 9.42817893,4.86915436 9.42817893,6.04707383" id="Fill-153" fill="#CBE1B2" mask="url(#mask-2)"></path>
                <path d="M9.39318046,6.04707383 C9.39318046,7.20566443 8.45305832,8.14492617 7.29340641,8.14492617 C6.1337545,8.14492617 5.19369954,7.20566443 5.19369954,6.04707383 C5.19369954,4.88841611 6.1337545,3.94922148 7.29340641,3.94922148 C8.45305832,3.94922148 9.39318046,4.88841611 9.39318046,6.04707383" id="Fill-154" fill="#CCE1B3" mask="url(#mask-2)"></path>
                <path d="M9.35818198,6.04707383 C9.35818198,7.18640268 8.43377893,8.10989262 7.29340641,8.10989262 C6.15310107,8.10989262 5.22869802,7.18640268 5.22869802,6.04707383 C5.22869802,4.90774497 6.15310107,3.98418792 7.29340641,3.98418792 C8.43377893,3.98418792 9.35818198,4.90774497 9.35818198,6.04707383" id="Fill-155" fill="#CCE2B4" mask="url(#mask-2)"></path>
                <path d="M9.32318351,6.04707383 C9.32318351,7.16700671 8.41443237,8.07499329 7.29340641,8.07499329 C6.17244763,8.07499329 5.26369649,7.16700671 5.26369649,6.04707383 C5.26369649,4.92707383 6.17244763,4.01915436 7.29340641,4.01915436 C8.41443237,4.01915436 9.32318351,4.92707383 9.32318351,6.04707383" id="Fill-156" fill="#CDE2B6" mask="url(#mask-2)"></path>
                <path d="M9.28818504,6.04707383 C9.28818504,7.14767785 8.39515298,8.03995973 7.29340641,8.03995973 C6.19172702,8.03995973 5.29862779,7.14767785 5.29862779,6.04707383 C5.29862779,4.94640268 6.19172702,4.05412081 7.29340641,4.05412081 C8.39515298,4.05412081 9.28818504,4.94640268 9.28818504,6.04707383" id="Fill-157" fill="#CEE2B7" mask="url(#mask-2)"></path>
                <path d="M9.25322015,6.04707383 C9.25322015,7.12841611 8.37577282,8.0050604 7.29344,8.0050604 C6.21110718,8.0050604 5.33365985,7.12841611 5.33365985,6.04707383 C5.33365985,4.96573154 6.21110718,4.08908725 7.29344,4.08908725 C8.37577282,4.08908725 9.25322015,4.96573154 9.25322015,6.04707383" id="Fill-158" fill="#CFE3B8" mask="url(#mask-2)"></path>
                <path d="M9.21822168,6.04707383 C9.21822168,7.10908725 8.35642626,7.97002685 7.29344,7.97002685 C6.23038656,7.97002685 5.36865832,7.10908725 5.36865832,6.04707383 C5.36865832,4.98499329 6.23038656,4.12405369 7.29344,4.12405369 C8.35642626,4.12405369 9.21822168,4.98499329 9.21822168,6.04707383" id="Fill-159" fill="#D0E3B9" mask="url(#mask-2)"></path>
                <path d="M9.18322321,6.04707383 C9.18322321,7.08975839 8.33714687,7.93512752 7.29344,7.93512752 C6.24973313,7.93512752 5.40365679,7.08975839 5.40365679,6.04707383 C5.40365679,5.00432215 6.24973313,4.15902013 7.29344,4.15902013 C8.33714687,4.15902013 9.18322321,5.00432215 9.18322321,6.04707383" id="Fill-160" fill="#D0E4BA" mask="url(#mask-2)"></path>
                <path d="M9.14822473,6.04707383 C9.14822473,7.07049664 8.31780031,7.90009396 7.29344,7.90009396 C6.26907969,7.90009396 5.43865527,7.07049664 5.43865527,6.04707383 C5.43865527,5.02365101 6.26907969,4.19398658 7.29344,4.19398658 C8.31780031,4.19398658 9.14822473,5.02365101 9.14822473,6.04707383" id="Fill-161" fill="#D1E4BC" mask="url(#mask-2)"></path>
                <path d="M9.11322626,6.04707383 C9.11322626,7.05116779 8.29845374,7.86519463 7.29344,7.86519463 C6.28842626,7.86519463 5.47365374,7.05116779 5.47365374,6.04707383 C5.47365374,5.04291275 6.28842626,4.22895302 7.29344,4.22895302 C8.29845374,4.22895302 9.11322626,5.04291275 9.11322626,6.04707383" id="Fill-162" fill="#D2E5BD" mask="url(#mask-2)"></path>
                <path d="M9.07822779,6.04707383 C9.07822779,7.03190604 8.27910718,7.83016107 7.29344,7.83016107 C6.30770565,7.83016107 5.50865221,7.03190604 5.50865221,6.04707383 C5.50865221,5.06224161 6.30770565,4.26391946 7.29344,4.26391946 C8.27910718,4.26391946 9.07822779,5.06224161 9.07822779,6.04707383" id="Fill-163" fill="#D3E5BE" mask="url(#mask-2)"></path>
                <path d="M9.04322931,6.04707383 C9.04322931,7.01257718 8.25982779,7.79526174 7.29344,7.79526174 C6.32705221,7.79526174 5.54365069,7.01257718 5.54365069,6.04707383 C5.54365069,5.08150336 6.32705221,4.29881879 7.29344,4.29881879 C8.25982779,4.29881879 9.04322931,5.08150336 9.04322931,6.04707383" id="Fill-164" fill="#D4E6BF" mask="url(#mask-2)"></path>
                <path d="M9.00823084,6.04707383 C9.00823084,6.99324832 8.24048122,7.76022819 7.29344,7.76022819 C6.34639878,7.76022819 5.57864916,6.99324832 5.57864916,6.04707383 C5.57864916,5.10083221 6.34639878,4.33385235 7.29344,4.33385235 C8.24048122,4.33385235 9.00823084,5.10083221 9.00823084,6.04707383" id="Fill-165" fill="#D5E6C1" mask="url(#mask-2)"></path>
                <path d="M8.97323237,6.04707383 C8.97323237,6.97398658 8.22113466,7.72532886 7.29344,7.72532886 C6.36574534,7.72532886 5.61364763,6.97398658 5.61364763,6.04707383 C5.61364763,5.12016107 6.36574534,4.36875168 7.29344,4.36875168 C8.22113466,4.36875168 8.97323237,5.12016107 8.97323237,6.04707383" id="Fill-166" fill="#D5E7C2" mask="url(#mask-2)"></path>
                <path d="M8.93823389,6.04707383 C8.93823389,6.9545906 8.20185527,7.69036242 7.29344,7.69036242 C6.38502473,7.69036242 5.64864611,6.9545906 5.64864611,6.04707383 C5.64864611,5.13948993 6.38502473,4.40378523 7.29344,4.40378523 C8.20185527,4.40378523 8.93823389,5.13948993 8.93823389,6.04707383" id="Fill-167" fill="#D6E7C3" mask="url(#mask-2)"></path>
                <path d="M8.90323542,6.04707383 C8.90323542,6.93526174 8.1825087,7.65539597 7.29344,7.65539597 C6.4043713,7.65539597 5.68364458,6.93526174 5.68364458,6.04707383 C5.68364458,5.15881879 6.4043713,4.43868456 7.29344,4.43868456 C8.1825087,4.43868456 8.90323542,5.15881879 8.90323542,6.04707383" id="Fill-168" fill="#D7E8C4" mask="url(#mask-2)"></path>
                <path d="M8.86823695,6.04707383 C8.86823695,6.916 8.16316214,7.62042953 7.29344,7.62042953 C6.42365069,7.62042953 5.71864305,6.916 5.71864305,6.04707383 C5.71864305,5.17814765 6.42365069,4.47371812 7.29344,4.47371812 C8.16316214,4.47371812 8.86823695,5.17814765 8.86823695,6.04707383" id="Fill-169" fill="#D8E8C5" mask="url(#mask-2)"></path>
                <path d="M8.83323847,6.04707383 C8.83323847,6.89667114 8.14381557,7.58546309 7.29344,7.58546309 C6.44299725,7.58546309 5.75364153,6.89667114 5.75364153,6.04707383 C5.75364153,5.1974094 6.44299725,4.50861745 7.29344,4.50861745 C8.14381557,4.50861745 8.83323847,5.1974094 8.83323847,6.04707383" id="Fill-170" fill="#D9E9C7" mask="url(#mask-2)"></path>
                <path d="M8.79824,6.04707383 C8.79824,6.8774094 8.12453618,7.55049664 7.29344,7.55049664 C6.46234382,7.55049664 5.78857282,6.8774094 5.78857282,6.04707383 C5.78857282,5.21673826 6.46234382,4.54365101 7.29344,4.54365101 C8.12453618,4.54365101 8.79824,5.21673826 8.79824,6.04707383" id="Fill-171" fill="#DAE9C8" mask="url(#mask-2)"></path>
                <path d="M8.76327511,6.04707383 C8.76327511,6.85808054 8.10522321,7.5155302 7.29340641,7.5155302 C6.48165679,7.5155302 5.82360489,6.85808054 5.82360489,6.04707383 C5.82360489,5.236 6.48165679,4.57855034 7.29340641,4.57855034 C8.10522321,4.57855034 8.76327511,5.236 8.76327511,6.04707383" id="Fill-172" fill="#DAEAC9" mask="url(#mask-2)"></path>
                <path d="M8.72827664,6.04707383 C8.72827664,6.83875168 8.08587664,7.48056376 7.29340641,7.48056376 C6.50100336,7.48056376 5.85860336,6.83875168 5.85860336,6.04707383 C5.85860336,5.25532886 6.50100336,4.61358389 7.29340641,4.61358389 C8.08587664,4.61358389 8.72827664,5.25532886 8.72827664,6.04707383" id="Fill-173" fill="#DBEACA" mask="url(#mask-2)"></path>
                <path d="M8.69327817,6.04707383 C8.69327817,6.81948993 8.06653008,7.44559732 7.29340641,7.44559732 C6.52034992,7.44559732 5.89360183,6.81948993 5.89360183,6.04707383 C5.89360183,5.27465772 6.52034992,4.64848322 7.29340641,4.64848322 C8.06653008,4.64848322 8.69327817,5.27465772 8.69327817,6.04707383" id="Fill-174" fill="#DCEBCC" mask="url(#mask-2)"></path>
                <path d="M8.65827969,6.04707383 C8.65827969,6.80016107 8.04718351,7.41063087 7.29340641,7.41063087 C6.53962931,7.41063087 5.92860031,6.80016107 5.92860031,6.04707383 C5.92860031,5.29391946 6.53962931,4.68351678 7.29340641,4.68351678 C8.04718351,4.68351678 8.65827969,5.29391946 8.65827969,6.04707383" id="Fill-175" fill="#DDEBCD" mask="url(#mask-2)"></path>
                <path d="M8.62328122,6.04707383 C8.62328122,6.78083221 8.02790412,7.37566443 7.29340641,7.37566443 C6.55897588,7.37566443 5.96359878,6.78083221 5.96359878,6.04707383 C5.96359878,5.31324832 6.55897588,4.71841611 7.29340641,4.71841611 C8.02790412,4.71841611 8.62328122,5.31324832 8.62328122,6.04707383" id="Fill-176" fill="#DEECCE" mask="url(#mask-2)"></path>
                <path d="M8.58828275,6.04707383 C8.58828275,6.76157047 8.00855756,7.34069799 7.29340641,7.34069799 C6.57832244,7.34069799 5.99859725,6.76157047 5.99859725,6.04707383 C5.99859725,5.33257718 6.57832244,4.75338255 7.29340641,4.75338255 C8.00855756,4.75338255 8.58828275,5.33257718 8.58828275,6.04707383" id="Fill-177" fill="#DFECD0" mask="url(#mask-2)"></path>
                <path d="M8.55328427,6.04707383 C8.55328427,6.7421745 7.98921099,7.30573154 7.29340641,7.30573154 C6.59760183,7.30573154 6.03359573,6.7421745 6.03359573,6.04707383 C6.03359573,5.35190604 6.59760183,4.78834899 7.29340641,4.78834899 C7.98921099,4.78834899 8.55328427,5.35190604 8.55328427,6.04707383" id="Fill-178" fill="#E0EDD1" mask="url(#mask-2)"></path>
                <path d="M8.51829252,6.04707383 C8.51829252,6.72291275 7.96987115,7.2707651 7.29341313,7.2707651 C6.61695511,7.2707651 6.06860092,6.72291275 6.06860092,6.04707383 C6.06860092,5.3712349 6.61695511,4.82331544 7.29341313,4.82331544 C7.96987115,4.82331544 8.51829252,5.3712349 8.51829252,6.04707383" id="Fill-179" fill="#E0EDD2" mask="url(#mask-2)"></path>
                <path d="M8.48329405,6.04707383 C8.48329405,6.70358389 7.95059176,7.23579866 7.29341313,7.23579866 C6.63630168,7.23579866 6.10359939,6.70358389 6.10359939,6.04707383 C6.10359939,5.39049664 6.63630168,4.85828188 7.29341313,4.85828188 C7.95059176,4.85828188 8.48329405,5.39049664 8.48329405,6.04707383" id="Fill-180" fill="#E1EED3" mask="url(#mask-2)"></path>
                <path d="M8.44829557,6.04707383 C8.44829557,6.68425503 7.93124519,7.20083221 7.29341313,7.20083221 C6.65558107,7.20083221 6.13859786,6.68425503 6.13859786,6.04707383 C6.13859786,5.4098255 6.65558107,4.89324832 7.29341313,4.89324832 C7.93124519,4.89324832 8.44829557,5.4098255 8.44829557,6.04707383" id="Fill-181" fill="#E2EED5" mask="url(#mask-2)"></path>
                <path d="M8.4132971,6.04707383 C8.4132971,6.66499329 7.91189863,7.16593289 7.29341313,7.16593289 C6.67492763,7.16593289 6.17359634,6.66499329 6.17359634,6.04707383 C6.17359634,5.42915436 6.67492763,4.92821477 7.29341313,4.92821477 C7.91189863,4.92821477 8.4132971,5.42915436 8.4132971,6.04707383" id="Fill-182" fill="#E3EFD6" mask="url(#mask-2)"></path>
                <path d="M8.37829863,6.04707383 C8.37829863,6.64566443 7.89261924,7.13089933 7.29341313,7.13089933 C6.6942742,7.13089933 6.20859481,6.64566443 6.20859481,6.04707383 C6.20859481,5.44841611 6.6942742,4.96318121 7.29341313,4.96318121 C7.89261924,4.96318121 8.37829863,5.44841611 8.37829863,6.04707383" id="Fill-183" fill="#E4EFD7" mask="url(#mask-2)"></path>
                <path d="M8.34330015,6.04707383 C8.34330015,6.62633557 7.87327267,7.096 7.29341313,7.096 C6.71362076,7.096 6.24359328,6.62633557 6.24359328,6.04707383 C6.24359328,5.46774497 6.71362076,4.99814765 7.29341313,4.99814765 C7.87327267,4.99814765 8.34330015,5.46774497 8.34330015,6.04707383" id="Fill-184" fill="#E5F0D8" mask="url(#mask-2)"></path>
                <path d="M8.30830168,6.04707383 C8.30830168,6.60707383 7.85392611,7.06096644 7.29341313,7.06096644 C6.73290015,7.06096644 6.27859176,6.60707383 6.27859176,6.04707383 C6.27859176,5.48707383 6.73290015,5.03311409 7.29341313,5.03311409 C7.85392611,5.03311409 8.30830168,5.48707383 8.30830168,6.04707383" id="Fill-185" fill="#E6F0DA" mask="url(#mask-2)"></path>
                <path d="M8.27330321,6.04707383 C8.27330321,6.58774497 7.83457954,7.02606711 7.29341313,7.02606711 C6.75224672,7.02606711 6.31352305,6.58774497 6.31352305,6.04707383 C6.31352305,5.50633557 6.75224672,5.06808054 7.29341313,5.06808054 C7.83457954,5.06808054 8.27330321,5.50633557 8.27330321,6.04707383" id="Fill-186" fill="#E7F1DB" mask="url(#mask-2)"></path>
                <path d="M8.23833832,6.04707383 C8.23833832,6.56848322 7.81526656,6.99103356 7.29344672,6.99103356 C6.77162687,6.99103356 6.34855511,6.56848322 6.34855511,6.04707383 C6.34855511,5.52566443 6.77162687,5.10304698 7.29344672,5.10304698 C7.81526656,5.10304698 8.23833832,5.52566443 8.23833832,6.04707383" id="Fill-187" fill="#E7F1DC" mask="url(#mask-2)"></path>
                <path d="M8.20333985,6.04707383 C8.20333985,6.54908725 7.79598718,6.95613423 7.29344672,6.95613423 C6.79090626,6.95613423 6.38355359,6.54908725 6.38355359,6.04707383 C6.38355359,5.54499329 6.79090626,5.13801342 7.29344672,5.13801342 C7.79598718,5.13801342 8.20333985,5.54499329 8.20333985,6.04707383" id="Fill-188" fill="#E8F2DE" mask="url(#mask-2)"></path>
                <path d="M8.16834137,6.04707383 C8.16834137,6.52975839 7.77664061,6.92110067 7.29344672,6.92110067 C6.81025282,6.92110067 6.41855206,6.52975839 6.41855206,6.04707383 C6.41855206,5.56432215 6.81025282,5.17297987 7.29344672,5.17297987 C7.77664061,5.17297987 8.16834137,5.56432215 8.16834137,6.04707383" id="Fill-189" fill="#E9F2DF" mask="url(#mask-2)"></path>
                <path d="M8.1333429,6.04707383 C8.1333429,6.51049664 7.75729405,6.88620134 7.29344672,6.88620134 C6.82953221,6.88620134 6.45355053,6.51049664 6.45355053,6.04707383 C6.45355053,5.58365101 6.82953221,5.20794631 7.29344672,5.20794631 C7.75729405,5.20794631 8.1333429,5.58365101 8.1333429,6.04707383" id="Fill-190" fill="#EAF3E0" mask="url(#mask-2)"></path>
                <path d="M8.09834443,6.04707383 C8.09834443,6.49116779 7.73794748,6.85116779 7.29344672,6.85116779 C6.84887878,6.85116779 6.48854901,6.49116779 6.48854901,6.04707383 C6.48854901,5.60291275 6.84887878,5.24291275 7.29344672,5.24291275 C7.73794748,5.24291275 8.09834443,5.60291275 8.09834443,6.04707383" id="Fill-191" fill="#EBF3E2" mask="url(#mask-2)"></path>
                <path d="M8.06334595,6.04707383 C8.06334595,6.47183893 7.71866809,6.81626846 7.29344672,6.81626846 C6.86822534,6.81626846 6.52354748,6.47183893 6.52354748,6.04707383 C6.52354748,5.62224161 6.86822534,5.27781208 7.29344672,5.27781208 C7.71866809,5.27781208 8.06334595,5.62224161 8.06334595,6.04707383" id="Fill-192" fill="#ECF4E3" mask="url(#mask-2)"></path>
                <path d="M8.02834748,6.04707383 C8.02834748,6.45257718 7.69932153,6.7812349 7.29344672,6.7812349 C6.88757191,6.7812349 6.55854595,6.45257718 6.55854595,6.04707383 C6.55854595,5.64157047 6.88757191,5.31284564 7.29344672,5.31284564 C7.69932153,5.31284564 8.02834748,5.64157047 8.02834748,6.04707383" id="Fill-193" fill="#EDF4E4" mask="url(#mask-2)"></path>
                <path d="M7.99334901,6.04707383 C7.99334901,6.43324832 7.67997496,6.74633557 7.29344672,6.74633557 C6.9068513,6.74633557 6.59354443,6.43324832 6.59354443,6.04707383 C6.59354443,5.66083221 6.9068513,5.34774497 7.29344672,5.34774497 C7.67997496,5.34774497 7.99334901,5.66083221 7.99334901,6.04707383" id="Fill-194" fill="#EEF5E5" mask="url(#mask-2)"></path>
                <path d="M7.95835053,6.04707383 C7.95835053,6.41398658 7.6606284,6.71136913 7.29344672,6.71136913 C6.92619786,6.71136913 6.6285429,6.41398658 6.6285429,6.04707383 C6.6285429,5.68016107 6.92619786,5.38277852 7.29344672,5.38277852 C7.6606284,5.38277852 7.95835053,5.68016107 7.95835053,6.04707383" id="Fill-195" fill="#EFF5E7" mask="url(#mask-2)"></path>
                <path d="M7.92335206,6.04707383 C7.92335206,6.39465772 7.64134901,6.67640268 7.29344672,6.67640268 C6.94554443,6.67640268 6.66354137,6.39465772 6.66354137,6.04707383 C6.66354137,5.69942282 6.94554443,5.41767785 7.29344672,5.41767785 C7.64134901,5.41767785 7.92335206,5.69942282 7.92335206,6.04707383" id="Fill-196" fill="#EFF6E8" mask="url(#mask-2)"></path>
                <path d="M7.88835359,6.04707383 C7.88835359,6.37532886 7.62200244,6.64143624 7.29344672,6.64143624 C6.96482382,6.64143624 6.69853985,6.37532886 6.69853985,6.04707383 C6.69853985,5.71875168 6.96482382,5.45271141 7.29344672,5.45271141 C7.62200244,5.45271141 7.88835359,5.71875168 7.88835359,6.04707383" id="Fill-197" fill="#F0F6E9" mask="url(#mask-2)"></path>
                <path d="M7.85335511,6.04707383 C7.85335511,6.35606711 7.60265588,6.6064698 7.29344672,6.6064698 C6.98417038,6.6064698 6.73353832,6.35606711 6.73353832,6.04707383 C6.73353832,5.73808054 6.98417038,5.48761074 7.29344672,5.48761074 C7.60265588,5.48761074 7.85335511,5.73808054 7.85335511,6.04707383" id="Fill-198" fill="#F1F7EB" mask="url(#mask-2)"></path>
                <path d="M7.81835664,6.04707383 C7.81835664,6.33667114 7.58330931,6.57150336 7.29344672,6.57150336 C7.00351695,6.57150336 6.76853679,6.33667114 6.76853679,6.04707383 C6.76853679,5.7574094 7.00351695,5.5226443 7.29344672,5.5226443 C7.58330931,5.5226443 7.81835664,5.7574094 7.81835664,6.04707383" id="Fill-199" fill="#F2F8EC" mask="url(#mask-2)"></path>
                <path d="M7.78335817,6.04707383 C7.78335817,6.31734228 7.56402992,6.53653691 7.29344672,6.53653691 C7.02286351,6.53653691 6.80346809,6.31734228 6.80346809,6.04707383 C6.80346809,5.77673826 7.02286351,5.55754362 7.29344672,5.55754362 C7.56402992,5.55754362 7.78335817,5.77673826 7.78335817,6.04707383" id="Fill-200" fill="#F3F8ED" mask="url(#mask-2)"></path>
                <path d="M7.74839328,6.04707383 C7.74839328,6.29808054 7.54471695,6.50157047 7.29341313,6.50157047 C7.04217649,6.50157047 6.83850015,6.29808054 6.83850015,6.04707383 C6.83850015,5.79606711 7.04217649,5.59257718 7.29341313,5.59257718 C7.54471695,5.59257718 7.74839328,5.79606711 7.74839328,6.04707383" id="Fill-201" fill="#F4F9EF" mask="url(#mask-2)"></path>
                <path d="M7.71339481,6.04707383 C7.71339481,6.27875168 7.52537038,6.46660403 7.29341313,6.46660403 C7.06145588,6.46660403 6.87349863,6.27875168 6.87349863,6.04707383 C6.87349863,5.81532886 7.06145588,5.62747651 7.29341313,5.62747651 C7.52537038,5.62747651 7.71339481,5.81532886 7.71339481,6.04707383" id="Fill-202" fill="#F5F9F0" mask="url(#mask-2)"></path>
                <path d="M7.67839634,6.04707383 C7.67839634,6.25948993 7.50602382,6.43163758 7.29341313,6.43163758 C7.08080244,6.43163758 6.9084971,6.25948993 6.9084971,6.04707383 C6.9084971,5.83465772 7.08080244,5.66251007 7.29341313,5.66251007 C7.50602382,5.66251007 7.67839634,5.83465772 7.67839634,6.04707383" id="Fill-203" fill="#F6FAF1" mask="url(#mask-2)"></path>
                <path d="M7.64339786,6.04707383 C7.64339786,6.24016107 7.48667725,6.39667114 7.29341313,6.39667114 C7.10014901,6.39667114 6.94349557,6.24016107 6.94349557,6.04707383 C6.94349557,5.85391946 7.10014901,5.6974094 7.29341313,5.6974094 C7.48667725,5.6974094 7.64339786,5.85391946 7.64339786,6.04707383" id="Fill-204" fill="#F7FAF3" mask="url(#mask-2)"></path>
                <path d="M7.60839939,6.04707383 C7.60839939,6.22083221 7.46739786,6.3617047 7.29341313,6.3617047 C7.11949557,6.3617047 6.97849405,6.22083221 6.97849405,6.04707383 C6.97849405,5.87324832 7.11949557,5.73244295 7.29341313,5.73244295 C7.46739786,5.73244295 7.60839939,5.87324832 7.60839939,6.04707383" id="Fill-205" fill="#F8FBF4" mask="url(#mask-2)"></path>
                <path d="M7.57340092,6.04707383 C7.57340092,6.20157047 7.4480513,6.32673826 7.29341313,6.32673826 C7.13877496,6.32673826 7.01349252,6.20157047 7.01349252,6.04707383 C7.01349252,5.89257718 7.13877496,5.76734228 7.29341313,5.76734228 C7.4480513,5.76734228 7.57340092,5.89257718 7.57340092,6.04707383" id="Fill-206" fill="#F9FBF5" mask="url(#mask-2)"></path>
                <path d="M7.53840244,6.04707383 C7.53840244,6.18224161 7.42870473,6.29177181 7.29341313,6.29177181 C7.15812153,6.29177181 7.04849099,6.18224161 7.04849099,6.04707383 C7.04849099,5.91183893 7.15812153,5.80230872 7.29341313,5.80230872 C7.42870473,5.80230872 7.53840244,5.91183893 7.53840244,6.04707383" id="Fill-207" fill="#F9FCF7" mask="url(#mask-2)"></path>
                <path d="M7.50340397,6.04707383 C7.50340397,6.16291275 7.40942534,6.25680537 7.29341313,6.25680537 C7.17746809,6.25680537 7.08348947,6.16291275 7.08348947,6.04707383 C7.08348947,5.93116779 7.17746809,5.83727517 7.29341313,5.83727517 C7.40942534,5.83727517 7.50340397,5.93116779 7.50340397,6.04707383" id="Fill-208" fill="#FAFCF8" mask="url(#mask-2)"></path>
                <path d="M7.4684055,6.04707383 C7.4684055,6.14358389 7.39007878,6.22183893 7.29341313,6.22183893 C7.19681466,6.22183893 7.11848794,6.14358389 7.11848794,6.04707383 C7.11848794,5.95056376 7.19681466,5.87224161 7.29341313,5.87224161 C7.39007878,5.87224161 7.4684055,5.95056376 7.4684055,6.04707383" id="Fill-209" fill="#FBFDFA" mask="url(#mask-2)"></path>
                <path d="M7.43340702,6.04707383 C7.43340702,6.12425503 7.37073221,6.1869396 7.29341313,6.1869396 C7.21609405,6.1869396 7.15348641,6.12425503 7.15348641,6.04707383 C7.15348641,5.9698255 7.21609405,5.90720805 7.29341313,5.90720805 C7.37073221,5.90720805 7.43340702,5.9698255 7.43340702,6.04707383" id="Fill-210" fill="#FCFDFB" mask="url(#mask-2)"></path>
                <path d="M7.39841527,6.04707383 C7.39841527,6.10499329 7.35139237,6.15190604 7.29341985,6.15190604 C7.23544733,6.15190604 7.1884916,6.10499329 7.1884916,6.04707383 C7.1884916,5.98915436 7.23544733,5.9421745 7.29341985,5.9421745 C7.35139237,5.9421745 7.39841527,5.98915436 7.39841527,6.04707383" id="Fill-211" fill="#FDFEFC" mask="url(#mask-2)"></path>
                <path d="M7.42349008,6.07714094 C7.42349008,6.13232328 7.37874692,6.17714094 7.32344207,6.17714094 C7.26823324,6.17714094 7.22349008,6.13232328 7.22349008,6.07714094 C7.22349008,6.02186263 7.26823324,5.97714094 7.32344207,5.97714094 C7.37874692,5.97714094 7.42349008,6.02186263 7.42349008,6.07714094" id="Fill-212" fill="#FEFEFE" mask="url(#mask-2)"></path>
                <path d="M7.45842137,6.11210738 C7.45842137,6.16719375 7.41369968,6.21210738 7.35842137,6.21210738 C7.30314306,6.21210738 7.25842137,6.16719375 7.25842137,6.11210738 C7.25842137,6.05682907 7.30314306,6.01210738 7.35842137,6.01210738 C7.41369968,6.01210738 7.45842137,6.05682907 7.45842137,6.11210738" id="Fill-213" fill="#FFFFFF" mask="url(#mask-2)"></path>
            </g>
        </g>
    </g>
</svg>