<svg xmlns="http://www.w3.org/2000/svg" width="371" height="209" viewBox="0 0 371 209">
    <g fill="none" fill-rule="evenodd" opacity=".3">
        <g fill="#62619A" fill-rule="nonzero">
            <g>
                <g>
                    <path d="M220.218 124.202c-.368-.06-.74-.088-1.112-.083h-63.377l1.382-.646c1.35-.642 2.58-1.517 3.631-2.584l17.773-17.862c2.34-2.246 2.734-5.859.932-8.56-2.097-2.879-6.12-3.504-8.983-1.396-.232.17-.452.356-.659.556l-32.138 32.301c-2.512 2.522-2.514 6.612-.005 9.136l.005.005 32.138 32.301c2.514 2.52 6.584 2.514 9.09-.013.198-.199.382-.41.552-.633 1.802-2.701 1.409-6.314-.932-8.56l-17.74-17.894c-.943-.95-2.028-1.745-3.214-2.358l-1.929-.872h63.12c3.284.122 6.165-2.183 6.782-5.427.568-3.522-1.812-6.84-5.316-7.411z" opacity=".516" transform="translate(-110 -420) rotate(180 240.5 314.5) matrix(-1 0 0 1 361.4 0)"/>
                    <path d="M302.375 24.929c-.284-.046-.57-.067-.857-.064h-48.864l1.066-.497c1.041-.495 1.989-1.168 2.8-1.99l13.702-13.752c1.805-1.73 2.108-4.51.719-6.59-1.617-2.217-4.718-2.698-6.926-1.075-.179.131-.348.274-.508.428L238.73 26.258c-1.937 1.941-1.938 5.09-.004 7.034l.004.004 24.778 24.869c1.938 1.94 5.076 1.935 7.009-.01.152-.153.294-.316.425-.488 1.39-2.08 1.086-4.861-.719-6.59L256.545 37.3c-.727-.73-1.563-1.343-2.478-1.816l-1.487-.671h48.665c2.532.094 4.753-1.68 5.228-4.178.438-2.712-1.396-5.266-4.098-5.706z" opacity=".46" transform="translate(-110 -420) rotate(180 240.5 314.5) matrix(-1 0 0 1 543.813 0)"/>
                    <path d="M317.398 96.993c-.101-.016-.203-.023-.306-.022h-17.416l.38-.172c.37-.17.708-.402.997-.686l4.885-4.742c.643-.596.75-1.555.256-2.272-.577-.765-1.682-.93-2.47-.37-.063.044-.123.094-.18.147l-8.832 8.575c-.69.67-.69 1.756-.001 2.426l.001.001 8.832 8.575c.69.67 1.81.668 2.498-.003.054-.053.105-.109.152-.168.495-.717.387-1.676-.256-2.273l-4.876-4.75c-.259-.252-.557-.463-.883-.626l-.53-.232h17.346c.902.033 1.694-.58 1.864-1.44.156-.936-.498-1.816-1.461-1.968z" opacity=".505" transform="translate(-110 -420) rotate(180 240.5 314.5) matrix(-1 0 0 1 613.076 0)"/>
                    <path d="M103.439 155.924c-.101-.016-.204-.023-.306-.022H85.716l.38-.171c.371-.171.71-.403.998-.686l4.884-4.743c.643-.596.752-1.555.256-2.272-.576-.764-1.681-.93-2.468-.37-.064.045-.124.094-.181.147l-8.832 8.575c-.69.67-.691 1.756-.002 2.426l.002.001 8.832 8.576c.69.668 1.809.667 2.498-.004.054-.053.105-.109.151-.168.496-.717.387-1.676-.256-2.272l-4.875-4.751c-.26-.252-.557-.463-.883-.626l-.53-.232h17.346c.902.033 1.694-.58 1.863-1.44.156-.935-.498-1.816-1.46-1.968z" transform="translate(-110 -420) rotate(180 240.5 314.5) matrix(-1 0 0 1 185.157 0)"/>
                    <path d="M271.133 181.888c-.216-.036-.435-.053-.653-.05h-37.253l.813-.389c.794-.386 1.516-.913 2.134-1.555l10.447-10.749c1.376-1.351 1.607-3.525.548-5.15-1.233-1.733-3.597-2.109-5.28-.84-.137.102-.266.214-.388.334l-18.89 19.438c-1.476 1.517-1.478 3.978-.003 5.498l.003.003 18.89 19.437c1.478 1.516 3.87 1.513 5.343-.007.116-.12.225-.247.325-.382 1.059-1.625.828-3.8-.548-5.15l-10.428-10.769c-.554-.571-1.192-1.05-1.889-1.419l-1.133-.525h37.1c1.93.074 3.624-1.313 3.987-3.265.334-2.12-1.065-4.116-3.125-4.46z" transform="translate(-110 -420) rotate(180 240.5 314.5) matrix(-1 0 0 1 495.81 0)"/>
                    <path d="M285.043 128.975c-.11-.018-.22-.026-.33-.025h-18.869l.412-.194c.402-.193.768-.457 1.08-.778l5.292-5.374c.697-.676.814-1.763.277-2.576-.624-.866-1.821-1.054-2.674-.42-.07.052-.135.108-.196.168l-9.568 9.718c-.748.76-.748 1.99-.002 2.75h.002l9.568 9.72c.748.758 1.96.756 2.706-.004.059-.06.114-.124.164-.19.537-.813.42-1.9-.277-2.576l-5.282-5.384c-.28-.286-.603-.525-.956-.71l-.575-.262h18.792c.977.037 1.835-.657 2.019-1.633.169-1.06-.54-2.058-1.583-2.23z" transform="translate(-110 -420) rotate(180 240.5 314.5) matrix(-1 0 0 1 546.556 0)"/>
                    <path d="M325.503 155.7c-.109-.018-.22-.027-.33-.025h-18.869l.412-.195c.402-.193.768-.456 1.081-.777l5.291-5.375c.697-.675.814-1.762.278-2.575-.625-.866-1.822-1.054-2.675-.42-.069.051-.134.107-.196.167l-9.568 9.72c-.748.758-.748 1.988-.001 2.748l.001.002 9.568 9.718c.748.758 1.96.757 2.706-.003.06-.06.114-.124.165-.191.536-.813.419-1.9-.278-2.576l-5.281-5.384c-.281-.285-.604-.525-.957-.71l-.574-.262h18.791c.978.037 1.835-.656 2.019-1.632.17-1.06-.54-2.058-1.583-2.23z" transform="translate(-110 -420) rotate(180 240.5 314.5) matrix(-1 0 0 1 627.477 0)"/>
                    <path d="M347.298 118.286c-.073-.013-.147-.018-.22-.017h-12.58l.275-.132c.268-.13.512-.309.72-.526l3.528-3.635c.465-.458.543-1.193.185-1.743-.416-.586-1.214-.713-1.783-.284-.046.035-.09.073-.13.113l-6.38 6.575c-.498.513-.498 1.346 0 1.86l6.38 6.575c.498.513 1.306.512 1.804-.003.039-.04.075-.083.11-.129.357-.55.279-1.285-.186-1.742l-3.52-3.642c-.188-.193-.403-.355-.639-.48l-.382-.178h12.527c.652.025 1.224-.444 1.346-1.104.113-.717-.36-1.392-1.055-1.508z" transform="translate(-110 -420) rotate(180 240.5 314.5) matrix(-1 0 0 1 678.91 0)"/>
                    <path d="M369.928 87.45c-.073-.013-.146-.018-.22-.017h-12.579l.274-.132c.268-.13.512-.309.721-.526l3.527-3.636c.465-.457.543-1.192.185-1.742-.416-.586-1.214-.713-1.783-.284-.045.035-.09.073-.13.113l-6.379 6.575c-.498.513-.499 1.346 0 1.86l6.379 6.575c.499.513 1.306.511 1.804-.003.04-.04.076-.083.11-.129.357-.55.279-1.285-.186-1.742l-3.52-3.642c-.188-.193-.403-.355-.638-.48l-.383-.178h12.527c.652.025 1.224-.444 1.346-1.104.113-.717-.36-1.392-1.055-1.509z" opacity=".417" transform="translate(-110 -420) rotate(180 240.5 314.5) matrix(-1 0 0 1 724.17 0)"/>
                    <path d="M16.758 137.472c-.073-.012-.147-.017-.22-.016H3.958l.275-.132c.268-.13.512-.309.721-.526l3.527-3.636c.465-.457.543-1.192.185-1.742-.416-.586-1.214-.713-1.783-.284-.046.035-.09.073-.13.113l-6.379 6.575c-.498.513-.499 1.345 0 1.86l6.379 6.575c.499.513 1.306.511 1.804-.003.04-.04.076-.083.11-.129.357-.55.279-1.285-.186-1.742l-3.52-3.642c-.188-.193-.403-.355-.638-.48l-.383-.178h12.527c.652.025 1.224-.444 1.346-1.104.113-.717-.36-1.392-1.055-1.509z" opacity=".464" transform="translate(-110 -420) rotate(180 240.5 314.5) matrix(-1 0 0 1 17.83 0)"/>
                    <path d="M273.235 90.19c-.073-.012-.147-.017-.22-.016h-12.58l.275-.132c.268-.13.512-.309.72-.526l3.528-3.636c.465-.457.543-1.192.185-1.742-.416-.586-1.214-.713-1.783-.284-.046.035-.09.073-.13.113l-6.379 6.575c-.498.513-.499 1.346 0 1.86l6.379 6.575c.499.513 1.306.511 1.804-.003.039-.04.076-.083.11-.129.357-.55.279-1.285-.186-1.742l-3.52-3.642c-.188-.193-.403-.355-.639-.48l-.382-.178h12.527c.652.025 1.224-.444 1.346-1.104.113-.717-.36-1.392-1.055-1.509z" transform="translate(-110 -420) rotate(180 240.5 314.5) matrix(-1 0 0 1 530.784 0)"/>
                    <path d="M100.422 74.43c-.073-.012-.147-.018-.22-.017h-12.58l.275-.132c.268-.13.512-.308.72-.526l3.528-3.635c.465-.457.543-1.193.185-1.742-.416-.586-1.215-.714-1.783-.285-.046.035-.09.073-.13.114l-6.38 6.574c-.498.513-.498 1.346 0 1.86l6.38 6.575c.498.513 1.306.512 1.804-.002.039-.04.075-.084.109-.13.358-.55.28-1.284-.185-1.742L88.624 77.7c-.187-.193-.402-.355-.638-.48l-.383-.177h12.528c.652.025 1.223-.445 1.346-1.105.113-.717-.36-1.392-1.055-1.508z" opacity=".53" transform="translate(-110 -420) rotate(180 240.5 314.5) matrix(-1 0 0 1 185.157 0)"/>
                    <path d="M51.459 84.185c-.045-.007-.09-.01-.136-.01h-7.74l.168-.08c.165-.08.315-.188.444-.32l2.17-2.213c.286-.278.334-.726.114-1.06-.256-.357-.747-.435-1.097-.174-.028.022-.055.045-.08.07l-3.926 4.001c-.306.313-.307.82 0 1.132l3.926 4.003c.307.312.804.311 1.11-.002.024-.025.046-.05.067-.078.22-.335.172-.783-.114-1.061L44.2 86.176c-.116-.118-.248-.216-.393-.292l-.235-.108h7.709c.4.015.753-.27.828-.672.07-.437-.221-.848-.65-.919z" transform="translate(-110 -420) rotate(180 240.5 314.5) matrix(-1 0 0 1 93.264 0)"/>
                    <path d="M124.15 102.002c-.045-.008-.09-.011-.136-.01h-7.74l.168-.08c.165-.08.315-.189.444-.32l2.17-2.214c.287-.278.335-.726.114-1.06-.256-.357-.747-.434-1.097-.173-.028.02-.055.044-.08.069l-3.925 4.002c-.307.312-.307.819-.001 1.131v.001l3.926 4.002c.307.312.804.311 1.11-.002.024-.024.047-.05.067-.078.22-.335.173-.782-.113-1.06l-2.167-2.218c-.115-.117-.248-.216-.393-.292l-.235-.108h7.71c.4.015.752-.27.827-.672.07-.436-.22-.847-.649-.918z" transform="translate(-110 -420) rotate(180 240.5 314.5) matrix(-1 0 0 1 238.647 0)"/>
                    <path d="M218.348 73.844c-.029-.004-.057-.007-.085-.006h-4.838l.105-.052c.103-.05.197-.12.277-.205l1.357-1.423c.179-.179.209-.467.071-.682-.16-.23-.467-.279-.686-.111-.017.014-.034.028-.05.044l-2.453 2.573c-.192.2-.192.527 0 .728l2.453 2.573c.192.2.503.2.694-.001.015-.016.03-.033.042-.05.138-.216.108-.504-.07-.683l-1.355-1.425c-.072-.075-.155-.139-.245-.188l-.148-.07h4.819c.25.01.47-.173.517-.431.044-.28-.138-.545-.405-.59z" transform="translate(-110 -420) rotate(180 240.5 314.5) matrix(-1 0 0 1 430.662 0)"/>
                    <path d="M165.543 174.576c-.028-.005-.056-.007-.084-.007h-4.838l.105-.051c.103-.052.197-.121.277-.206l1.357-1.423c.179-.179.209-.467.071-.682-.16-.229-.467-.279-.686-.11-.017.013-.034.028-.05.043l-2.453 2.573c-.192.2-.192.527 0 .728l2.453 2.573c.192.2.503.2.694-.001.015-.016.03-.033.042-.05.138-.216.108-.504-.071-.682l-1.354-1.426c-.072-.075-.155-.139-.246-.187l-.147-.07h4.819c.25.01.47-.174.517-.432.044-.28-.138-.545-.406-.59z" transform="translate(-110 -420) rotate(180 240.5 314.5) matrix(-1 0 0 1 325.054 0)"/>
                    <path d="M160.92 69.359c-.11-.018-.22-.027-.332-.025H141.72l.412-.195c.402-.193.768-.456 1.08-.777l5.292-5.375c.697-.675.814-1.762.277-2.575-.624-.866-1.821-1.054-2.674-.42-.069.051-.134.107-.196.167l-9.568 9.72c-.748.758-.748 1.988-.001 2.748l.001.002 9.568 9.718c.748.758 1.96.757 2.706-.003.059-.06.114-.124.164-.191.537-.813.42-1.9-.277-2.576l-5.282-5.384c-.28-.285-.603-.525-.956-.71l-.574-.262h18.791c.978.037 1.835-.656 2.019-1.632.169-1.06-.54-2.058-1.583-2.23z" transform="translate(-110 -420) rotate(180 240.5 314.5) matrix(-1 0 0 1 298.309 0)"/>
                    <path d="M77.256 118.696c-.11-.018-.22-.026-.331-.024H58.057l.411-.195c.402-.193.768-.456 1.081-.777l5.291-5.375c.697-.676.814-1.763.278-2.575-.625-.866-1.822-1.055-2.675-.42-.069.051-.134.107-.196.167l-9.567 9.719c-.748.758-.749 1.99-.002 2.749l.002.001 9.567 9.72c.749.757 1.96.755 2.707-.005.058-.06.113-.123.164-.19.536-.813.42-1.9-.278-2.576l-5.281-5.384c-.28-.286-.604-.525-.957-.71l-.574-.262h18.791c.978.037 1.836-.657 2.02-1.633.168-1.06-.54-2.058-1.583-2.23z" transform="translate(-110 -420) rotate(180 240.5 314.5) matrix(-1 0 0 1 130.982 0)"/>
                </g>
            </g>
        </g>
    </g>
</svg>
