<svg xmlns="http://www.w3.org/2000/svg" width="24" height="20" viewBox="0 0 24 20">
    <g fill="none" fill-rule="evenodd">
        <g fill="#7EB441" fill-rule="nonzero">
            <path d="M192.557 1659.363c-.098-.015-.197-.023-.297-.021H175.33l.37-.167c.36-.166.688-.392.97-.668l4.747-4.613c.626-.58.73-1.513.25-2.211-.56-.744-1.635-.905-2.4-.36-.062.043-.121.091-.176.143l-8.586 8.343c-.671.651-.672 1.708-.002 2.36l.002.001 8.586 8.343c.671.65 1.758.65 2.428-.003.053-.052.102-.106.147-.164.482-.698.377-1.63-.249-2.21l-4.74-4.623c-.251-.245-.54-.45-.858-.609l-.515-.225h16.863c.877.032 1.647-.564 1.812-1.402.151-.91-.484-1.766-1.42-1.914z" transform="translate(-170 -1651) matrix(-1 0 0 1 364 0)"/>
        </g>
    </g>
</svg>
