<svg xmlns="http://www.w3.org/2000/svg" width="15" height="15" viewBox="0 0 15 15">
    <g fill="none" fill-rule="evenodd">
        <g fill="#434343" fill-rule="nonzero">
            <g>
                <path d="M13.281 15H1.72C.77 15 0 14.23 0 13.281V2.97C0 2.02.77 1.25 1.719 1.25H13.28c.948 0 1.719.77 1.719 1.719V13.28C15 14.23 14.23 15 13.281 15zM1.72 2.188c-.43 0-.782.35-.782.78v10.313c0 .43.351.781.782.781H13.28c.43 0 .781-.35.781-.78V2.968c0-.43-.35-.781-.78-.781H1.718z" transform="translate(-384 -1201) translate(384 1201)"/>
                <path d="M14.531 5.938H.47c-.259 0-.469-.21-.469-.47C0 5.21.21 5 .469 5H14.53c.259 0 .469.21.469.469s-.21.469-.469.469zM3.594 3.75c-.259 0-.469-.21-.469-.469V.47c0-.259.21-.469.469-.469s.469.21.469.469V3.28c0 .259-.21.469-.47.469zM11.406 3.75c-.259 0-.469-.21-.469-.469V.47c0-.259.21-.469.47-.469.258 0 .468.21.468.469V3.28c0 .259-.21.469-.469.469z" transform="translate(-384 -1201) translate(384 1201)"/>
            </g>
        </g>
    </g>
</svg>
