<svg xmlns="http://www.w3.org/2000/svg" width="47" height="40" viewBox="0 0 47 40">
    <g fill="none" fill-rule="evenodd">
        <g fill="#62619A" fill-rule="nonzero">
            <g>
                <path d="M6.495 12.724c-1.254 0-2.27 1.02-2.27 2.278 0 1.259 1.016 2.279 2.27 2.279 1.253 0 2.268-1.02 2.268-2.279 0-1.258-1.016-2.277-2.268-2.278zm0 3.178c-.363 0-.69-.22-.828-.556-.138-.336-.062-.722.194-.98.256-.257.642-.334.976-.195.335.14.553.468.553.831 0 .497-.401.899-.895.9z" transform="translate(-557 -4307) translate(557 4307)"/>
                <path d="M.687 9.458l1.56-.01c-.707.675-1.148 1.671-1.148 2.806 0 .028.002.056.005.084l.893 7.07c.021 1.023.736 1.899 1.731 2.12v2.157c0 .384.153.752.425 1.022s.64.42 1.022.416h2.318c.38.003.747-.147 1.017-.418.27-.27.42-.638.418-1.02v-2.109h18.05V37.04c-.008.785.298 1.54.85 2.097.55.557 1.301.868 2.083.864h13.61c.788.006 1.544-.303 2.104-.859.559-.555.875-1.312.877-2.102v-20.16c-.003-1.651-1.336-2.988-2.98-2.987h-2.477c-.253-1.084-1.189-1.774-2.302-1.774h-2.08c-.03-1.006-.456-1.96-1.186-2.65l1.604-.013c.189-.002.368-.082.497-.22.13-.138.197-.322.189-.512-.035-.48-.128-.955-.279-1.413-.342-1.031-1.413-1.698-2.727-1.698-.73 0-2.017-.005-2.671-.008l-1.2-2.203C30.009 1.81 28.716 0 26.547 0H11.35C9.585 0 8.025 1.2 6.953 3.407l-1.25 2.215c-.654-.001-1.961-.008-2.696-.008C1.693 5.614.622 6.28.28 7.31.13 7.767.036 8.24 0 8.72c-.009.192.06.378.19.517.128.139.307.218.496.221zm6.867 14.227c0 .042-.02.059-.061.059H5.175c-.042 0-.074-.017-.074-.06v-2.108h2.453v2.109zm19.425-6.807v3.319H4.209c-.223 0-.436-.088-.594-.245-.157-.158-.246-.372-.246-.595 0-.029-.002-.057-.006-.086l-.89-7.063c.018-1.378.945-2.211 1.878-2.275.034.009.068.014.102.018h28.801c.006 0 .01.016.016.016 1.183 0 1.94 1.067 2.017 2.151h-.597c-1.113 0-2.05.69-2.302 1.774H29.91c-.784.001-1.536.318-2.087.879-.55.56-.855 1.32-.845 2.108zm-3.462-8.307c.268-1.117 1.264-1.904 2.408-1.904 1.145 0 2.14.787 2.409 1.904h-4.817zm17.502 6.7h2.503c.425 0 .833.168 1.135.47.3.301.47.71.471 1.138v20.16c-.002.424-.172.83-.474 1.128-.302.297-.71.46-1.132.454H29.91c-.418.004-.82-.161-1.113-.46-.294-.298-.455-.703-.446-1.122v-20.16c0-.89.673-1.608 1.559-1.608h2.503c.301 1.006 1.23 1.69 2.276 1.675h4.053c1.046.014 1.975-.669 2.276-1.675zm-2.283-1.773c.55 0 .996.448.996 1v.166c0 .553-.446 1.001-.996 1.001h-4.09c-.55 0-.996-.448-.996-1.001v-.165c0-.553.446-1.001.997-1.001h4.089zM34.76 6.99c.702 0 1.275.303 1.425.755.036.11.066.216.091.319H33.42l-.583-1.079c.645.003 1.419.005 1.924.005zM8.16 4.06c.006-.013.013-.015.019-.028.48-.994 1.532-2.653 3.17-2.653h15.197c1.15 0 2.09.803 3.141 2.695l2.434 4.497h-2.389c-.287-1.888-1.905-3.283-3.807-3.283s-3.52 1.395-3.807 3.283H5.628L8.16 4.06zM1.581 7.744c.15-.452.723-.755 1.425-.755.503 0 1.276 0 1.922.002L4.33 8.059l-2.839.004c.025-.102.055-.209.091-.318z" transform="translate(-557 -4307) translate(557 4307)"/>
                <path d="M26.356 13.923c-.364-1.076-1.536-1.903-2.668-1.903H14.04c-1.136 0-2.301.833-2.654 1.917l-.483 1.478c-.068.216-.032.451.097.637.127.183.333.296.556.303H26.21c.225-.009.432-.124.558-.31.13-.182.164-.415.092-.627l-.505-1.495zm-13.853 1.052l.189-.588c.167-.514.81-.988 1.348-.988h9.648c.541 0 1.193.475 1.368.99l.196.586h-12.75zM24.541 17.537H13.148c-.38 0-.687.309-.687.69 0 .38.307.69.687.69H24.54c.38 0 .687-.31.687-.69 0-.381-.308-.69-.687-.69zM30.711 23.94h.728c.38 0 .687-.308.687-.689 0-.38-.307-.69-.687-.69h-.045V20.69h1.942c.091.197.327.448.63.448.379-.013.677-.331.665-.712v-.47c.008-.174-.057-.343-.18-.466-.122-.123-.291-.188-.464-.18h-3.276c-.379 0-.691.265-.691.646v3.29c.002.382.31.693.691.695zM30.707 30.246h3.237c.38 0 .687-.308.687-.69v-3.25c0-.381-.308-.69-.687-.69h-3.237c-.38 0-.687.309-.687.69v3.25c0 .184.072.359.201.488.129.13.304.202.486.202zm.687-3.25h1.863v1.97h-1.863v-1.97zM31.44 35.37h-.046v-1.971H33.3c-.004.18.064.356.189.486s.297.205.477.206c.177.004.349-.066.475-.192.125-.127.194-.3.19-.478v-.673c0-.38-.265-.728-.644-.728h-3.276c-.387.018-.692.339-.691.728v3.29c0 .386.307.7.691.71h.729c.379 0 .686-.308.686-.689 0-.38-.307-.69-.686-.69z" transform="translate(-557 -4307) translate(557 4307)"/>
                <path d="M35.594 20.118l-2.042 2.051-.626-.628c-.173-.174-.426-.242-.663-.179-.237.064-.422.25-.486.488-.063.238.004.492.178.666l1.111 1.116c.129.13.304.202.486.202s.357-.073.485-.202l2.528-2.539c.174-.174.242-.428.178-.666-.063-.238-.248-.424-.485-.488s-.49.005-.664.179zM35.594 33.01l-2.042 2.052-.626-.628c-.173-.174-.426-.242-.663-.179-.237.064-.422.25-.486.488-.063.238.004.492.178.666l1.111 1.116c.129.13.304.202.486.202s.357-.073.485-.202l2.529-2.539c.173-.174.24-.428.177-.666-.063-.238-.248-.424-.485-.488-.237-.063-.49.005-.664.179zM37.667 21.576c0 .381.308.69.687.69h4.367c.38 0 .687-.309.687-.69 0-.38-.307-.69-.687-.69h-4.367c-.379 0-.687.31-.687.69zM42.721 27.29h-4.367c-.379 0-.687.31-.687.69 0 .381.308.69.687.69h4.367c.38 0 .687-.309.687-.69 0-.38-.307-.69-.687-.69zM42.721 33.695h-4.367c-.379 0-.687.308-.687.69 0 .38.308.689.687.689h4.367c.38 0 .687-.309.687-.69 0-.38-.307-.69-.687-.69z" transform="translate(-557 -4307) translate(557 4307)"/>
            </g>
        </g>
    </g>
</svg>
