<svg xmlns="http://www.w3.org/2000/svg" width="35" height="30" viewBox="0 0 35 30">
    <g fill="none" fill-rule="evenodd">
        <g fill="#62619A" fill-rule="nonzero">
            <g>
                <g>
                    <path d="M32.472 16.596c-1.024-.424-2.148-.2-2.932.583l-4.751 4.752c.007-.087.011-.175.011-.264 0-1.654-1.346-3-3-3h-4.43l-2.418-1.209c-1.035-.518-2.195-.791-3.352-.791-1.359 0-2.693.37-3.858 1.068l-.488.293c-.37-.802-1.18-1.361-2.12-1.361H1c-.552 0-1 .447-1 1V29c0 .552.448 1 1 1h4.133c1.062 0 1.959-.712 2.241-1.684l5.472 1.642c.093.028.19.042.287.042h10.075c1.956 0 3.771-.882 4.98-2.42l5.37-6.836c.371-.472.575-1.062.575-1.662 0-1.11-.636-2.062-1.66-2.486zm-27.339 2.07c.184 0 .334.15.334.334v1.667H2v-2h3.133zm.334 9c0 .184-.15.334-.334.334H2v-5.333h3.467v5zm26.519-8.157l-5.37 6.835C25.787 27.396 24.545 28 23.207 28H13.28l-5.813-1.744v-6.023l1.304-.783c.855-.512 1.832-.783 2.829-.783.849 0 1.699.2 2.458.58l2.628 1.314c.139.07.292.106.447.106H21.8c.551 0 1 .448 1 1 0 .551-.449 1-1 1h-6c-.552 0-1 .447-1 1 0 .552.448 1 1 1h8.667c.265 0 .52-.106.707-.293l5.78-5.78c.295-.295.625-.204.753-.15.128.053.426.221.426.638 0 .154-.052.306-.147.427zM5.22 12.243c.536.418 1.18.637 1.84.637.244 0 .49-.03.734-.091l4.505-1.127c.918-.229 1.59-.98 1.737-1.889h13.697c.315 0 .61-.148.8-.399l1.333-1.773c.13-.173.2-.384.2-.6V4.105c0-.552-.447-1-1-1h-3.333c-.4 0-.762.24-.92.608l-.407.953H23.06l-.407-.953c-.157-.369-.52-.608-.92-.608h-7.697c-.146-.909-.82-1.66-1.737-1.889L7.794.091C6.892-.135 5.954.064 5.22.637 4.487 1.209 4.067 2.07 4.067 3v6.877c0 .93.42 1.792 1.153 2.365zM21.48 6.06c.158.368.52.607.92.607h2.667c.4 0 .762-.239.92-.607l.407-.954h1.673v1.56l-.833 1.107H14.067V5.106H17.4v.561c0 .552.448 1 1 1s1-.448 1-1v-.56h1.673l.407.953zM6.451 2.213c.179-.14.393-.212.613-.212.082 0 .164.01.245.03l4.505 1.126c.149.038.253.17.253.324v5.918c0 .153-.104.286-.253.323L7.31 10.848c-.3.076-.613.01-.858-.181-.244-.191-.384-.479-.384-.789V7.44h1c.552 0 1-.448 1-1 0-.553-.448-1-1-1h-1V3c0-.31.14-.597.384-.788z" transform="translate(-1207 -2853) translate(117 2308) translate(1090 545)"/>
                </g>
            </g>
        </g>
    </g>
</svg>
