<svg xmlns="http://www.w3.org/2000/svg" width="100" height="34" viewBox="0 0 100 34">
    <g fill="none" fill-rule="evenodd">
        <g fill="#62619A" fill-rule="nonzero">
            <g>
                <path d="M17.794 17.41c-4.363 0-7.902 3.535-7.902 7.899 0 .34.027.67.07.994.49 3.896 3.806 6.91 7.832 6.91 4.139 0 7.527-3.179 7.871-7.229.018-.225.034-.446.034-.676 0-4.363-3.538-7.898-7.905-7.898zm-3.958 4.923l1.613 1.612c-.126.216-.225.447-.287.695h-2.271c.117-.861.446-1.645.945-2.307zm-.954 3.675h2.288c.065.244.161.476.287.688l-1.616 1.613c-.498-.657-.838-1.443-.959-2.301zm4.228 4.213c-.854-.117-1.635-.453-2.292-.949l1.607-1.607c.21.123.442.214.685.276v2.28zm0-7.539c-.248.064-.48.164-.698.291l-1.609-1.609c.66-.503 1.447-.835 2.308-.955l-.001 2.273zm1.369-2.273c.863.12 1.648.452 2.31.956l-1.609 1.608c-.217-.127-.45-.227-.7-.291l-.001-2.273zm0 9.812v-2.28c.244-.063.475-.154.687-.279l1.606 1.61c-.657.494-1.436.83-2.293.949zm3.274-1.908l-1.62-1.619c.125-.213.229-.439.294-.686h2.271c-.12.858-.444 1.649-.945 2.305zm-1.325-3.672c-.062-.248-.16-.479-.285-.695l1.611-1.612c.5.661.829 1.445.947 2.308h-2.273v-.001zM74.758 17.41c-4.363 0-7.901 3.535-7.901 7.899 0 .34.026.67.067.994.49 3.896 3.808 6.91 7.834 6.91 4.139 0 7.526-3.179 7.87-7.229.02-.225.034-.446.034-.676 0-4.363-3.538-7.898-7.904-7.898zm-3.959 4.923l1.613 1.612c-.126.216-.224.447-.287.695h-2.271c.117-.861.447-1.645.945-2.307zm-.953 3.675h2.288c.064.244.16.476.286.688l-1.616 1.613c-.496-.657-.837-1.443-.958-2.301zm4.228 4.213c-.855-.117-1.635-.453-2.293-.949l1.606-1.607c.211.123.443.214.687.276v2.28zm0-7.539c-.25.064-.482.164-.699.291l-1.608-1.609c.66-.503 1.446-.835 2.309-.955l-.002 2.273zm1.367-2.273c.862.12 1.647.452 2.31.956l-1.608 1.608c-.218-.127-.45-.227-.7-.291l-.002-2.273zm0 9.812v-2.28c.244-.063.475-.154.687-.279l1.607 1.61c-.657.494-1.436.83-2.294.949zm3.275-1.908l-1.62-1.619c.125-.213.229-.439.295-.686h2.271c-.122.858-.445 1.649-.946 2.305zm-1.324-3.672c-.062-.248-.16-.479-.285-.695l1.611-1.612c.499.661.828 1.445.945 2.308h-2.271v-.001z" transform="translate(-269 -817) translate(269 817)"/>
                <path d="M97.999 19.649H96.44l-.4-9.369c-.024-.578-.504-1.032-1.082-1.027l-21.536.197V1.67c0-.724-.587-1.31-1.311-1.31h-1.027c-.723 0-1.31.586-1.31 1.31v7.814l-2.86.026-.574-6.886c-.12-1.44-1.324-2.549-2.77-2.549H37.414c-.913 0-1.79.353-2.448.984l-8.782 8.428-16.811 1.774c-2.33.245-4.463 1.421-5.915 3.261l-1.731 2.194c-1.316.813-1.975 2.373-1.64 3.885l.521 2.356c.225 1.021 1.023 1.815 2.044 2.036l5.737 1.248c-.033-.322-.064-.639-.064-.932 0-5.221 4.248-9.468 9.47-9.468 5.224 0 9.473 4.248 9.473 9.468 0 .272-.018.539-.039.806-.006.069-.02.136-.027.204h38.157c-.04-.354-.07-.692-.07-1.01 0-5.221 4.248-9.468 9.471-9.468 5.225 0 9.473 4.248 9.473 9.468 0 .272-.019.539-.039.806-.006.069-.021.136-.027.204h4.808l4.356-2.401h4.672c.711 0 1.287-.575 1.287-1.286v-1.695c-.004-.714-.58-1.288-1.291-1.288zm-64.928-9.647s.559-1.347 0-2.89l3.467-4.299c.198-.245.496-.388.81-.388h10.375v7.576l-14.652.001zm18.492 0V2.426h9.415c.558 0 1.017.44 1.04.997l.273 6.579H51.563z" transform="translate(-269 -817) translate(269 817)"/>
            </g>
        </g>
    </g>
</svg>
