<svg xmlns="http://www.w3.org/2000/svg" width="49" height="19" viewBox="0 0 49 19">
    <g fill="none" fill-rule="evenodd">
        <g fill="#FFF" fill-rule="nonzero">
            <g>
                <path d="M8 11c-2.21 0-4 1.79-4 4 0 .17.014.338.035.503C4.283 17.474 5.962 19 8 19c2.095 0 3.81-1.61 3.984-3.66.009-.113.017-.225.017-.342C12 12.79 10.21 11 8 11zm-2.004 2.492l.817.817c-.064.109-.114.226-.145.352h-1.15c.06-.437.227-.834.478-1.169zm-.482 1.86h1.158c.033.123.08.241.144.348l-.818.817c-.252-.333-.423-.73-.484-1.164zm2.14 2.133c-.433-.06-.827-.23-1.16-.481l.813-.813c.107.062.225.108.347.14v1.154zm0-3.816c-.126.032-.244.083-.353.148L6.486 13c.334-.254.732-.423 1.168-.483v1.151zm.693-1.151c.436.06.834.23 1.168.484l-.815.815c-.11-.065-.227-.116-.353-.148v-1.151zm0 4.967V16.33c.123-.032.24-.077.347-.14l.814.814c-.334.25-.729.42-1.161.48zm1.657-.965l-.82-.821c.063-.108.116-.223.149-.347h1.15c-.062.434-.227.835-.479 1.168zm-.671-1.86c-.032-.125-.082-.243-.145-.352l.816-.817c.253.335.42.733.48 1.168H9.332zM40 11c-2.209 0-4 1.79-4 4 0 .17.014.338.035.503C36.282 17.474 37.962 19 40 19c2.095 0 3.81-1.61 3.984-3.66.009-.113.017-.225.017-.342C44.001 12.79 42.21 11 40 11zm-2.004 2.492l.817.817c-.064.109-.114.226-.145.352h-1.15c.06-.437.226-.834.478-1.169zm-.482 1.86h1.158c.033.123.08.241.144.348l-.817.816c-.252-.332-.424-.73-.485-1.163zm2.14 2.133c-.433-.06-.827-.23-1.16-.481l.813-.813c.107.062.225.108.347.14v1.154zm0-3.816c-.126.032-.244.083-.353.148L38.486 13c.335-.254.733-.423 1.168-.483v1.151zm.693-1.151c.436.06.833.23 1.168.484l-.815.815c-.11-.065-.228-.116-.353-.148v-1.151zm0 4.967V16.33c.122-.032.24-.077.347-.14l.813.814c-.333.25-.727.42-1.16.48zm1.657-.965l-.82-.821c.063-.108.116-.223.149-.347h1.15c-.062.434-.226.835-.479 1.168zm-.67-1.86c-.033-.125-.082-.243-.145-.352l.816-.817c.253.335.42.733.48 1.168h-1.151z" transform="translate(-356 -4251) translate(356 4251)"/>
                <path d="M48.667 9.988l-.744-.708.001-2.236c0-.587-.217-1.152-.611-1.588l-2.75-3.036v-.002c-.014-.63-.468-1.164-1.09-1.28-3.27-.613-13.416-2.197-21.446-.046-4.961 1.33-10.005 4.004-10.005 4.004S3.263 6.209 1.164 8.936c-.731.95-1.038 2.197-1.149 3.32-.155 1.57.88 3.004 2.424 3.35l.81.182c-.007-.044-.018-.087-.023-.132-.027-.206-.04-.398-.04-.582 0-2.556 2.086-4.636 4.65-4.636 2.563 0 4.65 2.08 4.65 4.636 0 .134-.01.263-.02.394-.014.158-.036.313-.065.466l23.47.047c-.02-.108-.042-.215-.056-.325-.027-.206-.04-.398-.04-.582 0-2.556 2.086-4.636 4.65-4.636 2.564 0 4.65 2.08 4.65 4.636 0 .134-.01.263-.02.394-.015.18-.045.358-.08.532h.32l1.335-.73c1.393-.76 2.283-2.194 2.343-3.775l.026-.692c.011-.306-.11-.601-.332-.815zM16.636 5.41l.359-1.43S22.43 1.144 31.53 1.453V5.68L16.958 6.827s.078-.907-.322-1.417zm23.35-.394l-6.853.539V1.542c2.253.163 4.702.518 7.33 1.15.266.064.48.261.564.52.085.26.03.544-.147.752l-.895 1.052z" transform="translate(-356 -4251) translate(356 4251)"/>
            </g>
        </g>
    </g>
</svg>
