<svg xmlns="http://www.w3.org/2000/svg" width="50" height="17" viewBox="0 0 50 17">
    <g fill="none" fill-rule="evenodd">
        <g fill="#FFF" fill-rule="nonzero">
            <g>
                <path d="M9 9c-2.209 0-4 1.79-4 3.999 0 .172.014.339.035.503C5.283 15.474 6.962 17 9 17c2.095 0 3.81-1.61 3.984-3.66.009-.113.017-.225.017-.342C13 10.79 11.21 9 9 9zm-2.004 2.492l.816.816c-.063.11-.113.227-.145.352h-1.15c.06-.436.227-.833.48-1.168zm-.483 1.86h1.158c.033.124.082.242.145.349L7 14.517c-.252-.332-.425-.73-.486-1.164zm2.14 2.133c-.432-.059-.827-.229-1.16-.48l.813-.814c.107.063.224.109.347.14v1.154zm0-3.816c-.125.032-.243.083-.353.147l-.815-.814c.335-.255.733-.423 1.169-.484v1.15zm.693-1.15c.437.06.834.228 1.169.483l-.814.814c-.11-.064-.228-.115-.355-.147v-1.15zm0 4.966v-1.154c.123-.032.24-.078.348-.141l.812.815c-.332.25-.726.42-1.16.48zm1.657-.966l-.82-.82c.063-.107.116-.221.149-.346h1.15c-.062.434-.226.834-.48 1.166zm-.67-1.858c-.032-.126-.082-.243-.145-.352l.815-.816c.253.334.42.731.48 1.168h-1.15zM37 9c-2.21 0-4 1.79-4 3.999 0 .172.013.339.034.503C33.282 15.474 34.96 17 36.999 17c2.095 0 3.81-1.61 3.984-3.66.01-.113.017-.225.017-.342C41 10.79 39.21 9 37 9zm-2.005 2.492l.817.816c-.064.11-.114.227-.146.352h-1.149c.06-.436.226-.833.478-1.168zm-.482 1.86h1.158c.032.124.081.242.145.349l-.818.816c-.251-.332-.424-.73-.485-1.164zm2.14 2.133c-.433-.059-.828-.229-1.16-.48l.812-.814c.107.063.225.109.348.14v1.154zm0-3.816c-.127.032-.244.083-.354.147l-.814-.814c.334-.255.732-.423 1.169-.484l-.001 1.15zm.692-1.15c.436.06.834.228 1.17.483l-.815.814c-.11-.064-.227-.115-.354-.147l-.001-1.15zm0 4.966v-1.154c.123-.032.24-.078.348-.141l.813.815c-.332.25-.727.42-1.161.48zm1.658-.966l-.82-.82c.063-.107.116-.221.149-.346h1.15c-.062.434-.226.834-.48 1.166zm-.67-1.858c-.032-.126-.081-.243-.145-.352l.816-.816c.252.334.419.731.478 1.168h-1.15z" transform="translate(-629 -4253) translate(629 4253)"/>
                <path d="M49.35 9.696h-.785l-.202-4.64c-.012-.287-.253-.512-.545-.51l-10.845.098V.79c0-.359-.295-.649-.66-.649h-.517c-.364 0-.66.29-.66.65v3.87l-1.44.013-.289-3.411C33.347.549 32.74 0 32.012 0H18.841c-.46 0-.902.175-1.233.487l-4.423 4.175-8.465.879c-1.174.121-2.248.704-2.979 1.615L.87 8.243c-.662.403-.994 1.176-.826 1.925l.263 1.167c.113.505.515.899 1.03 1.008l2.888.618c-.016-.16-.032-.316-.032-.461 0-2.587 2.14-4.69 4.769-4.69 2.63 0 4.77 2.104 4.77 4.69 0 .134-.009.267-.02.399-.002.034-.01.067-.013.101h19.215c-.02-.175-.035-.343-.035-.5 0-2.587 2.139-4.69 4.77-4.69 2.63 0 4.77 2.104 4.77 4.69 0 .134-.01.267-.02.399-.003.034-.01.067-.014.101h2.422l2.193-1.19h2.353c.358 0 .648-.284.648-.636v-.84c-.002-.354-.292-.638-.65-.638zM16.654 4.917s.281-.667 0-1.431l1.745-2.13c.1-.121.25-.192.408-.192h5.225v3.753h-7.378zm9.312 0V1.165h4.74c.282 0 .513.218.525.493l.137 3.26h-5.402z" transform="translate(-629 -4253) translate(629 4253)"/>
            </g>
        </g>
    </g>
</svg>
