<svg xmlns="http://www.w3.org/2000/svg" width="83" height="40" viewBox="0 0 83 40">
    <g fill="none" fill-rule="evenodd">
        <g fill="#FFF" fill-rule="nonzero">
            <g>
                <g>
                    <path d="M20.229 23.329c-1.677-.007-3.052-.835-3.688-2.143-.28.206-.624.425-1.022.653l-.016.009-.07.036c-.242.126-.46.231-.697.23-.142 0-.277-.04-.39-.117l-.035-.024-.032-.028c-.356-.319-.6-.748-.655-1.148l-.141-1.037.726.286c.088-.066.204-.156.323-.249l.189-.147c.956-.72 1.192-1.271 1.195-1.277l.01-.03.01-.016c.222-.458.568-1.113.872-1.69l.252-.48c1.332-2.626 3.3-4.058 5.687-4.133h.022c.636.002.942.294 1.116.551.033.032.716-.453 1.161-.45.164 0 .505.001.806.305.59.595.932 1.511 1.062 2.349 1.113-1.3 2.287-2.51 3.358-2.868.36-.169.693-.169.964-.168h.106c.863.002 1.527.269 1.974.79.15.176.26.364.34.551.797-.729 1.617-1.173 2.642-1.17.073.001.147.003.222.008 1.535.082 2.233 1.21 2.23 2.221l-.001.024c-.047 1.123-.895 2.305-2.233 2.34h-.018c-.833-.002-1.48-.32-1.908-.927-.068.13-.124.315-.167.584l-.002.015c3.352 1.98 4.415-.82 4.793-1.212 1.465-1.524 2.85-2.964 5.463-2.954h.073c1.413.03 2.17.767 2.61 1.454l3.528-5.912c.054-.09.152-.146.257-.145l3.152.011c.228.001.37.247.258.445-1.295 2.279-7.145 12.578-7.192 12.708.612-.147 1.436-1.1 3.333-3.08 0 0 .614-.767 1.36-.52.443.147.984.382.982.924-.001.45-2.188 5.431-6.69 5.43h-.016c-1.02-.003-1.69-.336-2.056-1.034-.921.475-2.367.926-3.798.921-1.42-.034-2.422-.71-2.99-2.007-.223-.48-.338-1.053-.339-1.638-.5.123-1.002.154-1.55.152-.146 0-.298-.004-.458-.009-1.153-.032-1.994-.474-2.541-1.346l-.186.337c-.682 1.237-2.017 3.705-2.364 4.347-.052.097-.153.156-.262.155l-3.362-.012c-.229-.001-.371-.25-.256-.448l3.414-5.865c.319-1.258-1.715.465-3.314 2.37-1.234 1.47-3.003 4.089-6.041 4.078zm.254-3.856c2.328 0 3.18-3.007 2.796-3.33-.867-.73-2.967-.139-3.404 2.103-.125.644.145 1.116.608 1.227zm21.262-2.595c-.512.48-.968 1.565-.745 2.17.083.223 1.566.907 2.913-.804.42-.534.744-1.326.562-1.894-.085-.266-1.129-.975-2.73.528zM7.609 10.938c-.871 0-1.696-.352-2.322-.99-.7-.713-1.105-1.743-1.086-2.754.018-1.757.968-3.35 2.677-4.482C8.8 1.44 12.338-.728 20.058.346c2.418.337 7.92 2.455 16.316 1.67.27-.026.381-.086.758-.086.546 0 1.196.187 1.196 1.08 0 1.573-3.958 3.323-6.64 3.323-3.189 0-6.418-1.08-8.776-1.868-.893-.299-1.664-.557-2.219-.682-2.134-.5-4.176-.947-5.747-.947-4.057 0-5.864 1.268-6.58 2.023-.569.6-.85 1.28-.814 1.965.03.469.334.742.834.742.096 0 .198-.01.303-.03 1.004-.176 2.44-1.175 2.752-1.91.15-.35.49-.581.867-.575.843.013.886.814.825 1.102-.199 1.352-2.152 4.785-5.524 4.785z" transform="translate(-1215 -3566) translate(1215 3566) translate(13.828 6.418)"/>
                    <path d="M5.815 22.945c-3.32 0-5.682-2.271-5.746-5.523-.018-1.13.434-2.347 1.242-3.345.896-1.107 2.145-1.884 3.611-2.247L5 11.811h.079c.765 0 1.107.48 1.107.955 0 .193-.076.677-.783.991l-.019.009-.02.007c-.551.204-1.85 1.594-1.85 2.836 0 .846.525 1.842 1.403 2.044l.025.007c3.824.798 5.833-2.248 9.333-6.942-.817.152-1.593.378-1.796.612 0 0-.523.333-.75.333-.424 0-.773-.296-.888-.755l-.02-.077v-.08c0-.304.228-.673.316-.79l.015-.02.018-.02c.927-1.044 3.012-1.417 4.745-1.622 2.504-3.809 3.222-4.124 3.839-4.124.166 0 .296.036.401.072l.066.022c.368.123 1.7.872-.108 3.275.327-.045 1.152-.102 1.348-.332.446-2.44 3.233-3.105 4.017-.55.326 1.061-.43 1.724-1.067 2.185-1.504 1.086-4.125 1.433-5.428 1.714-5.95 9.612-9.041 11.384-13.167 11.384z" transform="translate(-1215 -3566) translate(1215 3566) translate(13.828 6.418)"/>
                </g>
                <path d="M41.266 39.775c-10.87 0-21.1-1.945-28.808-5.476C4.435 30.623.017 25.613.017 20.19c0-5.405 4.418-10.404 12.441-14.074C20.17 2.588 30.401.645 41.266.645c10.856 0 21.087 1.943 28.81 5.471 8.04 3.673 12.466 8.671 12.466 14.075 0 5.42-4.427 10.43-12.465 14.108-7.719 3.531-17.95 5.476-28.811 5.476zm0-36.583c-10.508 0-20.364 1.861-27.752 5.241C6.552 11.62 2.56 15.904 2.56 20.191c0 4.367 3.89 8.555 10.956 11.792 7.383 3.383 17.239 5.245 27.75 5.245 10.505 0 20.362-1.863 27.756-5.245 6.978-3.193 10.98-7.49 10.98-11.792 0-4.284-4.002-8.57-10.98-11.758-7.398-3.38-17.255-5.241-27.755-5.241z" transform="translate(-1215 -3566) translate(1215 3566)"/>
            </g>
        </g>
    </g>
</svg>
