<svg xmlns="http://www.w3.org/2000/svg" xmlns:xlink="http://www.w3.org/1999/xlink" width="272" height="200" viewBox="0 0 272 200">
    <defs>
        <path id="vwshvk23fa" d="M104.1 5.72l-2.133 2.049c-7.417 7.121-7.427 18.977-.023 26.112l26.317 25.356H21.848c-2.428 0-4.79.777-6.743 2.22l-3.735 2.756-5.976 4.411c-4.007 2.959-5.666 8.2-3.969 12.88 14.333 39.526 47.095 70.502 88.164 83.013l-45.392-45.515-11.233-11.229c-2.926-2.925-.853-7.926 3.284-7.926h86.048l-20.308 19.538c-7.413 7.132-7.406 18.995.015 26.12l1.324 1.272c7.014 6.734 18.097 6.734 25.111 0l67.257-64.573c3.564-3.422 3.566-9.12.005-12.546L129.224 5.73c-3.508-3.374-8.038-5.062-12.567-5.062-4.524 0-9.048 1.684-12.556 5.052z"/>
    </defs>
    <g fill="none" fill-rule="evenodd" opacity=".1">
        <g>
            <g>
                <g>
                    <g>
                        <path fill="#7EB441" d="M273 145c-5.843 65.53-59.766 117.553-127 122l127-122z" transform="translate(0 -5142) translate(-179 4629) translate(168 432) translate(10 81)"/>
                        <path fill="#62619A" d="M0 122C5.843 56.47 59.766 4.446 127 0L0 122zM269.338 87.09c-14.362-39.562-47.19-70.567-88.34-83.09l45.481 45.557 11.256 11.24c2.933 2.928.856 7.933-3.291 7.933h-86.219l20.348-19.556c7.428-7.139 7.422-19.013-.014-26.145l-1.327-1.272c-7.028-6.742-18.134-6.742-25.163 0L74.68 86.39c-3.57 3.425-3.572 9.128-.004 12.556l66.608 63.987c7.027 6.752 18.14 6.756 25.174.011l2.138-2.05c7.432-7.13 7.442-18.997.023-26.138l-26.37-25.379h106.626c2.432 0 4.8-.779 6.757-2.221l3.742-2.76 5.988-4.415c4.014-2.96 5.678-8.205 3.977-12.89" transform="translate(0 -5142) translate(-179 4629) translate(168 432) translate(10 81)"/>
                        <g transform="translate(0 -5142) translate(-179 4629) translate(168 432) translate(10 81) translate(0 104)">
                            <mask id="d2db7r5g9b" fill="#fff">
                                <use xlink:href="#vwshvk23fa"/>
                            </mask>
                            <path fill="#7EB441" d="M-0.272 164.517L199.261 164.517 199.261 -1.019 -0.272 -1.019z" mask="url(#d2db7r5g9b)"/>
                            <path fill="#7EB441" d="M190.339 82.593c0 25.055-10.16 47.739-26.586 64.158-8.213 8.21-17.994 14.854-28.854 19.446v-.763H64.234v.763c-10.86-4.592-20.64-11.236-28.853-19.446-16.426-16.419-26.586-39.103-26.586-64.158 0-50.111 40.64-90.734 90.771-90.734 50.133 0 90.773 40.623 90.773 90.734" mask="url(#d2db7r5g9b)"/>
                            <path fill="#7EB441" d="M189.861 82.593c0 24.923-10.107 47.488-26.447 63.821-8.17 8.166-17.898 14.775-28.7 19.343v-.323H64.42v.323c-10.802-4.568-20.531-11.177-28.7-19.343-16.341-16.333-26.447-38.898-26.447-63.821 0-49.847 40.425-90.257 90.293-90.257 49.869 0 90.295 40.41 90.295 90.257" mask="url(#d2db7r5g9b)"/>
                            <path fill="#7EB441" d="M189.383 82.593c0 24.791-10.052 47.236-26.306 63.483-8.127 8.123-17.804 14.698-28.55 19.24-5.372 2.272-11.013 4.036-16.859 5.232v-5.114H81.466v5.114c-5.847-1.196-11.487-2.96-16.86-5.231-10.745-4.543-20.422-11.118-28.549-19.241C19.803 129.829 9.75 107.384 9.75 82.593c0-49.583 40.212-89.78 89.816-89.78 49.605 0 89.817 40.197 89.817 89.78" mask="url(#d2db7r5g9b)"/>
                            <path fill="#7EB442" d="M188.905 82.593c0 24.66-9.999 46.986-26.167 63.145-8.083 8.08-17.708 14.62-28.397 19.139-5.344 2.26-10.953 4.014-16.77 5.203v-4.646h-36.01v4.646c-5.815-1.19-11.425-2.944-16.77-5.203-10.687-4.52-20.313-11.058-28.397-19.139-16.167-16.16-26.166-38.486-26.166-63.145 0-49.32 39.998-89.302 89.338-89.302 49.341 0 89.34 39.982 89.34 89.302" mask="url(#d2db7r5g9b)"/>
                            <path fill="#7FB442" d="M188.428 82.593c0 49.056-39.785 88.823-88.862 88.823-49.076 0-88.86-39.767-88.86-88.823 0-49.056 39.784-88.824 88.86-88.824 49.077 0 88.862 39.768 88.862 88.824" mask="url(#d2db7r5g9b)"/>
                            <path fill="#7FB542" d="M187.95 82.593c0 48.792-39.57 88.346-88.384 88.346-48.812 0-88.383-39.554-88.383-88.346 0-48.793 39.57-88.347 88.383-88.347 48.814 0 88.384 39.554 88.384 88.347" mask="url(#d2db7r5g9b)"/>
                            <path fill="#7FB543" d="M187.473 82.593c0 48.528-39.357 87.868-87.906 87.868-48.549 0-87.906-39.34-87.906-87.868 0-48.528 39.357-87.869 87.906-87.869 48.549 0 87.906 39.34 87.906 87.869" mask="url(#d2db7r5g9b)"/>
                            <path fill="#7FB543" d="M186.995 82.593c0 48.264-39.144 87.391-87.428 87.391-48.286 0-87.428-39.127-87.428-87.391 0-48.265 39.142-87.391 87.428-87.391 48.284 0 87.428 39.126 87.428 87.391" mask="url(#d2db7r5g9b)"/>
                            <path fill="#80B544" d="M186.517 82.593c0 48-38.929 86.913-86.95 86.913-48.022 0-86.95-38.913-86.95-86.913 0-48.001 38.928-86.914 86.95-86.914 48.021 0 86.95 38.913 86.95 86.914" mask="url(#d2db7r5g9b)"/>
                            <path fill="#80B544" d="M186.04 82.593c0 47.737-38.716 86.436-86.473 86.436-47.758 0-86.473-38.699-86.473-86.436 0-47.738 38.715-86.436 86.473-86.436 47.757 0 86.472 38.698 86.472 86.436" mask="url(#d2db7r5g9b)"/>
                            <path fill="#80B544" d="M185.561 82.593c0 47.473-38.501 85.958-85.994 85.958s-85.995-38.485-85.995-85.958c0-47.474 38.502-85.959 85.995-85.959S185.56 35.12 185.56 82.593" mask="url(#d2db7r5g9b)"/>
                            <path fill="#81B645" d="M185.084 82.593c0 47.21-38.287 85.48-85.517 85.48s-85.517-38.27-85.517-85.48S52.337-2.888 99.567-2.888s85.517 38.27 85.517 85.481" mask="url(#d2db7r5g9b)"/>
                            <path fill="#81B645" d="M184.606 82.593c0 46.946-38.073 85.002-85.04 85.002-46.965 0-85.038-38.056-85.038-85.002S52.6-2.41 99.567-2.41s85.039 38.057 85.039 85.003" mask="url(#d2db7r5g9b)"/>
                            <path fill="#81B646" d="M184.128 82.593c0 46.682-37.86 84.526-84.561 84.526-46.703 0-84.561-37.844-84.561-84.526 0-46.683 37.858-84.526 84.56-84.526 46.703 0 84.562 37.843 84.562 84.526" mask="url(#d2db7r5g9b)"/>
                            <path fill="#82B647" d="M183.65 82.593c0 46.419-37.646 84.048-84.083 84.048-46.439 0-84.084-37.629-84.084-84.048 0-46.42 37.645-84.048 84.084-84.048 46.437 0 84.083 37.629 84.083 84.048" mask="url(#d2db7r5g9b)"/>
                            <path fill="#82B647" d="M183.173 82.593c0 46.155-37.432 83.57-83.606 83.57-46.175 0-83.606-37.415-83.606-83.57 0-46.156 37.431-83.57 83.606-83.57 46.174 0 83.606 37.414 83.606 83.57" mask="url(#d2db7r5g9b)"/>
                            <path fill="#82B748" d="M182.695 82.593c0 45.891-37.218 83.093-83.128 83.093s-83.128-37.202-83.128-83.093C16.439 36.702 53.657-.5 99.567-.5s83.128 37.202 83.128 83.093" mask="url(#d2db7r5g9b)"/>
                            <path fill="#83B748" d="M182.217 82.593c0 45.627-37.004 82.615-82.65 82.615-45.647 0-82.65-36.988-82.65-82.615 0-45.627 37.003-82.616 82.65-82.616 45.646 0 82.65 36.989 82.65 82.616" mask="url(#d2db7r5g9b)"/>
                            <path fill="#83B749" d="M181.74 82.593c0 45.363-36.791 82.138-82.173 82.138-45.383 0-82.172-36.775-82.172-82.138C17.395 37.229 54.184.454 99.567.454c45.382 0 82.172 36.775 82.172 82.139" mask="url(#d2db7r5g9b)"/>
                            <path fill="#84B749" d="M181.261 82.593c0 45.099-36.575 81.66-81.694 81.66S17.87 127.692 17.87 82.593c0-45.1 36.577-81.661 81.696-81.661s81.694 36.56 81.694 81.661" mask="url(#d2db7r5g9b)"/>
                            <path fill="#84B84A" d="M180.784 82.593c0 44.836-36.362 81.183-81.218 81.183-44.854 0-81.216-36.347-81.216-81.183 0-44.836 36.362-81.184 81.216-81.184 44.856 0 81.218 36.348 81.218 81.184" mask="url(#d2db7r5g9b)"/>
                            <path fill="#84B84B" d="M180.306 82.593c0 44.572-36.148 80.705-80.74 80.705-44.59 0-80.739-36.133-80.739-80.705 0-44.573 36.149-80.706 80.74-80.706 44.591 0 80.74 36.133 80.74 80.706" mask="url(#d2db7r5g9b)"/>
                            <path fill="#85B84B" d="M179.829 82.593c0 44.309-35.935 80.228-80.263 80.228-44.326 0-80.26-35.92-80.26-80.228 0-44.309 35.934-80.229 80.26-80.229 44.328 0 80.263 35.92 80.263 80.229" mask="url(#d2db7r5g9b)"/>
                            <path fill="#85B84C" d="M179.35 82.593c0 44.045-35.72 79.75-79.784 79.75-44.063 0-79.783-35.705-79.783-79.75 0-44.046 35.72-79.751 79.783-79.751 44.064 0 79.785 35.705 79.785 79.751" mask="url(#d2db7r5g9b)"/>
                            <path fill="#86B94C" d="M178.873 82.593c0 43.78-35.506 79.272-79.307 79.272-43.799 0-79.305-35.491-79.305-79.272 0-43.782 35.506-79.273 79.305-79.273 43.8 0 79.307 35.491 79.307 79.273" mask="url(#d2db7r5g9b)"/>
                            <path fill="#86B94D" d="M178.395 82.593c0 43.518-35.293 78.795-78.829 78.795-43.536 0-78.827-35.277-78.827-78.795S56.03 3.797 99.566 3.797s78.83 35.278 78.83 78.796" mask="url(#d2db7r5g9b)"/>
                            <path fill="#87B94E" d="M177.917 82.593c0 43.254-35.079 78.318-78.35 78.318-43.272 0-78.35-35.064-78.35-78.318 0-43.255 35.078-78.318 78.35-78.318 43.271 0 78.35 35.063 78.35 78.318" mask="url(#d2db7r5g9b)"/>
                            <path fill="#87B94E" d="M177.44 82.593c0 42.989-34.866 77.84-77.874 77.84-43.007 0-77.872-34.851-77.872-77.84 0-42.99 34.865-77.84 77.872-77.84 43.008 0 77.874 34.85 77.874 77.84" mask="url(#d2db7r5g9b)"/>
                            <path fill="#88BA4F" d="M176.962 82.593c0 42.726-34.65 77.363-77.396 77.363-42.743 0-77.395-34.637-77.395-77.363S56.823 5.23 99.566 5.23c42.745 0 77.396 34.637 77.396 77.363" mask="url(#d2db7r5g9b)"/>
                            <path fill="#88BA50" d="M176.484 82.593c0 42.462-34.437 76.885-76.918 76.885-42.48 0-76.917-34.423-76.917-76.885 0-42.463 34.437-76.885 76.917-76.885 42.481 0 76.918 34.422 76.918 76.885" mask="url(#d2db7r5g9b)"/>
                            <path fill="#89BA51" d="M176.006 82.593c0 42.199-34.223 76.408-76.44 76.408-42.216 0-76.44-34.21-76.44-76.408 0-42.199 34.224-76.408 76.44-76.408 42.217 0 76.44 34.21 76.44 76.408" mask="url(#d2db7r5g9b)"/>
                            <path fill="#89BA51" d="M175.529 82.593c0 41.935-34.01 75.93-75.963 75.93-41.952 0-75.962-33.995-75.962-75.93 0-41.936 34.01-75.93 75.962-75.93 41.954 0 75.963 33.994 75.963 75.93" mask="url(#d2db7r5g9b)"/>
                            <path fill="#8ABB52" d="M175.05 82.593c0 41.67-33.794 75.453-75.484 75.453-41.688 0-75.484-33.782-75.484-75.453 0-41.672 33.796-75.454 75.484-75.454 41.69 0 75.485 33.782 75.485 75.454" mask="url(#d2db7r5g9b)"/>
                            <path fill="#8ABB53" d="M174.573 82.593c0 41.408-33.582 74.975-75.007 74.975-41.425 0-75.006-33.567-75.006-74.975 0-41.408 33.581-74.976 75.006-74.976s75.007 33.568 75.007 74.976" mask="url(#d2db7r5g9b)"/>
                            <path fill="#8ABB53" d="M174.096 82.593c0 41.144-33.368 74.497-74.53 74.497-41.16 0-74.529-33.353-74.529-74.497 0-41.145 33.369-74.498 74.529-74.498 41.162 0 74.53 33.353 74.53 74.498" mask="url(#d2db7r5g9b)"/>
                            <path fill="#8BBC54" d="M173.618 82.593c0 40.88-33.154 74.02-74.052 74.02-40.897 0-74.05-33.14-74.05-74.02 0-40.88 33.153-74.02 74.05-74.02 40.898 0 74.052 33.14 74.052 74.02" mask="url(#d2db7r5g9b)"/>
                            <path fill="#8CBC55" d="M173.14 82.593c0 40.617-32.94 73.542-73.574 73.542-40.633 0-73.573-32.925-73.573-73.542 0-40.617 32.94-73.543 73.573-73.543 40.635 0 73.574 32.926 73.574 73.543" mask="url(#d2db7r5g9b)"/>
                            <path fill="#8CBC56" d="M172.662 82.593c0 40.353-32.726 73.065-73.096 73.065-40.37 0-73.095-32.712-73.095-73.065 0-40.353 32.726-73.066 73.095-73.066 40.37 0 73.096 32.713 73.096 73.066" mask="url(#d2db7r5g9b)"/>
                            <path fill="#8DBC56" d="M172.185 82.593c0 40.089-32.513 72.587-72.619 72.587-40.104 0-72.618-32.498-72.618-72.587 0-40.089 32.514-72.588 72.618-72.588 40.106 0 72.619 32.5 72.619 72.588" mask="url(#d2db7r5g9b)"/>
                            <path fill="#8DBD57" d="M171.707 82.593c0 39.825-32.299 72.11-72.141 72.11-39.841 0-72.14-32.285-72.14-72.11 0-39.826 32.299-72.11 72.14-72.11 39.842 0 72.14 32.284 72.14 72.11" mask="url(#d2db7r5g9b)"/>
                            <path fill="#8EBD58" d="M171.229 82.593c0 39.56-32.084 71.632-71.663 71.632-39.577 0-71.662-32.071-71.662-71.632 0-39.562 32.085-71.633 71.662-71.633 39.579 0 71.663 32.071 71.663 71.633" mask="url(#d2db7r5g9b)"/>
                            <path fill="#8EBD59" d="M170.751 82.593c0 39.297-31.87 71.154-71.185 71.154-39.314 0-71.184-31.857-71.184-71.154 0-39.298 31.87-71.155 71.184-71.155 39.315 0 71.185 31.857 71.185 71.155" mask="url(#d2db7r5g9b)"/>
                            <path fill="#8FBE5A" d="M170.273 82.593c0 39.033-31.656 70.677-70.707 70.677-39.05 0-70.706-31.644-70.706-70.677 0-39.034 31.656-70.678 70.706-70.678 39.05 0 70.707 31.644 70.707 70.678" mask="url(#d2db7r5g9b)"/>
                            <path fill="#8FBE5A" d="M169.796 82.593c0 38.77-31.443 70.2-70.23 70.2-38.786 0-70.229-31.43-70.229-70.2s31.443-70.2 70.229-70.2c38.787 0 70.23 31.43 70.23 70.2" mask="url(#d2db7r5g9b)"/>
                            <path fill="#90BE5B" d="M169.318 82.593c0 38.506-31.229 69.723-69.752 69.723-38.522 0-69.75-31.217-69.75-69.723S61.043 12.87 99.565 12.87c38.523 0 69.752 31.217 69.752 69.723" mask="url(#d2db7r5g9b)"/>
                            <path fill="#90BF5C" d="M168.84 82.593c0 38.242-31.015 69.244-69.274 69.244-38.258 0-69.273-31.002-69.273-69.244 0-38.243 31.015-69.245 69.273-69.245 38.26 0 69.274 31.002 69.274 69.245" mask="url(#d2db7r5g9b)"/>
                            <path fill="#91BF5D" d="M168.362 82.593c0 37.98-30.8 68.767-68.796 68.767-37.994 0-68.795-30.788-68.795-68.767 0-37.98 30.8-68.767 68.795-68.767 37.995 0 68.796 30.788 68.796 68.767" mask="url(#d2db7r5g9b)"/>
                            <path fill="#91BF5E" d="M167.884 82.593c0 37.715-30.587 68.289-68.318 68.289-37.73 0-68.317-30.574-68.317-68.289 0-37.716 30.587-68.29 68.317-68.29 37.731 0 68.318 30.574 68.318 68.29" mask="url(#d2db7r5g9b)"/>
                            <path fill="#92C05E" d="M167.407 82.593c0 37.45-30.373 67.812-67.841 67.812-37.467 0-67.84-30.362-67.84-67.812 0-37.451 30.373-67.812 67.84-67.812 37.468 0 67.84 30.36 67.84 67.812" mask="url(#d2db7r5g9b)"/>
                            <path fill="#93C05F" d="M166.93 82.593c0 37.187-30.16 67.334-67.364 67.334-37.202 0-67.362-30.147-67.362-67.334 0-37.187 30.16-67.335 67.362-67.335 37.204 0 67.363 30.148 67.363 67.335" mask="url(#d2db7r5g9b)"/>
                            <path fill="#93C060" d="M166.452 82.593c0 36.923-29.946 66.857-66.886 66.857-36.938 0-66.885-29.934-66.885-66.857 0-36.924 29.947-66.857 66.885-66.857 36.94 0 66.886 29.933 66.886 66.857" mask="url(#d2db7r5g9b)"/>
                            <path fill="#94C161" d="M165.974 82.593c0 36.66-29.732 66.379-66.408 66.379-36.675 0-66.407-29.72-66.407-66.38s29.732-66.379 66.407-66.379c36.676 0 66.408 29.72 66.408 66.38" mask="url(#d2db7r5g9b)"/>
                            <path fill="#94C162" d="M165.496 82.593c0 36.396-29.518 65.902-65.93 65.902-36.411 0-65.929-29.506-65.929-65.902S63.155 16.69 99.567 16.69c36.411 0 65.929 29.506 65.929 65.902" mask="url(#d2db7r5g9b)"/>
                            <path fill="#95C163" d="M165.018 82.593c0 36.132-29.303 65.423-65.452 65.423-36.148 0-65.451-29.29-65.451-65.423s29.303-65.424 65.451-65.424c36.149 0 65.452 29.29 65.452 65.424" mask="url(#d2db7r5g9b)"/>
                            <path fill="#95C264" d="M164.54 82.593c0 35.87-29.09 64.947-64.974 64.947-35.883 0-64.973-29.078-64.973-64.947 0-35.87 29.09-64.947 64.973-64.947 35.885 0 64.974 29.078 64.974 64.947" mask="url(#d2db7r5g9b)"/>
                            <path fill="#96C264" d="M164.063 82.593c0 35.605-28.876 64.468-64.497 64.468-35.62 0-64.496-28.863-64.496-64.468 0-35.606 28.876-64.47 64.496-64.47 35.62 0 64.497 28.864 64.497 64.47" mask="url(#d2db7r5g9b)"/>
                            <path fill="#97C265" d="M163.585 82.593c0 35.341-28.662 63.992-64.019 63.992-35.355 0-64.018-28.65-64.018-63.992s28.663-63.992 64.018-63.992c35.357 0 64.019 28.65 64.019 63.992" mask="url(#d2db7r5g9b)"/>
                            <path fill="#97C366" d="M163.107 82.593c0 35.078-28.448 63.514-63.54 63.514-35.093 0-63.541-28.436-63.541-63.514s28.448-63.514 63.54-63.514c35.093 0 63.541 28.436 63.541 63.514" mask="url(#d2db7r5g9b)"/>
                            <path fill="#98C367" d="M162.63 82.593c0 34.814-28.235 63.036-63.063 63.036-34.83 0-63.063-28.222-63.063-63.036s28.234-63.036 63.063-63.036c34.828 0 63.062 28.222 63.062 63.036" mask="url(#d2db7r5g9b)"/>
                            <path fill="#98C368" d="M162.152 82.593c0 34.55-28.02 62.559-62.585 62.559s-62.585-28.009-62.585-62.559 28.02-62.559 62.585-62.559c34.564 0 62.585 28.009 62.585 62.559" mask="url(#d2db7r5g9b)"/>
                            <path fill="#99C469" d="M161.674 82.593c0 34.286-27.806 62.081-62.107 62.081-34.3 0-62.108-27.795-62.108-62.081s27.807-62.081 62.108-62.081c34.3 0 62.107 27.795 62.107 62.081" mask="url(#d2db7r5g9b)"/>
                            <path fill="#9AC46A" d="M161.196 82.593c0 34.022-27.592 61.604-61.63 61.604-34.037 0-61.629-27.582-61.629-61.604 0-34.023 27.592-61.605 61.63-61.605 34.037 0 61.63 27.582 61.63 61.605" mask="url(#d2db7r5g9b)"/>
                            <path fill="#9AC46B" d="M160.718 82.593c0 33.759-27.378 61.126-61.151 61.126-33.774 0-61.152-27.367-61.152-61.126 0-33.76 27.378-61.127 61.152-61.127 33.773 0 61.151 27.368 61.151 61.127" mask="url(#d2db7r5g9b)"/>
                            <path fill="#9BC56C" d="M160.24 82.593c0 33.495-27.164 60.648-60.674 60.648-33.509 0-60.674-27.153-60.674-60.648 0-33.496 27.165-60.65 60.674-60.65 33.51 0 60.675 27.154 60.675 60.65" mask="url(#d2db7r5g9b)"/>
                            <path fill="#9CC56D" d="M159.763 82.593c0 33.23-26.951 60.17-60.197 60.17-33.245 0-60.196-26.94-60.196-60.17 0-33.232 26.951-60.172 60.196-60.172 33.246 0 60.197 26.94 60.197 60.172" mask="url(#d2db7r5g9b)"/>
                            <path fill="#9CC66D" d="M159.285 82.593c0 32.968-26.736 59.693-59.719 59.693-32.98 0-59.718-26.725-59.718-59.693 0-32.968 26.737-59.694 59.718-59.694 32.983 0 59.72 26.726 59.72 59.694" mask="url(#d2db7r5g9b)"/>
                            <path fill="#9DC66E" d="M158.808 82.593c0 32.704-26.523 59.216-59.242 59.216-32.717 0-59.24-26.512-59.24-59.216 0-32.705 26.523-59.217 59.24-59.217 32.719 0 59.242 26.512 59.242 59.217" mask="url(#d2db7r5g9b)"/>
                            <path fill="#9DC66F" d="M158.33 82.593c0 32.44-26.31 58.738-58.764 58.738-32.453 0-58.763-26.297-58.763-58.738 0-32.44 26.31-58.74 58.763-58.74 32.455 0 58.764 26.3 58.764 58.74" mask="url(#d2db7r5g9b)"/>
                            <path fill="#9EC770" d="M157.852 82.593c0 32.177-26.096 58.26-58.286 58.26s-58.285-26.083-58.285-58.26 26.096-58.262 58.285-58.262c32.19 0 58.286 26.085 58.286 58.262" mask="url(#d2db7r5g9b)"/>
                            <path fill="#9FC771" d="M157.374 82.593c0 31.912-25.88 57.783-57.808 57.783-31.926 0-57.807-25.871-57.807-57.783 0-31.913 25.88-57.784 57.807-57.784 31.927 0 57.808 25.871 57.808 57.784" mask="url(#d2db7r5g9b)"/>
                            <path fill="#9FC772" d="M156.896 82.593c0 31.649-25.667 57.305-57.33 57.305-31.662 0-57.33-25.656-57.33-57.305s25.668-57.306 57.33-57.306c31.663 0 57.33 25.657 57.33 57.306" mask="url(#d2db7r5g9b)"/>
                            <path fill="#A0C873" d="M156.419 82.593c0 31.385-25.454 56.828-56.853 56.828-31.398 0-56.852-25.443-56.852-56.828 0-31.386 25.454-56.829 56.852-56.829 31.399 0 56.853 25.443 56.853 56.829" mask="url(#d2db7r5g9b)"/>
                            <path fill="#A1C874" d="M155.94 82.593c0 31.12-25.238 56.351-56.374 56.351-31.134 0-56.374-25.23-56.374-56.351 0-31.122 25.24-56.351 56.374-56.351 31.136 0 56.375 25.23 56.375 56.35" mask="url(#d2db7r5g9b)"/>
                            <path fill="#A1C975" d="M155.463 82.593c0 30.858-25.025 55.873-55.897 55.873-30.87 0-55.896-25.015-55.896-55.873 0-30.858 25.025-55.874 55.896-55.874 30.872 0 55.897 25.016 55.897 55.874" mask="url(#d2db7r5g9b)"/>
                            <path fill="#A2C976" d="M154.985 82.593c0 30.594-24.811 55.396-55.419 55.396-30.606 0-55.418-24.802-55.418-55.396 0-30.595 24.812-55.396 55.418-55.396 30.608 0 55.42 24.801 55.42 55.396" mask="url(#d2db7r5g9b)"/>
                            <path fill="#A3C977" d="M154.508 82.593c0 30.33-24.599 54.917-54.942 54.917-30.342 0-54.94-24.586-54.94-54.917 0-30.33 24.598-54.918 54.94-54.918 30.343 0 54.942 24.587 54.942 54.918" mask="url(#d2db7r5g9b)"/>
                            <path fill="#A3CA78" d="M154.03 82.593c0 30.067-24.384 54.44-54.464 54.44-30.078 0-54.463-24.373-54.463-54.44 0-30.068 24.385-54.44 54.463-54.44 30.08 0 54.464 24.372 54.464 54.44" mask="url(#d2db7r5g9b)"/>
                            <path fill="#A4CA79" d="M153.552 82.593c0 29.803-24.17 53.962-53.985 53.962-29.816 0-53.986-24.16-53.986-53.962 0-29.804 24.17-53.963 53.986-53.963 29.816 0 53.985 24.16 53.985 53.963" mask="url(#d2db7r5g9b)"/>
                            <path fill="#A5CA7A" d="M153.075 82.593c0 29.54-23.957 53.486-53.508 53.486-29.551 0-53.508-23.946-53.508-53.486 0-29.54 23.957-53.486 53.508-53.486 29.55 0 53.508 23.946 53.508 53.486" mask="url(#d2db7r5g9b)"/>
                            <path fill="#A5CB7B" d="M152.597 82.593c0 29.276-23.743 53.007-53.03 53.007-29.288 0-53.03-23.731-53.03-53.007 0-29.276 23.742-53.008 53.03-53.008 29.287 0 53.03 23.732 53.03 53.008" mask="url(#d2db7r5g9b)"/>
                            <path fill="#A6CB7C" d="M152.12 82.593c0 29.01-23.53 52.53-52.553 52.53-29.024 0-52.553-23.52-52.553-52.53 0-29.012 23.529-52.53 52.553-52.53 29.023 0 52.552 23.518 52.552 52.53" mask="url(#d2db7r5g9b)"/>
                            <path fill="#A7CC7D" d="M151.641 82.593c0 28.748-23.314 52.052-52.074 52.052-28.76 0-52.075-23.304-52.075-52.052S70.807 30.54 99.567 30.54s52.074 23.305 52.074 52.053" mask="url(#d2db7r5g9b)"/>
                            <path fill="#A7CC7E" d="M151.164 82.593c0 28.484-23.101 51.575-51.597 51.575-28.496 0-51.597-23.091-51.597-51.575 0-28.485 23.101-51.575 51.597-51.575 28.496 0 51.597 23.09 51.597 51.575" mask="url(#d2db7r5g9b)"/>
                            <path fill="#A8CC7F" d="M150.686 82.593c0 28.22-22.887 51.097-51.12 51.097-28.232 0-51.119-22.877-51.119-51.097 0-28.22 22.887-51.098 51.12-51.098 28.232 0 51.119 22.877 51.119 51.098" mask="url(#d2db7r5g9b)"/>
                            <path fill="#A9CD80" d="M150.208 82.593c0 27.956-22.673 50.62-50.641 50.62-27.969 0-50.642-22.664-50.642-50.62 0-27.957 22.673-50.62 50.642-50.62 27.968 0 50.641 22.663 50.641 50.62" mask="url(#d2db7r5g9b)"/>
                            <path fill="#A9CD81" d="M149.73 82.593c0 27.692-22.458 50.143-50.163 50.143s-50.164-22.45-50.164-50.143S71.862 32.45 99.567 32.45c27.705 0 50.163 22.45 50.163 50.143" mask="url(#d2db7r5g9b)"/>
                            <path fill="#AACE82" d="M149.252 82.593c0 27.43-22.245 49.665-49.685 49.665-27.441 0-49.686-22.236-49.686-49.665 0-27.43 22.245-49.665 49.686-49.665 27.44 0 49.685 22.236 49.685 49.665" mask="url(#d2db7r5g9b)"/>
                            <path fill="#ABCE83" d="M148.775 82.593c0 27.165-22.032 49.187-49.208 49.187-27.177 0-49.208-22.022-49.208-49.187 0-27.166 22.03-49.187 49.208-49.187 27.176 0 49.208 22.02 49.208 49.187" mask="url(#d2db7r5g9b)"/>
                            <path fill="#ACCF84" d="M148.297 82.593c0 26.901-21.818 48.71-48.73 48.71-26.913 0-48.73-21.809-48.73-48.71 0-26.902 21.817-48.71 48.73-48.71 26.912 0 48.73 21.808 48.73 48.71" mask="url(#d2db7r5g9b)"/>
                            <path fill="#ACCF85" d="M147.82 82.593c0 26.638-21.604 48.232-48.253 48.232-26.65 0-48.253-21.594-48.253-48.232 0-26.638 21.603-48.233 48.253-48.233s48.252 21.595 48.252 48.233" mask="url(#d2db7r5g9b)"/>
                            <path fill="#ADCF86" d="M147.341 82.593c0 26.373-21.389 47.755-47.774 47.755-26.386 0-47.775-21.382-47.775-47.755 0-26.374 21.39-47.756 47.775-47.756 26.385 0 47.774 21.382 47.774 47.756" mask="url(#d2db7r5g9b)"/>
                            <path fill="#AED087" d="M146.864 82.593c0 26.11-21.176 47.277-47.298 47.277-26.121 0-47.297-21.167-47.297-47.277s21.176-47.278 47.297-47.278c26.122 0 47.298 21.168 47.298 47.278" mask="url(#d2db7r5g9b)"/>
                            <path fill="#AED088" d="M146.386 82.593c0 25.846-20.962 46.8-46.82 46.8-25.857 0-46.819-20.954-46.819-46.8 0-25.847 20.962-46.8 46.82-46.8 25.857 0 46.82 20.953 46.82 46.8" mask="url(#d2db7r5g9b)"/>
                            <path fill="#AFD189" d="M145.908 82.593c0 25.582-20.748 46.322-46.342 46.322-25.593 0-46.341-20.74-46.341-46.322 0-25.583 20.748-46.323 46.341-46.323 25.594 0 46.342 20.74 46.342 46.323" mask="url(#d2db7r5g9b)"/>
                            <path fill="#B0D18A" d="M145.43 82.593c0 25.32-20.534 45.844-45.864 45.844-25.329 0-45.863-20.525-45.863-45.844 0-25.32 20.534-45.845 45.863-45.845 25.33 0 45.865 20.526 45.865 45.845" mask="url(#d2db7r5g9b)"/>
                            <path fill="#B1D18C" d="M144.953 82.593c0 25.055-20.32 45.367-45.387 45.367-25.066 0-45.386-20.312-45.386-45.367 0-25.056 20.32-45.367 45.386-45.367 25.067 0 45.387 20.31 45.387 45.367" mask="url(#d2db7r5g9b)"/>
                            <path fill="#B1D28D" d="M144.475 82.593c0 24.791-20.106 44.89-44.909 44.89-24.801 0-44.908-20.099-44.908-44.89 0-24.792 20.107-44.89 44.908-44.89 24.803 0 44.91 20.098 44.91 44.89" mask="url(#d2db7r5g9b)"/>
                            <path fill="#B2D28E" d="M143.997 82.593c0 24.528-19.891 44.412-44.43 44.412-24.54 0-44.431-19.884-44.431-44.412S75.028 38.18 99.566 38.18c24.54 0 44.431 19.885 44.431 44.413" mask="url(#d2db7r5g9b)"/>
                            <path fill="#B3D38F" d="M143.52 82.593c0 24.264-19.679 43.934-43.954 43.934-24.273 0-43.952-19.67-43.952-43.934 0-24.265 19.679-43.935 43.952-43.935 24.275 0 43.954 19.67 43.954 43.935" mask="url(#d2db7r5g9b)"/>
                            <path fill="#B4D390" d="M143.042 82.593c0 24.001-19.465 43.456-43.476 43.456-24.01 0-43.474-19.455-43.474-43.456 0-24.001 19.464-43.457 43.474-43.457 24.011 0 43.476 19.456 43.476 43.457" mask="url(#d2db7r5g9b)"/>
                            <path fill="#B4D491" d="M142.564 82.593c0 23.737-19.25 42.98-42.998 42.98-23.746 0-42.997-19.243-42.997-42.98 0-23.738 19.251-42.98 42.997-42.98 23.747 0 42.998 19.242 42.998 42.98" mask="url(#d2db7r5g9b)"/>
                            <path fill="#B5D492" d="M142.086 82.593c0 23.472-19.036 42.501-42.52 42.501-23.483 0-42.519-19.029-42.519-42.501 0-23.473 19.036-42.502 42.52-42.502 23.483 0 42.52 19.029 42.52 42.502" mask="url(#d2db7r5g9b)"/>
                            <path fill="#B6D493" d="M141.608 82.593c0 23.209-18.822 42.025-42.042 42.025-23.219 0-42.041-18.816-42.041-42.025 0-23.21 18.822-42.025 42.041-42.025 23.22 0 42.042 18.816 42.042 42.025" mask="url(#d2db7r5g9b)"/>
                            <path fill="#B6D594" d="M141.13 82.593c0 22.945-18.608 41.546-41.564 41.546-22.954 0-41.563-18.601-41.563-41.546 0-22.946 18.609-41.547 41.563-41.547 22.956 0 41.565 18.6 41.565 41.547" mask="url(#d2db7r5g9b)"/>
                            <path fill="#B7D595" d="M140.653 82.593c0 22.681-18.395 41.07-41.087 41.07-22.69 0-41.085-18.389-41.085-41.07 0-22.682 18.395-41.07 41.085-41.07 22.692 0 41.087 18.388 41.087 41.07" mask="url(#d2db7r5g9b)"/>
                            <path fill="#B8D696" d="M140.175 82.593c0 22.418-18.18 40.59-40.609 40.59-22.427 0-40.608-18.172-40.608-40.59 0-22.418 18.18-40.592 40.608-40.592 22.429 0 40.609 18.174 40.609 40.592" mask="url(#d2db7r5g9b)"/>
                            <path fill="#B9D697" d="M139.698 82.593c0 22.154-17.968 40.114-40.131 40.114-22.164 0-40.131-17.96-40.131-40.114 0-22.155 17.967-40.114 40.13-40.114 22.164 0 40.132 17.959 40.132 40.114" mask="url(#d2db7r5g9b)"/>
                            <path fill="#B9D799" d="M139.22 82.593c0 21.89-17.753 39.636-39.653 39.636s-39.654-17.745-39.654-39.636c0-21.891 17.754-39.637 39.654-39.637 21.9 0 39.653 17.746 39.653 39.637" mask="url(#d2db7r5g9b)"/>
                            <path fill="#BAD79A" d="M138.742 82.593c0 21.627-17.54 39.159-39.175 39.159-21.636 0-39.176-17.532-39.176-39.159 0-21.628 17.54-39.16 39.176-39.16 21.636 0 39.175 17.532 39.175 39.16" mask="url(#d2db7r5g9b)"/>
                            <path fill="#BBD79B" d="M138.264 82.593c0 21.363-17.325 38.68-38.697 38.68-21.372 0-38.698-17.317-38.698-38.68 0-21.364 17.326-38.682 38.698-38.682s38.697 17.318 38.697 38.682" mask="url(#d2db7r5g9b)"/>
                            <path fill="#BCD89C" d="M137.787 82.593c0 21.1-17.113 38.204-38.22 38.204-21.108 0-38.22-17.104-38.22-38.204s17.112-38.204 38.22-38.204c21.107 0 38.22 17.104 38.22 38.204" mask="url(#d2db7r5g9b)"/>
                            <path fill="#BDD89D" d="M137.309 82.593c0 20.835-16.898 37.725-37.742 37.725-20.845 0-37.742-16.89-37.742-37.725 0-20.836 16.897-37.726 37.742-37.726 20.844 0 37.742 16.89 37.742 37.726" mask="url(#d2db7r5g9b)"/>
                            <path fill="#BDD99E" d="M136.831 82.593c0 20.57-16.684 37.249-37.264 37.249-20.58 0-37.265-16.678-37.265-37.249 0-20.572 16.684-37.25 37.265-37.25 20.58 0 37.264 16.678 37.264 37.25" mask="url(#d2db7r5g9b)"/>
                            <path fill="#BED99F" d="M136.353 82.593c0 20.308-16.47 36.77-36.786 36.77-20.318 0-36.787-16.462-36.787-36.77 0-20.308 16.47-36.771 36.787-36.771s36.786 16.463 36.786 36.77" mask="url(#d2db7r5g9b)"/>
                            <path fill="#BFDAA0" d="M135.875 82.593c0 20.044-16.256 36.294-36.308 36.294-20.053 0-36.31-16.25-36.31-36.294 0-20.045 16.257-36.295 36.31-36.295 20.052 0 36.308 16.25 36.308 36.295" mask="url(#d2db7r5g9b)"/>
                            <path fill="#C0DAA2" d="M135.398 82.593c0 19.78-16.042 35.816-35.831 35.816-19.79 0-35.831-16.035-35.831-35.816 0-19.78 16.042-35.816 35.83-35.816 19.79 0 35.832 16.035 35.832 35.816" mask="url(#d2db7r5g9b)"/>
                            <path fill="#C0DBA3" d="M134.92 82.593c0 19.517-15.828 35.338-35.353 35.338-19.525 0-35.354-15.821-35.354-35.338 0-19.518 15.829-35.34 35.354-35.34s35.353 15.822 35.353 35.34" mask="url(#d2db7r5g9b)"/>
                            <path fill="#C1DBA4" d="M134.442 82.593c0 19.253-15.614 34.86-34.875 34.86-19.262 0-34.876-15.607-34.876-34.86 0-19.254 15.614-34.86 34.876-34.86 19.261 0 34.875 15.606 34.875 34.86" mask="url(#d2db7r5g9b)"/>
                            <path fill="#C2DCA5" d="M133.964 82.593c0 18.99-15.4 34.383-34.397 34.383-18.998 0-34.398-15.393-34.398-34.383 0-18.99 15.4-34.384 34.398-34.384 18.997 0 34.397 15.394 34.397 34.384" mask="url(#d2db7r5g9b)"/>
                            <path fill="#C3DCA6" d="M133.487 82.593c0 18.726-15.187 33.906-33.92 33.906-18.734 0-33.921-15.18-33.921-33.906 0-18.727 15.187-33.906 33.92-33.906 18.734 0 33.92 15.18 33.92 33.906" mask="url(#d2db7r5g9b)"/>
                            <path fill="#C4DCA7" d="M133.01 82.593c0 18.462-14.973 33.428-33.444 33.428-18.47 0-33.442-14.966-33.442-33.428 0-18.463 14.973-33.43 33.442-33.43 18.47.001 33.443 14.967 33.443 33.43" mask="url(#d2db7r5g9b)"/>
                            <path fill="#C4DDA9" d="M132.531 82.593c0 18.199-14.759 32.95-32.965 32.95-18.205 0-32.964-14.751-32.964-32.95 0-18.199 14.759-32.95 32.964-32.95 18.206 0 32.965 14.751 32.965 32.95" mask="url(#d2db7r5g9b)"/>
                            <path fill="#C5DDAA" d="M132.054 82.593c0 17.934-14.546 32.473-32.488 32.473-17.941 0-32.486-14.54-32.486-32.473 0-17.935 14.545-32.474 32.486-32.474 17.942 0 32.488 14.54 32.488 32.474" mask="url(#d2db7r5g9b)"/>
                            <path fill="#C6DEAB" d="M131.576 82.593c0 17.67-14.33 31.995-32.01 31.995-17.678 0-32.009-14.324-32.009-31.995 0-17.67 14.331-31.995 32.01-31.995 17.678 0 32.009 14.324 32.009 31.995" mask="url(#d2db7r5g9b)"/>
                            <path fill="#C7DEAC" d="M131.098 82.593c0 17.407-14.117 31.518-31.532 31.518-17.414 0-31.53-14.111-31.53-31.518 0-17.408 14.116-31.519 31.53-31.519 17.415 0 31.532 14.111 31.532 31.519" mask="url(#d2db7r5g9b)"/>
                            <path fill="#C7DFAD" d="M130.62 82.593c0 17.143-13.903 31.04-31.054 31.04-17.15 0-31.053-13.897-31.053-31.04 0-17.144 13.904-31.041 31.053-31.041 17.151 0 31.054 13.897 31.054 31.041" mask="url(#d2db7r5g9b)"/>
                            <path fill="#C8DFAE" d="M130.143 82.593c0 16.88-13.69 30.563-30.577 30.563-16.885 0-30.575-13.684-30.575-30.563 0-16.88 13.69-30.564 30.575-30.564 16.887 0 30.577 13.684 30.577 30.564" mask="url(#d2db7r5g9b)"/>
                            <path fill="#C9E0B0" d="M129.665 82.593c0 16.615-13.475 30.085-30.099 30.085-16.622 0-30.097-13.47-30.097-30.085 0-16.616 13.475-30.086 30.097-30.086 16.624 0 30.099 13.47 30.099 30.086" mask="url(#d2db7r5g9b)"/>
                            <path fill="#CAE0B1" d="M129.187 82.593c0 16.351-13.261 29.608-29.62 29.608s-29.62-13.257-29.62-29.608c0-16.352 13.261-29.608 29.62-29.608s29.62 13.256 29.62 29.608" mask="url(#d2db7r5g9b)"/>
                            <path fill="#CBE1B2" d="M128.71 82.593c0 16.088-13.049 29.13-29.144 29.13S70.424 98.68 70.424 82.593s13.047-29.13 29.142-29.13 29.143 13.042 29.143 29.13" mask="url(#d2db7r5g9b)"/>
                            <path fill="#CCE1B3" d="M128.231 82.593c0 15.824-12.834 28.653-28.665 28.653-15.83 0-28.664-12.829-28.664-28.653 0-15.825 12.833-28.653 28.664-28.653 15.831 0 28.665 12.828 28.665 28.653" mask="url(#d2db7r5g9b)"/>
                            <path fill="#CCE2B4" d="M127.754 82.593c0 15.561-12.62 28.175-28.188 28.175-15.567 0-28.186-12.614-28.186-28.175S84 54.417 99.566 54.417c15.568 0 28.188 12.615 28.188 28.176" mask="url(#d2db7r5g9b)"/>
                            <path fill="#CDE2B6" d="M127.276 82.593c0 15.296-12.406 27.698-27.71 27.698-15.303 0-27.708-12.402-27.708-27.698 0-15.297 12.405-27.698 27.708-27.698 15.304 0 27.71 12.4 27.71 27.698" mask="url(#d2db7r5g9b)"/>
                            <path fill="#CEE2B7" d="M126.798 82.593c0 15.032-12.191 27.22-27.232 27.22-15.04 0-27.232-12.188-27.232-27.22 0-15.033 12.193-27.22 27.232-27.22 15.04 0 27.232 12.187 27.232 27.22" mask="url(#d2db7r5g9b)"/>
                            <path fill="#CFE3B8" d="M126.32 82.593c0 14.77-11.978 26.743-26.753 26.743-14.776 0-26.754-11.974-26.754-26.743 0-14.77 11.978-26.743 26.754-26.743 14.775 0 26.754 11.974 26.754 26.743" mask="url(#d2db7r5g9b)"/>
                            <path fill="#D0E3B9" d="M125.843 82.593c0 14.505-11.765 26.264-26.276 26.264-14.513 0-26.276-11.759-26.276-26.264 0-14.506 11.763-26.265 26.276-26.265 14.511 0 26.276 11.759 26.276 26.265" mask="url(#d2db7r5g9b)"/>
                            <path fill="#D0E4BA" d="M125.365 82.593c0 14.241-11.55 25.788-25.798 25.788-14.248 0-25.799-11.547-25.799-25.788 0-14.242 11.55-25.788 25.799-25.788 14.248 0 25.798 11.546 25.798 25.788" mask="url(#d2db7r5g9b)"/>
                            <path fill="#D1E4BC" d="M124.887 82.593c0 13.978-11.336 25.31-25.32 25.31s-25.32-11.332-25.32-25.31c0-13.978 11.336-25.31 25.32-25.31s25.32 11.332 25.32 25.31" mask="url(#d2db7r5g9b)"/>
                            <path fill="#D2E5BD" d="M124.41 82.593c0 13.714-11.123 24.832-24.843 24.832S74.724 96.307 74.724 82.593c0-13.715 11.123-24.833 24.843-24.833s24.843 11.118 24.843 24.833" mask="url(#d2db7r5g9b)"/>
                            <path fill="#D3E5BE" d="M123.932 82.593c0 13.451-10.91 24.354-24.365 24.354-13.457 0-24.365-10.903-24.365-24.354 0-13.451 10.908-24.355 24.365-24.355 13.456 0 24.365 10.904 24.365 24.355" mask="url(#d2db7r5g9b)"/>
                            <path fill="#D4E6BF" d="M123.454 82.593c0 13.187-10.695 23.877-23.887 23.877-13.193 0-23.888-10.69-23.888-23.877 0-13.188 10.695-23.878 23.888-23.878 13.192 0 23.887 10.69 23.887 23.878" mask="url(#d2db7r5g9b)"/>
                            <path fill="#D5E6C1" d="M122.976 82.593c0 12.923-10.48 23.399-23.41 23.399-12.928 0-23.409-10.476-23.409-23.4 0-12.923 10.481-23.399 23.41-23.399 12.928 0 23.41 10.476 23.41 23.4" mask="url(#d2db7r5g9b)"/>
                            <path fill="#D5E7C2" d="M122.499 82.593c0 12.66-10.268 22.922-22.932 22.922-12.665 0-22.932-10.262-22.932-22.922S86.902 59.67 99.567 59.67c12.664 0 22.932 10.263 22.932 22.923" mask="url(#d2db7r5g9b)"/>
                            <path fill="#D6E7C3" d="M122.02 82.593c0 12.395-10.052 22.445-22.453 22.445-12.402 0-22.454-10.05-22.454-22.445 0-12.396 10.052-22.445 22.454-22.445 12.401 0 22.454 10.049 22.454 22.445" mask="url(#d2db7r5g9b)"/>
                            <path fill="#D7E8C4" d="M121.543 82.593c0 12.131-9.84 21.967-21.976 21.967-12.137 0-21.976-9.836-21.976-21.967 0-12.132 9.839-21.968 21.976-21.968 12.137 0 21.976 9.836 21.976 21.968" mask="url(#d2db7r5g9b)"/>
                            <path fill="#D8E8C5" d="M121.065 82.593c0 11.868-9.625 21.49-21.498 21.49-11.874 0-21.499-9.622-21.499-21.49 0-11.868 9.625-21.49 21.499-21.49 11.873 0 21.498 9.622 21.498 21.49" mask="url(#d2db7r5g9b)"/>
                            <path fill="#D9E9C7" d="M120.587 82.593c0 11.604-9.411 21.012-21.02 21.012-11.61 0-21.02-9.408-21.02-21.012 0-11.605 9.41-21.013 21.02-21.013 11.609 0 21.02 9.408 21.02 21.013" mask="url(#d2db7r5g9b)"/>
                            <path fill="#DAE9C8" d="M120.11 82.593c0 11.34-9.197 20.534-20.543 20.534s-20.544-9.193-20.544-20.534 9.198-20.534 20.544-20.534 20.543 9.193 20.543 20.534" mask="url(#d2db7r5g9b)"/>
                            <path fill="#DAEAC9" d="M119.632 82.593c0 11.077-8.983 20.057-20.066 20.057-11.081 0-20.065-8.98-20.065-20.057 0-11.078 8.984-20.058 20.065-20.058 11.083 0 20.066 8.98 20.066 20.058" mask="url(#d2db7r5g9b)"/>
                            <path fill="#DBEACA" d="M119.155 82.593c0 10.813-8.77 19.579-19.589 19.579-10.817 0-19.587-8.766-19.587-19.579 0-10.814 8.77-19.58 19.587-19.58 10.819 0 19.589 8.766 19.589 19.58" mask="url(#d2db7r5g9b)"/>
                            <path fill="#DCEBCC" d="M118.677 82.593c0 10.55-8.556 19.101-19.11 19.101s-19.11-8.551-19.11-19.101c0-10.55 8.556-19.102 19.11-19.102s19.11 8.552 19.11 19.102" mask="url(#d2db7r5g9b)"/>
                            <path fill="#DDEBCD" d="M118.199 82.593c0 10.286-8.342 18.624-18.633 18.624-10.29 0-18.631-8.338-18.631-18.624 0-10.287 8.341-18.624 18.631-18.624 10.29 0 18.633 8.337 18.633 18.624" mask="url(#d2db7r5g9b)"/>
                            <path fill="#DEECCE" d="M117.721 82.593c0 10.022-8.128 18.146-18.155 18.146-10.026 0-18.154-8.124-18.154-18.146 0-10.023 8.128-18.147 18.154-18.147 10.027 0 18.155 8.124 18.155 18.147" mask="url(#d2db7r5g9b)"/>
                            <path fill="#DFECD0" d="M117.243 82.593c0 9.759-7.914 17.669-17.677 17.669-9.762 0-17.676-7.91-17.676-17.669s7.914-17.67 17.676-17.67c9.763 0 17.677 7.911 17.677 17.67" mask="url(#d2db7r5g9b)"/>
                            <path fill="#E0EDD1" d="M116.766 82.593c0 9.494-7.7 17.191-17.2 17.191-9.499 0-17.198-7.697-17.198-17.191 0-9.495 7.7-17.192 17.198-17.192 9.5 0 17.2 7.697 17.2 17.192" mask="url(#d2db7r5g9b)"/>
                            <path fill="#E0EDD2" d="M116.288 82.593c0 9.23-7.487 16.714-16.722 16.714-9.234 0-16.72-7.483-16.72-16.714 0-9.23 7.486-16.715 16.72-16.715 9.235 0 16.722 7.484 16.722 16.715" mask="url(#d2db7r5g9b)"/>
                            <path fill="#E1EED3" d="M115.81 82.593c0 8.967-7.272 16.236-16.244 16.236-8.97 0-16.242-7.27-16.242-16.236 0-8.968 7.272-16.237 16.242-16.237 8.972 0 16.244 7.27 16.244 16.237" mask="url(#d2db7r5g9b)"/>
                            <path fill="#E2EED5" d="M115.332 82.593c0 8.703-7.058 15.758-15.766 15.758-8.707 0-15.765-7.055-15.765-15.758 0-8.704 7.058-15.76 15.765-15.76 8.708 0 15.766 7.056 15.766 15.76" mask="url(#d2db7r5g9b)"/>
                            <path fill="#E3EFD6" d="M114.855 82.593c0 8.44-6.845 15.282-15.289 15.282-8.443 0-15.287-6.842-15.287-15.282 0-8.44 6.844-15.282 15.287-15.282 8.444 0 15.289 6.842 15.289 15.282" mask="url(#d2db7r5g9b)"/>
                            <path fill="#E4EFD7" d="M114.377 82.593c0 8.176-6.63 14.803-14.81 14.803s-14.81-6.627-14.81-14.803c0-8.177 6.63-14.804 14.81-14.804s14.81 6.627 14.81 14.804" mask="url(#d2db7r5g9b)"/>
                            <path fill="#E5F0D8" d="M113.899 82.593c0 7.912-6.417 14.327-14.333 14.327-7.915 0-14.331-6.415-14.331-14.327 0-7.913 6.416-14.327 14.331-14.327 7.916 0 14.333 6.414 14.333 14.327" mask="url(#d2db7r5g9b)"/>
                            <path fill="#E6F0DA" d="M113.421 82.593c0 7.649-6.203 13.848-13.855 13.848-7.651 0-13.853-6.2-13.853-13.848 0-7.649 6.202-13.85 13.853-13.85 7.652.001 13.855 6.201 13.855 13.85" mask="url(#d2db7r5g9b)"/>
                            <path fill="#E7F1DB" d="M112.943 82.593c0 7.385-5.989 13.371-13.377 13.371-7.387 0-13.377-5.986-13.377-13.371 0-7.386 5.99-13.371 13.377-13.371 7.388 0 13.377 5.985 13.377 13.371" mask="url(#d2db7r5g9b)"/>
                            <path fill="#E7F1DC" d="M112.466 82.593c0 7.122-5.775 12.893-12.9 12.893-7.123 0-12.898-5.771-12.898-12.893 0-7.122 5.775-12.894 12.899-12.894 7.124 0 12.9 5.772 12.9 12.894" mask="url(#d2db7r5g9b)"/>
                            <path fill="#E8F2DE" d="M111.988 82.593c0 6.857-5.56 12.416-12.421 12.416-6.86 0-12.422-5.56-12.422-12.416 0-6.858 5.561-12.416 12.422-12.416 6.86 0 12.421 5.558 12.421 12.416" mask="url(#d2db7r5g9b)"/>
                            <path fill="#E9F2DF" d="M111.51 82.593c0 6.593-5.347 11.938-11.943 11.938-6.596 0-11.944-5.345-11.944-11.938 0-6.594 5.348-11.939 11.944-11.939 6.596 0 11.944 5.345 11.944 11.939" mask="url(#d2db7r5g9b)"/>
                            <path fill="#EAF3E0" d="M111.033 82.593c0 6.33-5.134 11.461-11.466 11.461-6.333 0-11.466-5.131-11.466-11.461s5.133-11.461 11.466-11.461c6.332 0 11.466 5.131 11.466 11.46" mask="url(#d2db7r5g9b)"/>
                            <path fill="#EBF3E2" d="M110.555 82.593c0 6.066-4.92 10.983-10.988 10.983-6.07 0-10.988-4.917-10.988-10.983 0-6.067 4.919-10.984 10.988-10.984 6.068 0 10.988 4.917 10.988 10.984" mask="url(#d2db7r5g9b)"/>
                            <path fill="#ECF4E3" d="M110.077 82.593c0 5.802-4.705 10.506-10.51 10.506s-10.51-4.704-10.51-10.506c0-5.803 4.705-10.507 10.51-10.507s10.51 4.704 10.51 10.507" mask="url(#d2db7r5g9b)"/>
                            <path fill="#EDF4E4" d="M109.6 82.593c0 5.538-4.492 10.027-10.033 10.027-5.541 0-10.033-4.489-10.033-10.027 0-5.539 4.492-10.028 10.033-10.028 5.54 0 10.032 4.49 10.032 10.028" mask="url(#d2db7r5g9b)"/>
                            <path fill="#EEF5E5" d="M109.122 82.593c0 5.274-4.278 9.55-9.555 9.55-5.278 0-9.555-4.276-9.555-9.55 0-5.275 4.277-9.552 9.555-9.552 5.277 0 9.555 4.277 9.555 9.552" mask="url(#d2db7r5g9b)"/>
                            <path fill="#EFF5E7" d="M108.644 82.593c0 5.011-4.065 9.073-9.077 9.073-5.014 0-9.077-4.062-9.077-9.073s4.063-9.073 9.077-9.073c5.012 0 9.077 4.062 9.077 9.073" mask="url(#d2db7r5g9b)"/>
                            <path fill="#EFF6E8" d="M108.166 82.593c0 4.747-3.85 8.596-8.6 8.596-4.749 0-8.598-3.849-8.598-8.596 0-4.748 3.85-8.597 8.599-8.597 4.75 0 8.599 3.849 8.599 8.597" mask="url(#d2db7r5g9b)"/>
                            <path fill="#F0F6E9" d="M107.688 82.593c0 4.483-3.636 8.118-8.121 8.118-4.486 0-8.122-3.635-8.122-8.118 0-4.484 3.636-8.118 8.122-8.118 4.485 0 8.121 3.634 8.121 8.118" mask="url(#d2db7r5g9b)"/>
                            <path fill="#F1F7EB" d="M107.21 82.593c0 4.22-3.422 7.64-7.643 7.64-4.222 0-7.644-3.42-7.644-7.64s3.422-7.641 7.644-7.641c4.221 0 7.643 3.42 7.643 7.641" mask="url(#d2db7r5g9b)"/>
                            <path fill="#F2F8EC" d="M106.733 82.593c0 3.955-3.21 7.163-7.166 7.163-3.958 0-7.166-3.208-7.166-7.163 0-3.956 3.208-7.163 7.166-7.163 3.957 0 7.166 3.207 7.166 7.163" mask="url(#d2db7r5g9b)"/>
                            <path fill="#F3F8ED" d="M106.255 82.593c0 3.691-2.994 6.685-6.688 6.685-3.694 0-6.69-2.994-6.69-6.685 0-3.692 2.996-6.686 6.69-6.686 3.694 0 6.688 2.994 6.688 6.686" mask="url(#d2db7r5g9b)"/>
                            <path fill="#F4F9EF" d="M105.778 82.593c0 3.428-2.78 6.208-6.212 6.208-3.43 0-6.21-2.78-6.21-6.208 0-3.428 2.78-6.208 6.21-6.208 3.431 0 6.212 2.78 6.212 6.208" mask="url(#d2db7r5g9b)"/>
                            <path fill="#F5F9F0" d="M105.3 82.593c0 3.164-2.567 5.73-5.734 5.73-3.166 0-5.732-2.566-5.732-5.73 0-3.165 2.566-5.731 5.732-5.731 3.167 0 5.734 2.566 5.734 5.731" mask="url(#d2db7r5g9b)"/>
                            <path fill="#F6FAF1" d="M104.822 82.593c0 2.901-2.353 5.252-5.256 5.252-2.902 0-5.254-2.35-5.254-5.252 0-2.901 2.352-5.253 5.254-5.253 2.903 0 5.256 2.352 5.256 5.253" mask="url(#d2db7r5g9b)"/>
                            <path fill="#F7FAF3" d="M104.344 82.593c0 2.637-2.14 4.775-4.778 4.775-2.638 0-4.777-2.138-4.777-4.775 0-2.638 2.139-4.776 4.777-4.776 2.639 0 4.778 2.138 4.778 4.776" mask="url(#d2db7r5g9b)"/>
                            <path fill="#F8FBF4" d="M103.866 82.593c0 2.373-1.924 4.297-4.3 4.297-2.374 0-4.299-1.924-4.299-4.297 0-2.374 1.925-4.297 4.3-4.297s4.3 1.923 4.3 4.297" mask="url(#d2db7r5g9b)"/>
                            <path fill="#F9FBF5" d="M103.389 82.593c0 2.11-1.712 3.82-3.823 3.82-2.11 0-3.821-1.71-3.821-3.82s1.71-3.82 3.821-3.82 3.823 1.71 3.823 3.82" mask="url(#d2db7r5g9b)"/>
                            <path fill="#F9FCF7" d="M102.91 82.593c0 1.846-1.497 3.342-3.344 3.342-1.847 0-3.343-1.496-3.343-3.342 0-1.847 1.496-3.343 3.343-3.343s3.345 1.496 3.345 3.343" mask="url(#d2db7r5g9b)"/>
                            <path fill="#FAFCF8" d="M102.433 82.593c0 1.582-1.283 2.865-2.867 2.865-1.582 0-2.865-1.283-2.865-2.865 0-1.583 1.283-2.866 2.865-2.866 1.584 0 2.867 1.283 2.867 2.866" mask="url(#d2db7r5g9b)"/>
                            <path fill="#FBFDFA" d="M101.955 82.593c0 1.318-1.069 2.387-2.389 2.387-1.318 0-2.388-1.069-2.388-2.387s1.07-2.388 2.388-2.388c1.32 0 2.39 1.07 2.39 2.388" mask="url(#d2db7r5g9b)"/>
                            <path fill="#FCFDFB" d="M101.478 82.593c0 1.054-.856 1.91-1.912 1.91-1.055 0-1.91-.856-1.91-1.91 0-1.055.855-1.91 1.91-1.91 1.056 0 1.912.855 1.912 1.91" mask="url(#d2db7r5g9b)"/>
                            <path fill="#FDFEFC" d="M101 82.593c0 .791-.642 1.432-1.434 1.432-.79 0-1.432-.641-1.432-1.432 0-.791.641-1.433 1.432-1.433.792 0 1.434.642 1.434 1.433" mask="url(#d2db7r5g9b)"/>
                            <path fill="#FEFEFE" d="M100.522 82.593c0 .527-.427.955-.956.955-.527 0-.954-.428-.954-.955 0-.528.427-.955.954-.955.529 0 .956.427.956.955" mask="url(#d2db7r5g9b)"/>
                            <path fill="#FFF" d="M100.044 82.593c0 .263-.213.478-.478.478-.264 0-.477-.215-.477-.478 0-.264.213-.478.477-.478.265 0 .478.214.478.478" mask="url(#d2db7r5g9b)"/>
                        </g>
                    </g>
                </g>
            </g>
        </g>
    </g>
</svg>
