<svg xmlns="http://www.w3.org/2000/svg" width="121" height="121" viewBox="0 0 121 121">
    <g fill="none" fill-rule="evenodd" opacity=".5">
        <g fill="#7EB441" fill-rule="nonzero">
            <g>
                <path d="M85.891 56.525c-.348-.056-.7-.082-1.052-.078H24.873l1.308-.609c1.278-.605 2.44-1.43 3.436-2.436l16.816-16.84c2.215-2.117 2.587-5.523.882-8.07-1.985-2.713-5.79-3.302-8.5-1.315-.22.16-.427.336-.623.524L7.784 58.153c-2.377 2.377-2.379 6.233-.005 8.613l.005.005 30.408 30.451c2.379 2.375 6.23 2.37 8.601-.012.187-.187.361-.387.522-.597 1.705-2.547 1.333-5.952-.882-8.07l-16.786-16.87c-.892-.894-1.918-1.644-3.04-2.223l-1.825-.822h59.722c3.107.116 5.833-2.058 6.417-5.116.537-3.32-1.714-6.448-5.03-6.987z" transform="translate(-647 -1748) matrix(-1 0 0 1 768 1748)"/>
                <path d="M65.858 6.69c-.078-.012-.156-.018-.235-.017H52.219l.292-.133c.286-.133.546-.314.768-.534l3.759-3.69c.495-.465.578-1.211.197-1.77-.443-.594-1.294-.724-1.9-.288-.049.035-.095.074-.14.115L48.4 7.047c-.531.521-.532 1.366-.001 1.888v.001l6.798 6.674c.532.52 1.392.52 1.922-.002.042-.041.081-.085.117-.131.381-.558.298-1.305-.197-1.769l-3.752-3.697c-.2-.196-.429-.36-.68-.488l-.408-.18h13.35c.695.025 1.304-.45 1.434-1.121.12-.728-.383-1.413-1.124-1.531z" opacity=".3" transform="translate(-647 -1748) matrix(-1 0 0 1 768 1748)"/>
                <path d="M103.536 96.054c-.168-.028-.338-.041-.508-.039H74.104l.63-.3c.617-.299 1.178-.706 1.658-1.202l8.111-8.304c1.068-1.044 1.248-2.724.425-3.98-.957-1.338-2.792-1.629-4.1-.649-.105.08-.206.166-.3.259L65.86 96.856c-1.146 1.172-1.147 3.074-.002 4.248l.002.002 14.668 15.017c1.147 1.172 3.005 1.169 4.149-.006.09-.092.174-.19.251-.294.823-1.256.643-2.936-.425-3.98l-8.097-8.32c-.43-.44-.925-.81-1.466-1.095l-.88-.406h28.807c1.498.057 2.813-1.015 3.095-2.523.26-1.637-.827-3.18-2.426-3.445z" opacity=".7" transform="translate(-647 -1748) matrix(-1 0 0 1 768 1748)"/>
                <path d="M89.738 29.527c-.086-.014-.173-.02-.26-.02H74.663l.323-.15c.316-.149.603-.352.849-.6l4.154-4.153c.547-.522.64-1.361.218-1.99-.49-.669-1.43-.814-2.1-.324-.054.04-.105.083-.154.13l-7.512 7.508c-.587.586-.588 1.537-.001 2.124v.001l7.513 7.509c.588.585 1.54.584 2.125-.003.046-.047.09-.096.13-.148.42-.627.328-1.467-.219-1.99l-4.147-4.16c-.22-.22-.474-.405-.751-.547l-.45-.203h14.754c.768.029 1.441-.507 1.585-1.261.133-.82-.423-1.59-1.242-1.723z" transform="translate(-647 -1748) matrix(-1 0 0 1 768 1748)"/>
                <path d="M19.738 90.527c-.086-.014-.173-.02-.26-.02H4.663l.323-.15c.316-.149.603-.352.849-.6l4.154-4.153c.547-.522.64-1.361.218-1.99-.49-.669-1.43-.814-2.1-.324-.054.04-.105.083-.154.13L.441 90.927c-.587.586-.588 1.537-.001 2.124v.001l7.513 7.509c.588.585 1.54.584 2.125-.003.046-.047.09-.096.13-.148.42-.627.328-1.467-.219-1.99l-4.147-4.16c-.22-.22-.474-.405-.751-.547l-.45-.203h14.754c.768.029 1.441-.507 1.585-1.261.133-.82-.423-1.59-1.242-1.723z" opacity=".2" transform="translate(-647 -1748) matrix(-1 0 0 1 768 1748)"/>
                <path d="M47.159 114.018c-.058-.01-.116-.014-.174-.013H37.11l.215-.1c.21-.1.402-.235.566-.4l2.77-2.769c.364-.348.426-.908.145-1.326-.327-.446-.954-.543-1.4-.217-.036.027-.07.056-.103.087l-5.008 5.005c-.392.391-.392 1.025-.001 1.416v.001l5.01 5.006c.391.39 1.025.39 1.416-.002.03-.031.06-.064.086-.098.28-.419.22-.979-.145-1.327l-2.765-2.773c-.147-.147-.316-.27-.501-.365l-.3-.136h9.836c.512.02.96-.338 1.057-.84.088-.546-.282-1.06-.828-1.15z" transform="translate(-647 -1748) matrix(-1 0 0 1 768 1748)"/>
                <path fill-opacity=".7" d="M119.738 80.527c-.086-.014-.173-.02-.26-.02h-14.815l.323-.15c.316-.149.603-.352.849-.6l4.154-4.153c.547-.522.64-1.361.218-1.99-.49-.669-1.43-.814-2.1-.324-.054.04-.105.083-.154.13l-7.512 7.508c-.587.586-.588 1.537-.001 2.124v.001l7.513 7.509c.588.585 1.54.584 2.125-.003.046-.047.09-.096.13-.148.42-.627.328-1.467-.219-1.99l-4.147-4.16c-.22-.22-.474-.405-.751-.547l-.45-.203h14.754c.768.029 1.441-.507 1.585-1.261.133-.82-.423-1.59-1.242-1.723z" transform="translate(-647 -1748) matrix(-1 0 0 1 768 1748)"/>
            </g>
        </g>
    </g>
</svg>
