<svg xmlns="http://www.w3.org/2000/svg" xmlns:xlink="http://www.w3.org/1999/xlink" width="176" height="50" viewBox="0 0 176 50">
    <defs>
        <path id="o03bqi270a" d="M0 49.832L175.973 49.832 175.973 0.03 0 0.03z"/>
        <path id="2pp2hjo51c" d="M19.064 1.047l-.39.375c-1.36 1.304-1.361 3.474-.005 4.78l4.82 4.64H4c-.445 0-.877.143-1.235.407l-.684.505-1.094.807c-.734.541-1.038 1.5-.727 2.357 2.625 7.235 8.624 12.905 16.145 15.195l-8.312-8.331-2.057-2.055c-.536-.536-.157-1.451.601-1.451h15.758l-3.719 3.576c-1.357 1.306-1.356 3.477.003 4.781l.242.233c1.285 1.232 3.314 1.232 4.599 0l12.316-11.82c.653-.626.654-1.669.001-2.296L23.665 1.05C23.022.43 22.193.122 21.363.122c-.828 0-1.657.309-2.3.925z"/>
        <path id="eddae07goe" d="M0.008 0.03L5.515 0.03 5.515 5.532 0.008 5.532z"/>
    </defs>
    <g fill="none" fill-rule="evenodd">
        <g>
            <g>
                <g>
                    <path fill="#7EB441" d="M57.608 35.297L170.799 35.297 170.799 34.458 57.608 34.458z" transform="translate(-154 -33) translate(-2 33) translate(156)"/>
                    <path fill="#000" d="M61.138 39.754L65.758 48.18 70.459 39.754 72.668 39.754 72.668 49.714 70.961 49.714 70.961 41.86 66.461 49.714 64.955 49.714 60.536 41.888 60.536 49.714 58.848 49.714 58.848 39.754z" transform="translate(-154 -33) translate(-2 33) translate(156)"/>
                    <g transform="translate(-154 -33) translate(-2 33) translate(156) translate(0 .138)">
                        <path fill="#000" d="M92.303 48.418c.583-.195 1.068-.472 1.456-.83.389-.358.683-.79.884-1.297.201-.507.301-1.072.301-1.695 0-.614-.1-1.174-.3-1.681-.202-.507-.5-.942-.895-1.304-.395-.363-.88-.642-1.456-.837-.576-.196-1.246-.293-2.009-.293-.776 0-1.456.097-2.038.293-.583.195-1.072.474-1.467.837-.395.362-.69.797-.884 1.304-.194.507-.29 1.067-.29 1.681 0 .623.096 1.188.29 1.695.194.507.486.94.874 1.297.389.358.874.635 1.456.83.583.196 1.27.293 2.06.293.762 0 1.436-.097 2.018-.293m-4.7 1.067c-.81-.227-1.507-.562-2.09-1.004-.582-.442-1.034-.988-1.355-1.64-.322-.65-.482-1.394-.482-2.231s.164-1.581.492-2.232c.328-.651.783-1.2 1.366-1.646.582-.447 1.279-.786 2.089-1.019.81-.232 1.697-.348 2.661-.348.978 0 1.872.114 2.682.341.81.228 1.503.563 2.079 1.005.576.442 1.025.986 1.346 1.632.321.646.482 1.388.482 2.225 0 .837-.158 1.583-.472 2.24-.315.655-.76 1.206-1.336 1.652-.576.447-1.269.786-2.079 1.018-.81.233-1.71.35-2.702.35-.977 0-1.871-.115-2.681-.343M114.367 48.39c.435-.083.783-.202 1.044-.355.261-.154.442-.34.542-.558.1-.219.151-.468.151-.747 0-.586-.248-1.034-.743-1.346-.496-.311-1.326-.467-2.49-.467h-3.396v3.599h3.255c.656 0 1.201-.042 1.637-.126zm.632-4.973c.469-.274.703-.676.703-1.207 0-.539-.25-.93-.753-1.171-.502-.242-1.363-.363-2.581-.363h-2.893v3.153h3.194c1.085 0 1.862-.138 2.33-.412zm-2.57-3.801c1.017 0 1.854.067 2.51.202.656.135 1.175.316 1.557.544.381.228.646.498.793.81.147.31.221.643.221.997 0 .455-.15.865-.452 1.227-.301.363-.827.665-1.577.907.483.13.88.281 1.196.453.314.172.569.363.763.572.194.21.328.428.402.656.073.228.11.463.11.704 0 .41-.09.789-.271 1.138-.181.348-.472.653-.874.913s-.93.465-1.587.614c-.656.149-1.466.223-2.43.223h-5.122v-9.96h4.76z"/>
                        <mask id="teumj6mcjb" fill="#fff">
                            <use xlink:href="#o03bqi270a"/>
                        </mask>
                        <path fill="#000" d="M128.146 49.576L129.994 49.576 129.994 39.616 128.146 39.616zM142.235 39.616L142.235 48.432 149.667 48.432 149.667 49.576 140.387 49.576 140.387 39.616zM169.13 39.616L169.13 40.746 161.697 40.746 161.697 43.871 168.728 43.871 168.728 45.014 161.697 45.014 161.697 48.446 169.231 48.446 169.21 49.576 159.849 49.576 159.849 39.616zM59.939.592L61.483.592 61.483 21.993 73.794 21.993 73.794 23.458 59.939 23.458zM89.78 13.78V13.2c-.129-1.516-.746-2.802-1.853-3.856-1.132-1.028-2.444-1.542-3.936-1.542-1.493 0-2.792.527-3.898 1.58-1.133 1.08-1.763 2.405-1.891 3.973v.423H89.78zm-11.115 7.866c-1.338-1.62-2.007-3.753-2.007-6.401 0-2.648.669-4.782 2.007-6.401 1.337-1.594 3.113-2.39 5.326-2.39 2.212 0 3.988.732 5.326 2.197 1.337 1.465 2.007 3.42 2.007 5.861v.733H78.202c0 2.236.527 4.023 1.582 5.36 1.055 1.337 2.457 2.005 4.207 2.005 1.312 0 2.495-.347 3.55-1.041 1.081-.72 1.827-1.658 2.24-2.815h1.543c-.258 1.517-1.08 2.776-2.47 3.779-1.39 1.002-3.01 1.503-4.863 1.503-2.213 0-3.989-.796-5.326-2.39zM104.338 21.53c1.054-.874 1.698-1.992 1.93-3.355v-3.778c-.36.308-1.017.565-1.969.77-.9.207-2.097.374-3.59.502-1.209.103-2.225.515-3.048 1.234-.824.694-1.235 1.517-1.235 2.468 0 .977.424 1.8 1.274 2.467.823.695 1.826 1.042 3.01 1.042 1.364 0 2.573-.45 3.628-1.35m-7.758 1.157c-1.158-.926-1.736-2.03-1.736-3.316 0-1.234.565-2.314 1.698-3.24 1.106-.925 2.495-1.465 4.168-1.619 1.621-.154 2.946-.41 3.975-.771 1.055-.36 1.583-.784 1.583-1.273v-1.465c0-.848-.464-1.567-1.39-2.159-.9-.591-2.007-.887-3.319-.887-1.235 0-2.303.283-3.203.848-.875.592-1.313 1.286-1.313 2.083v.848h-1.466v-1.003c0-1.105.579-2.043 1.737-2.815 1.183-.77 2.598-1.156 4.245-1.156 1.698 0 3.152.373 4.361 1.118 1.21.746 1.814 1.645 1.814 2.7v9.947c0 .643.141 1.196.425 1.658.283.463.63.695 1.042.695.128 0 .244-.013.347-.039.103-.025.18-.064.232-.116v.733c-.386.18-.875.27-1.467.27-.592 0-1.106-.257-1.544-.771-.412-.514-.617-1.131-.617-1.851-.309.874-.965 1.58-1.968 2.12-1.004.54-2.162.81-3.474.81-1.62 0-2.998-.45-4.13-1.35M114.496 22.34c-1.235-1.028-1.853-2.275-1.853-3.74h1.428c0 1.105.476 2.056 1.428 2.853.952.771 2.097 1.157 3.435 1.157 1.544 0 2.792-.347 3.744-1.041.926-.72 1.39-1.659 1.39-2.815 0-.874-.49-1.62-1.467-2.237-.979-.59-2.29-.964-3.937-1.118-1.75-.154-3.14-.642-4.168-1.465-1.055-.823-1.583-1.838-1.583-3.046 0-1.363.528-2.416 1.583-3.162 1.054-.746 2.534-1.119 4.438-1.119 1.827 0 3.28.4 4.361 1.196 1.106.797 1.66 1.864 1.66 3.2h-1.467c-.18-1.002-.669-1.786-1.466-2.352-.798-.565-1.827-.848-3.088-.848-1.39 0-2.496.283-3.319.848-.824.566-1.235 1.311-1.235 2.237 0 .874.502 1.62 1.505 2.236.978.592 2.29.964 3.937 1.118 1.723.155 3.113.67 4.168 1.543 1.029.874 1.544 1.966 1.544 3.277 0 1.465-.605 2.636-1.814 3.509-1.184.874-2.779 1.311-4.786 1.311-1.75 0-3.23-.514-4.438-1.542M130.366 23.458h1.543V7.032h-1.543v16.426zm0-20.514h1.543V.592h-1.543v2.352zM138.092 23.458V7.032h1.544v2.776c.463-.977 1.17-1.748 2.123-2.314.952-.59 2.007-.887 3.165-.887 1.62 0 2.997.528 4.13 1.581 1.157 1.08 1.736 2.366 1.736 3.857v11.413h-1.544V12.045c0-1.132-.424-2.095-1.273-2.893-.85-.796-1.866-1.195-3.05-1.195-1.286 0-2.43.438-3.434 1.311-1.004.9-1.621 2.018-1.853 3.355v10.835h-1.544zM166.737 19.91c1.081-1.413 1.621-3.11 1.621-5.09 0-1.979-.54-3.675-1.62-5.09-1.081-1.387-2.393-2.081-3.937-2.081-1.698 0-3.05.655-4.053 1.966-1.029 1.311-1.544 3.046-1.544 5.206 0 2.159.515 3.894 1.544 5.205 1.004 1.311 2.355 1.967 4.053 1.967 1.544 0 2.856-.694 3.936-2.082m-8.954 9.04c-1.389-1.054-2.084-2.313-2.084-3.779h1.467c0 1.105.54 2.056 1.62 2.854 1.107.77 2.433 1.157 3.976 1.157 1.698 0 3.05-.45 4.053-1.35 1.028-.9 1.543-2.108 1.543-3.625V19.68c-.489 1.08-1.235 1.928-2.238 2.545-1.03.643-2.136.964-3.32.964-2.16 0-3.885-.758-5.17-2.275-1.313-1.542-1.97-3.573-1.97-6.092 0-2.52.657-4.55 1.97-6.093 1.285-1.516 3.01-2.275 5.17-2.275 1.261 0 2.406.335 3.436 1.003 1.003.669 1.71 1.555 2.122 2.66V7.032h1.544v17.215c0 1.98-.63 3.509-1.89 4.588-1.236 1.105-2.986 1.658-5.25 1.658-1.955 0-3.615-.514-4.979-1.542" mask="url(#teumj6mcjb)"/>
                        <path fill="#7EB441" d="M49.95 27.334c-1.068 11.968-10.926 21.468-23.217 22.28l23.217-22.28z" mask="url(#teumj6mcjb)"/>
                        <path fill="#62619A" d="M0 23.026C1.068 11.058 10.926 1.558 23.217.746L0 23.026zM49.227 16.644C46.602 9.41 40.602 3.74 33.08 1.45l8.313 8.33 2.057 2.056c.536.535.156 1.45-.602 1.45H27.092l3.719-3.575c1.357-1.306 1.356-3.477-.003-4.781l-.242-.233c-1.285-1.233-3.315-1.233-4.6 0L13.65 16.517c-.652.626-.653 1.669 0 2.295l12.173 11.702c1.284 1.234 3.315 1.235 4.6.002l.392-.375c1.358-1.304 1.36-3.474.004-4.78l-4.82-4.641h19.488c.444 0 .877-.142 1.235-.406l.684-.505 1.094-.807c.734-.542 1.038-1.5.727-2.358" mask="url(#teumj6mcjb)"/>
                    </g>
                    <g transform="translate(-154 -33) translate(-2 33) translate(156) translate(1.176 18.594)">
                        <mask id="ug96nc4qad" fill="#fff">
                            <use xlink:href="#2pp2hjo51c"/>
                        </mask>
                        <path fill="#7EB441" d="M-0.05 30.113L36.491 30.113 36.491 -0.187 -0.05 -0.187z" mask="url(#ug96nc4qad)"/>
                        <path fill="#7EB441" d="M34.857 15.118c0 4.586-1.861 8.738-4.87 11.743-1.503 1.503-3.294 2.719-5.283 3.56v-.14h-12.94v.14c-1.99-.841-3.78-2.057-5.285-3.56-3.008-3.005-4.868-7.157-4.868-11.743C1.61 5.945 9.053-1.49 18.234-1.49c9.18 0 16.623 7.435 16.623 16.608" mask="url(#ug96nc4qad)"/>
                        <path fill="#7EB441" d="M34.77 15.118c0 4.562-1.852 8.692-4.844 11.681-1.496 1.495-3.278 2.705-5.256 3.54v-.058H11.797v.059c-1.978-.836-3.76-2.046-5.256-3.54-2.992-2.99-4.843-7.12-4.843-11.682 0-9.124 7.403-16.52 16.536-16.52 9.132 0 16.535 7.396 16.535 16.52" mask="url(#ug96nc4qad)"/>
                        <path fill="#7EB441" d="M34.682 15.118c0 4.537-1.841 8.646-4.818 11.62-1.488 1.486-3.26 2.69-5.228 3.521-.984.416-2.017.739-3.088.958v-.936h-6.63v.936c-1.07-.22-2.103-.542-3.087-.958-1.968-.831-3.74-2.035-5.228-3.522-2.976-2.973-4.817-7.082-4.817-11.62 0-9.075 7.364-16.432 16.448-16.432s16.448 7.357 16.448 16.433" mask="url(#ug96nc4qad)"/>
                        <path fill="#7EB442" d="M34.594 15.118c0 4.513-1.831 8.6-4.792 11.558-1.48 1.479-3.243 2.676-5.2 3.503-.979.413-2.006.734-3.071.952v-.85h-6.595v.85c-1.065-.218-2.092-.539-3.07-.952-1.958-.827-3.72-2.024-5.201-3.503-2.96-2.958-4.792-7.045-4.792-11.558 0-9.028 7.325-16.346 16.36-16.346 9.036 0 16.361 7.318 16.361 16.346" mask="url(#ug96nc4qad)"/>
                        <path fill="#7FB442" d="M34.507 15.118c0 8.979-7.286 16.258-16.273 16.258-8.988 0-16.273-7.28-16.273-16.258 0-8.98 7.285-16.259 16.273-16.259 8.987 0 16.273 7.28 16.273 16.259" mask="url(#ug96nc4qad)"/>
                        <path fill="#7FB542" d="M34.42 15.118c0 8.93-7.247 16.17-16.186 16.17-8.94 0-16.186-7.24-16.186-16.17 0-8.931 7.246-16.171 16.186-16.171 8.939 0 16.185 7.24 16.185 16.17" mask="url(#ug96nc4qad)"/>
                        <path fill="#7FB543" d="M34.332 15.118C34.332 24 27.124 31.2 18.234 31.2 9.343 31.2 2.135 24 2.135 15.118S9.343-.966 18.234-.966c8.89 0 16.098 7.201 16.098 16.084" mask="url(#ug96nc4qad)"/>
                        <path fill="#7FB543" d="M34.244 15.118c0 8.834-7.168 15.996-16.01 15.996-8.843 0-16.011-7.162-16.011-15.996 0-8.835 7.168-15.996 16.01-15.996 8.843 0 16.011 7.161 16.011 15.996" mask="url(#ug96nc4qad)"/>
                        <path fill="#80B544" d="M34.157 15.118c0 8.786-7.13 15.908-15.923 15.908-8.795 0-15.924-7.122-15.924-15.908S9.44-.791 18.234-.791s15.923 7.123 15.923 15.909" mask="url(#ug96nc4qad)"/>
                        <path fill="#80B544" d="M34.07 15.118c0 8.737-7.09 15.82-15.836 15.82S2.398 23.856 2.398 15.119c0-8.738 7.09-15.821 15.836-15.821 8.745 0 15.835 7.083 15.835 15.82" mask="url(#ug96nc4qad)"/>
                        <path fill="#80B544" d="M33.982 15.118c0 8.69-7.051 15.733-15.748 15.733-8.698 0-15.749-7.044-15.749-15.733 0-8.69 7.051-15.734 15.749-15.734 8.697 0 15.748 7.044 15.748 15.734" mask="url(#ug96nc4qad)"/>
                        <path fill="#81B645" d="M33.894 15.118c0 8.64-7.011 15.646-15.66 15.646-8.65 0-15.661-7.005-15.661-15.646C2.573 6.476 9.584-.53 18.233-.53c8.65 0 15.661 7.005 15.661 15.647" mask="url(#ug96nc4qad)"/>
                        <path fill="#81B645" d="M33.807 15.118c0 8.593-6.973 15.558-15.573 15.558-8.601 0-15.574-6.965-15.574-15.558S9.633-.442 18.234-.442c8.6 0 15.573 6.967 15.573 15.56" mask="url(#ug96nc4qad)"/>
                        <path fill="#81B646" d="M33.72 15.118c0 8.544-6.934 15.471-15.486 15.471-8.553 0-15.486-6.927-15.486-15.471 0-8.545 6.933-15.472 15.486-15.472 8.552 0 15.485 6.927 15.485 15.472" mask="url(#ug96nc4qad)"/>
                        <path fill="#82B647" d="M33.632 15.118c0 8.496-6.894 15.384-15.398 15.384-8.505 0-15.399-6.888-15.399-15.384C2.835 6.62 9.73-.266 18.234-.266c8.504 0 15.398 6.887 15.398 15.384" mask="url(#ug96nc4qad)"/>
                        <path fill="#82B647" d="M33.544 15.118c0 8.448-6.854 15.296-15.31 15.296S2.923 23.566 2.923 15.118C2.923 6.669 9.778-.18 18.233-.18c8.457 0 15.311 6.848 15.311 15.297" mask="url(#ug96nc4qad)"/>
                        <path fill="#82B748" d="M33.457 15.118c0 8.4-6.816 15.209-15.223 15.209-8.408 0-15.224-6.81-15.224-15.21 0-8.4 6.816-15.209 15.224-15.209 8.407 0 15.223 6.81 15.223 15.21" mask="url(#ug96nc4qad)"/>
                        <path fill="#83B748" d="M33.37 15.118c0 8.351-6.777 15.121-15.136 15.121-8.36 0-15.136-6.77-15.136-15.121 0-8.352 6.776-15.122 15.136-15.122 8.359 0 15.135 6.77 15.135 15.122" mask="url(#ug96nc4qad)"/>
                        <path fill="#83B749" d="M33.282 15.118c0 8.303-6.738 15.034-15.048 15.034-8.311 0-15.049-6.731-15.049-15.034C3.185 6.814 9.923.083 18.234.083c8.31 0 15.048 6.731 15.048 15.035" mask="url(#ug96nc4qad)"/>
                        <path fill="#84B749" d="M33.194 15.118c0 8.255-6.698 14.947-14.96 14.947-8.263 0-14.961-6.692-14.961-14.947C3.273 6.863 9.97.17 18.233.17c8.263 0 14.961 6.692 14.961 14.947" mask="url(#ug96nc4qad)"/>
                        <path fill="#84B84A" d="M33.107 15.118c0 8.206-6.66 14.86-14.873 14.86-8.215 0-14.874-6.654-14.874-14.86C3.36 6.91 10.02.258 18.234.258s14.873 6.653 14.873 14.86" mask="url(#ug96nc4qad)"/>
                        <path fill="#84B84B" d="M33.02 15.118c0 8.158-6.62 14.772-14.786 14.772S3.448 23.276 3.448 15.118c0-8.159 6.62-14.773 14.786-14.773S33.019 6.96 33.019 15.118" mask="url(#ug96nc4qad)"/>
                        <path fill="#85B84B" d="M32.932 15.118c0 8.11-6.58 14.684-14.698 14.684S3.535 23.228 3.535 15.118 10.116.433 18.234.433c8.117 0 14.698 6.574 14.698 14.685" mask="url(#ug96nc4qad)"/>
                        <path fill="#85B84C" d="M32.844 15.118c0 8.062-6.541 14.597-14.61 14.597-8.07 0-14.611-6.535-14.611-14.597S10.164.52 18.233.52c8.07 0 14.611 6.536 14.611 14.598" mask="url(#ug96nc4qad)"/>
                        <path fill="#86B94C" d="M32.757 15.118c0 8.013-6.502 14.51-14.523 14.51S3.71 23.13 3.71 15.118c0-8.014 6.503-14.51 14.524-14.51 8.02 0 14.523 6.496 14.523 14.51" mask="url(#ug96nc4qad)"/>
                        <path fill="#86B94D" d="M32.67 15.118c0 7.965-6.464 14.422-14.436 14.422-7.973 0-14.436-6.457-14.436-14.422C3.798 7.152 10.26.695 18.234.695c7.972 0 14.435 6.457 14.435 14.423" mask="url(#ug96nc4qad)"/>
                        <path fill="#87B94E" d="M32.582 15.118c0 7.917-6.424 14.335-14.348 14.335-7.925 0-14.349-6.418-14.349-14.335C3.885 7.2 10.31.782 18.234.782c7.924 0 14.348 6.418 14.348 14.336" mask="url(#ug96nc4qad)"/>
                        <path fill="#87B94E" d="M32.494 15.118c0 7.868-6.384 14.247-14.26 14.247-7.876 0-14.261-6.379-14.261-14.247C3.973 7.248 10.358.87 18.233.87c7.877 0 14.261 6.379 14.261 14.248" mask="url(#ug96nc4qad)"/>
                        <path fill="#88BA4F" d="M32.407 15.118c0 7.82-6.346 14.16-14.173 14.16-7.828 0-14.174-6.34-14.174-14.16S10.406.958 18.234.958c7.827 0 14.173 6.34 14.173 14.16" mask="url(#ug96nc4qad)"/>
                        <path fill="#88BA50" d="M32.32 15.118c0 7.772-6.307 14.073-14.086 14.073-7.78 0-14.086-6.301-14.086-14.073 0-7.773 6.306-14.073 14.086-14.073 7.779 0 14.085 6.3 14.085 14.073" mask="url(#ug96nc4qad)"/>
                        <path fill="#89BA51" d="M32.232 15.118c0 7.724-6.267 13.985-13.998 13.985-7.732 0-13.999-6.261-13.999-13.985 0-7.724 6.267-13.986 13.999-13.986 7.73 0 13.998 6.262 13.998 13.986" mask="url(#ug96nc4qad)"/>
                        <path fill="#89BA51" d="M32.144 15.118c0 7.675-6.228 13.898-13.91 13.898-7.683 0-13.911-6.223-13.911-13.898 0-7.676 6.228-13.898 13.91-13.898 7.683 0 13.911 6.222 13.911 13.898" mask="url(#ug96nc4qad)"/>
                        <path fill="#8ABB52" d="M32.057 15.118c0 7.627-6.189 13.81-13.823 13.81-7.635 0-13.824-6.183-13.824-13.81 0-7.628 6.19-13.811 13.824-13.811 7.634 0 13.823 6.183 13.823 13.81" mask="url(#ug96nc4qad)"/>
                        <path fill="#8ABB53" d="M31.97 15.118c0 7.579-6.15 13.723-13.736 13.723-7.587 0-13.736-6.144-13.736-13.723 0-7.58 6.15-13.724 13.736-13.724s13.735 6.144 13.735 13.724" mask="url(#ug96nc4qad)"/>
                        <path fill="#8ABB53" d="M31.882 15.118c0 7.53-6.11 13.636-13.649 13.636-7.537 0-13.648-6.105-13.648-13.636 0-7.531 6.11-13.636 13.648-13.636 7.538 0 13.649 6.105 13.649 13.636" mask="url(#ug96nc4qad)"/>
                        <path fill="#8BBC54" d="M31.795 15.118c0 7.482-6.072 13.548-13.562 13.548-7.489 0-13.56-6.066-13.56-13.548 0-7.483 6.071-13.549 13.56-13.549 7.49 0 13.562 6.066 13.562 13.549" mask="url(#ug96nc4qad)"/>
                        <path fill="#8CBC55" d="M31.707 15.118c0 7.434-6.032 13.46-13.474 13.46-7.44 0-13.473-6.026-13.473-13.46 0-7.435 6.032-13.462 13.473-13.462 7.442 0 13.474 6.027 13.474 13.462" mask="url(#ug96nc4qad)"/>
                        <path fill="#8CBC56" d="M31.62 15.118c0 7.386-5.994 13.373-13.387 13.373-7.392 0-13.385-5.987-13.385-13.373 0-7.386 5.993-13.374 13.385-13.374 7.393 0 13.387 5.988 13.387 13.374" mask="url(#ug96nc4qad)"/>
                        <path fill="#8DBC56" d="M31.532 15.118c0 7.337-5.954 13.286-13.299 13.286-7.344 0-13.298-5.949-13.298-13.286C4.935 7.78 10.89 1.83 18.233 1.83c7.345 0 13.299 5.949 13.299 13.287" mask="url(#ug96nc4qad)"/>
                        <path fill="#8DBD57" d="M31.445 15.118c0 7.29-5.915 13.199-13.212 13.199-7.296 0-13.21-5.91-13.21-13.2 0-7.289 5.914-13.198 13.21-13.198 7.297 0 13.212 5.91 13.212 13.199" mask="url(#ug96nc4qad)"/>
                        <path fill="#8EBD58" d="M31.357 15.118c0 7.24-5.875 13.111-13.124 13.111-7.247 0-13.123-5.87-13.123-13.111 0-7.242 5.876-13.112 13.123-13.112 7.249 0 13.124 5.87 13.124 13.112" mask="url(#ug96nc4qad)"/>
                        <path fill="#8EBD59" d="M31.27 15.118c0 7.193-5.837 13.024-13.037 13.024-7.2 0-13.035-5.831-13.035-13.024 0-7.193 5.836-13.024 13.035-13.024 7.2 0 13.037 5.83 13.037 13.024" mask="url(#ug96nc4qad)"/>
                        <path fill="#8FBE5A" d="M31.182 15.118c0 7.144-5.797 12.936-12.949 12.936-7.15 0-12.948-5.792-12.948-12.936 0-7.145 5.797-12.937 12.948-12.937 7.152 0 12.95 5.792 12.95 12.937" mask="url(#ug96nc4qad)"/>
                        <path fill="#8FBE5A" d="M31.095 15.118c0 7.096-5.759 12.849-12.862 12.849-7.102 0-12.86-5.753-12.86-12.85 0-7.096 5.758-12.849 12.86-12.849 7.103 0 12.862 5.753 12.862 12.85" mask="url(#ug96nc4qad)"/>
                        <path fill="#90BE5B" d="M31.007 15.118c0 7.048-5.719 12.762-12.774 12.762-7.054 0-12.773-5.714-12.773-12.762S11.179 2.356 18.233 2.356c7.055 0 12.774 5.714 12.774 12.762" mask="url(#ug96nc4qad)"/>
                        <path fill="#90BF5C" d="M30.92 15.118c0 7-5.68 12.674-12.687 12.674-7.006 0-12.685-5.674-12.685-12.674 0-7 5.68-12.675 12.685-12.675 7.007 0 12.687 5.675 12.687 12.675" mask="url(#ug96nc4qad)"/>
                        <path fill="#91BF5D" d="M30.832 15.118c0 6.951-5.64 12.587-12.599 12.587-6.957 0-12.598-5.636-12.598-12.587 0-6.952 5.64-12.587 12.598-12.587 6.959 0 12.6 5.635 12.6 12.587" mask="url(#ug96nc4qad)"/>
                        <path fill="#91BF5E" d="M30.745 15.118c0 6.903-5.602 12.5-12.512 12.5-6.909 0-12.51-5.597-12.51-12.5 0-6.904 5.601-12.5 12.51-12.5 6.91 0 12.512 5.596 12.512 12.5" mask="url(#ug96nc4qad)"/>
                        <path fill="#92C05E" d="M30.657 15.118c0 6.855-5.562 12.412-12.424 12.412-6.86 0-12.423-5.557-12.423-12.412S11.372 2.705 18.233 2.705c6.862 0 12.424 5.558 12.424 12.413" mask="url(#ug96nc4qad)"/>
                        <path fill="#93C05F" d="M30.57 15.118c0 6.806-5.523 12.324-12.336 12.324-6.813 0-12.337-5.518-12.337-12.324 0-6.807 5.524-12.325 12.337-12.325S30.57 8.31 30.57 15.118" mask="url(#ug96nc4qad)"/>
                        <path fill="#93C060" d="M30.482 15.118c0 6.758-5.484 12.237-12.248 12.237-6.765 0-12.25-5.479-12.25-12.237 0-6.759 5.485-12.238 12.25-12.238 6.764 0 12.248 5.48 12.248 12.238" mask="url(#ug96nc4qad)"/>
                        <path fill="#94C161" d="M30.395 15.118c0 6.71-5.445 12.15-12.161 12.15-6.717 0-12.162-5.44-12.162-12.15s5.445-12.15 12.162-12.15c6.716 0 12.16 5.44 12.16 12.15" mask="url(#ug96nc4qad)"/>
                        <path fill="#94C162" d="M30.307 15.118c0 6.662-5.405 12.062-12.073 12.062S6.16 21.78 6.16 15.118c0-6.662 5.406-12.063 12.074-12.063s12.073 5.4 12.073 12.063" mask="url(#ug96nc4qad)"/>
                        <path fill="#95C163" d="M30.22 15.118c0 6.613-5.367 11.975-11.986 11.975-6.62 0-11.987-5.362-11.987-11.975 0-6.614 5.367-11.975 11.987-11.975S30.22 8.503 30.22 15.118" mask="url(#ug96nc4qad)"/>
                        <path fill="#95C264" d="M30.132 15.118c0 6.565-5.327 11.887-11.898 11.887-6.572 0-11.9-5.322-11.9-11.887 0-6.566 5.328-11.888 11.9-11.888 6.571 0 11.898 5.322 11.898 11.888" mask="url(#ug96nc4qad)"/>
                        <path fill="#96C264" d="M30.045 15.118c0 6.517-5.288 11.8-11.811 11.8-6.524 0-11.812-5.283-11.812-11.8 0-6.518 5.288-11.8 11.812-11.8 6.523 0 11.81 5.282 11.81 11.8" mask="url(#ug96nc4qad)"/>
                        <path fill="#97C265" d="M29.957 15.118c0 6.468-5.249 11.713-11.723 11.713-6.475 0-11.724-5.245-11.724-11.713 0-6.47 5.249-11.713 11.724-11.713 6.474 0 11.723 5.244 11.723 11.713" mask="url(#ug96nc4qad)"/>
                        <path fill="#97C366" d="M29.87 15.118c0 6.42-5.21 11.625-11.636 11.625-6.427 0-11.637-5.205-11.637-11.625 0-6.421 5.21-11.626 11.637-11.626 6.426 0 11.636 5.205 11.636 11.626" mask="url(#ug96nc4qad)"/>
                        <path fill="#98C367" d="M29.782 15.118c0 6.372-5.17 11.538-11.548 11.538-6.379 0-11.55-5.166-11.55-11.538 0-6.373 5.171-11.538 11.55-11.538 6.378 0 11.548 5.165 11.548 11.538" mask="url(#ug96nc4qad)"/>
                        <path fill="#98C368" d="M29.695 15.118c0 6.324-5.132 11.45-11.461 11.45-6.33 0-11.462-5.126-11.462-11.45 0-6.324 5.132-11.451 11.462-11.451s11.46 5.127 11.46 11.45" mask="url(#ug96nc4qad)"/>
                        <path fill="#99C469" d="M29.607 15.118c0 6.275-5.092 11.363-11.373 11.363-6.282 0-11.374-5.088-11.374-11.363 0-6.276 5.092-11.364 11.374-11.364 6.281 0 11.373 5.088 11.373 11.364" mask="url(#ug96nc4qad)"/>
                        <path fill="#9AC46A" d="M29.52 15.118c0 6.227-5.053 11.276-11.286 11.276-6.234 0-11.287-5.049-11.287-11.276C6.947 8.89 12 3.842 18.234 3.842c6.233 0 11.286 5.048 11.286 11.276" mask="url(#ug96nc4qad)"/>
                        <path fill="#9AC46B" d="M29.432 15.118c0 6.179-5.014 11.188-11.198 11.188-6.185 0-11.2-5.01-11.2-11.188 0-6.18 5.015-11.189 11.2-11.189 6.184 0 11.198 5.01 11.198 11.189" mask="url(#ug96nc4qad)"/>
                        <path fill="#9BC56C" d="M29.345 15.118c0 6.13-4.975 11.1-11.112 11.1-6.136 0-11.11-4.97-11.11-11.1 0-6.131 4.974-11.101 11.11-11.101 6.137 0 11.112 4.97 11.112 11.1" mask="url(#ug96nc4qad)"/>
                        <path fill="#9CC56D" d="M29.257 15.118c0 6.082-4.935 11.013-11.024 11.013-6.088 0-11.023-4.93-11.023-11.013S12.145 4.104 18.233 4.104c6.089 0 11.024 4.931 11.024 11.014" mask="url(#ug96nc4qad)"/>
                        <path fill="#9CC66D" d="M29.17 15.118c0 6.034-4.896 10.926-10.937 10.926-6.04 0-10.936-4.892-10.936-10.926 0-6.035 4.897-10.927 10.936-10.927 6.04 0 10.937 4.892 10.937 10.927" mask="url(#ug96nc4qad)"/>
                        <path fill="#9DC66E" d="M29.082 15.118c0 5.986-4.857 10.838-10.849 10.838-5.99 0-10.848-4.852-10.848-10.838 0-5.987 4.857-10.84 10.848-10.84 5.992 0 10.85 4.853 10.85 10.84" mask="url(#ug96nc4qad)"/>
                        <path fill="#9DC66F" d="M28.995 15.118c0 5.938-4.818 10.751-10.762 10.751-5.943 0-10.76-4.813-10.76-10.751S12.29 4.366 18.232 4.366c5.944 0 10.762 4.814 10.762 10.752" mask="url(#ug96nc4qad)"/>
                        <path fill="#9EC770" d="M28.907 15.118c0 5.89-4.779 10.664-10.674 10.664-5.894 0-10.673-4.775-10.673-10.664 0-5.89 4.779-10.664 10.673-10.664 5.895 0 10.674 4.774 10.674 10.664" mask="url(#ug96nc4qad)"/>
                        <path fill="#9FC771" d="M28.82 15.118c0 5.84-4.74 10.576-10.587 10.576-5.846 0-10.586-4.735-10.586-10.576 0-5.842 4.74-10.577 10.586-10.577 5.847 0 10.587 4.735 10.587 10.577" mask="url(#ug96nc4qad)"/>
                        <path fill="#9FC772" d="M28.732 15.118c0 5.793-4.7 10.489-10.499 10.489-5.798 0-10.498-4.696-10.498-10.49 0-5.792 4.7-10.489 10.498-10.489 5.799 0 10.5 4.697 10.5 10.49" mask="url(#ug96nc4qad)"/>
                        <path fill="#A0C873" d="M28.645 15.118c0 5.744-4.661 10.401-10.412 10.401-5.75 0-10.41-4.657-10.41-10.401 0-5.745 4.66-10.402 10.41-10.402s10.412 4.657 10.412 10.402" mask="url(#ug96nc4qad)"/>
                        <path fill="#A1C874" d="M28.557 15.118c0 5.696-4.622 10.314-10.324 10.314-5.701 0-10.323-4.618-10.323-10.314 0-5.697 4.622-10.315 10.323-10.315 5.702 0 10.324 4.618 10.324 10.315" mask="url(#ug96nc4qad)"/>
                        <path fill="#A1C975" d="M28.47 15.118c0 5.648-4.583 10.227-10.237 10.227-5.653 0-10.236-4.58-10.236-10.227C7.997 9.47 12.58 4.89 18.233 4.89c5.654 0 10.237 4.579 10.237 10.227" mask="url(#ug96nc4qad)"/>
                        <path fill="#A2C976" d="M28.382 15.118c0 5.6-4.543 10.14-10.149 10.14-5.604 0-10.148-4.54-10.148-10.14 0-5.6 4.544-10.14 10.148-10.14 5.606 0 10.15 4.54 10.15 10.14" mask="url(#ug96nc4qad)"/>
                        <path fill="#A3C977" d="M28.295 15.118c0 5.551-4.505 10.052-10.062 10.052-5.556 0-10.06-4.5-10.06-10.052s4.504-10.052 10.06-10.052c5.557 0 10.062 4.5 10.062 10.052" mask="url(#ug96nc4qad)"/>
                        <path fill="#A3CA78" d="M28.207 15.118c0 5.503-4.465 9.964-9.974 9.964-5.508 0-9.973-4.461-9.973-9.964 0-5.504 4.465-9.965 9.973-9.965 5.509 0 9.974 4.461 9.974 9.965" mask="url(#ug96nc4qad)"/>
                        <path fill="#A4CA79" d="M28.12 15.118c0 5.455-4.426 9.877-9.886 9.877-5.46 0-9.887-4.422-9.887-9.877 0-5.456 4.427-9.878 9.887-9.878 5.46 0 9.886 4.422 9.886 9.878" mask="url(#ug96nc4qad)"/>
                        <path fill="#A5CA7A" d="M28.032 15.118c0 5.407-4.387 9.79-9.798 9.79-5.412 0-9.8-4.383-9.8-9.79 0-5.407 4.388-9.79 9.8-9.79 5.411 0 9.798 4.383 9.798 9.79" mask="url(#ug96nc4qad)"/>
                        <path fill="#A5CB7B" d="M27.945 15.118c0 5.358-4.348 9.702-9.711 9.702-5.364 0-9.712-4.344-9.712-9.702 0-5.359 4.348-9.703 9.712-9.703 5.363 0 9.711 4.344 9.711 9.703" mask="url(#ug96nc4qad)"/>
                        <path fill="#A6CB7C" d="M27.857 15.118c0 5.31-4.308 9.615-9.623 9.615-5.316 0-9.624-4.305-9.624-9.615 0-5.31 4.308-9.615 9.624-9.615 5.315 0 9.623 4.304 9.623 9.615" mask="url(#ug96nc4qad)"/>
                        <path fill="#A7CC7D" d="M27.77 15.118c0 5.262-4.27 9.527-9.536 9.527-5.267 0-9.537-4.265-9.537-9.527s4.27-9.528 9.537-9.528c5.266 0 9.536 4.266 9.536 9.528" mask="url(#ug96nc4qad)"/>
                        <path fill="#A7CC7E" d="M27.682 15.118c0 5.213-4.23 9.44-9.448 9.44-5.219 0-9.45-4.227-9.45-9.44 0-5.214 4.231-9.44 9.45-9.44 5.218 0 9.448 4.226 9.448 9.44" mask="url(#ug96nc4qad)"/>
                        <path fill="#A8CC7F" d="M27.595 15.118c0 5.165-4.191 9.352-9.361 9.352-5.17 0-9.362-4.187-9.362-9.352 0-5.166 4.191-9.353 9.362-9.353 5.17 0 9.361 4.187 9.361 9.353" mask="url(#ug96nc4qad)"/>
                        <path fill="#A9CD80" d="M27.507 15.118c0 5.117-4.152 9.265-9.273 9.265-5.122 0-9.274-4.148-9.274-9.265 0-5.118 4.152-9.266 9.274-9.266 5.121 0 9.273 4.148 9.273 9.266" mask="url(#ug96nc4qad)"/>
                        <path fill="#A9CD81" d="M27.42 15.118c0 5.068-4.113 9.178-9.186 9.178-5.074 0-9.187-4.11-9.187-9.178 0-5.07 4.113-9.178 9.187-9.178 5.073 0 9.186 4.109 9.186 9.178" mask="url(#ug96nc4qad)"/>
                        <path fill="#AACE82" d="M27.332 15.118c0 5.02-4.073 9.09-9.098 9.09-5.026 0-9.1-4.07-9.1-9.09 0-5.021 4.074-9.09 9.1-9.09 5.025 0 9.098 4.069 9.098 9.09" mask="url(#ug96nc4qad)"/>
                        <path fill="#ABCE83" d="M27.245 15.118c0 4.972-4.035 9.003-9.011 9.003-4.977 0-9.012-4.031-9.012-9.003 0-4.973 4.035-9.004 9.012-9.004 4.976 0 9.011 4.031 9.011 9.004" mask="url(#ug96nc4qad)"/>
                        <path fill="#ACCF84" d="M27.158 15.118c0 4.924-3.996 8.915-8.924 8.915-4.929 0-8.924-3.991-8.924-8.915 0-4.924 3.995-8.916 8.924-8.916 4.928 0 8.924 3.992 8.924 8.916" mask="url(#ug96nc4qad)"/>
                        <path fill="#ACCF85" d="M27.07 15.118c0 4.876-3.956 8.828-8.836 8.828-4.88 0-8.837-3.952-8.837-8.828 0-4.876 3.956-8.829 8.837-8.829 4.88 0 8.836 3.953 8.836 8.829" mask="url(#ug96nc4qad)"/>
                        <path fill="#ADCF86" d="M26.983 15.118c0 4.827-3.917 8.74-8.75 8.74-4.831 0-8.748-3.913-8.748-8.74 0-4.828 3.917-8.741 8.749-8.741 4.832 0 8.749 3.913 8.749 8.74" mask="url(#ug96nc4qad)"/>
                        <path fill="#AED087" d="M26.895 15.118c0 4.779-3.878 8.653-8.662 8.653-4.783 0-8.661-3.874-8.661-8.653 0-4.78 3.878-8.654 8.661-8.654 4.784 0 8.662 3.874 8.662 8.654" mask="url(#ug96nc4qad)"/>
                        <path fill="#AED088" d="M26.808 15.118c0 4.73-3.84 8.566-8.575 8.566-4.735 0-8.573-3.835-8.573-8.566 0-4.731 3.838-8.567 8.573-8.567 4.736 0 8.575 3.836 8.575 8.567" mask="url(#ug96nc4qad)"/>
                        <path fill="#AFD189" d="M26.72 15.118c0 4.682-3.8 8.478-8.487 8.478-4.686 0-8.486-3.796-8.486-8.478 0-4.683 3.8-8.48 8.486-8.48 4.688 0 8.487 3.797 8.487 8.48" mask="url(#ug96nc4qad)"/>
                        <path fill="#B0D18A" d="M26.633 15.118c0 4.634-3.76 8.391-8.4 8.391-4.638 0-8.398-3.757-8.398-8.391 0-4.635 3.76-8.392 8.398-8.392 4.64 0 8.4 3.757 8.4 8.392" mask="url(#ug96nc4qad)"/>
                        <path fill="#B1D18C" d="M26.545 15.118c0 4.586-3.721 8.304-8.312 8.304-4.59 0-8.311-3.718-8.311-8.304 0-4.587 3.721-8.304 8.311-8.304s8.312 3.717 8.312 8.304" mask="url(#ug96nc4qad)"/>
                        <path fill="#B1D28D" d="M26.458 15.118c0 4.537-3.682 8.216-8.225 8.216-4.541 0-8.223-3.679-8.223-8.216 0-4.538 3.682-8.217 8.223-8.217 4.543 0 8.225 3.679 8.225 8.217" mask="url(#ug96nc4qad)"/>
                        <path fill="#B2D28E" d="M26.37 15.118c0 4.49-3.643 8.129-8.137 8.129-4.493 0-8.136-3.64-8.136-8.13 0-4.489 3.643-8.129 8.136-8.129 4.494 0 8.137 3.64 8.137 8.13" mask="url(#ug96nc4qad)"/>
                        <path fill="#B3D38F" d="M26.283 15.118c0 4.441-3.604 8.041-8.05 8.041-4.445 0-8.048-3.6-8.048-8.041 0-4.442 3.603-8.042 8.048-8.042 4.446 0 8.05 3.6 8.05 8.042" mask="url(#ug96nc4qad)"/>
                        <path fill="#B4D390" d="M26.195 15.118c0 4.393-3.564 7.954-7.962 7.954-4.396 0-7.961-3.561-7.961-7.954s3.565-7.955 7.961-7.955c4.398 0 7.962 3.562 7.962 7.955" mask="url(#ug96nc4qad)"/>
                        <path fill="#B4D491" d="M26.108 15.118c0 4.344-3.526 7.867-7.875 7.867-4.348 0-7.873-3.523-7.873-7.867 0-4.345 3.525-7.867 7.873-7.867 4.35 0 7.875 3.522 7.875 7.867" mask="url(#ug96nc4qad)"/>
                        <path fill="#B5D492" d="M26.02 15.118c0 4.296-3.486 7.779-7.787 7.779-4.3 0-7.786-3.483-7.786-7.78 0-4.296 3.486-7.779 7.786-7.779 4.301 0 7.787 3.483 7.787 7.78" mask="url(#ug96nc4qad)"/>
                        <path fill="#B6D493" d="M25.933 15.118c0 4.248-3.447 7.692-7.7 7.692-4.252 0-7.698-3.444-7.698-7.692s3.446-7.692 7.698-7.692c4.253 0 7.7 3.444 7.7 7.692" mask="url(#ug96nc4qad)"/>
                        <path fill="#B6D594" d="M25.845 15.118c0 4.2-3.408 7.604-7.612 7.604-4.203 0-7.611-3.404-7.611-7.604s3.408-7.605 7.611-7.605c4.204 0 7.612 3.405 7.612 7.605" mask="url(#ug96nc4qad)"/>
                        <path fill="#B7D595" d="M25.758 15.118c0 4.151-3.369 7.517-7.525 7.517-4.155 0-7.524-3.366-7.524-7.517 0-4.152 3.37-7.518 7.524-7.518 4.156 0 7.525 3.366 7.525 7.518" mask="url(#ug96nc4qad)"/>
                        <path fill="#B8D696" d="M25.67 15.118c0 4.103-3.33 7.43-7.437 7.43s-7.436-3.327-7.436-7.43c0-4.104 3.33-7.43 7.436-7.43 4.108 0 7.437 3.326 7.437 7.43" mask="url(#ug96nc4qad)"/>
                        <path fill="#B9D697" d="M25.583 15.118c0 4.055-3.29 7.342-7.35 7.342-4.058 0-7.349-3.287-7.349-7.342 0-4.056 3.29-7.343 7.35-7.343 4.058 0 7.349 3.287 7.349 7.343" mask="url(#ug96nc4qad)"/>
                        <path fill="#B9D799" d="M25.495 15.118c0 4.007-3.25 7.255-7.261 7.255s-7.262-3.248-7.262-7.255 3.251-7.255 7.262-7.255c4.01 0 7.261 3.248 7.261 7.255" mask="url(#ug96nc4qad)"/>
                        <path fill="#BAD79A" d="M25.408 15.118c0 3.958-3.212 7.167-7.174 7.167-3.963 0-7.175-3.209-7.175-7.167 0-3.959 3.212-7.168 7.175-7.168 3.962 0 7.174 3.209 7.174 7.168" mask="url(#ug96nc4qad)"/>
                        <path fill="#BBD79B" d="M25.32 15.118c0 3.91-3.173 7.08-7.086 7.08-3.914 0-7.087-3.17-7.087-7.08s3.173-7.08 7.087-7.08c3.913 0 7.086 3.17 7.086 7.08" mask="url(#ug96nc4qad)"/>
                        <path fill="#BCD89C" d="M25.233 15.118c0 3.862-3.134 6.992-7 6.992-3.865 0-6.999-3.13-6.999-6.992s3.134-6.993 7-6.993c3.865 0 6.999 3.13 6.999 6.993" mask="url(#ug96nc4qad)"/>
                        <path fill="#BDD89D" d="M25.145 15.118c0 3.813-3.094 6.905-6.911 6.905-3.818 0-6.912-3.092-6.912-6.905 0-3.814 3.094-6.906 6.912-6.906 3.817 0 6.911 3.092 6.911 6.906" mask="url(#ug96nc4qad)"/>
                        <path fill="#BDD99E" d="M25.058 15.118c0 3.765-3.056 6.818-6.824 6.818-3.77 0-6.825-3.053-6.825-6.818 0-3.766 3.056-6.818 6.825-6.818 3.768 0 6.824 3.052 6.824 6.818" mask="url(#ug96nc4qad)"/>
                        <path fill="#BED99F" d="M24.97 15.118c0 3.717-3.016 6.73-6.736 6.73-3.721 0-6.737-3.013-6.737-6.73 0-3.717 3.016-6.73 6.737-6.73 3.72 0 6.736 3.013 6.736 6.73" mask="url(#ug96nc4qad)"/>
                        <path fill="#BFDAA0" d="M24.883 15.118c0 3.668-2.977 6.643-6.65 6.643-3.672 0-6.649-2.975-6.649-6.643 0-3.67 2.977-6.644 6.65-6.644 3.672 0 6.649 2.975 6.649 6.644" mask="url(#ug96nc4qad)"/>
                        <path fill="#C0DAA2" d="M24.795 15.118c0 3.62-2.937 6.555-6.561 6.555s-6.562-2.935-6.562-6.555c0-3.621 2.938-6.556 6.562-6.556s6.561 2.935 6.561 6.556" mask="url(#ug96nc4qad)"/>
                        <path fill="#C0DBA3" d="M24.708 15.118c0 3.572-2.899 6.468-6.474 6.468-3.576 0-6.475-2.896-6.475-6.468 0-3.573 2.899-6.469 6.475-6.469 3.575 0 6.474 2.896 6.474 6.469" mask="url(#ug96nc4qad)"/>
                        <path fill="#C1DBA4" d="M24.62 15.118c0 3.524-2.859 6.38-6.386 6.38-3.528 0-6.387-2.856-6.387-6.38s2.86-6.381 6.387-6.381c3.527 0 6.386 2.857 6.386 6.38" mask="url(#ug96nc4qad)"/>
                        <path fill="#C2DCA5" d="M24.533 15.118c0 3.476-2.82 6.293-6.3 6.293-3.478 0-6.299-2.817-6.299-6.293s2.82-6.294 6.3-6.294c3.479 0 6.299 2.818 6.299 6.294" mask="url(#ug96nc4qad)"/>
                        <path fill="#C3DCA6" d="M24.445 15.118c0 3.427-2.78 6.206-6.211 6.206-3.431 0-6.212-2.779-6.212-6.206 0-3.428 2.78-6.206 6.212-6.206 3.43 0 6.211 2.778 6.211 6.206" mask="url(#ug96nc4qad)"/>
                        <path fill="#C4DCA7" d="M24.358 15.118c0 3.379-2.742 6.118-6.125 6.118-3.382 0-6.124-2.74-6.124-6.118 0-3.38 2.742-6.12 6.124-6.12 3.383 0 6.125 2.74 6.125 6.12" mask="url(#ug96nc4qad)"/>
                        <path fill="#C4DDA9" d="M24.27 15.118c0 3.33-2.702 6.03-6.037 6.03-3.333 0-6.036-2.7-6.036-6.03 0-3.331 2.703-6.032 6.036-6.032 3.335 0 6.037 2.7 6.037 6.032" mask="url(#ug96nc4qad)"/>
                        <path fill="#C5DDAA" d="M24.183 15.118c0 3.282-2.664 5.943-5.95 5.943-3.285 0-5.949-2.66-5.949-5.943 0-3.283 2.664-5.944 5.95-5.944 3.285 0 5.949 2.661 5.949 5.944" mask="url(#ug96nc4qad)"/>
                        <path fill="#C6DEAB" d="M24.095 15.118c0 3.234-2.624 5.856-5.862 5.856-3.237 0-5.861-2.622-5.861-5.856 0-3.235 2.624-5.857 5.861-5.857 3.238 0 5.862 2.622 5.862 5.857" mask="url(#ug96nc4qad)"/>
                        <path fill="#C7DEAC" d="M24.008 15.118c0 3.186-2.585 5.769-5.774 5.769-3.19 0-5.775-2.583-5.775-5.77 0-3.186 2.586-5.768 5.775-5.768 3.189 0 5.774 2.582 5.774 5.769" mask="url(#ug96nc4qad)"/>
                        <path fill="#C7DFAD" d="M23.92 15.118c0 3.137-2.546 5.681-5.686 5.681-3.141 0-5.687-2.544-5.687-5.681 0-3.138 2.546-5.682 5.687-5.682 3.14 0 5.686 2.544 5.686 5.682" mask="url(#ug96nc4qad)"/>
                        <path fill="#C8DFAE" d="M23.833 15.118c0 3.09-2.507 5.594-5.6 5.594-3.092 0-5.599-2.505-5.599-5.594 0-3.09 2.507-5.595 5.6-5.595 3.092 0 5.599 2.505 5.599 5.595" mask="url(#ug96nc4qad)"/>
                        <path fill="#C9E0B0" d="M23.745 15.118c0 3.041-2.467 5.506-5.511 5.506-3.045 0-5.512-2.465-5.512-5.506 0-3.042 2.467-5.507 5.512-5.507 3.044 0 5.511 2.465 5.511 5.507" mask="url(#ug96nc4qad)"/>
                        <path fill="#CAE0B1" d="M23.658 15.118c0 2.993-2.429 5.42-5.424 5.42-2.996 0-5.425-2.427-5.425-5.42s2.429-5.42 5.425-5.42c2.995 0 5.424 2.427 5.424 5.42" mask="url(#ug96nc4qad)"/>
                        <path fill="#CBE1B2" d="M23.57 15.118c0 2.944-2.389 5.332-5.336 5.332-2.948 0-5.337-2.388-5.337-5.332 0-2.945 2.389-5.332 5.337-5.332 2.947 0 5.336 2.387 5.336 5.332" mask="url(#ug96nc4qad)"/>
                        <path fill="#CCE1B3" d="M23.483 15.118c0 2.896-2.35 5.244-5.25 5.244-2.899 0-5.249-2.348-5.249-5.244 0-2.897 2.35-5.245 5.25-5.245 2.899 0 5.249 2.348 5.249 5.245" mask="url(#ug96nc4qad)"/>
                        <path fill="#CCE2B4" d="M23.395 15.118c0 2.848-2.31 5.157-5.161 5.157-2.851 0-5.162-2.309-5.162-5.157 0-2.849 2.31-5.158 5.162-5.158 2.85 0 5.161 2.31 5.161 5.158" mask="url(#ug96nc4qad)"/>
                        <path fill="#CDE2B6" d="M23.308 15.118c0 2.8-2.272 5.07-5.074 5.07-2.803 0-5.075-2.27-5.075-5.07 0-2.8 2.272-5.07 5.075-5.07 2.802 0 5.074 2.27 5.074 5.07" mask="url(#ug96nc4qad)"/>
                        <path fill="#CEE2B7" d="M23.22 15.118c0 2.751-2.232 4.982-4.986 4.982-2.755 0-4.987-2.23-4.987-4.982 0-2.752 2.232-4.983 4.987-4.983 2.754 0 4.986 2.231 4.986 4.983" mask="url(#ug96nc4qad)"/>
                        <path fill="#CFE3B8" d="M23.133 15.118c0 2.703-2.194 4.895-4.9 4.895-2.705 0-4.899-2.192-4.899-4.895 0-2.704 2.194-4.895 4.9-4.895 2.705 0 4.9 2.191 4.9 4.895" mask="url(#ug96nc4qad)"/>
                        <path fill="#D0E3B9" d="M23.046 15.118c0 2.655-2.155 4.807-4.812 4.807-2.658 0-4.812-2.152-4.812-4.807 0-2.656 2.154-4.808 4.812-4.808 2.657 0 4.812 2.152 4.812 4.808" mask="url(#ug96nc4qad)"/>
                        <path fill="#D0E4BA" d="M22.958 15.118c0 2.606-2.115 4.72-4.724 4.72-2.61 0-4.725-2.114-4.725-4.72 0-2.607 2.115-4.72 4.725-4.72 2.609 0 4.724 2.113 4.724 4.72" mask="url(#ug96nc4qad)"/>
                        <path fill="#D1E4BC" d="M22.87 15.118c0 2.558-2.075 4.632-4.636 4.632s-4.637-2.074-4.637-4.632c0-2.559 2.076-4.633 4.637-4.633 2.56 0 4.637 2.074 4.637 4.633" mask="url(#ug96nc4qad)"/>
                        <path fill="#D2E5BD" d="M22.783 15.118c0 2.51-2.037 4.545-4.55 4.545-2.512 0-4.549-2.035-4.549-4.545s2.037-4.546 4.55-4.546c2.512 0 4.55 2.035 4.55 4.546" mask="url(#ug96nc4qad)"/>
                        <path fill="#D3E5BE" d="M22.696 15.118c0 2.462-1.998 4.457-4.462 4.457-2.465 0-4.462-1.995-4.462-4.457 0-2.462 1.997-4.458 4.462-4.458 2.464 0 4.462 1.996 4.462 4.458" mask="url(#ug96nc4qad)"/>
                        <path fill="#D4E6BF" d="M22.608 15.118c0 2.413-1.958 4.37-4.374 4.37-2.416 0-4.375-1.957-4.375-4.37 0-2.414 1.959-4.371 4.375-4.371s4.374 1.957 4.374 4.37" mask="url(#ug96nc4qad)"/>
                        <path fill="#D5E6C1" d="M22.52 15.118c0 2.365-1.919 4.283-4.286 4.283-2.368 0-4.287-1.918-4.287-4.283 0-2.366 1.919-4.283 4.287-4.283 2.367 0 4.287 1.917 4.287 4.283" mask="url(#ug96nc4qad)"/>
                        <path fill="#D5E7C2" d="M22.433 15.118c0 2.317-1.88 4.195-4.2 4.195-2.319 0-4.199-1.878-4.199-4.195 0-2.318 1.88-4.196 4.2-4.196 2.319 0 4.2 1.878 4.2 4.196" mask="url(#ug96nc4qad)"/>
                        <path fill="#D6E7C3" d="M22.346 15.118c0 2.268-1.841 4.108-4.112 4.108s-4.112-1.84-4.112-4.108c0-2.27 1.84-4.109 4.112-4.109 2.27 0 4.112 1.84 4.112 4.109" mask="url(#ug96nc4qad)"/>
                        <path fill="#D7E8C4" d="M22.258 15.118c0 2.22-1.802 4.02-4.024 4.02-2.223 0-4.025-1.8-4.025-4.02 0-2.221 1.802-4.021 4.025-4.021 2.222 0 4.024 1.8 4.024 4.02" mask="url(#ug96nc4qad)"/>
                        <path fill="#D8E8C5" d="M22.17 15.118c0 2.172-1.762 3.933-3.936 3.933-2.175 0-3.937-1.761-3.937-3.933 0-2.173 1.762-3.934 3.937-3.934 2.174 0 3.937 1.761 3.937 3.934" mask="url(#ug96nc4qad)"/>
                        <path fill="#D9E9C7" d="M22.083 15.118c0 2.124-1.723 3.846-3.85 3.846-2.126 0-3.849-1.722-3.849-3.846s1.723-3.846 3.85-3.846c2.126 0 3.85 1.722 3.85 3.846" mask="url(#ug96nc4qad)"/>
                        <path fill="#DAE9C8" d="M21.996 15.118c0 2.076-1.685 3.758-3.762 3.758-2.078 0-3.763-1.682-3.763-3.758s1.685-3.759 3.763-3.759c2.077 0 3.762 1.683 3.762 3.759" mask="url(#ug96nc4qad)"/>
                        <path fill="#DAEAC9" d="M21.908 15.118c0 2.027-1.645 3.67-3.674 3.67-2.03 0-3.675-1.643-3.675-3.67 0-2.028 1.645-3.672 3.675-3.672s3.674 1.644 3.674 3.672" mask="url(#ug96nc4qad)"/>
                        <path fill="#DBEACA" d="M21.82 15.118c0 1.979-1.605 3.583-3.586 3.583-1.981 0-3.587-1.604-3.587-3.583 0-1.98 1.606-3.584 3.587-3.584 1.98 0 3.587 1.604 3.587 3.584" mask="url(#ug96nc4qad)"/>
                        <path fill="#DCEBCC" d="M21.733 15.118c0 1.93-1.567 3.496-3.5 3.496-1.932 0-3.499-1.565-3.499-3.496s1.567-3.497 3.5-3.497c1.932 0 3.5 1.566 3.5 3.497" mask="url(#ug96nc4qad)"/>
                        <path fill="#DDEBCD" d="M21.646 15.118c0 1.882-1.528 3.409-3.412 3.409-1.885 0-3.412-1.527-3.412-3.41 0-1.882 1.527-3.408 3.412-3.408 1.884 0 3.412 1.526 3.412 3.409" mask="url(#ug96nc4qad)"/>
                        <path fill="#DEECCE" d="M21.558 15.118c0 1.834-1.488 3.321-3.324 3.321-1.837 0-3.325-1.487-3.325-3.321 0-1.835 1.488-3.322 3.325-3.322 1.836 0 3.324 1.487 3.324 3.322" mask="url(#ug96nc4qad)"/>
                        <path fill="#DFECD0" d="M21.47 15.118c0 1.786-1.449 3.234-3.236 3.234-1.788 0-3.238-1.448-3.238-3.234 0-1.787 1.45-3.235 3.238-3.235 1.787 0 3.237 1.448 3.237 3.235" mask="url(#ug96nc4qad)"/>
                        <path fill="#E0EDD1" d="M21.383 15.118c0 1.737-1.41 3.146-3.15 3.146-1.739 0-3.149-1.409-3.149-3.146 0-1.738 1.41-3.147 3.15-3.147 1.739 0 3.15 1.409 3.15 3.147" mask="url(#ug96nc4qad)"/>
                        <path fill="#E0EDD2" d="M21.296 15.118c0 1.69-1.371 3.059-3.062 3.059-1.692 0-3.062-1.37-3.062-3.06 0-1.689 1.37-3.059 3.062-3.059 1.69 0 3.062 1.37 3.062 3.06" mask="url(#ug96nc4qad)"/>
                        <path fill="#E1EED3" d="M21.208 15.118c0 1.641-1.332 2.971-2.974 2.971-1.643 0-2.975-1.33-2.975-2.971 0-1.642 1.332-2.972 2.975-2.972 1.642 0 2.974 1.33 2.974 2.972" mask="url(#ug96nc4qad)"/>
                        <path fill="#E2EED5" d="M21.12 15.118c0 1.593-1.292 2.884-2.886 2.884-1.595 0-2.888-1.291-2.888-2.884s1.293-2.885 2.888-2.885c1.594 0 2.887 1.292 2.887 2.885" mask="url(#ug96nc4qad)"/>
                        <path fill="#E3EFD6" d="M21.033 15.118c0 1.544-1.253 2.797-2.8 2.797-1.546 0-2.799-1.253-2.799-2.797 0-1.545 1.253-2.797 2.8-2.797 1.546 0 2.8 1.252 2.8 2.797" mask="url(#ug96nc4qad)"/>
                        <path fill="#E4EFD7" d="M20.946 15.118c0 1.496-1.214 2.71-2.712 2.71-1.498 0-2.713-1.214-2.713-2.71 0-1.497 1.215-2.71 2.713-2.71s2.712 1.213 2.712 2.71" mask="url(#ug96nc4qad)"/>
                        <path fill="#E5F0D8" d="M20.858 15.118c0 1.448-1.175 2.622-2.624 2.622-1.45 0-2.625-1.174-2.625-2.622 0-1.449 1.175-2.623 2.625-2.623s2.624 1.174 2.624 2.623" mask="url(#ug96nc4qad)"/>
                        <path fill="#E6F0DA" d="M20.77 15.118c0 1.4-1.135 2.534-2.536 2.534-1.402 0-2.538-1.134-2.538-2.534s1.136-2.535 2.538-2.535c1.4 0 2.537 1.135 2.537 2.535" mask="url(#ug96nc4qad)"/>
                        <path fill="#E7F1DB" d="M20.683 15.118c0 1.351-1.097 2.447-2.45 2.447-1.352 0-2.45-1.096-2.45-2.447 0-1.352 1.098-2.448 2.45-2.448 1.353 0 2.45 1.096 2.45 2.448" mask="url(#ug96nc4qad)"/>
                        <path fill="#E7F1DC" d="M20.596 15.118c0 1.303-1.058 2.36-2.362 2.36-1.305 0-2.363-1.057-2.363-2.36 0-1.304 1.058-2.36 2.363-2.36 1.304 0 2.362 1.056 2.362 2.36" mask="url(#ug96nc4qad)"/>
                        <path fill="#E8F2DE" d="M20.508 15.118c0 1.255-1.018 2.272-2.274 2.272-1.257 0-2.275-1.017-2.275-2.272 0-1.256 1.018-2.273 2.275-2.273 1.256 0 2.274 1.017 2.274 2.273" mask="url(#ug96nc4qad)"/>
                        <path fill="#E9F2DF" d="M20.42 15.118c0 1.206-.978 2.185-2.186 2.185s-2.188-.979-2.188-2.185c0-1.207.98-2.186 2.188-2.186 1.208 0 2.187.979 2.187 2.186" mask="url(#ug96nc4qad)"/>
                        <path fill="#EAF3E0" d="M20.333 15.118c0 1.158-.94 2.098-2.1 2.098-1.16 0-2.1-.94-2.1-2.098 0-1.159.94-2.098 2.1-2.098 1.16 0 2.1.94 2.1 2.098" mask="url(#ug96nc4qad)"/>
                        <path fill="#EBF3E2" d="M20.246 15.118c0 1.11-.901 2.01-2.012 2.01-1.112 0-2.013-.9-2.013-2.01 0-1.11.901-2.01 2.013-2.01 1.11 0 2.012.9 2.012 2.01" mask="url(#ug96nc4qad)"/>
                        <path fill="#ECF4E3" d="M20.158 15.118c0 1.062-.861 1.923-1.924 1.923s-1.925-.861-1.925-1.923.862-1.923 1.925-1.923c1.063 0 1.924.86 1.924 1.923" mask="url(#ug96nc4qad)"/>
                        <path fill="#EDF4E4" d="M20.07 15.118c0 1.013-.822 1.835-1.836 1.835-1.015 0-1.838-.822-1.838-1.835 0-1.014.823-1.836 1.838-1.836 1.014 0 1.837.822 1.837 1.836" mask="url(#ug96nc4qad)"/>
                        <path fill="#EEF5E5" d="M19.983 15.118c0 .965-.783 1.748-1.75 1.748-.966 0-1.75-.783-1.75-1.748 0-.966.784-1.749 1.75-1.749.967 0 1.75.783 1.75 1.749" mask="url(#ug96nc4qad)"/>
                        <path fill="#EFF5E7" d="M19.896 15.118c0 .917-.744 1.66-1.662 1.66-.919 0-1.663-.743-1.663-1.66 0-.918.744-1.661 1.663-1.661.918 0 1.662.743 1.662 1.66" mask="url(#ug96nc4qad)"/>
                        <path fill="#EFF6E8" d="M19.808 15.118c0 .869-.705 1.573-1.574 1.573-.87 0-1.575-.704-1.575-1.573 0-.87.705-1.574 1.575-1.574s1.574.705 1.574 1.574" mask="url(#ug96nc4qad)"/>
                        <path fill="#F0F6E9" d="M19.72 15.118c0 .82-.665 1.486-1.486 1.486-.822 0-1.488-.666-1.488-1.486 0-.821.666-1.486 1.488-1.486.821 0 1.487.665 1.487 1.486" mask="url(#ug96nc4qad)"/>
                        <path fill="#F1F7EB" d="M19.633 15.118c0 .772-.626 1.398-1.4 1.398-.773 0-1.4-.626-1.4-1.398 0-.773.627-1.399 1.4-1.399.774 0 1.4.626 1.4 1.399" mask="url(#ug96nc4qad)"/>
                        <path fill="#F2F8EC" d="M19.546 15.118c0 .724-.588 1.31-1.312 1.31-.725 0-1.313-.586-1.313-1.31 0-.724.588-1.311 1.313-1.311.724 0 1.312.587 1.312 1.31" mask="url(#ug96nc4qad)"/>
                        <path fill="#F3F8ED" d="M19.458 15.118c0 .675-.548 1.223-1.224 1.223-.677 0-1.225-.548-1.225-1.223 0-.676.548-1.224 1.225-1.224.676 0 1.224.548 1.224 1.224" mask="url(#ug96nc4qad)"/>
                        <path fill="#F4F9EF" d="M19.371 15.118c0 .627-.51 1.136-1.137 1.136-.629 0-1.138-.509-1.138-1.136 0-.628.51-1.137 1.138-1.137.628 0 1.137.51 1.137 1.137" mask="url(#ug96nc4qad)"/>
                        <path fill="#F5F9F0" d="M19.283 15.118c0 .579-.47 1.049-1.05 1.049-.58 0-1.05-.47-1.05-1.05 0-.579.47-1.048 1.05-1.048.58 0 1.05.47 1.05 1.049" mask="url(#ug96nc4qad)"/>
                        <path fill="#F6FAF1" d="M19.196 15.118c0 .53-.43.961-.962.961s-.963-.43-.963-.961c0-.531.431-.962.963-.962.531 0 .962.43.962.962" mask="url(#ug96nc4qad)"/>
                        <path fill="#F7FAF3" d="M19.108 15.118c0 .482-.391.874-.874.874-.484 0-.875-.392-.875-.874 0-.483.391-.874.875-.874.483 0 .874.39.874.874" mask="url(#ug96nc4qad)"/>
                        <path fill="#F8FBF4" d="M19.021 15.118c0 .434-.353.786-.787.786-.435 0-.788-.352-.788-.786 0-.435.353-.787.788-.787.434 0 .787.352.787.787" mask="url(#ug96nc4qad)"/>
                        <path fill="#F9FBF5" d="M18.934 15.118c0 .386-.314.699-.7.699-.387 0-.7-.313-.7-.7 0-.386.313-.699.7-.699.386 0 .7.313.7.7" mask="url(#ug96nc4qad)"/>
                        <path fill="#F9FCF7" d="M18.846 15.118c0 .338-.274.611-.612.611-.339 0-.613-.273-.613-.611 0-.338.274-.612.613-.612.338 0 .612.274.612.612" mask="url(#ug96nc4qad)"/>
                        <path fill="#FAFCF8" d="M18.759 15.118c0 .29-.235.524-.525.524-.29 0-.525-.235-.525-.524 0-.29.235-.525.525-.525.29 0 .525.235.525.525" mask="url(#ug96nc4qad)"/>
                        <path fill="#FBFDFA" d="M18.671 15.118c0 .241-.196.437-.437.437-.242 0-.438-.196-.438-.437 0-.242.196-.437.438-.437.241 0 .437.195.437.437" mask="url(#ug96nc4qad)"/>
                        <path fill="#FCFDFB" d="M18.584 15.118c0 .193-.157.35-.35.35-.194 0-.35-.157-.35-.35 0-.193.156-.35.35-.35.193 0 .35.157.35.35" mask="url(#ug96nc4qad)"/>
                        <path fill="#FDFEFC" d="M18.496 15.118c0 .144-.118.262-.262.262-.145 0-.263-.118-.263-.262 0-.145.118-.263.263-.263.144 0 .262.118.262.263" mask="url(#ug96nc4qad)"/>
                        <path fill="#FEFEFE" d="M18.409 15.118c0 .096-.079.175-.175.175-.097 0-.175-.079-.175-.175 0-.097.078-.175.175-.175.096 0 .175.078.175.175" mask="url(#ug96nc4qad)"/>
                        <path fill="#FFF" d="M18.321 15.118c0 .048-.04.087-.087.087-.049 0-.088-.04-.088-.087 0-.049.04-.088.088-.088.048 0 .087.04.087.088" mask="url(#ug96nc4qad)"/>
                    </g>
                    <g transform="translate(-154 -33) translate(-2 33) translate(156) translate(170.458 .138)">
                        <mask id="ncnc0o3cwf" fill="#fff">
                            <use xlink:href="#eddae07goe"/>
                        </mask>
                        <path fill="#000" d="M3.178 2.7c.187 0 .344-.073.471-.218.133-.145.2-.32.2-.525 0-.187-.064-.35-.19-.488-.122-.133-.27-.2-.445-.2H1.783V2.7h1.395zm-1.712 2V.943H3.25c.26 0 .484.096.67.29.182.192.272.425.272.696 0 .241-.057.45-.172.624-.114.182-.26.287-.434.317.144.043.265.163.362.362.09.205.136.45.136.733 0 .181.009.332.027.453.018.126.045.22.081.28h-.344c-.042-.048-.07-.138-.081-.271l-.01-.543c0-.236-.057-.435-.171-.597-.11-.17-.245-.254-.408-.254H1.783V4.7h-.317zm3.044-.146c.44-.44.66-1.031.66-1.773s-.22-1.333-.66-1.774C4.075.561 3.492.337 2.76.337c-.73 0-1.313.224-1.748.67-.44.44-.661 1.032-.661 1.774s.22 1.333.661 1.773c.435.447 1.018.67 1.748.67.731 0 1.314-.223 1.749-.67zm-3.75.227c-.502-.501-.752-1.168-.752-2 0-.833.25-1.5.752-2C1.26.28 1.928.03 2.76.03c.834 0 1.5.25 2.002.75.501.502.752 1.168.752 2 0 .833-.25 1.5-.752 2-.501.501-1.168.752-2.002.752-.833 0-1.5-.25-2.001-.751z" mask="url(#ncnc0o3cwf)"/>
                    </g>
                </g>
            </g>
        </g>
    </g>
</svg>
