<svg xmlns="http://www.w3.org/2000/svg" width="75" height="40" viewBox="0 0 75 40">
    <g fill="none" fill-rule="evenodd">
        <g fill="#FFF" fill-rule="nonzero">
            <g>
                <path d="M37.372 0C16.732 0 0 8.955 0 20c0 11.047 16.733 20 37.372 20 20.64 0 37.373-8.953 37.373-20 0-11.045-16.733-20-37.373-20zm24.296 30.17c-5.079 2.718-11.546 4.469-18.61 5.08-1.105.096-2.225.164-3.356.201-.772.029-1.548.042-2.33.042-7.528 0-14.643-1.251-20.49-3.567-.915-.362-1.8-.752-2.65-1.166-.393-.192-.778-.39-1.156-.59C7.634 27.256 4.512 23.55 4.512 20c0-3.549 3.122-7.256 8.564-10.17 4.848-2.592 10.958-4.306 17.646-4.988 1.089-.113 2.193-.195 3.309-.251 1.102-.056 2.218-.084 3.341-.084 7.332 0 14.27 1.188 20.028 3.387.889.34 1.747.704 2.576 1.091.579.27 1.145.553 1.692.846 5.443 2.913 8.565 6.62 8.565 10.17s-3.122 7.255-8.565 10.168z" transform="translate(-141 -3565) translate(141 3565)"/>
                <path d="M59.976 8.985C55.254 17.15 46.687 29.904 43.06 35.25c-1.106.096-2.226.164-3.357.201 1.61-4.6 4.126-14.53-4.178-14.53-8.075 0-15.433 7.306-18.641 11.005-.916-.362-1.802-.752-2.651-1.166 6.52-12.416 13.402-21.89 16.49-25.918 1.089-.113 2.193-.196 3.309-.251-1.862 4.729-3.49 12.192 4.782 12.192 8.235 0 15.062-5.42 18.587-8.889.889.34 1.747.703 2.576 1.09z" transform="translate(-141 -3565) translate(141 3565)"/>
            </g>
        </g>
    </g>
</svg>
