<svg xmlns="http://www.w3.org/2000/svg" width="30" height="30" viewBox="0 0 30 30">
    <g fill="none" fill-rule="evenodd">
        <g fill="#62619A" fill-rule="nonzero">
            <g>
                <g>
                    <path d="M14.949 0C6.706 0 0 6.706 0 14.948c0 8.243 6.706 14.95 14.949 14.95 8.242 0 14.948-6.707 14.948-14.95C29.897 6.706 23.19 0 14.949 0zm0 27.754c-7.061 0-12.806-5.745-12.806-12.806 0-7.06 5.745-12.805 12.806-12.805 7.06 0 12.805 5.744 12.805 12.805S22.01 27.754 14.949 27.754z" transform="translate(-378 -3068) translate(117 2308) translate(261 760)"/>
                    <path d="M22.635 14.698H15.61V7.019c0-.592-.48-1.071-1.071-1.071-.592 0-1.072.48-1.072 1.071v8.75c0 .592.48 1.072 1.072 1.072h8.096c.592 0 1.071-.48 1.071-1.072 0-.591-.48-1.071-1.071-1.071z" transform="translate(-378 -3068) translate(117 2308) translate(261 760)"/>
                </g>
            </g>
        </g>
    </g>
</svg>
