<svg xmlns="http://www.w3.org/2000/svg" width="25" height="25" viewBox="0 0 25 25">
    <g fill="none" fill-rule="evenodd">
        <g>
            <g>
                <g transform="translate(-770 -46) translate(-2 33) translate(772 13)">
                    <g fill="#62619A" fill-rule="nonzero">
                        <path d="M11.407 1.767C10.267.627 8.752 0 7.14 0c-.264 0-.478.214-.478.478s.214.478.478.478c1.356 0 2.632.528 3.59 1.487.96.96 1.488 2.234 1.488 3.59 0 .265.214.479.478.479s.478-.214.478-.478c0-1.612-.628-3.127-1.767-4.267z" transform="translate(6.081 5.405)"/>
                        <path d="M9.44 6.034c0 .264.214.478.478.478s.478-.214.478-.478c0-1.795-1.46-3.256-3.256-3.256-.264 0-.478.214-.478.478s.214.478.478.478c1.268 0 2.3 1.032 2.3 2.3zM8.382 8.471c-.729-.038-1.1.504-1.278.765-.149.218-.093.515.125.664.218.15.515.093.664-.124.21-.308.306-.356.435-.35.414.048 2.044 1.243 2.207 1.616.04.11.04.218-.005.349-.17.508-.454.864-.819 1.032-.346.159-.771.144-1.229-.042-1.706-.696-3.198-1.666-4.432-2.886l-.001-.001c-1.217-1.233-2.186-2.722-2.88-4.426-.186-.458-.2-.883-.042-1.23.167-.364.524-.648 1.032-.818.131-.045.239-.046.348-.005.374.163 1.568 1.793 1.617 2.202.007.134-.042.23-.35.44-.218.148-.274.446-.125.664.15.218.447.274.665.125.26-.178.802-.548.764-1.28-.041-.763-1.527-2.786-2.237-3.047-.315-.118-.647-.12-.987-.006C1.09 2.371.538 2.83.258 3.44c-.272.593-.263 1.28.025 1.988.743 1.824 1.783 3.42 3.091 4.743l.01.01c1.323 1.305 2.916 2.343 4.738 3.086.365.148.724.222 1.067.222.324 0 .633-.065.92-.197.611-.28 1.07-.832 1.328-1.597.113-.338.112-.67-.005-.985-.262-.712-2.285-2.197-3.05-2.239z" transform="translate(6.081 5.405)"/>
                    </g>
                    <circle cx="12.5" cy="12.5" r="12" stroke="#62619A"/>
                </g>
            </g>
        </g>
    </g>
</svg>
