<svg xmlns="http://www.w3.org/2000/svg" width="30" height="30" viewBox="0 0 30 30">
    <g fill="none" fill-rule="evenodd">
        <g fill="#616098" fill-rule="nonzero">
            <g>
                <g>
                    <path d="M29.062 14.8c-1.004-.827-2.589-.898-3.63.22l-2.583 2.772c-.334-1.073-1.336-1.855-2.518-1.855h-4.61c-.35 0-.467-.133-1.074-.601-2.317-2.02-5.797-2.014-8.106.019l-1.695 1.492c-.761-.403-1.65-.413-2.417-.03l-1.943.97c-.434.218-.61.746-.393 1.18l5.273 10.546c.217.434.745.61 1.18.393l1.943-.972c.958-.478 1.49-1.456 1.456-2.45h10.386c1.926 0 3.766-.92 4.922-2.461l4.219-5.626c.818-1.09.689-2.69-.41-3.597zM7.702 27.362l-1.157.58-4.487-8.975 1.158-.579c.434-.217.961-.041 1.179.393l3.7 7.403c.217.434.042.961-.393 1.178zm20.364-10.02l-4.22 5.626c-.825 1.101-2.14 1.758-3.515 1.758h-11L6.04 18.139l1.663-1.465c1.655-1.456 4.151-1.456 5.806 0 .975.859 1.582 1.021 2.213 1.021h4.61c.485 0 .879.394.879.879 0 .484-.394.879-.879.879h-4.489c-.485 0-.878.394-.878.879s.393.878.878.878h5.078c.73 0 1.432-.305 1.93-.84l3.869-4.153c.353-.38.896-.348 1.229-.056.348.304.385.825.118 1.181zM18.48 5.998c.601-.63.972-1.484.972-2.423C19.452 1.64 17.89 0 15.937 0c-1.938 0-3.574 1.636-3.574 3.574 0 .91.357 1.77 1.005 2.43-1.607.901-2.763 2.63-2.763 4.66v.878c0 .485.394.879.879.879h8.847c.485 0 .879-.394.879-.879v-.879c0-1.988-1.094-3.745-2.73-4.666zm-2.543-4.24c.952 0 1.757.832 1.757 1.817 0 .969-.788 1.757-1.757 1.757-.985 0-1.816-.805-1.816-1.757 0-.968.848-1.816 1.816-1.816zm-3.574 8.906c0-1.937 1.636-3.574 3.574-3.574s3.515 1.603 3.515 3.574h-7.09z" transform="translate(-1073 -2638) translate(117 2308) translate(956 330)"/>
                </g>
            </g>
        </g>
    </g>
</svg>
