<?xml version="1.0" encoding="UTF-8"?>
<svg width="49px" height="17px" viewBox="0 0 49 17" version="1.1" xmlns="http://www.w3.org/2000/svg" xmlns:xlink="http://www.w3.org/1999/xlink">
    <!-- Generator: Sketch 63.1 (92452) - https://sketch.com -->
    <title>sedan-car-model copy</title>
    <desc>Created with Sketch.</desc>
    <g id="Page-1" stroke="none" stroke-width="1" fill="none" fill-rule="evenodd">
        <g id="5-Administrador-de-flotillas" transform="translate(-157.000000, -4172.000000)" fill="#FFFFFF" fill-rule="nonzero">
            <g id="sedan-car-model-copy" transform="translate(157.000000, 4172.000000)">
                <path d="M8.50023424,10 C6.56732503,10 5,11.5669613 5,13.5004687 C5,13.6495246 5.01218614,13.7962368 5.03093405,13.9401366 C5.24794107,15.6655283 6.71637089,17 8.49976555,17 C10.3314361,17 11.8331434,15.5919379 11.9854702,13.7985804 C11.993438,13.700616 12,13.6007768 12,13.5 C12.0004685,11.5669613 10.4336122,10 8.50023424,10 Z M6.74824233,12.1814651 L7.46160019,12.8953395 C7.40629387,12.9904915 7.36270498,13.0931432 7.33458312,13.2028258 L6.32875791,13.2028258 C6.38031466,12.8222178 6.52607963,12.4744208 6.74824233,12.1814651 Z M6.32407093,13.8088925 L7.33786401,13.8088925 C7.36645457,13.9167001 7.40863736,14.0188831 7.46488108,14.1126289 L6.74964842,14.8274407 C6.52795442,14.5368287 6.37890856,14.1890317 6.32407093,13.8088925 Z M8.19745555,15.6749029 C7.81827913,15.6219365 7.47378633,15.4733494 7.18225638,15.2535155 L7.89373945,14.541516 C7.98747899,14.5963573 8.09012378,14.636668 8.19745555,14.6647918 L8.19745555,15.6749029 Z M8.19745555,12.3361457 C8.08731159,12.3652069 7.9841981,12.40833 7.88811508,12.4650462 L7.17522591,11.7521093 C7.46816196,11.529463 7.81593564,11.382282 8.19745555,11.3293157 L8.19745555,12.3361457 Z M8.80348164,11.3283782 C9.18500155,11.3813446 9.53324392,11.529463 9.82571127,11.7516406 L9.1132908,12.4645775 C9.01767648,12.4078613 8.91362559,12.3647382 8.80395034,12.335677 L8.80348164,11.3283782 L8.80348164,11.3283782 Z M8.80348164,15.6739654 L8.80348164,14.6652605 C8.91128211,14.636668 9.0129895,14.596826 9.10672904,14.541516 L9.81868081,15.2535155 C9.52715085,15.4733494 9.18218936,15.6209991 8.80348164,15.6739654 Z M10.2526949,14.8307218 L9.53511871,14.1121602 C9.59136243,14.0179456 9.63682611,13.9171689 9.66541667,13.8093612 L10.6712419,13.8093612 C10.6178103,14.1880943 10.4748576,14.5387036 10.2526949,14.8307218 Z M9.66682276,13.2028258 C9.6382322,13.0931432 9.59511201,12.9904915 9.53980569,12.8953395 L10.2541009,12.1814651 C10.4748576,12.4744208 10.6206225,12.8222178 10.6731167,13.2032945 L9.66682276,13.2032945 L9.66682276,13.2028258 Z" id="Shape"></path>
                <path d="M39.5002339,10 C37.5673249,10 36,11.5669613 36,13.5004687 C36,13.6495246 36.0121861,13.7962368 36.030934,13.9401366 C36.247941,15.6655283 37.7163707,17 39.4992965,17 C41.3309669,17 42.8326741,15.5919379 42.9854695,13.7985804 C42.9934374,13.700616 43,13.6007768 43,13.5 C43.0009366,11.5669613 41.4336117,10 39.5002339,10 Z M37.7482422,12.1814651 L38.4611313,12.8953395 C38.405825,12.9904915 38.3622361,13.0931432 38.3341142,13.2028258 L37.3282891,13.2028258 C37.3803145,12.8222178 37.5260795,12.4744208 37.7482422,12.1814651 Z M37.3245395,13.8088925 L38.3383325,13.8088925 C38.3669231,13.9167001 38.4091058,14.0188831 38.4653496,14.1126289 L37.7505857,14.8274407 C37.5279543,14.5368287 37.3784397,14.1890317 37.3245395,13.8088925 Z M39.1974553,15.6749029 C38.8182789,15.6219365 38.4737861,15.4733494 38.1822562,15.2535155 L38.8937392,14.541516 C38.9874787,14.5963573 39.0901235,14.636668 39.1974553,14.6647918 L39.1974553,15.6749029 Z M39.1974553,12.3361457 C39.0873113,12.3652069 38.9841978,12.40833 38.8881148,12.4650462 L38.1752257,11.7521093 C38.4681617,11.529463 38.8154667,11.382282 39.1974553,11.3293157 L39.1974553,12.3361457 Z M39.80395,11.3283782 C40.1854699,11.3813446 40.5337122,11.529463 40.8261795,11.7516406 L40.1132904,12.4645775 C40.0176761,12.4078613 39.9136252,12.3638007 39.80395,12.335677 L39.80395,11.3283782 Z M39.80395,15.6739654 L39.80395,14.6652605 C39.9117505,14.636668 40.0134578,14.596826 40.1071974,14.541516 L40.8191491,15.2535155 C40.5276191,15.4733494 40.182189,15.6209991 39.80395,15.6739654 Z M41.2526944,14.8307218 L40.5351183,14.1130976 C40.591362,14.0184144 40.6372944,13.9181063 40.6654162,13.8098299 L41.6712414,13.8098299 C41.6178098,14.1880943 41.4753258,14.5387036 41.2526944,14.8307218 Z M40.6668223,13.2028258 C40.6382318,13.0931432 40.5955803,12.9904915 40.5398053,12.8953395 L41.2536318,12.1814651 C41.4748571,12.4744208 41.6201533,12.8222178 41.6731162,13.2032945 L40.6668223,13.2032945 L40.6668223,13.2028258 Z" id="Shape"></path>
                <path d="M48.1335455,8.1750275 L48.1335455,5.42272522 C48.1335455,4.97994623 47.8137001,4.60490395 47.3789878,4.53666917 C46.335777,4.37230801 44.4865164,4.06201407 43.6557107,3.80451493 C42.4644601,3.43495136 37.861856,1.47457102 36.2680756,1.10650164 C34.6738001,0.738432264 27.4856969,-1.22692872 20.6011003,1.1737403 C19.4360909,1.57966255 14.1952814,4.09986694 11.1136756,5.41027362 C10.2061268,5.43019618 1.22322589,7.31387465 0.744943232,8.60485682 C0.266660574,9.89633706 0.116640237,10.5229017 0.0285094785,10.8506279 C-0.0596212805,11.1783541 0.0285094785,12.746758 0.695926687,13.8390126 C1.37621693,14.2260084 2.6858004,14.4859978 4.19986703,14.6603203 C4.18253795,14.5671823 4.16372352,14.4755385 4.15184072,14.3814044 C4.12559954,14.1801865 4.11322162,13.9964008 4.11322162,13.8210823 C4.11322162,11.3581552 6.10458068,9.35394524 8.5534275,9.35394524 C11.0022743,9.35394524 12.9936334,11.3576572 12.9936334,13.8210823 C12.9936334,13.9475905 12.9852164,14.0731027 12.9758092,14.1966226 C12.9525387,14.4730482 12.903027,14.7415047 12.8312351,15 C12.8347009,15 12.8431179,15 12.8431179,15 L34.8837295,14.5537346 C34.8738272,14.4964572 34.8609542,14.4396779 34.8535274,14.3814044 C34.8272862,14.1811826 34.8149083,13.9968989 34.8149083,13.8210823 C34.8149083,11.3581552 36.8062674,9.35444331 39.2551142,9.35444331 C41.703961,9.35444331 43.6958152,11.3576572 43.6958152,13.8210823 C43.6958152,13.8305455 43.694825,13.8385145 43.6943298,13.8474796 L43.788402,13.8395106 L47.5567346,13.1257848 C47.5567346,13.1257848 49,12.3527893 49,10.2260555 C49.0004947,8.80756892 48.1335455,8.1750275 48.1335455,8.1750275 Z M26.2696905,5.56566962 L18.0383767,5.81918425 C18.1898823,4.57850655 17.4595853,4.30008872 17.4595853,4.30008872 C20.7318111,1.31220212 27.3267645,1.2110951 27.3267645,1.2110951 L26.2696905,5.56566962 Z M35.5075765,5.18664283 L28.0065596,5.44015747 L28.6863548,1.21159317 C32.5631179,1.16079063 34.7777746,2.02144541 34.7777746,2.02144541 L35.8853505,3.81945685 L35.5075765,5.18664283 Z M39.7363676,5.1607435 L37.6464803,5.1607435 L35.5570881,2.27446198 C37.1246274,2.90202276 38.3792529,3.52061838 39.1263839,3.91159871 C39.5799107,4.14867723 39.827469,4.65520843 39.7363676,5.1607435 Z" id="Shape"></path>
            </g>
        </g>
    </g>
</svg>