<svg xmlns="http://www.w3.org/2000/svg" width="30" height="30" viewBox="0 0 30 30">
    <g fill="none" fill-rule="evenodd">
        <g>
            <g>
                <g>
                    <path fill="#62619A" fill-rule="nonzero" d="M28.177 16.089c-1.107-.375-2.281-.017-2.991.911l-3.274 4.28.002-.07c0-1.614-1.314-2.929-2.93-2.929H13.17c-1.854-1.577-4.474-1.857-6.607-.753v-.126c0-.485-.394-.879-.88-.879H.88c-.485 0-.879.394-.879.88V29.12c0 .485.394.879.879.879h4.805c.485 0 .878-.394.878-.879v-.879H20.97c2.103 0 4.037-1.056 5.175-2.825l3.43-5.336c.279-.433.426-.935.426-1.45 0-1.17-.715-2.167-1.823-2.542zM4.805 28.242H1.758v-9.96h3.047v9.96zm23.29-9.111l-3.43 5.335c-.812 1.264-2.194 2.018-3.696 2.018H6.562v-6.872l.294-.21c1.65-1.177 3.906-1.013 5.367.392.164.157.382.245.609.245h6.152c.647 0 1.172.526 1.172 1.172 0 .646-.525 1.172-1.172 1.172h-6.269c-.486 0-.88.393-.88.879 0 .485.394.879.88.879H19.767c1.36 0 2.664-.645 3.49-1.725l3.325-4.348c.374-.489.884-.364 1.032-.314.147.05.628.26.628.876 0 .178-.05.351-.147.5zM17.402 14.648c4.039 0 7.325-3.285 7.325-7.324C24.727 3.286 21.44 0 17.402 0c-4.038 0-7.324 3.286-7.324 7.324 0 4.039 3.286 7.324 7.324 7.324zm0-12.89c3.07 0 5.567 2.497 5.567 5.566 0 3.07-2.497 5.567-5.567 5.567-3.069 0-5.566-2.497-5.566-5.567 0-3.07 2.497-5.566 5.566-5.566z" transform="translate(-1073 -3068) translate(117 2308) translate(956 760)"/>
                    <path stroke="#62619A" d="M15 7.324L16.697 9.388 19.281 5.035" transform="translate(-1073 -3068) translate(117 2308) translate(956 760)"/>
                </g>
            </g>
        </g>
    </g>
</svg>
