<svg xmlns="http://www.w3.org/2000/svg" width="25" height="25" viewBox="0 0 25 25">
    <g fill="none" fill-rule="evenodd">
        <g>
            <g>
                <g>
                    <g>
                        <g transform="translate(-1108 -5192) translate(-179 4629) translate(168 432) translate(318 131) translate(801)">
                            <circle cx="12.5" cy="12.5" r="12" stroke="#62619A"/>
                            <g fill="#62619A" fill-rule="nonzero">
                                <path d="M12.308 1.184c-.458.2-.946.334-1.454.398.523-.312.922-.803 1.11-1.394-.488.29-1.026.496-1.6.61C9.9.305 9.24 0 8.52 0 7.124 0 5.999 1.134 5.999 2.524c0 .2.017.392.059.575C3.96 2.997 2.104 1.992.857.46.639.838.512 1.27.512 1.735c0 .874.45 1.649 1.12 2.097-.405-.007-.803-.125-1.14-.31v.027c0 1.226.875 2.245 2.022 2.48-.206.056-.43.083-.662.083-.161 0-.324-.01-.477-.044.327 1 1.254 1.734 2.357 1.758-.858.672-1.948 1.076-3.128 1.076-.207 0-.406-.009-.604-.034C1.118 9.588 2.442 10 3.87 10c4.644 0 7.182-3.846 7.182-7.18 0-.112-.004-.22-.009-.326.5-.356.922-.8 1.265-1.31z" transform="translate(6 8)"/>
                            </g>
                        </g>
                    </g>
                </g>
            </g>
        </g>
    </g>
</svg>
