<svg xmlns="http://www.w3.org/2000/svg" width="25" height="25" viewBox="0 0 25 25">
    <g fill="none" fill-rule="evenodd">
        <g>
            <g transform="translate(-1153 -626) translate(1153 626)">
                <circle cx="12.5" cy="12.5" r="12" stroke="#FFF"/>
                <g fill="#FFF" fill-rule="nonzero">
                    <path d="M6.713.003L5.043 0c-1.877 0-3.09 1.244-3.09 3.17v1.462H.273c-.145 0-.263.118-.263.263v2.118c0 .145.118.263.263.263h1.68v5.344c0 .145.117.262.262.262h2.192c.145 0 .263-.117.263-.262V7.276h1.963c.146 0 .263-.118.263-.263l.001-2.118c0-.07-.028-.136-.077-.186-.05-.05-.116-.077-.186-.077H4.67V3.393c0-.596.141-.898.917-.898h1.126c.145 0 .262-.118.262-.263V.265c0-.145-.117-.262-.262-.262z" transform="translate(9 6)"/>
                </g>
            </g>
        </g>
    </g>
</svg>
