<svg xmlns="http://www.w3.org/2000/svg" width="17" height="14" viewBox="0 0 17 14">
    <g fill="none" fill-rule="evenodd">
        <g fill="#FFF" fill-rule="nonzero">
            <path d="M1378.978 3584.854c-.07-.01-.14-.016-.21-.015h-11.993l.261-.117c.256-.116.488-.274.687-.467l3.364-3.23c.443-.405.517-1.059.176-1.547-.397-.52-1.158-.633-1.7-.252-.044.03-.085.064-.125.1l-6.081 5.84c-.476.456-.476 1.196-.001 1.652v.001l6.082 5.84c.476.456 1.246.455 1.72-.002.038-.036.073-.074.105-.115.341-.488.267-1.141-.176-1.547l-3.358-3.236c-.178-.171-.383-.315-.608-.426l-.365-.158h11.945c.621.022 1.166-.394 1.283-.98.108-.638-.343-1.238-1.006-1.34z" transform="translate(-1363 -3579) matrix(-1 0 0 1 2743 0)"/>
        </g>
    </g>
</svg>
