<svg xmlns="http://www.w3.org/2000/svg" width="31" height="30" viewBox="0 0 31 30">
    <g fill="none" fill-rule="evenodd">
        <g fill="#62619A" fill-rule="nonzero">
            <g>
                <g>
                    <path d="M15.484 7.159c-4.47 0-8.106 3.634-8.106 8.1 0 2.542 1.185 4.916 3.194 6.446v1.492c0 .844.356 1.605.926 2.144v2.463c0 1.194.971 2.166 2.165 2.166h3.641c1.195 0 2.166-.972 2.166-2.166v-2.463c.57-.539.926-1.3.926-2.144v-1.492c2.009-1.53 3.194-3.904 3.194-6.445 0-4.467-3.636-8.101-8.106-8.101zm2.171 20.645c0 .194-.157.351-.35.351h-3.642c-.193 0-.35-.157-.35-.35v-1.663c.07.005.142.009.214.009h3.914c.072 0 .143-.004.214-.01v1.663zm1.328-7.32c-.251.17-.402.452-.402.755v1.958c0 .628-.512 1.139-1.14 1.139h-1.05V17.42c1.257-.388 2.174-1.56 2.174-2.942 0-.501-.407-.908-.908-.908-.5 0-.907.407-.907.908 0 .697-.568 1.264-1.266 1.264-.698 0-1.266-.567-1.266-1.264 0-.501-.407-.908-.908-.908-.5 0-.907.407-.907.908 0 1.382.916 2.554 2.174 2.942v6.916h-1.05c-.629 0-1.14-.511-1.14-1.139v-1.959c0-.302-.151-.585-.402-.753-1.749-1.172-2.793-3.125-2.793-5.225 0-3.466 2.823-6.287 6.292-6.287 3.47 0 6.292 2.82 6.292 6.287 0 2.1-1.044 4.053-2.793 5.225zM3.903 14.707H.907c-.5 0-.907.406-.907.907s.406.908.907.908h2.996c.5 0 .907-.407.907-.908 0-.5-.406-.907-.907-.907zM7.857 6.757L5.74 4.64c-.354-.354-.929-.354-1.283 0-.354.355-.354.93 0 1.284L6.576 8.04c.177.177.409.266.641.266.232 0 .465-.089.642-.266.354-.354.354-.929 0-1.283zM15.373 4.838c.5 0 .907-.407.907-.908V.937c0-.5-.406-.907-.907-.907-.502 0-.908.406-.908.907V3.93c0 .501.406.908.908.908zM26.354 4.484c-.354-.355-.928-.355-1.283 0L22.953 6.6c-.354.354-.355.928 0 1.283.177.177.409.266.641.266.232 0 .464-.089.642-.266l2.118-2.116c.354-.355.354-.929 0-1.283zM30.06 14.485h-2.995c-.5 0-.907.406-.907.907 0 .5.406.907.907.907h2.995c.502 0 .908-.406.908-.907s-.406-.907-.908-.907z" transform="translate(-240 -2853) translate(117 2308) translate(123 545)"/>
                </g>
            </g>
        </g>
    </g>
</svg>
