<svg xmlns="http://www.w3.org/2000/svg" width="46" height="40" viewBox="0 0 46 40">
    <g fill="none" fill-rule="evenodd">
        <g fill="#FFF" fill-rule="nonzero">
            <g>
                <path d="M30.398 12.745L23.173 24.92c-.144.243-.496.243-.64 0l-7.217-12.175c-.07-.117-.07-.263 0-.38L22.533.183c.144-.243.496-.243.64 0l7.225 12.183c.07.117.07.263 0 .38zM14.53 40L.373 39.97c-.282 0-.461-.303-.326-.55l6.795-12.44c.065-.12.19-.195.327-.195l14.162.018c.282 0 .461.303.326.55l-6.798 12.452c-.065.12-.19.194-.327.194zM45.342 39.971l-2.328.005-11.83.024c-.137 0-.263-.074-.328-.194L24.06 27.354c-.136-.247.043-.55.325-.55l11.88-.015 2.282-.003c.136 0 .262.074.327.194l6.795 12.44c.135.249-.043.55-.326.551z" transform="translate(-383 -3565) translate(383 3565)"/>
            </g>
        </g>
    </g>
</svg>
