<svg xmlns="http://www.w3.org/2000/svg" width="44" height="40" viewBox="0 0 44 40">
    <g fill="none" fill-rule="evenodd">
        <g fill-rule="nonzero">
            <g>
                <path fill="#FFF" d="M21.974.083C10.974.083 2.057 9 2.057 20c0 11 8.918 19.917 19.917 19.917 11 0 19.916-8.918 19.916-19.917C41.89 9 32.974.083 21.974.083zm0 35.408c-8.556 0-15.49-6.936-15.49-15.491s6.935-15.49 15.49-15.49 15.49 6.935 15.49 15.49-6.935 15.49-15.49 15.49z" transform="translate(-595 -3565) translate(595 3565)"/>
                <path fill="#FFF" d="M43.605 25.923H.344c-.19 0-.344-.154-.344-.344V14.42c0-.189.154-.343.344-.343h43.26c.19 0 .345.154.345.344v11.16c0 .19-.154.343-.344.343z" transform="translate(-595 -3565) translate(595 3565)"/>
                <g fill="#7EB441">
                    <path d="M5.602.012c-.355 0-.644.29-.644.645v4.65L1.178.27C1.014.048.724-.042.46.046.198.133.02.38.02.658v6.581c0 .356.289.645.644.645.356 0 .644-.289.644-.645V2.59l3.78 5.038c.124.165.316.257.514.257.068 0 .137-.01.204-.033.263-.088.44-.334.44-.612V.657c0-.356-.288-.645-.644-.645zM37.962.012c-.355 0-.644.29-.644.645v4.65L33.538.27c-.165-.222-.455-.312-.718-.224-.262.087-.44.334-.44.612v6.581c0 .356.289.645.644.645.356 0 .644-.289.644-.645V2.59l3.78 5.038c.124.165.316.257.514.257.068 0 .137-.01.204-.033.263-.088.44-.334.44-.612V.657c0-.356-.288-.645-.644-.645zM8.442.012c-.355 0-.644.29-.644.645V7.24c0 .356.289.645.644.645.356 0 .644-.289.644-.645V.657c0-.356-.288-.645-.644-.645zM12.94 1.303h3.295c.356 0 .644-.29.644-.645 0-.357-.288-.646-.644-.646H12.94c-1.26 0-2.285 1.028-2.285 2.29 0 1.264 1.025 2.291 2.285 2.291h1.654c.55 0 .998.45.998 1 0 .552-.447 1-.998 1h-3.296c-.355 0-.643.29-.643.646 0 .356.288.645.643.645h3.296c1.26 0 2.286-1.027 2.286-2.29 0-1.263-1.025-2.29-2.286-2.29H12.94c-.55 0-.998-.45-.998-1.001 0-.552.448-1 .998-1zM20.208 1.303h3.296c.356 0 .644-.29.644-.645 0-.357-.288-.646-.644-.646h-3.296c-1.26 0-2.285 1.028-2.285 2.29 0 1.264 1.025 2.291 2.285 2.291h1.654c.55 0 .998.45.998 1 0 .552-.447 1-.998 1h-3.296c-.355 0-.643.29-.643.646 0 .356.288.645.643.645h3.296c1.26 0 2.286-1.027 2.286-2.29 0-1.263-1.025-2.29-2.286-2.29h-1.654c-.55 0-.998-.45-.998-1.001 0-.552.448-1 .998-1zM28.304.012c-1.716 0-3.112 1.4-3.112 3.12v4.107c0 .356.288.645.644.645.355 0 .643-.289.643-.645V4.593h3.65V7.24c0 .356.289.645.644.645.356 0 .644-.289.644-.645V3.132c0-1.72-1.396-3.12-3.113-3.12zM26.48 3.303v-.171c0-1.009.819-1.83 1.825-1.83 1.007 0 1.826.821 1.826 1.83v.171h-3.65z" transform="translate(-595 -3565) translate(595 3565) translate(2.66 16.052)"/>
                </g>
            </g>
        </g>
    </g>
</svg>
