<svg xmlns="http://www.w3.org/2000/svg" width="25" height="25" viewBox="0 0 25 25">
    <g fill="none" fill-rule="evenodd">
        <g fill="#FFF" fill-rule="nonzero">
            <g>
                <path d="M24.984 16.304l-.005-.018c-.01-.03-.025-.058-.044-.084l-.002-.005-3.91-5.266c-.064-.086-.166-.138-.274-.138H4.25c-.108 0-.21.052-.274.138l-3.91 5.266-.002.005c-.019.026-.033.054-.044.084l-.005.019c-.01.031-.016.064-.016.096v1.358c0 .62.503 1.122 1.123 1.123h9.375v2.113H9.265c-.08 0-.16.029-.22.081l-1.956 1.66c-.076.065-.12.16-.12.26v1.661c0 .189.153.342.342.342h10.378c.189 0 .342-.153.342-.342v-1.66c0-.1-.044-.196-.12-.26l-1.955-1.66c-.062-.053-.14-.082-.222-.082h-1.232V18.88h9.375c.62 0 1.122-.503 1.123-1.123v-1.357c0-.033-.006-.065-.016-.097zM6.95 16.06l.933-2.236h4.231v2.236H6.95zm-5.929 0l1.66-2.236h4.461l-.933 2.236H1.021zm11.094-4.582v1.662H8.168l.693-1.662h3.254zm3.936 0l.694 1.662h-3.946v-1.662h3.252zm-3.253 2.346h4.231l.933 2.236h-5.164v-2.236zm5.905 2.236l-.933-2.236h4.548l1.66 2.236h-5.275zm3.108-2.92h-4.326l-.694-1.662h3.786l1.234 1.662zM4.423 11.477h3.698l-.694 1.662H3.19l1.234-1.662zm12.924 11.678v1.161H7.653v-1.16l1.738-1.478h6.218l1.738 1.477zm-3.529-2.16h-2.636V18.88h2.636v2.114zm10.059-2.797H1.123c-.243 0-.44-.197-.44-.44v-1.015h23.633v1.015c0 .243-.196.44-.439.44zM12.5 7.137c1.235 0 2.236-1.001 2.236-2.236 0-1.235-1.001-2.236-2.236-2.236-1.235 0-2.236 1.001-2.236 2.236.002 1.234 1.002 2.234 2.236 2.236zm0-3.788c.857 0 1.552.695 1.552 1.552 0 .857-.695 1.552-1.552 1.552-.857 0-1.552-.695-1.552-1.552 0-.857.695-1.551 1.552-1.552zM12.456 1.88c.189 0 .342-.153.342-.342V.342c0-.189-.153-.342-.342-.342-.189 0-.342.153-.342.342v1.196c0 .189.153.342.342.342zM12.114 8.264V9.46c0 .19.153.342.342.342.189 0 .342-.153.342-.342V8.264c0-.189-.153-.342-.342-.342-.189 0-.342.153-.342.342zM14.834 2.865c.09 0 .177-.036.241-.1l.846-.846c.128-.135.125-.346-.006-.477s-.343-.134-.477-.006l-.846.845c-.097.098-.127.245-.074.373.053.127.178.21.316.21zM9.836 7.037l-.846.846c-.133.134-.133.35 0 .484.134.133.35.133.484 0l.846-.846c.133-.134.133-.35 0-.484-.134-.133-.35-.133-.484 0zM15.477 4.901c0 .189.153.342.342.342h1.196c.189 0 .342-.153.342-.342 0-.189-.153-.342-.342-.342H15.82c-.189 0-.342.153-.342.342zM7.897 5.243h1.196c.189 0 .342-.153.342-.342 0-.189-.153-.342-.342-.342H7.897c-.19 0-.342.153-.342.342 0 .189.153.342.342.342zM14.592 7.037c-.064.064-.1.151-.1.242 0 .09.036.178.1.242l.846.846c.134.133.35.133.483 0 .134-.134.134-.35 0-.484l-.845-.846c-.064-.064-.151-.1-.242-.1-.09 0-.178.036-.242.1zM9.836 2.765c.134.133.35.133.484 0 .133-.134.133-.35 0-.484l-.846-.845c-.134-.134-.35-.134-.484 0-.133.133-.133.35 0 .483l.846.846z" transform="translate(-1011 -773) translate(1011 773)"/>
            </g>
        </g>
    </g>
</svg>
